{
	"patcher" : 	{
		"fileversion" : 1,
		"appversion" : 		{
			"major" : 7,
			"minor" : 3,
			"revision" : 4,
			"architecture" : "x86",
			"modernui" : 1
		}
,
		"rect" : [ 34.0, 79.0, 1332.0, 740.0 ],
		"bglocked" : 0,
		"openinpresentation" : 0,
		"default_fontsize" : 12.0,
		"default_fontface" : 0,
		"default_fontname" : "Arial",
		"gridonopen" : 1,
		"gridsize" : [ 15.0, 15.0 ],
		"gridsnaponopen" : 1,
		"objectsnaponopen" : 1,
		"statusbarvisible" : 2,
		"toolbarvisible" : 1,
		"lefttoolbarpinned" : 0,
		"toptoolbarpinned" : 0,
		"righttoolbarpinned" : 0,
		"bottomtoolbarpinned" : 0,
		"toolbars_unpinned_last_save" : 0,
		"tallnewobj" : 0,
		"boxanimatetime" : 200,
		"enablehscroll" : 1,
		"enablevscroll" : 1,
		"devicewidth" : 0.0,
		"description" : "",
		"digest" : "",
		"tags" : "",
		"style" : "",
		"subpatcher_template" : "",
		"boxes" : [ 			{
				"box" : 				{
					"id" : "obj-48",
					"maxclass" : "message",
					"numinlets" : 2,
					"numoutlets" : 1,
					"outlettype" : [ "" ],
					"patching_rect" : [ 384.0, 164.0, 50.0, 22.0 ],
					"style" : "",
					"text" : "50. 50."
				}

			}
, 			{
				"box" : 				{
					"id" : "obj-46",
					"linecount" : 2,
					"maxclass" : "message",
					"numinlets" : 2,
					"numoutlets" : 1,
					"outlettype" : [ "" ],
					"patching_rect" : [ 317.75, 202.0, 50.0, 35.0 ],
					"style" : "",
					"text" : "381.814056"
				}

			}
, 			{
				"box" : 				{
					"id" : "obj-43",
					"linecount" : 2,
					"maxclass" : "message",
					"numinlets" : 2,
					"numoutlets" : 1,
					"outlettype" : [ "" ],
					"patching_rect" : [ 256.0, 236.0, 50.0, 35.0 ],
					"style" : "",
					"text" : "481.814056"
				}

			}
, 			{
				"box" : 				{
					"id" : "obj-36",
					"maxclass" : "message",
					"numinlets" : 2,
					"numoutlets" : 1,
					"outlettype" : [ "" ],
					"patching_rect" : [ 245.5, 290.0, 145.75, 22.0 ],
					"style" : "",
					"text" : "50. 50. 381.814056"
				}

			}
, 			{
				"box" : 				{
					"id" : "obj-19",
					"maxclass" : "meter~",
					"numinlets" : 1,
					"numoutlets" : 1,
					"outlettype" : [ "float" ],
					"patching_rect" : [ 33.0, 148.0, 80.0, 13.0 ],
					"style" : ""
				}

			}
, 			{
				"box" : 				{
					"id" : "obj-14",
					"maxclass" : "newobj",
					"numinlets" : 2,
					"numoutlets" : 1,
					"outlettype" : [ "signal" ],
					"patching_rect" : [ 28.5, 745.5, 36.0, 22.0 ],
					"style" : "",
					"text" : "*~ 1."
				}

			}
, 			{
				"box" : 				{
					"id" : "obj-12",
					"linecount" : 2,
					"maxclass" : "comment",
					"numinlets" : 1,
					"numoutlets" : 0,
					"patching_rect" : [ 775.0, 734.5, 117.0, 33.0 ],
					"style" : "",
					"text" : "all repetitions done playing"
				}

			}
, 			{
				"box" : 				{
					"comment" : "num repetition",
					"id" : "obj-8",
					"index" : 3,
					"maxclass" : "outlet",
					"numinlets" : 1,
					"numoutlets" : 0,
					"patching_rect" : [ 762.0, 779.0, 30.0, 30.0 ],
					"style" : ""
				}

			}
, 			{
				"box" : 				{
					"id" : "obj-50",
					"maxclass" : "newobj",
					"numinlets" : 2,
					"numoutlets" : 1,
					"outlettype" : [ "float" ],
					"patching_rect" : [ 613.0, 280.0, 29.5, 22.0 ],
					"style" : "",
					"text" : "- 1."
				}

			}
, 			{
				"box" : 				{
					"id" : "obj-42",
					"maxclass" : "newobj",
					"numinlets" : 3,
					"numoutlets" : 1,
					"outlettype" : [ "" ],
					"patching_rect" : [ 820.5, 316.0, 75.0, 22.0 ],
					"style" : "",
					"text" : "clip 0. 1000."
				}

			}
, 			{
				"box" : 				{
					"id" : "obj-41",
					"maxclass" : "newobj",
					"numinlets" : 1,
					"numoutlets" : 1,
					"outlettype" : [ "float" ],
					"patching_rect" : [ 899.5, 325.0, 43.0, 22.0 ],
					"style" : "",
					"text" : "abs 0."
				}

			}
, 			{
				"box" : 				{
					"id" : "obj-35",
					"maxclass" : "newobj",
					"numinlets" : 2,
					"numoutlets" : 1,
					"outlettype" : [ "float" ],
					"patching_rect" : [ 899.5, 285.0, 58.5, 22.0 ],
					"style" : "",
					"text" : "- 0."
				}

			}
, 			{
				"box" : 				{
					"id" : "obj-28",
					"maxclass" : "message",
					"numinlets" : 2,
					"numoutlets" : 1,
					"outlettype" : [ "" ],
					"patching_rect" : [ 1002.0, 518.5, 131.0, 22.0 ],
					"style" : "",
					"text" : "0."
				}

			}
, 			{
				"box" : 				{
					"id" : "obj-21",
					"maxclass" : "newobj",
					"numinlets" : 5,
					"numoutlets" : 5,
					"outlettype" : [ "", "", "", "", "" ],
					"patching_rect" : [ 1033.0, 109.0, 135.0, 22.0 ],
					"style" : "",
					"text" : "route ad repL rep bleed"
				}

			}
, 			{
				"box" : 				{
					"id" : "obj-1",
					"linecount" : 2,
					"maxclass" : "newobj",
					"numinlets" : 1,
					"numoutlets" : 2,
					"outlettype" : [ "", "" ],
					"patching_rect" : [ 1033.0, 53.5, 258.0, 35.0 ],
					"style" : "",
					"text" : "patcherargs @ad 50. 50. @repL 1000 @rep 5 @bleed 0."
				}

			}
, 			{
				"box" : 				{
					"args" : [ "MRrepeater~", 2017, 1, 1, 0, 0, 0, 0 ],
					"bgmode" : 0,
					"border" : 0,
					"clickthrough" : 0,
					"enablehscroll" : 0,
					"enablevscroll" : 0,
					"id" : "obj-25",
					"lockeddragscroll" : 0,
					"maxclass" : "bpatcher",
					"name" : "MRabstractionPrintBP.maxpat",
					"numinlets" : 0,
					"numoutlets" : 0,
					"offset" : [ 0.0, 0.0 ],
					"patching_rect" : [ 1029.0, 759.0, 145.0, 45.0 ],
					"varname" : "MRabstractionPrintBP",
					"viewvisibility" : 1
				}

			}
, 			{
				"box" : 				{
					"id" : "obj-34",
					"linecount" : 2,
					"maxclass" : "comment",
					"numinlets" : 1,
					"numoutlets" : 0,
					"patching_rect" : [ 256.0, 54.0, 50.0, 33.0 ],
					"style" : "",
					"text" : "orig length"
				}

			}
, 			{
				"box" : 				{
					"id" : "obj-30",
					"maxclass" : "comment",
					"numinlets" : 1,
					"numoutlets" : 0,
					"patching_rect" : [ 163.0, 24.0, 38.0, 20.0 ],
					"style" : "",
					"text" : "start"
				}

			}
, 			{
				"box" : 				{
					"id" : "obj-27",
					"maxclass" : "newobj",
					"numinlets" : 1,
					"numoutlets" : 2,
					"outlettype" : [ "float", "float" ],
					"patching_rect" : [ 336.75, 50.0, 63.0, 22.0 ],
					"style" : "",
					"text" : "unpack f f"
				}

			}
, 			{
				"box" : 				{
					"id" : "obj-26",
					"linecount" : 5,
					"maxclass" : "comment",
					"numinlets" : 1,
					"numoutlets" : 0,
					"patching_rect" : [ 841.5, 480.5, 167.0, 74.0 ],
					"style" : "",
					"text" : "fades out the feedback amount at the end of the line:\n0 -> done at num of repeats\n\n> 0 -> bleedthrough occurs"
				}

			}
, 			{
				"box" : 				{
					"id" : "obj-24",
					"linecount" : 3,
					"maxclass" : "comment",
					"numinlets" : 1,
					"numoutlets" : 0,
					"patching_rect" : [ 168.0, 470.0, 150.0, 47.0 ],
					"style" : "",
					"text" : "if original sound is longer than desired line length, fade it out!"
				}

			}
, 			{
				"box" : 				{
					"id" : "obj-22",
					"linecount" : 3,
					"maxclass" : "comment",
					"numinlets" : 1,
					"numoutlets" : 0,
					"patching_rect" : [ 152.0, 319.0, 133.0, 47.0 ],
					"style" : "",
					"text" : "simple envelope:\nattack and decay have same length (in ms)"
				}

			}
, 			{
				"box" : 				{
					"id" : "obj-20",
					"linecount" : 2,
					"maxclass" : "comment",
					"numinlets" : 1,
					"numoutlets" : 0,
					"patching_rect" : [ 991.0, 677.5, 117.0, 33.0 ],
					"style" : "",
					"text" : "original sound done playing"
				}

			}
, 			{
				"box" : 				{
					"id" : "obj-18",
					"maxclass" : "newobj",
					"numinlets" : 2,
					"numoutlets" : 1,
					"outlettype" : [ "bang" ],
					"patching_rect" : [ 976.0, 650.0, 39.0, 22.0 ],
					"style" : "",
					"text" : "delay"
				}

			}
, 			{
				"box" : 				{
					"comment" : "num repetition",
					"id" : "obj-16",
					"index" : 4,
					"maxclass" : "outlet",
					"numinlets" : 1,
					"numoutlets" : 0,
					"patching_rect" : [ 976.0, 779.0, 30.0, 30.0 ],
					"style" : ""
				}

			}
, 			{
				"box" : 				{
					"comment" : "length of audio",
					"id" : "obj-6",
					"index" : 2,
					"maxclass" : "inlet",
					"numinlets" : 0,
					"numoutlets" : 1,
					"outlettype" : [ "bang" ],
					"patching_rect" : [ 127.0, 11.0, 30.0, 30.0 ],
					"style" : ""
				}

			}
, 			{
				"box" : 				{
					"comment" : "audio in",
					"id" : "obj-138",
					"index" : 7,
					"maxclass" : "inlet",
					"numinlets" : 0,
					"numoutlets" : 1,
					"outlettype" : [ "" ],
					"patching_rect" : [ 868.0, 11.0, 30.0, 30.0 ],
					"style" : ""
				}

			}
, 			{
				"box" : 				{
					"comment" : "audio in",
					"id" : "obj-137",
					"index" : 6,
					"maxclass" : "inlet",
					"numinlets" : 0,
					"numoutlets" : 1,
					"outlettype" : [ "" ],
					"patching_rect" : [ 564.0, 11.0, 30.0, 30.0 ],
					"style" : ""
				}

			}
, 			{
				"box" : 				{
					"comment" : "audio in",
					"id" : "obj-136",
					"index" : 5,
					"maxclass" : "inlet",
					"numinlets" : 0,
					"numoutlets" : 1,
					"outlettype" : [ "" ],
					"patching_rect" : [ 433.0, 11.0, 30.0, 30.0 ],
					"style" : ""
				}

			}
, 			{
				"box" : 				{
					"comment" : "audio in",
					"id" : "obj-135",
					"index" : 4,
					"maxclass" : "inlet",
					"numinlets" : 0,
					"numoutlets" : 1,
					"outlettype" : [ "" ],
					"patching_rect" : [ 336.75, 11.0, 30.0, 30.0 ],
					"style" : ""
				}

			}
, 			{
				"box" : 				{
					"id" : "obj-134",
					"linecount" : 2,
					"maxclass" : "comment",
					"numinlets" : 1,
					"numoutlets" : 0,
					"patching_rect" : [ 328.0, 79.0, 79.0, 33.0 ],
					"style" : "",
					"text" : "attack/decay of orig"
				}

			}
, 			{
				"box" : 				{
					"id" : "obj-132",
					"linecount" : 2,
					"maxclass" : "comment",
					"numinlets" : 1,
					"numoutlets" : 0,
					"patching_rect" : [ 908.0, 28.5, 150.0, 33.0 ],
					"style" : "",
					"text" : "bleed through (% from end of line)"
				}

			}
, 			{
				"box" : 				{
					"id" : "obj-128",
					"maxclass" : "newobj",
					"numinlets" : 2,
					"numoutlets" : 1,
					"outlettype" : [ "float" ],
					"patching_rect" : [ 692.333313, 532.5, 29.5, 22.0 ],
					"style" : "",
					"text" : "* 1."
				}

			}
, 			{
				"box" : 				{
					"id" : "obj-127",
					"maxclass" : "newobj",
					"numinlets" : 4,
					"numoutlets" : 1,
					"outlettype" : [ "" ],
					"patching_rect" : [ 591.0, 563.5, 171.0, 22.0 ],
					"style" : "",
					"text" : "pack f f f f"
				}

			}
, 			{
				"box" : 				{
					"comment" : "length of audio",
					"id" : "obj-126",
					"index" : 3,
					"maxclass" : "inlet",
					"numinlets" : 0,
					"numoutlets" : 1,
					"outlettype" : [ "float" ],
					"patching_rect" : [ 245.5, 11.0, 30.0, 30.0 ],
					"style" : ""
				}

			}
, 			{
				"box" : 				{
					"comment" : "audio in",
					"id" : "obj-125",
					"index" : 1,
					"maxclass" : "inlet",
					"numinlets" : 0,
					"numoutlets" : 1,
					"outlettype" : [ "signal" ],
					"patching_rect" : [ 65.0, 11.0, 30.0, 30.0 ],
					"style" : ""
				}

			}
, 			{
				"box" : 				{
					"id" : "obj-116",
					"maxclass" : "newobj",
					"numinlets" : 1,
					"numoutlets" : 4,
					"outlettype" : [ "bang", "bang", "int", "bang" ],
					"patching_rect" : [ 649.0, 325.0, 54.0, 22.0 ],
					"style" : "",
					"text" : "t b b 0 b"
				}

			}
, 			{
				"box" : 				{
					"id" : "obj-115",
					"maxclass" : "message",
					"numinlets" : 2,
					"numoutlets" : 1,
					"outlettype" : [ "" ],
					"patching_rect" : [ 602.5, 422.0, 29.5, 22.0 ],
					"style" : "",
					"text" : "1"
				}

			}
, 			{
				"box" : 				{
					"id" : "obj-113",
					"maxclass" : "newobj",
					"numinlets" : 5,
					"numoutlets" : 4,
					"outlettype" : [ "int", "", "", "int" ],
					"patching_rect" : [ 591.0, 495.0, 104.0, 22.0 ],
					"style" : "",
					"text" : "counter 1 100000"
				}

			}
, 			{
				"box" : 				{
					"id" : "obj-112",
					"maxclass" : "newobj",
					"numinlets" : 2,
					"numoutlets" : 1,
					"outlettype" : [ "bang" ],
					"patching_rect" : [ 591.0, 453.0, 81.0, 22.0 ],
					"style" : "",
					"text" : "metro"
				}

			}
, 			{
				"box" : 				{
					"comment" : "num repetition",
					"id" : "obj-111",
					"index" : 2,
					"maxclass" : "outlet",
					"numinlets" : 1,
					"numoutlets" : 0,
					"patching_rect" : [ 591.0, 779.0, 30.0, 30.0 ],
					"style" : ""
				}

			}
, 			{
				"box" : 				{
					"comment" : "audio out",
					"id" : "obj-110",
					"index" : 1,
					"maxclass" : "outlet",
					"numinlets" : 1,
					"numoutlets" : 0,
					"patching_rect" : [ 28.5, 779.0, 30.0, 30.0 ],
					"style" : ""
				}

			}
, 			{
				"box" : 				{
					"id" : "obj-109",
					"maxclass" : "newobj",
					"numinlets" : 1,
					"numoutlets" : 2,
					"outlettype" : [ "bang", "float" ],
					"patching_rect" : [ 868.0, 226.5, 31.0, 22.0 ],
					"style" : "",
					"text" : "t b f"
				}

			}
, 			{
				"box" : 				{
					"format" : 6,
					"id" : "obj-106",
					"maxclass" : "flonum",
					"numinlets" : 1,
					"numoutlets" : 2,
					"outlettype" : [ "", "bang" ],
					"parameter_enable" : 0,
					"patching_rect" : [ 868.0, 89.0, 50.0, 22.0 ],
					"style" : ""
				}

			}
, 			{
				"box" : 				{
					"id" : "obj-104",
					"maxclass" : "newobj",
					"numinlets" : 2,
					"numoutlets" : 1,
					"outlettype" : [ "" ],
					"patching_rect" : [ 848.5, 357.5, 70.0, 22.0 ],
					"style" : "",
					"text" : "pak 500. 0."
				}

			}
, 			{
				"box" : 				{
					"id" : "obj-101",
					"maxclass" : "newobj",
					"numinlets" : 2,
					"numoutlets" : 1,
					"outlettype" : [ "" ],
					"patching_rect" : [ 848.5, 255.5, 90.0, 22.0 ],
					"style" : "",
					"text" : "expr ($f1 * $f2)"
				}

			}
, 			{
				"box" : 				{
					"id" : "obj-99",
					"maxclass" : "newobj",
					"numinlets" : 2,
					"numoutlets" : 2,
					"outlettype" : [ "", "" ],
					"patching_rect" : [ 827.5, 389.5, 40.0, 22.0 ],
					"style" : "",
					"text" : "zl reg"
				}

			}
, 			{
				"box" : 				{
					"id" : "obj-91",
					"maxclass" : "message",
					"numinlets" : 2,
					"numoutlets" : 1,
					"outlettype" : [ "" ],
					"patching_rect" : [ 827.5, 423.5, 74.0, 22.0 ],
					"style" : "",
					"text" : "1, 1 $2 0 $1"
				}

			}
, 			{
				"box" : 				{
					"id" : "obj-85",
					"maxclass" : "newobj",
					"numinlets" : 2,
					"numoutlets" : 1,
					"outlettype" : [ "float" ],
					"patching_rect" : [ 336.75, 133.0, 31.0, 22.0 ],
					"style" : "",
					"text" : "+ 2."
				}

			}
, 			{
				"box" : 				{
					"id" : "obj-80",
					"maxclass" : "newobj",
					"numinlets" : 2,
					"numoutlets" : 2,
					"outlettype" : [ "", "" ],
					"patching_rect" : [ 127.0, 236.0, 74.0, 22.0 ],
					"style" : "",
					"text" : "zl reg"
				}

			}
, 			{
				"box" : 				{
					"id" : "obj-79",
					"maxclass" : "newobj",
					"numinlets" : 3,
					"numoutlets" : 1,
					"outlettype" : [ "" ],
					"patching_rect" : [ 182.0, 198.0, 82.5, 22.0 ],
					"style" : "",
					"text" : "pak 5. 5. f"
				}

			}
, 			{
				"box" : 				{
					"id" : "obj-78",
					"maxclass" : "message",
					"numinlets" : 2,
					"numoutlets" : 1,
					"outlettype" : [ "" ],
					"patching_rect" : [ 127.0, 269.5, 101.0, 22.0 ],
					"style" : "",
					"text" : "0, 1 $1 1 $3 0 $2"
				}

			}
, 			{
				"box" : 				{
					"id" : "obj-74",
					"maxclass" : "newobj",
					"numinlets" : 2,
					"numoutlets" : 1,
					"outlettype" : [ "float" ],
					"patching_rect" : [ 245.5, 167.0, 110.25, 22.0 ],
					"style" : "",
					"text" : "- 10."
				}

			}
, 			{
				"box" : 				{
					"id" : "obj-73",
					"maxclass" : "newobj",
					"numinlets" : 2,
					"numoutlets" : 2,
					"outlettype" : [ "signal", "bang" ],
					"patching_rect" : [ 127.0, 296.0, 50.0, 22.0 ],
					"style" : "",
					"text" : "line~ 0."
				}

			}
, 			{
				"box" : 				{
					"id" : "obj-72",
					"maxclass" : "newobj",
					"numinlets" : 2,
					"numoutlets" : 1,
					"outlettype" : [ "signal" ],
					"patching_rect" : [ 65.0, 344.0, 81.0, 22.0 ],
					"style" : "",
					"text" : "*~ 0."
				}

			}
, 			{
				"box" : 				{
					"id" : "obj-66",
					"maxclass" : "newobj",
					"numinlets" : 2,
					"numoutlets" : 1,
					"outlettype" : [ "float" ],
					"patching_rect" : [ 147.0, 380.0, 44.0, 22.0 ],
					"style" : "",
					"text" : "f 1000"
				}

			}
, 			{
				"box" : 				{
					"id" : "obj-64",
					"maxclass" : "message",
					"numinlets" : 2,
					"numoutlets" : 1,
					"outlettype" : [ "" ],
					"patching_rect" : [ 147.0, 411.0, 74.0, 22.0 ],
					"style" : "",
					"text" : "1, 1 $1 0 50"
				}

			}
, 			{
				"box" : 				{
					"id" : "obj-62",
					"maxclass" : "newobj",
					"numinlets" : 2,
					"numoutlets" : 2,
					"outlettype" : [ "signal", "bang" ],
					"patching_rect" : [ 147.0, 441.0, 50.0, 22.0 ],
					"style" : "",
					"text" : "line~ 0."
				}

			}
, 			{
				"box" : 				{
					"id" : "obj-61",
					"maxclass" : "newobj",
					"numinlets" : 2,
					"numoutlets" : 1,
					"outlettype" : [ "signal" ],
					"patching_rect" : [ 92.0, 470.0, 74.0, 22.0 ],
					"style" : "",
					"text" : "*~ 0."
				}

			}
, 			{
				"box" : 				{
					"id" : "obj-59",
					"maxclass" : "newobj",
					"numinlets" : 1,
					"numoutlets" : 3,
					"outlettype" : [ "", "bang", "" ],
					"patching_rect" : [ 827.5, 450.0, 61.0, 22.0 ],
					"style" : "",
					"text" : "MRline 0."
				}

			}
, 			{
				"box" : 				{
					"id" : "obj-52",
					"maxclass" : "meter~",
					"numinlets" : 1,
					"numoutlets" : 1,
					"outlettype" : [ "float" ],
					"patching_rect" : [ 127.0, 718.0, 80.0, 13.0 ],
					"style" : ""
				}

			}
, 			{
				"box" : 				{
					"id" : "obj-49",
					"maxclass" : "newobj",
					"numinlets" : 1,
					"numoutlets" : 6,
					"outlettype" : [ "bang", "bang", "bang", "bang", "bang", "bang" ],
					"patching_rect" : [ 127.0, 79.0, 119.0, 22.0 ],
					"style" : "",
					"text" : "t b b b b b b"
				}

			}
, 			{
				"box" : 				{
					"id" : "obj-45",
					"maxclass" : "newobj",
					"numinlets" : 1,
					"numoutlets" : 2,
					"outlettype" : [ "bang", "bang" ],
					"patching_rect" : [ 649.0, 269.5, 101.0, 22.0 ],
					"style" : "",
					"text" : "t b b"
				}

			}
, 			{
				"box" : 				{
					"id" : "obj-39",
					"maxclass" : "newobj",
					"numinlets" : 2,
					"numoutlets" : 1,
					"outlettype" : [ "bang" ],
					"patching_rect" : [ 649.0, 300.5, 39.0, 22.0 ],
					"style" : "",
					"text" : "delay"
				}

			}
, 			{
				"box" : 				{
					"id" : "obj-38",
					"maxclass" : "comment",
					"numinlets" : 1,
					"numoutlets" : 0,
					"patching_rect" : [ 468.5, 16.0, 95.0, 20.0 ],
					"style" : "",
					"text" : "length of line"
				}

			}
, 			{
				"box" : 				{
					"format" : 6,
					"id" : "obj-37",
					"maxclass" : "flonum",
					"numinlets" : 1,
					"numoutlets" : 2,
					"outlettype" : [ "", "bang" ],
					"parameter_enable" : 0,
					"patching_rect" : [ 433.0, 69.0, 50.0, 22.0 ],
					"style" : ""
				}

			}
, 			{
				"box" : 				{
					"id" : "obj-33",
					"maxclass" : "newobj",
					"numinlets" : 1,
					"numoutlets" : 2,
					"outlettype" : [ "bang", "float" ],
					"patching_rect" : [ 564.0, 98.0, 31.0, 22.0 ],
					"style" : "",
					"text" : "t b f"
				}

			}
, 			{
				"box" : 				{
					"id" : "obj-32",
					"maxclass" : "newobj",
					"numinlets" : 2,
					"numoutlets" : 1,
					"outlettype" : [ "float" ],
					"patching_rect" : [ 562.5, 135.0, 32.5, 22.0 ],
					"style" : "",
					"text" : "/ 1."
				}

			}
, 			{
				"box" : 				{
					"id" : "obj-31",
					"maxclass" : "comment",
					"numinlets" : 1,
					"numoutlets" : 0,
					"patching_rect" : [ 596.0, 16.0, 95.0, 20.0 ],
					"style" : "",
					"text" : "num of repeats"
				}

			}
, 			{
				"box" : 				{
					"format" : 6,
					"id" : "obj-29",
					"maxclass" : "flonum",
					"minimum" : 1.0,
					"numinlets" : 1,
					"numoutlets" : 2,
					"outlettype" : [ "", "bang" ],
					"parameter_enable" : 0,
					"patching_rect" : [ 564.0, 69.0, 50.0, 22.0 ],
					"style" : ""
				}

			}
, 			{
				"box" : 				{
					"fontname" : "Arial",
					"fontsize" : 13.0,
					"id" : "obj-17",
					"maxclass" : "message",
					"numinlets" : 2,
					"numoutlets" : 1,
					"outlettype" : [ "" ],
					"patching_rect" : [ 396.0, 506.0, 86.0, 23.0 ],
					"style" : "",
					"text" : "0 15 0 5 1 15"
				}

			}
, 			{
				"box" : 				{
					"fontname" : "Arial",
					"fontsize" : 13.0,
					"id" : "obj-4",
					"maxclass" : "newobj",
					"numinlets" : 1,
					"numoutlets" : 2,
					"outlettype" : [ "float", "bang" ],
					"patching_rect" : [ 328.0, 477.0, 87.0, 23.0 ],
					"style" : "",
					"text" : "t f b"
				}

			}
, 			{
				"box" : 				{
					"fontname" : "Arial",
					"fontsize" : 13.0,
					"id" : "obj-5",
					"maxclass" : "newobj",
					"numinlets" : 2,
					"numoutlets" : 1,
					"outlettype" : [ "" ],
					"patching_rect" : [ 328.0, 502.0, 53.0, 23.0 ],
					"style" : "",
					"text" : "pipe 17"
				}

			}
, 			{
				"box" : 				{
					"fontname" : "Arial",
					"fontsize" : 13.0,
					"id" : "obj-10",
					"maxclass" : "newobj",
					"numinlets" : 2,
					"numoutlets" : 1,
					"outlettype" : [ "" ],
					"patching_rect" : [ 328.0, 453.0, 81.0, 23.0 ],
					"style" : "",
					"text" : "speedlim 35"
				}

			}
, 			{
				"box" : 				{
					"fontname" : "Arial",
					"fontsize" : 13.0,
					"id" : "obj-9",
					"maxclass" : "newobj",
					"numinlets" : 2,
					"numoutlets" : 2,
					"outlettype" : [ "signal", "bang" ],
					"patching_rect" : [ 396.0, 551.0, 53.0, 23.0 ],
					"style" : "",
					"text" : "line~ 1."
				}

			}
, 			{
				"box" : 				{
					"id" : "obj-15",
					"linecount" : 2,
					"maxclass" : "comment",
					"numinlets" : 1,
					"numoutlets" : 0,
					"patching_rect" : [ 420.0, 609.5, 150.0, 33.0 ],
					"style" : "",
					"text" : "avoiding clicks when line amount changed"
				}

			}
, 			{
				"box" : 				{
					"id" : "obj-13",
					"maxclass" : "comment",
					"numinlets" : 1,
					"numoutlets" : 0,
					"patching_rect" : [ 135.0, 677.5, 150.0, 20.0 ],
					"style" : "",
					"text" : "feedback amount"
				}

			}
, 			{
				"box" : 				{
					"id" : "obj-11",
					"maxclass" : "newobj",
					"numinlets" : 2,
					"numoutlets" : 1,
					"outlettype" : [ "signal" ],
					"patching_rect" : [ 92.0, 618.0, 323.0, 22.0 ],
					"style" : "",
					"text" : "*~ 0."
				}

			}
, 			{
				"box" : 				{
					"id" : "obj-7",
					"maxclass" : "newobj",
					"numinlets" : 2,
					"numoutlets" : 1,
					"outlettype" : [ "signal" ],
					"patching_rect" : [ 92.0, 677.5, 36.0, 22.0 ],
					"style" : "",
					"text" : "*~ 0."
				}

			}
, 			{
				"box" : 				{
					"id" : "obj-3",
					"maxclass" : "newobj",
					"numinlets" : 1,
					"numoutlets" : 1,
					"outlettype" : [ "signal" ],
					"patching_rect" : [ 92.0, 570.0, 169.0, 22.0 ],
					"style" : "",
					"text" : "tapout~ 1."
				}

			}
, 			{
				"box" : 				{
					"id" : "obj-2",
					"maxclass" : "newobj",
					"numinlets" : 1,
					"numoutlets" : 1,
					"outlettype" : [ "tapconnect" ],
					"patching_rect" : [ 92.0, 527.0, 74.0, 22.0 ],
					"style" : "",
					"text" : "tapin~ 4000"
				}

			}
 ],
		"lines" : [ 			{
				"patchline" : 				{
					"destination" : [ "obj-21", 0 ],
					"source" : [ "obj-1", 1 ]
				}

			}
, 			{
				"patchline" : 				{
					"destination" : [ "obj-4", 0 ],
					"source" : [ "obj-10", 0 ]
				}

			}
, 			{
				"patchline" : 				{
					"destination" : [ "obj-35", 0 ],
					"order" : 0,
					"source" : [ "obj-101", 0 ]
				}

			}
, 			{
				"patchline" : 				{
					"destination" : [ "obj-42", 0 ],
					"order" : 1,
					"source" : [ "obj-101", 0 ]
				}

			}
, 			{
				"patchline" : 				{
					"destination" : [ "obj-99", 1 ],
					"source" : [ "obj-104", 0 ]
				}

			}
, 			{
				"patchline" : 				{
					"destination" : [ "obj-109", 0 ],
					"source" : [ "obj-106", 0 ]
				}

			}
, 			{
				"patchline" : 				{
					"destination" : [ "obj-101", 1 ],
					"source" : [ "obj-109", 1 ]
				}

			}
, 			{
				"patchline" : 				{
					"destination" : [ "obj-101", 0 ],
					"source" : [ "obj-109", 0 ]
				}

			}
, 			{
				"patchline" : 				{
					"destination" : [ "obj-7", 0 ],
					"source" : [ "obj-11", 0 ]
				}

			}
, 			{
				"patchline" : 				{
					"destination" : [ "obj-113", 0 ],
					"source" : [ "obj-112", 0 ]
				}

			}
, 			{
				"patchline" : 				{
					"destination" : [ "obj-127", 0 ],
					"order" : 1,
					"source" : [ "obj-113", 0 ]
				}

			}
, 			{
				"patchline" : 				{
					"destination" : [ "obj-128", 0 ],
					"order" : 0,
					"source" : [ "obj-113", 0 ]
				}

			}
, 			{
				"patchline" : 				{
					"destination" : [ "obj-112", 0 ],
					"source" : [ "obj-115", 0 ]
				}

			}
, 			{
				"patchline" : 				{
					"destination" : [ "obj-112", 0 ],
					"midpoints" : [ 681.833313, 373.5, 600.5, 373.5 ],
					"source" : [ "obj-116", 2 ]
				}

			}
, 			{
				"patchline" : 				{
					"destination" : [ "obj-113", 2 ],
					"midpoints" : [ 670.166687, 361.5, 643.0, 361.5 ],
					"source" : [ "obj-116", 1 ]
				}

			}
, 			{
				"patchline" : 				{
					"destination" : [ "obj-8", 0 ],
					"source" : [ "obj-116", 0 ]
				}

			}
, 			{
				"patchline" : 				{
					"destination" : [ "obj-19", 0 ],
					"order" : 1,
					"source" : [ "obj-125", 0 ]
				}

			}
, 			{
				"patchline" : 				{
					"destination" : [ "obj-72", 0 ],
					"order" : 0,
					"source" : [ "obj-125", 0 ]
				}

			}
, 			{
				"patchline" : 				{
					"destination" : [ "obj-18", 1 ],
					"midpoints" : [ 255.0, 115.5, 1005.5, 115.5 ],
					"order" : 0,
					"source" : [ "obj-126", 0 ]
				}

			}
, 			{
				"patchline" : 				{
					"destination" : [ "obj-43", 1 ],
					"order" : 1,
					"source" : [ "obj-126", 0 ]
				}

			}
, 			{
				"patchline" : 				{
					"destination" : [ "obj-74", 0 ],
					"order" : 2,
					"source" : [ "obj-126", 0 ]
				}

			}
, 			{
				"patchline" : 				{
					"destination" : [ "obj-111", 0 ],
					"source" : [ "obj-127", 0 ]
				}

			}
, 			{
				"patchline" : 				{
					"destination" : [ "obj-127", 2 ],
					"source" : [ "obj-128", 0 ]
				}

			}
, 			{
				"patchline" : 				{
					"destination" : [ "obj-27", 0 ],
					"order" : 1,
					"source" : [ "obj-135", 0 ]
				}

			}
, 			{
				"patchline" : 				{
					"destination" : [ "obj-48", 1 ],
					"order" : 0,
					"source" : [ "obj-135", 0 ]
				}

			}
, 			{
				"patchline" : 				{
					"destination" : [ "obj-37", 0 ],
					"source" : [ "obj-136", 0 ]
				}

			}
, 			{
				"patchline" : 				{
					"destination" : [ "obj-29", 0 ],
					"source" : [ "obj-137", 0 ]
				}

			}
, 			{
				"patchline" : 				{
					"destination" : [ "obj-106", 0 ],
					"source" : [ "obj-138", 0 ]
				}

			}
, 			{
				"patchline" : 				{
					"destination" : [ "obj-110", 0 ],
					"source" : [ "obj-14", 0 ]
				}

			}
, 			{
				"patchline" : 				{
					"destination" : [ "obj-9", 0 ],
					"source" : [ "obj-17", 0 ]
				}

			}
, 			{
				"patchline" : 				{
					"destination" : [ "obj-16", 0 ],
					"source" : [ "obj-18", 0 ]
				}

			}
, 			{
				"patchline" : 				{
					"destination" : [ "obj-3", 0 ],
					"source" : [ "obj-2", 0 ]
				}

			}
, 			{
				"patchline" : 				{
					"destination" : [ "obj-106", 0 ],
					"midpoints" : [ 1129.5, 141.0, 1003.5, 141.0, 1003.5, 78.0, 877.5, 78.0 ],
					"source" : [ "obj-21", 3 ]
				}

			}
, 			{
				"patchline" : 				{
					"destination" : [ "obj-27", 0 ],
					"midpoints" : [ 1042.5, 141.0, 694.375, 141.0, 694.375, 45.0, 346.25, 45.0 ],
					"source" : [ "obj-21", 0 ]
				}

			}
, 			{
				"patchline" : 				{
					"destination" : [ "obj-29", 0 ],
					"midpoints" : [ 1100.5, 141.0, 837.0, 141.0, 837.0, 58.0, 573.5, 58.0 ],
					"source" : [ "obj-21", 2 ]
				}

			}
, 			{
				"patchline" : 				{
					"destination" : [ "obj-37", 0 ],
					"midpoints" : [ 1071.5, 141.0, 757.0, 141.0, 757.0, 58.0, 442.5, 58.0 ],
					"source" : [ "obj-21", 1 ]
				}

			}
, 			{
				"patchline" : 				{
					"destination" : [ "obj-79", 1 ],
					"order" : 1,
					"source" : [ "obj-27", 1 ]
				}

			}
, 			{
				"patchline" : 				{
					"destination" : [ "obj-79", 0 ],
					"order" : 1,
					"source" : [ "obj-27", 0 ]
				}

			}
, 			{
				"patchline" : 				{
					"destination" : [ "obj-85", 1 ],
					"order" : 0,
					"source" : [ "obj-27", 1 ]
				}

			}
, 			{
				"patchline" : 				{
					"destination" : [ "obj-85", 0 ],
					"order" : 0,
					"source" : [ "obj-27", 0 ]
				}

			}
, 			{
				"patchline" : 				{
					"destination" : [ "obj-33", 0 ],
					"source" : [ "obj-29", 0 ]
				}

			}
, 			{
				"patchline" : 				{
					"destination" : [ "obj-11", 0 ],
					"source" : [ "obj-3", 0 ]
				}

			}
, 			{
				"patchline" : 				{
					"destination" : [ "obj-10", 0 ],
					"midpoints" : [ 572.0, 439.5, 337.5, 439.5 ],
					"order" : 3,
					"source" : [ "obj-32", 0 ]
				}

			}
, 			{
				"patchline" : 				{
					"destination" : [ "obj-112", 1 ],
					"midpoints" : [ 572.0, 352.5, 662.5, 352.5 ],
					"order" : 1,
					"source" : [ "obj-32", 0 ]
				}

			}
, 			{
				"patchline" : 				{
					"destination" : [ "obj-127", 1 ],
					"midpoints" : [ 572.0, 545.0, 651.166687, 545.0 ],
					"order" : 2,
					"source" : [ "obj-32", 0 ]
				}

			}
, 			{
				"patchline" : 				{
					"destination" : [ "obj-128", 1 ],
					"midpoints" : [ 572.0, 484.25, 712.333313, 484.25 ],
					"order" : 0,
					"source" : [ "obj-32", 0 ]
				}

			}
, 			{
				"patchline" : 				{
					"destination" : [ "obj-32", 1 ],
					"source" : [ "obj-33", 1 ]
				}

			}
, 			{
				"patchline" : 				{
					"destination" : [ "obj-32", 0 ],
					"source" : [ "obj-33", 0 ]
				}

			}
, 			{
				"patchline" : 				{
					"destination" : [ "obj-41", 0 ],
					"source" : [ "obj-35", 0 ]
				}

			}
, 			{
				"patchline" : 				{
					"destination" : [ "obj-101", 0 ],
					"midpoints" : [ 442.5, 187.5, 858.0, 187.5 ],
					"order" : 2,
					"source" : [ "obj-37", 0 ]
				}

			}
, 			{
				"patchline" : 				{
					"destination" : [ "obj-127", 3 ],
					"midpoints" : [ 442.5, 246.75, 752.5, 246.75 ],
					"order" : 3,
					"source" : [ "obj-37", 0 ]
				}

			}
, 			{
				"patchline" : 				{
					"destination" : [ "obj-32", 0 ],
					"midpoints" : [ 442.5, 128.5, 572.0, 128.5 ],
					"order" : 5,
					"source" : [ "obj-37", 0 ]
				}

			}
, 			{
				"patchline" : 				{
					"destination" : [ "obj-35", 1 ],
					"midpoints" : [ 442.5, 219.5, 948.5, 219.5 ],
					"order" : 0,
					"source" : [ "obj-37", 0 ]
				}

			}
, 			{
				"patchline" : 				{
					"destination" : [ "obj-42", 2 ],
					"midpoints" : [ 442.5, 203.0, 886.0, 203.0 ],
					"order" : 1,
					"source" : [ "obj-37", 0 ]
				}

			}
, 			{
				"patchline" : 				{
					"destination" : [ "obj-50", 0 ],
					"midpoints" : [ 442.5, 261.75, 622.5, 261.75 ],
					"order" : 4,
					"source" : [ "obj-37", 0 ]
				}

			}
, 			{
				"patchline" : 				{
					"destination" : [ "obj-66", 1 ],
					"midpoints" : [ 442.5, 372.0, 181.5, 372.0 ],
					"order" : 6,
					"source" : [ "obj-37", 0 ]
				}

			}
, 			{
				"patchline" : 				{
					"destination" : [ "obj-116", 0 ],
					"source" : [ "obj-39", 0 ]
				}

			}
, 			{
				"patchline" : 				{
					"destination" : [ "obj-17", 0 ],
					"source" : [ "obj-4", 1 ]
				}

			}
, 			{
				"patchline" : 				{
					"destination" : [ "obj-5", 0 ],
					"source" : [ "obj-4", 0 ]
				}

			}
, 			{
				"patchline" : 				{
					"destination" : [ "obj-104", 1 ],
					"source" : [ "obj-41", 0 ]
				}

			}
, 			{
				"patchline" : 				{
					"destination" : [ "obj-104", 0 ],
					"source" : [ "obj-42", 0 ]
				}

			}
, 			{
				"patchline" : 				{
					"destination" : [ "obj-115", 0 ],
					"midpoints" : [ 740.5, 413.75, 612.0, 413.75 ],
					"source" : [ "obj-45", 1 ]
				}

			}
, 			{
				"patchline" : 				{
					"destination" : [ "obj-39", 0 ],
					"source" : [ "obj-45", 0 ]
				}

			}
, 			{
				"patchline" : 				{
					"destination" : [ "obj-18", 0 ],
					"midpoints" : [ 216.5, 128.0, 985.5, 128.0 ],
					"source" : [ "obj-49", 4 ]
				}

			}
, 			{
				"patchline" : 				{
					"destination" : [ "obj-45", 0 ],
					"midpoints" : [ 196.5, 119.5, 658.5, 119.5 ],
					"source" : [ "obj-49", 3 ]
				}

			}
, 			{
				"patchline" : 				{
					"destination" : [ "obj-66", 0 ],
					"source" : [ "obj-49", 1 ]
				}

			}
, 			{
				"patchline" : 				{
					"destination" : [ "obj-80", 0 ],
					"source" : [ "obj-49", 0 ]
				}

			}
, 			{
				"patchline" : 				{
					"destination" : [ "obj-99", 0 ],
					"midpoints" : [ 176.5, 229.5, 837.0, 229.5 ],
					"source" : [ "obj-49", 2 ]
				}

			}
, 			{
				"patchline" : 				{
					"destination" : [ "obj-3", 0 ],
					"midpoints" : [ 337.5, 559.0, 101.5, 559.0 ],
					"source" : [ "obj-5", 0 ]
				}

			}
, 			{
				"patchline" : 				{
					"destination" : [ "obj-39", 1 ],
					"source" : [ "obj-50", 0 ]
				}

			}
, 			{
				"patchline" : 				{
					"destination" : [ "obj-28", 1 ],
					"order" : 0,
					"source" : [ "obj-59", 0 ]
				}

			}
, 			{
				"patchline" : 				{
					"destination" : [ "obj-7", 1 ],
					"midpoints" : [ 837.0, 659.25, 118.5, 659.25 ],
					"order" : 1,
					"source" : [ "obj-59", 0 ]
				}

			}
, 			{
				"patchline" : 				{
					"destination" : [ "obj-49", 0 ],
					"source" : [ "obj-6", 0 ]
				}

			}
, 			{
				"patchline" : 				{
					"destination" : [ "obj-14", 0 ],
					"midpoints" : [ 101.5, 509.0, 38.0, 509.0 ],
					"order" : 1,
					"source" : [ "obj-61", 0 ]
				}

			}
, 			{
				"patchline" : 				{
					"destination" : [ "obj-2", 0 ],
					"order" : 0,
					"source" : [ "obj-61", 0 ]
				}

			}
, 			{
				"patchline" : 				{
					"destination" : [ "obj-61", 1 ],
					"midpoints" : [ 156.5, 466.0, 156.5, 466.0 ],
					"source" : [ "obj-62", 0 ]
				}

			}
, 			{
				"patchline" : 				{
					"destination" : [ "obj-62", 0 ],
					"source" : [ "obj-64", 0 ]
				}

			}
, 			{
				"patchline" : 				{
					"destination" : [ "obj-64", 0 ],
					"source" : [ "obj-66", 0 ]
				}

			}
, 			{
				"patchline" : 				{
					"destination" : [ "obj-14", 0 ],
					"midpoints" : [ 101.5, 719.0, 38.0, 719.0 ],
					"order" : 2,
					"source" : [ "obj-7", 0 ]
				}

			}
, 			{
				"patchline" : 				{
					"destination" : [ "obj-2", 0 ],
					"midpoints" : [ 101.5, 713.0, 76.0, 713.0, 76.0, 516.0, 101.5, 516.0 ],
					"order" : 1,
					"source" : [ "obj-7", 0 ]
				}

			}
, 			{
				"patchline" : 				{
					"destination" : [ "obj-52", 0 ],
					"order" : 0,
					"source" : [ "obj-7", 0 ]
				}

			}
, 			{
				"patchline" : 				{
					"destination" : [ "obj-61", 0 ],
					"midpoints" : [ 74.5, 457.0, 101.5, 457.0 ],
					"source" : [ "obj-72", 0 ]
				}

			}
, 			{
				"patchline" : 				{
					"destination" : [ "obj-72", 1 ],
					"source" : [ "obj-73", 0 ]
				}

			}
, 			{
				"patchline" : 				{
					"destination" : [ "obj-46", 1 ],
					"order" : 0,
					"source" : [ "obj-74", 0 ]
				}

			}
, 			{
				"patchline" : 				{
					"destination" : [ "obj-79", 2 ],
					"order" : 1,
					"source" : [ "obj-74", 0 ]
				}

			}
, 			{
				"patchline" : 				{
					"destination" : [ "obj-73", 0 ],
					"source" : [ "obj-78", 0 ]
				}

			}
, 			{
				"patchline" : 				{
					"destination" : [ "obj-80", 1 ],
					"source" : [ "obj-79", 0 ]
				}

			}
, 			{
				"patchline" : 				{
					"destination" : [ "obj-36", 1 ],
					"order" : 0,
					"source" : [ "obj-80", 0 ]
				}

			}
, 			{
				"patchline" : 				{
					"destination" : [ "obj-78", 0 ],
					"order" : 1,
					"source" : [ "obj-80", 0 ]
				}

			}
, 			{
				"patchline" : 				{
					"destination" : [ "obj-74", 1 ],
					"source" : [ "obj-85", 0 ]
				}

			}
, 			{
				"patchline" : 				{
					"destination" : [ "obj-11", 1 ],
					"source" : [ "obj-9", 0 ]
				}

			}
, 			{
				"patchline" : 				{
					"destination" : [ "obj-59", 0 ],
					"source" : [ "obj-91", 0 ]
				}

			}
, 			{
				"patchline" : 				{
					"destination" : [ "obj-91", 0 ],
					"source" : [ "obj-99", 0 ]
				}

			}
 ]
	}

}
