{
	"patcher" : 	{
		"fileversion" : 1,
		"appversion" : 		{
			"major" : 6,
			"minor" : 0,
			"revision" : 5
		}
,
		"rect" : [ 25.0, 69.0, 316.0, 488.0 ],
		"bglocked" : 0,
		"openinpresentation" : 0,
		"default_fontsize" : 12.0,
		"default_fontface" : 0,
		"default_fontname" : "Arial",
		"gridonopen" : 0,
		"gridsize" : [ 15.0, 15.0 ],
		"gridsnaponopen" : 0,
		"statusbarvisible" : 2,
		"toolbarvisible" : 1,
		"boxanimatetime" : 200,
		"imprint" : 0,
		"enablehscroll" : 1,
		"enablevscroll" : 1,
		"devicewidth" : 0.0,
		"description" : "",
		"digest" : "",
		"tags" : "",
		"boxes" : [ 			{
				"box" : 				{
					"fontname" : "Arial",
					"fontsize" : 12.0,
					"id" : "obj-1",
					"maxclass" : "newobj",
					"numinlets" : 2,
					"numoutlets" : 9,
					"outlettype" : [ "int", "int", "float", "float", "float", "", "int", "float", "" ],
					"patching_rect" : [ 165.0, 100.0, 127.0, 20.0 ],
					"text" : "transport"
				}

			}
, 			{
				"box" : 				{
					"id" : "obj-13",
					"maxclass" : "toggle",
					"numinlets" : 1,
					"numoutlets" : 1,
					"outlettype" : [ "int" ],
					"parameter_enable" : 0,
					"patching_rect" : [ 33.083344, 122.0, 36.916656, 36.916656 ]
				}

			}
, 			{
				"box" : 				{
					"fontname" : "Arial",
					"fontsize" : 12.0,
					"id" : "obj-8",
					"maxclass" : "number~",
					"mode" : 2,
					"numinlets" : 2,
					"numoutlets" : 2,
					"outlettype" : [ "signal", "float" ],
					"patching_rect" : [ 33.083344, 372.0, 89.0, 20.0 ],
					"sig" : 0.0
				}

			}
, 			{
				"box" : 				{
					"id" : "obj-7",
					"maxclass" : "ezdac~",
					"numinlets" : 2,
					"numoutlets" : 0,
					"patching_rect" : [ 180.0, 178.0, 45.0, 45.0 ]
				}

			}
, 			{
				"box" : 				{
					"fontface" : 3,
					"fontname" : "Arial",
					"fontsize" : 20.871338,
					"frgb" : [ 0.93, 0.93, 0.97, 1.0 ],
					"id" : "obj-11",
					"maxclass" : "comment",
					"numinlets" : 1,
					"numoutlets" : 0,
					"patching_rect" : [ 24.833344, 29.0, 145.5, 30.0 ],
					"text" : "MRlfo",
					"textcolor" : [ 0.93, 0.93, 0.97, 1.0 ],
					"varname" : "autohelp_top_title"
				}

			}
, 			{
				"box" : 				{
					"args" : [ 0, 0, 0, 0, 0, 0, 0, 0 ],
					"id" : "obj-3",
					"maxclass" : "bpatcher",
					"name" : "MRlfoBP.maxpat",
					"numinlets" : 10,
					"numoutlets" : 2,
					"outlettype" : [ "signal", "" ],
					"patching_rect" : [ 33.083344, 178.0, 129.0, 167.0 ],
					"varname" : "MRlfoBP"
				}

			}
, 			{
				"box" : 				{
					"background" : 1,
					"grad1" : [ 0.27, 0.35, 0.47, 1.0 ],
					"grad2" : [ 0.85, 0.85, 0.85, 1.0 ],
					"id" : "obj-9",
					"ignoreclick" : 1,
					"maxclass" : "panel",
					"mode" : 1,
					"numinlets" : 1,
					"numoutlets" : 0,
					"patching_rect" : [ 15.833344, 18.0, 283.583313, 52.0 ],
					"varname" : "autohelp_top_panel"
				}

			}
, 			{
				"box" : 				{
					"args" : [ "MRlfo", 2012, 1.2, 0, 0, 0, 0, 0 ],
					"id" : "obj-6",
					"maxclass" : "bpatcher",
					"name" : "MRabstractionPrintBP.maxpat",
					"numinlets" : 0,
					"numoutlets" : 0,
					"patching_rect" : [ 154.416672, 425.0, 145.0, 45.0 ],
					"varname" : "MRabstractionPrintBP"
				}

			}
 ],
		"lines" : [ 			{
				"patchline" : 				{
					"destination" : [ "obj-3", 9 ],
					"disabled" : 0,
					"hidden" : 0,
					"midpoints" : [ 42.583344, 167.0, 152.583344, 167.0 ],
					"source" : [ "obj-13", 0 ]
				}

			}
, 			{
				"patchline" : 				{
					"destination" : [ "obj-3", 0 ],
					"disabled" : 0,
					"hidden" : 0,
					"source" : [ "obj-13", 0 ]
				}

			}
, 			{
				"patchline" : 				{
					"destination" : [ "obj-8", 0 ],
					"disabled" : 0,
					"hidden" : 0,
					"source" : [ "obj-3", 0 ]
				}

			}
 ],
		"parameters" : 		{
			"obj-6::obj-28" : [ "textbutton[2]", "textbutton", 0 ],
			"obj-3::obj-68::obj-28" : [ "textbutton[1]", "textbutton", 0 ]
		}
,
		"dependency_cache" : [ 			{
				"name" : "MRabstractionPrintBP.maxpat",
				"bootpath" : "/Users/MartinRitter/Documents/Music/Max6/MyToolbox/MRabstractionPrint",
				"patcherrelativepath" : "../MRabstractionPrint",
				"type" : "JSON",
				"implicit" : 1
			}
, 			{
				"name" : "MRlfoBP.maxpat",
				"bootpath" : "/Users/MartinRitter/Documents/Music/Max6/MyToolbox/MRlfo",
				"patcherrelativepath" : "",
				"type" : "JSON",
				"implicit" : 1
			}
, 			{
				"name" : "lfo_poly.maxpat",
				"bootpath" : "/Users/MartinRitter/Documents/Music/Max6/MyToolbox/MRlfo",
				"patcherrelativepath" : "",
				"type" : "JSON",
				"implicit" : 1
			}
, 			{
				"name" : "MRr_.maxpat",
				"bootpath" : "/Users/MartinRitter/Documents/Music/Max5/myToolbox/MRr",
				"patcherrelativepath" : "../../myToolbox/MRr",
				"type" : "JSON",
				"implicit" : 1
			}
, 			{
				"name" : "multiName_.maxpat",
				"bootpath" : "/Users/MartinRitter/Documents/Music/Max5/myToolbox/MRr/lib",
				"patcherrelativepath" : "../../myToolbox/MRr/lib",
				"type" : "JSON",
				"implicit" : 1
			}
, 			{
				"name" : "MRwindowGen.maxpat",
				"bootpath" : "/Users/MartinRitter/Documents/Music/Max5/myToolbox/MRwindowGen",
				"patcherrelativepath" : "../../myToolbox/MRwindowGen",
				"type" : "JSON",
				"implicit" : 1
			}
, 			{
				"name" : "abstractionPrint.maxpat",
				"bootpath" : "/Users/MartinRitter/Documents/Music/Max5/myToolbox/abstractionPrint",
				"patcherrelativepath" : "../../myToolbox/abstractionPrint",
				"type" : "JSON",
				"implicit" : 1
			}
 ]
	}

}
