{
	"patcher" : 	{
		"fileversion" : 1,
		"rect" : [ 420.0, 160.0, 661.0, 677.0 ],
		"bglocked" : 0,
		"defrect" : [ 420.0, 160.0, 661.0, 677.0 ],
		"openrect" : [ 0.0, 0.0, 0.0, 0.0 ],
		"openinpresentation" : 0,
		"default_fontsize" : 12.0,
		"default_fontface" : 0,
		"default_fontname" : "Arial",
		"gridonopen" : 0,
		"gridsize" : [ 15.0, 15.0 ],
		"gridsnaponopen" : 0,
		"toolbarvisible" : 1,
		"boxanimatetime" : 200,
		"imprint" : 0,
		"enablehscroll" : 1,
		"enablevscroll" : 1,
		"devicewidth" : 0.0,
		"boxes" : [ 			{
				"box" : 				{
					"maxclass" : "comment",
					"text" : "Color them.",
					"numinlets" : 1,
					"fontsize" : 9.0,
					"patching_rect" : [ 338.0, 520.0, 142.0, 17.0 ],
					"id" : "obj-1",
					"numoutlets" : 0,
					"fontname" : "Arial"
				}

			}
, 			{
				"box" : 				{
					"maxclass" : "comment",
					"text" : "Move them..",
					"numinlets" : 1,
					"fontsize" : 9.0,
					"patching_rect" : [ 436.0, 401.0, 142.0, 17.0 ],
					"id" : "obj-2",
					"numoutlets" : 0,
					"fontname" : "Arial"
				}

			}
, 			{
				"box" : 				{
					"maxclass" : "comment",
					"text" : "Render them as line_loops..",
					"numinlets" : 1,
					"fontsize" : 9.0,
					"patching_rect" : [ 393.0, 239.0, 142.0, 17.0 ],
					"id" : "obj-3",
					"numoutlets" : 0,
					"fontname" : "Arial"
				}

			}
, 			{
				"box" : 				{
					"maxclass" : "message",
					"text" : "model 1 color 1. 0. 0. 1., model 2 color 0. 1. 0. 1., model 3 color 0. 0. 1. 1., model 4 color 1. 1. 0. 1., model 5 color 0. 1. 1. 1.",
					"linecount" : 2,
					"numinlets" : 2,
					"fontsize" : 9.0,
					"patching_rect" : [ 300.0, 554.0, 306.0, 25.0 ],
					"id" : "obj-4",
					"numoutlets" : 1,
					"outlettype" : [ "" ],
					"fontname" : "Arial"
				}

			}
, 			{
				"box" : 				{
					"maxclass" : "button",
					"numinlets" : 1,
					"patching_rect" : [ 365.0, 237.0, 15.0, 15.0 ],
					"id" : "obj-5",
					"numoutlets" : 1,
					"outlettype" : [ "bang" ]
				}

			}
, 			{
				"box" : 				{
					"maxclass" : "message",
					"text" : "model $1 render line_loop",
					"numinlets" : 2,
					"fontsize" : 9.0,
					"patching_rect" : [ 395.0, 297.0, 127.0, 15.0 ],
					"id" : "obj-6",
					"numoutlets" : 1,
					"outlettype" : [ "" ],
					"fontname" : "Arial"
				}

			}
, 			{
				"box" : 				{
					"maxclass" : "newobj",
					"text" : "prepend model 5 xyz",
					"numinlets" : 1,
					"fontsize" : 9.0,
					"patching_rect" : [ 169.0, 372.0, 103.0, 17.0 ],
					"id" : "obj-7",
					"numoutlets" : 1,
					"outlettype" : [ "" ],
					"fontname" : "Arial"
				}

			}
, 			{
				"box" : 				{
					"maxclass" : "newobj",
					"text" : "prepend model 4 xyz",
					"numinlets" : 1,
					"fontsize" : 9.0,
					"patching_rect" : [ 156.0, 349.0, 103.0, 17.0 ],
					"id" : "obj-8",
					"numoutlets" : 1,
					"outlettype" : [ "" ],
					"fontname" : "Arial"
				}

			}
, 			{
				"box" : 				{
					"maxclass" : "newobj",
					"text" : "prepend model 3 xyz",
					"numinlets" : 1,
					"fontsize" : 9.0,
					"patching_rect" : [ 146.0, 328.0, 103.0, 17.0 ],
					"id" : "obj-9",
					"numoutlets" : 1,
					"outlettype" : [ "" ],
					"fontname" : "Arial"
				}

			}
, 			{
				"box" : 				{
					"maxclass" : "newobj",
					"text" : "prepend model 2 xyz",
					"numinlets" : 1,
					"fontsize" : 9.0,
					"patching_rect" : [ 133.0, 304.0, 103.0, 17.0 ],
					"id" : "obj-10",
					"numoutlets" : 1,
					"outlettype" : [ "" ],
					"fontname" : "Arial"
				}

			}
, 			{
				"box" : 				{
					"maxclass" : "newobj",
					"text" : "uzi 5",
					"numinlets" : 2,
					"fontsize" : 9.0,
					"patching_rect" : [ 365.0, 263.0, 40.0, 17.0 ],
					"id" : "obj-11",
					"numoutlets" : 3,
					"outlettype" : [ "bang", "bang", "int" ],
					"fontname" : "Arial"
				}

			}
, 			{
				"box" : 				{
					"maxclass" : "message",
					"text" : "model $3 position $1 $2",
					"numinlets" : 2,
					"fontsize" : 9.0,
					"patching_rect" : [ 354.0, 429.0, 119.0, 15.0 ],
					"id" : "obj-12",
					"numoutlets" : 1,
					"outlettype" : [ "" ],
					"fontname" : "Arial"
				}

			}
, 			{
				"box" : 				{
					"maxclass" : "newobj",
					"text" : "s toFantaStick",
					"numinlets" : 1,
					"fontsize" : 9.0,
					"patching_rect" : [ 24.0, 66.0, 74.0, 17.0 ],
					"id" : "obj-13",
					"numoutlets" : 0,
					"fontname" : "Arial"
				}

			}
, 			{
				"box" : 				{
					"maxclass" : "newobj",
					"text" : "r FantaStick",
					"numinlets" : 0,
					"fontsize" : 9.0,
					"patching_rect" : [ 354.0, 400.0, 65.0, 17.0 ],
					"id" : "obj-14",
					"numoutlets" : 1,
					"outlettype" : [ "" ],
					"fontname" : "Arial"
				}

			}
, 			{
				"box" : 				{
					"maxclass" : "newobj",
					"text" : "s toFantaStick",
					"numinlets" : 1,
					"fontsize" : 9.0,
					"patching_rect" : [ 167.0, 517.0, 74.0, 17.0 ],
					"id" : "obj-15",
					"numoutlets" : 0,
					"fontname" : "Arial"
				}

			}
, 			{
				"box" : 				{
					"maxclass" : "newobj",
					"text" : "prepend model 1 xyz",
					"numinlets" : 1,
					"fontsize" : 9.0,
					"patching_rect" : [ 123.0, 283.0, 103.0, 17.0 ],
					"id" : "obj-16",
					"numoutlets" : 1,
					"outlettype" : [ "" ],
					"fontname" : "Arial"
				}

			}
, 			{
				"box" : 				{
					"maxclass" : "newobj",
					"text" : "zl group",
					"numinlets" : 2,
					"fontsize" : 9.0,
					"patching_rect" : [ 123.0, 236.0, 46.0, 17.0 ],
					"id" : "obj-17",
					"numoutlets" : 2,
					"outlettype" : [ "", "" ],
					"fontname" : "Arial"
				}

			}
, 			{
				"box" : 				{
					"maxclass" : "newobj",
					"text" : "/ 10.",
					"numinlets" : 2,
					"fontsize" : 9.0,
					"patching_rect" : [ 170.0, 115.0, 34.0, 17.0 ],
					"id" : "obj-18",
					"numoutlets" : 1,
					"outlettype" : [ "float" ],
					"fontname" : "Arial"
				}

			}
, 			{
				"box" : 				{
					"maxclass" : "message",
					"text" : "opengl 1",
					"numinlets" : 2,
					"fontsize" : 9.0,
					"patching_rect" : [ 24.0, 38.0, 47.0, 15.0 ],
					"id" : "obj-19",
					"numoutlets" : 1,
					"outlettype" : [ "" ],
					"fontname" : "Arial"
				}

			}
, 			{
				"box" : 				{
					"maxclass" : "newobj",
					"text" : "* 50.",
					"numinlets" : 2,
					"fontsize" : 9.0,
					"patching_rect" : [ 189.0, 174.0, 35.0, 17.0 ],
					"id" : "obj-20",
					"numoutlets" : 1,
					"outlettype" : [ "float" ],
					"fontname" : "Arial"
				}

			}
, 			{
				"box" : 				{
					"maxclass" : "newobj",
					"text" : "* 50.",
					"numinlets" : 2,
					"fontsize" : 9.0,
					"patching_rect" : [ 153.0, 174.0, 35.0, 17.0 ],
					"id" : "obj-21",
					"numoutlets" : 1,
					"outlettype" : [ "float" ],
					"fontname" : "Arial"
				}

			}
, 			{
				"box" : 				{
					"maxclass" : "button",
					"numinlets" : 1,
					"patching_rect" : [ 140.0, 61.0, 15.0, 15.0 ],
					"id" : "obj-22",
					"numoutlets" : 1,
					"outlettype" : [ "bang" ]
				}

			}
, 			{
				"box" : 				{
					"maxclass" : "newobj",
					"text" : "pack i i 0",
					"numinlets" : 3,
					"fontsize" : 9.0,
					"patching_rect" : [ 153.0, 205.0, 51.0, 17.0 ],
					"id" : "obj-23",
					"numoutlets" : 1,
					"outlettype" : [ "" ],
					"fontname" : "Arial"
				}

			}
, 			{
				"box" : 				{
					"maxclass" : "newobj",
					"text" : "uzi 63",
					"numinlets" : 2,
					"fontsize" : 9.0,
					"patching_rect" : [ 140.0, 91.0, 40.0, 17.0 ],
					"id" : "obj-24",
					"numoutlets" : 3,
					"outlettype" : [ "bang", "bang", "int" ],
					"fontname" : "Arial"
				}

			}
, 			{
				"box" : 				{
					"maxclass" : "newobj",
					"text" : "cos",
					"numinlets" : 1,
					"fontsize" : 9.0,
					"patching_rect" : [ 189.0, 149.0, 23.0, 17.0 ],
					"id" : "obj-25",
					"numoutlets" : 1,
					"outlettype" : [ "float" ],
					"fontname" : "Arial"
				}

			}
, 			{
				"box" : 				{
					"maxclass" : "newobj",
					"text" : "sin",
					"numinlets" : 1,
					"fontsize" : 9.0,
					"patching_rect" : [ 153.0, 149.0, 21.0, 17.0 ],
					"id" : "obj-26",
					"numoutlets" : 1,
					"outlettype" : [ "float" ],
					"fontname" : "Arial"
				}

			}
, 			{
				"box" : 				{
					"maxclass" : "comment",
					"text" : "Create five circle models...",
					"numinlets" : 1,
					"fontsize" : 9.0,
					"patching_rect" : [ 171.0, 63.0, 142.0, 17.0 ],
					"id" : "obj-27",
					"numoutlets" : 0,
					"fontname" : "Arial"
				}

			}
 ],
		"lines" : [ 			{
				"patchline" : 				{
					"source" : [ "obj-11", 2 ],
					"destination" : [ "obj-6", 0 ],
					"hidden" : 0,
					"midpoints" : [  ]
				}

			}
, 			{
				"patchline" : 				{
					"source" : [ "obj-5", 0 ],
					"destination" : [ "obj-11", 0 ],
					"hidden" : 0,
					"midpoints" : [  ]
				}

			}
, 			{
				"patchline" : 				{
					"source" : [ "obj-14", 0 ],
					"destination" : [ "obj-12", 0 ],
					"hidden" : 0,
					"midpoints" : [  ]
				}

			}
, 			{
				"patchline" : 				{
					"source" : [ "obj-25", 0 ],
					"destination" : [ "obj-20", 0 ],
					"hidden" : 0,
					"midpoints" : [  ]
				}

			}
, 			{
				"patchline" : 				{
					"source" : [ "obj-18", 0 ],
					"destination" : [ "obj-25", 0 ],
					"hidden" : 0,
					"midpoints" : [  ]
				}

			}
, 			{
				"patchline" : 				{
					"source" : [ "obj-20", 0 ],
					"destination" : [ "obj-23", 1 ],
					"hidden" : 0,
					"midpoints" : [  ]
				}

			}
, 			{
				"patchline" : 				{
					"source" : [ "obj-24", 2 ],
					"destination" : [ "obj-18", 0 ],
					"hidden" : 0,
					"midpoints" : [  ]
				}

			}
, 			{
				"patchline" : 				{
					"source" : [ "obj-17", 0 ],
					"destination" : [ "obj-7", 0 ],
					"hidden" : 0,
					"midpoints" : [  ]
				}

			}
, 			{
				"patchline" : 				{
					"source" : [ "obj-16", 0 ],
					"destination" : [ "obj-15", 0 ],
					"hidden" : 0,
					"midpoints" : [  ]
				}

			}
, 			{
				"patchline" : 				{
					"source" : [ "obj-10", 0 ],
					"destination" : [ "obj-15", 0 ],
					"hidden" : 0,
					"midpoints" : [  ]
				}

			}
, 			{
				"patchline" : 				{
					"source" : [ "obj-9", 0 ],
					"destination" : [ "obj-15", 0 ],
					"hidden" : 0,
					"midpoints" : [  ]
				}

			}
, 			{
				"patchline" : 				{
					"source" : [ "obj-8", 0 ],
					"destination" : [ "obj-15", 0 ],
					"hidden" : 0,
					"midpoints" : [  ]
				}

			}
, 			{
				"patchline" : 				{
					"source" : [ "obj-7", 0 ],
					"destination" : [ "obj-15", 0 ],
					"hidden" : 0,
					"midpoints" : [  ]
				}

			}
, 			{
				"patchline" : 				{
					"source" : [ "obj-6", 0 ],
					"destination" : [ "obj-15", 0 ],
					"hidden" : 0,
					"midpoints" : [  ]
				}

			}
, 			{
				"patchline" : 				{
					"source" : [ "obj-12", 0 ],
					"destination" : [ "obj-15", 0 ],
					"hidden" : 0,
					"midpoints" : [  ]
				}

			}
, 			{
				"patchline" : 				{
					"source" : [ "obj-4", 0 ],
					"destination" : [ "obj-15", 0 ],
					"hidden" : 0,
					"midpoints" : [  ]
				}

			}
, 			{
				"patchline" : 				{
					"source" : [ "obj-17", 0 ],
					"destination" : [ "obj-8", 0 ],
					"hidden" : 0,
					"midpoints" : [  ]
				}

			}
, 			{
				"patchline" : 				{
					"source" : [ "obj-21", 0 ],
					"destination" : [ "obj-23", 0 ],
					"hidden" : 0,
					"midpoints" : [  ]
				}

			}
, 			{
				"patchline" : 				{
					"source" : [ "obj-26", 0 ],
					"destination" : [ "obj-21", 0 ],
					"hidden" : 0,
					"midpoints" : [  ]
				}

			}
, 			{
				"patchline" : 				{
					"source" : [ "obj-18", 0 ],
					"destination" : [ "obj-26", 0 ],
					"hidden" : 0,
					"midpoints" : [  ]
				}

			}
, 			{
				"patchline" : 				{
					"source" : [ "obj-17", 0 ],
					"destination" : [ "obj-9", 0 ],
					"hidden" : 0,
					"midpoints" : [  ]
				}

			}
, 			{
				"patchline" : 				{
					"source" : [ "obj-22", 0 ],
					"destination" : [ "obj-24", 0 ],
					"hidden" : 0,
					"midpoints" : [  ]
				}

			}
, 			{
				"patchline" : 				{
					"source" : [ "obj-17", 0 ],
					"destination" : [ "obj-10", 0 ],
					"hidden" : 0,
					"midpoints" : [  ]
				}

			}
, 			{
				"patchline" : 				{
					"source" : [ "obj-17", 0 ],
					"destination" : [ "obj-16", 0 ],
					"hidden" : 0,
					"midpoints" : [  ]
				}

			}
, 			{
				"patchline" : 				{
					"source" : [ "obj-23", 0 ],
					"destination" : [ "obj-17", 0 ],
					"hidden" : 0,
					"midpoints" : [  ]
				}

			}
, 			{
				"patchline" : 				{
					"source" : [ "obj-24", 1 ],
					"destination" : [ "obj-17", 0 ],
					"hidden" : 0,
					"midpoints" : [  ]
				}

			}
, 			{
				"patchline" : 				{
					"source" : [ "obj-19", 0 ],
					"destination" : [ "obj-13", 0 ],
					"hidden" : 0,
					"midpoints" : [  ]
				}

			}
 ]
	}

}
