{
	"patcher" : 	{
		"fileversion" : 1,
		"rect" : [ 539.0, 44.0, 607.0, 707.0 ],
		"bglocked" : 0,
		"defrect" : [ 539.0, 44.0, 607.0, 707.0 ],
		"openrect" : [ 0.0, 0.0, 0.0, 0.0 ],
		"openinpresentation" : 0,
		"default_fontsize" : 10.0,
		"default_fontface" : 0,
		"default_fontname" : "Arial",
		"gridonopen" : 0,
		"gridsize" : [ 15.0, 15.0 ],
		"gridsnaponopen" : 0,
		"toolbarvisible" : 1,
		"boxanimatetime" : 200,
		"imprint" : 0,
		"metadata" : [  ],
		"boxes" : [ 			{
				"box" : 				{
					"maxclass" : "newobj",
					"text" : "p moveSprite",
					"outlettype" : [ "recordsprite" ],
					"id" : "obj-50",
					"fontname" : "Arial",
					"numinlets" : 2,
					"patching_rect" : [ 95.0, 325.0, 92.0, 18.0 ],
					"fontsize" : 10.0,
					"numoutlets" : 1,
					"patcher" : 					{
						"fileversion" : 1,
						"rect" : [ 0.0, 44.0, 636.0, 578.0 ],
						"bglocked" : 0,
						"defrect" : [ 0.0, 44.0, 636.0, 578.0 ],
						"openrect" : [ 0.0, 0.0, 0.0, 0.0 ],
						"openinpresentation" : 0,
						"default_fontsize" : 10.0,
						"default_fontface" : 0,
						"default_fontname" : "Arial",
						"gridonopen" : 0,
						"gridsize" : [ 15.0, 15.0 ],
						"gridsnaponopen" : 0,
						"toolbarvisible" : 1,
						"boxanimatetime" : 200,
						"imprint" : 0,
						"visible" : 1,
						"metadata" : [  ],
						"boxes" : [ 							{
								"box" : 								{
									"maxclass" : "newobj",
									"text" : "r hoverSelect",
									"outlettype" : [ "" ],
									"id" : "obj-5",
									"presentation_rect" : [ 174.0, 99.0, 0.0, 0.0 ],
									"fontname" : "Arial",
									"numinlets" : 0,
									"patching_rect" : [ 250.0, 148.0, 69.0, 18.0 ],
									"fontsize" : 10.0,
									"numoutlets" : 1
								}

							}
, 							{
								"box" : 								{
									"maxclass" : "newobj",
									"text" : "buddy",
									"outlettype" : [ "", "" ],
									"id" : "obj-4",
									"fontname" : "Arial",
									"numinlets" : 2,
									"patching_rect" : [ 216.0, 174.0, 38.0, 18.0 ],
									"fontsize" : 10.0,
									"numoutlets" : 2
								}

							}
, 							{
								"box" : 								{
									"maxclass" : "newobj",
									"text" : "gate 1 0",
									"outlettype" : [ "" ],
									"id" : "obj-3",
									"presentation_rect" : [ 217.0, 138.0, 0.0, 0.0 ],
									"fontname" : "Arial",
									"numinlets" : 2,
									"patching_rect" : [ 217.0, 202.0, 47.0, 18.0 ],
									"fontsize" : 10.0,
									"numoutlets" : 1
								}

							}
, 							{
								"box" : 								{
									"maxclass" : "toggle",
									"outlettype" : [ "int" ],
									"id" : "obj-18",
									"numinlets" : 1,
									"patching_rect" : [ 11.0, 142.0, 20.0, 20.0 ],
									"numoutlets" : 1
								}

							}
, 							{
								"box" : 								{
									"maxclass" : "newobj",
									"text" : "r hoverSelect",
									"outlettype" : [ "" ],
									"id" : "obj-15",
									"fontname" : "Arial",
									"numinlets" : 0,
									"patching_rect" : [ 32.0, 110.0, 69.0, 18.0 ],
									"fontsize" : 10.0,
									"numoutlets" : 1
								}

							}
, 							{
								"box" : 								{
									"maxclass" : "newobj",
									"text" : "gate 1 0",
									"outlettype" : [ "" ],
									"id" : "obj-14",
									"fontname" : "Arial",
									"numinlets" : 2,
									"patching_rect" : [ 32.0, 153.0, 47.0, 18.0 ],
									"fontsize" : 10.0,
									"numoutlets" : 1
								}

							}
, 							{
								"box" : 								{
									"maxclass" : "newobj",
									"text" : "t l l",
									"outlettype" : [ "", "" ],
									"id" : "obj-6",
									"fontname" : "Arial",
									"numinlets" : 1,
									"patching_rect" : [ 60.0, 79.0, 32.5, 18.0 ],
									"fontsize" : 10.0,
									"numoutlets" : 2
								}

							}
, 							{
								"box" : 								{
									"maxclass" : "newobj",
									"text" : "s moveToCoord",
									"id" : "obj-1",
									"fontname" : "Arial",
									"numinlets" : 1,
									"patching_rect" : [ 32.0, 214.0, 81.0, 18.0 ],
									"fontsize" : 10.0,
									"numoutlets" : 0
								}

							}
, 							{
								"box" : 								{
									"maxclass" : "newobj",
									"text" : "p selectSpriteMoving",
									"outlettype" : [ "" ],
									"id" : "obj-2",
									"fontname" : "Arial",
									"numinlets" : 1,
									"patching_rect" : [ 12.0, 241.0, 103.0, 18.0 ],
									"fontsize" : 10.0,
									"numoutlets" : 1,
									"patcher" : 									{
										"fileversion" : 1,
										"rect" : [ 796.0, 44.0, 292.0, 407.0 ],
										"bglocked" : 0,
										"defrect" : [ 796.0, 44.0, 292.0, 407.0 ],
										"openrect" : [ 0.0, 0.0, 0.0, 0.0 ],
										"openinpresentation" : 0,
										"default_fontsize" : 10.0,
										"default_fontface" : 0,
										"default_fontname" : "Arial Bold",
										"gridonopen" : 0,
										"gridsize" : [ 15.0, 15.0 ],
										"gridsnaponopen" : 0,
										"toolbarvisible" : 1,
										"boxanimatetime" : 200,
										"imprint" : 0,
										"metadata" : [  ],
										"boxes" : [ 											{
												"box" : 												{
													"maxclass" : "newobj",
													"text" : "pack i i i i",
													"outlettype" : [ "" ],
													"id" : "obj-41",
													"fontname" : "Arial",
													"numinlets" : 4,
													"patching_rect" : [ 37.0, 246.0, 108.5, 18.0 ],
													"fontsize" : 10.0,
													"numoutlets" : 1
												}

											}
, 											{
												"box" : 												{
													"maxclass" : "newobj",
													"text" : "+ 6",
													"outlettype" : [ "int" ],
													"id" : "obj-38",
													"fontname" : "Arial",
													"numinlets" : 2,
													"patching_rect" : [ 127.0, 199.0, 32.5, 18.0 ],
													"fontsize" : 10.0,
													"numoutlets" : 1
												}

											}
, 											{
												"box" : 												{
													"maxclass" : "newobj",
													"text" : "+ 6",
													"outlettype" : [ "int" ],
													"id" : "obj-39",
													"fontname" : "Arial",
													"numinlets" : 2,
													"patching_rect" : [ 97.0, 199.0, 32.5, 18.0 ],
													"fontsize" : 10.0,
													"numoutlets" : 1
												}

											}
, 											{
												"box" : 												{
													"maxclass" : "newobj",
													"text" : "unpack",
													"outlettype" : [ "int", "int" ],
													"id" : "obj-40",
													"fontname" : "Arial",
													"numinlets" : 1,
													"patching_rect" : [ 70.0, 161.0, 43.0, 18.0 ],
													"fontsize" : 10.0,
													"numoutlets" : 2
												}

											}
, 											{
												"box" : 												{
													"maxclass" : "message",
													"text" : "recordsprite, paintrect $1 $2 $3 $4 44, closesprite selected1, drawsprite selected1 0 0",
													"linecount" : 2,
													"outlettype" : [ "" ],
													"id" : "obj-37",
													"fontname" : "Arial",
													"numinlets" : 2,
													"patching_rect" : [ 37.0, 282.0, 233.0, 27.0 ],
													"fontsize" : 10.0,
													"numoutlets" : 1
												}

											}
, 											{
												"box" : 												{
													"maxclass" : "newobj",
													"text" : "coll 4Points",
													"outlettype" : [ "", "", "", "" ],
													"id" : "obj-34",
													"fontname" : "Arial",
													"bgcolor" : [ 1.0, 0.486275, 0.486275, 1.0 ],
													"numinlets" : 1,
													"patching_rect" : [ 70.0, 134.0, 73.0, 20.0 ],
													"fontsize" : 12.0,
													"numoutlets" : 4,
													"save" : [ "#N", "coll", "4Points", ";" ],
													"saved_object_attributes" : 													{
														"embed" : 0
													}

												}

											}
, 											{
												"box" : 												{
													"maxclass" : "newobj",
													"text" : "value selected",
													"outlettype" : [ "" ],
													"id" : "obj-16",
													"fontname" : "Arial",
													"numinlets" : 1,
													"patching_rect" : [ 70.0, 103.0, 74.0, 18.0 ],
													"fontsize" : 10.0,
													"numoutlets" : 1
												}

											}
, 											{
												"box" : 												{
													"maxclass" : "newobj",
													"text" : "t b b",
													"outlettype" : [ "bang", "bang" ],
													"id" : "obj-14",
													"fontname" : "Arial",
													"numinlets" : 1,
													"patching_rect" : [ 56.0, 76.0, 32.5, 18.0 ],
													"fontsize" : 10.0,
													"numoutlets" : 2
												}

											}
, 											{
												"box" : 												{
													"maxclass" : "inlet",
													"outlettype" : [ "" ],
													"id" : "obj-43",
													"numinlets" : 0,
													"patching_rect" : [ 56.0, 16.0, 25.0, 25.0 ],
													"numoutlets" : 1,
													"comment" : ""
												}

											}
, 											{
												"box" : 												{
													"maxclass" : "outlet",
													"id" : "obj-44",
													"numinlets" : 1,
													"patching_rect" : [ 37.0, 369.0, 25.0, 25.0 ],
													"numoutlets" : 0,
													"comment" : ""
												}

											}
 ],
										"lines" : [ 											{
												"patchline" : 												{
													"source" : [ "obj-40", 1 ],
													"destination" : [ "obj-38", 0 ],
													"hidden" : 0,
													"midpoints" : [  ]
												}

											}
, 											{
												"patchline" : 												{
													"source" : [ "obj-40", 0 ],
													"destination" : [ "obj-39", 0 ],
													"hidden" : 0,
													"midpoints" : [  ]
												}

											}
, 											{
												"patchline" : 												{
													"source" : [ "obj-34", 0 ],
													"destination" : [ "obj-40", 0 ],
													"hidden" : 0,
													"midpoints" : [  ]
												}

											}
, 											{
												"patchline" : 												{
													"source" : [ "obj-38", 0 ],
													"destination" : [ "obj-41", 3 ],
													"hidden" : 0,
													"midpoints" : [  ]
												}

											}
, 											{
												"patchline" : 												{
													"source" : [ "obj-39", 0 ],
													"destination" : [ "obj-41", 2 ],
													"hidden" : 0,
													"midpoints" : [  ]
												}

											}
, 											{
												"patchline" : 												{
													"source" : [ "obj-40", 1 ],
													"destination" : [ "obj-41", 1 ],
													"hidden" : 0,
													"midpoints" : [  ]
												}

											}
, 											{
												"patchline" : 												{
													"source" : [ "obj-40", 0 ],
													"destination" : [ "obj-41", 0 ],
													"hidden" : 0,
													"midpoints" : [  ]
												}

											}
, 											{
												"patchline" : 												{
													"source" : [ "obj-41", 0 ],
													"destination" : [ "obj-37", 0 ],
													"hidden" : 0,
													"midpoints" : [  ]
												}

											}
, 											{
												"patchline" : 												{
													"source" : [ "obj-37", 0 ],
													"destination" : [ "obj-44", 0 ],
													"hidden" : 0,
													"midpoints" : [  ]
												}

											}
, 											{
												"patchline" : 												{
													"source" : [ "obj-43", 0 ],
													"destination" : [ "obj-14", 0 ],
													"hidden" : 0,
													"midpoints" : [  ]
												}

											}
, 											{
												"patchline" : 												{
													"source" : [ "obj-14", 1 ],
													"destination" : [ "obj-16", 0 ],
													"hidden" : 0,
													"midpoints" : [  ]
												}

											}
, 											{
												"patchline" : 												{
													"source" : [ "obj-16", 0 ],
													"destination" : [ "obj-34", 0 ],
													"hidden" : 0,
													"midpoints" : [  ]
												}

											}
 ]
									}
,
									"saved_object_attributes" : 									{
										"default_fontface" : 0,
										"default_fontname" : "Arial Bold",
										"fontname" : "Arial Bold",
										"default_fontsize" : 10.0,
										"globalpatchername" : "",
										"fontface" : 0,
										"fontsize" : 10.0
									}

								}

							}
, 							{
								"box" : 								{
									"maxclass" : "newobj",
									"text" : "value selected",
									"outlettype" : [ "" ],
									"id" : "obj-16",
									"fontname" : "Arial",
									"numinlets" : 1,
									"patching_rect" : [ 216.0, 126.0, 74.0, 18.0 ],
									"fontsize" : 10.0,
									"numoutlets" : 1
								}

							}
, 							{
								"box" : 								{
									"maxclass" : "newobj",
									"text" : "unpack i i i",
									"outlettype" : [ "int", "int", "int" ],
									"id" : "obj-44",
									"fontname" : "Arial",
									"numinlets" : 1,
									"patching_rect" : [ 217.0, 282.0, 58.0, 18.0 ],
									"fontsize" : 10.0,
									"numoutlets" : 3
								}

							}
, 							{
								"box" : 								{
									"maxclass" : "newobj",
									"text" : "t l l",
									"outlettype" : [ "", "" ],
									"id" : "obj-65",
									"fontname" : "Arial",
									"numinlets" : 1,
									"patching_rect" : [ 217.0, 343.0, 32.5, 18.0 ],
									"fontsize" : 10.0,
									"numoutlets" : 2
								}

							}
, 							{
								"box" : 								{
									"maxclass" : "newobj",
									"text" : "t l l recordsprite",
									"outlettype" : [ "", "", "recordsprite" ],
									"id" : "obj-64",
									"fontname" : "Arial",
									"numinlets" : 1,
									"patching_rect" : [ 368.0, 343.0, 79.0, 18.0 ],
									"fontsize" : 10.0,
									"numoutlets" : 3
								}

							}
, 							{
								"box" : 								{
									"maxclass" : "newobj",
									"text" : "route closesprite",
									"outlettype" : [ "", "" ],
									"id" : "obj-55",
									"fontname" : "Arial",
									"numinlets" : 1,
									"patching_rect" : [ 217.0, 394.0, 84.0, 18.0 ],
									"fontsize" : 10.0,
									"numoutlets" : 2
								}

							}
, 							{
								"box" : 								{
									"maxclass" : "newobj",
									"text" : "sprintf drawsprite %s 0 0",
									"outlettype" : [ "" ],
									"id" : "obj-54",
									"fontname" : "Arial",
									"numinlets" : 1,
									"patching_rect" : [ 217.0, 418.0, 120.0, 18.0 ],
									"fontsize" : 10.0,
									"numoutlets" : 1
								}

							}
, 							{
								"box" : 								{
									"maxclass" : "newobj",
									"text" : "sprintf closesprite point%i",
									"outlettype" : [ "" ],
									"id" : "obj-51",
									"fontname" : "Arial",
									"numinlets" : 1,
									"patching_rect" : [ 217.0, 320.0, 124.0, 18.0 ],
									"fontsize" : 10.0,
									"numoutlets" : 1
								}

							}
, 							{
								"box" : 								{
									"maxclass" : "newobj",
									"text" : "sprintf drawpict button%i %i %i",
									"outlettype" : [ "" ],
									"id" : "obj-37",
									"fontname" : "Arial",
									"numinlets" : 3,
									"patching_rect" : [ 368.0, 322.0, 147.0, 18.0 ],
									"fontsize" : 10.0,
									"numoutlets" : 1
								}

							}
, 							{
								"box" : 								{
									"maxclass" : "newobj",
									"text" : "coll 4Points",
									"outlettype" : [ "", "", "", "" ],
									"id" : "obj-35",
									"fontname" : "Arial",
									"bgcolor" : [ 1.0, 0.494118, 0.494118, 1.0 ],
									"numinlets" : 1,
									"patching_rect" : [ 538.0, 283.0, 73.0, 20.0 ],
									"fontsize" : 12.0,
									"numoutlets" : 4,
									"save" : [ "#N", "coll", "4Points", ";" ],
									"saved_object_attributes" : 									{
										"embed" : 0
									}

								}

							}
, 							{
								"box" : 								{
									"maxclass" : "newobj",
									"text" : "pak i i i",
									"outlettype" : [ "" ],
									"id" : "obj-34",
									"fontname" : "Arial",
									"numinlets" : 3,
									"patching_rect" : [ 217.0, 246.0, 46.0, 18.0 ],
									"fontsize" : 10.0,
									"numoutlets" : 1
								}

							}
, 							{
								"box" : 								{
									"maxclass" : "newobj",
									"text" : "sel 1",
									"outlettype" : [ "bang", "" ],
									"id" : "obj-32",
									"fontname" : "Arial",
									"numinlets" : 2,
									"patching_rect" : [ 216.0, 101.0, 32.5, 18.0 ],
									"fontsize" : 10.0,
									"numoutlets" : 2
								}

							}
, 							{
								"box" : 								{
									"maxclass" : "newobj",
									"text" : "vexpr $i1 - 3 @scalarmode 1",
									"outlettype" : [ "" ],
									"id" : "obj-10",
									"fontname" : "Arial",
									"numinlets" : 1,
									"patching_rect" : [ 60.0, 54.0, 138.0, 18.0 ],
									"fontsize" : 10.0,
									"numoutlets" : 1
								}

							}
, 							{
								"box" : 								{
									"maxclass" : "inlet",
									"outlettype" : [ "list" ],
									"id" : "obj-47",
									"numinlets" : 0,
									"patching_rect" : [ 60.0, 22.0, 25.0, 25.0 ],
									"numoutlets" : 1,
									"comment" : ""
								}

							}
, 							{
								"box" : 								{
									"maxclass" : "inlet",
									"outlettype" : [ "int" ],
									"id" : "obj-48",
									"numinlets" : 0,
									"patching_rect" : [ 216.0, 43.0, 25.0, 25.0 ],
									"numoutlets" : 1,
									"comment" : ""
								}

							}
, 							{
								"box" : 								{
									"maxclass" : "outlet",
									"id" : "obj-49",
									"numinlets" : 1,
									"patching_rect" : [ 340.0, 517.0, 25.0, 25.0 ],
									"numoutlets" : 0,
									"comment" : ""
								}

							}
 ],
						"lines" : [ 							{
								"patchline" : 								{
									"source" : [ "obj-3", 0 ],
									"destination" : [ "obj-34", 0 ],
									"hidden" : 0,
									"midpoints" : [  ]
								}

							}
, 							{
								"patchline" : 								{
									"source" : [ "obj-16", 0 ],
									"destination" : [ "obj-4", 0 ],
									"hidden" : 0,
									"midpoints" : [  ]
								}

							}
, 							{
								"patchline" : 								{
									"source" : [ "obj-32", 0 ],
									"destination" : [ "obj-16", 0 ],
									"hidden" : 0,
									"midpoints" : [  ]
								}

							}
, 							{
								"patchline" : 								{
									"source" : [ "obj-4", 0 ],
									"destination" : [ "obj-3", 1 ],
									"hidden" : 0,
									"midpoints" : [  ]
								}

							}
, 							{
								"patchline" : 								{
									"source" : [ "obj-4", 1 ],
									"destination" : [ "obj-3", 0 ],
									"hidden" : 0,
									"midpoints" : [  ]
								}

							}
, 							{
								"patchline" : 								{
									"source" : [ "obj-5", 0 ],
									"destination" : [ "obj-4", 1 ],
									"hidden" : 0,
									"midpoints" : [  ]
								}

							}
, 							{
								"patchline" : 								{
									"source" : [ "obj-47", 0 ],
									"destination" : [ "obj-10", 0 ],
									"hidden" : 0,
									"midpoints" : [  ]
								}

							}
, 							{
								"patchline" : 								{
									"source" : [ "obj-64", 2 ],
									"destination" : [ "obj-49", 0 ],
									"hidden" : 0,
									"midpoints" : [ 437.5, 504.0, 349.5, 504.0 ]
								}

							}
, 							{
								"patchline" : 								{
									"source" : [ "obj-64", 1 ],
									"destination" : [ "obj-49", 0 ],
									"hidden" : 0,
									"midpoints" : [ 407.5, 504.0, 349.5, 504.0 ]
								}

							}
, 							{
								"patchline" : 								{
									"source" : [ "obj-65", 1 ],
									"destination" : [ "obj-49", 0 ],
									"hidden" : 0,
									"midpoints" : [ 240.0, 381.0, 349.0, 381.0, 349.0, 504.0, 349.5, 504.0 ]
								}

							}
, 							{
								"patchline" : 								{
									"source" : [ "obj-54", 0 ],
									"destination" : [ "obj-49", 0 ],
									"hidden" : 0,
									"midpoints" : [ 226.5, 504.0, 349.5, 504.0 ]
								}

							}
, 							{
								"patchline" : 								{
									"source" : [ "obj-44", 0 ],
									"destination" : [ "obj-51", 0 ],
									"hidden" : 0,
									"midpoints" : [  ]
								}

							}
, 							{
								"patchline" : 								{
									"source" : [ "obj-34", 0 ],
									"destination" : [ "obj-44", 0 ],
									"hidden" : 0,
									"midpoints" : [  ]
								}

							}
, 							{
								"patchline" : 								{
									"source" : [ "obj-55", 0 ],
									"destination" : [ "obj-54", 0 ],
									"hidden" : 0,
									"midpoints" : [  ]
								}

							}
, 							{
								"patchline" : 								{
									"source" : [ "obj-51", 0 ],
									"destination" : [ "obj-65", 0 ],
									"hidden" : 0,
									"midpoints" : [  ]
								}

							}
, 							{
								"patchline" : 								{
									"source" : [ "obj-65", 0 ],
									"destination" : [ "obj-55", 0 ],
									"hidden" : 0,
									"midpoints" : [  ]
								}

							}
, 							{
								"patchline" : 								{
									"source" : [ "obj-37", 0 ],
									"destination" : [ "obj-64", 0 ],
									"hidden" : 0,
									"midpoints" : [  ]
								}

							}
, 							{
								"patchline" : 								{
									"source" : [ "obj-34", 0 ],
									"destination" : [ "obj-37", 0 ],
									"hidden" : 0,
									"midpoints" : [ 226.5, 272.0, 377.5, 272.0 ]
								}

							}
, 							{
								"patchline" : 								{
									"source" : [ "obj-34", 0 ],
									"destination" : [ "obj-35", 0 ],
									"hidden" : 0,
									"midpoints" : [ 226.5, 272.0, 547.5, 272.0 ]
								}

							}
, 							{
								"patchline" : 								{
									"source" : [ "obj-2", 0 ],
									"destination" : [ "obj-49", 0 ],
									"hidden" : 0,
									"midpoints" : [ 21.5, 504.0, 349.5, 504.0 ]
								}

							}
, 							{
								"patchline" : 								{
									"source" : [ "obj-10", 0 ],
									"destination" : [ "obj-6", 0 ],
									"hidden" : 0,
									"midpoints" : [  ]
								}

							}
, 							{
								"patchline" : 								{
									"source" : [ "obj-48", 0 ],
									"destination" : [ "obj-32", 0 ],
									"hidden" : 0,
									"midpoints" : [  ]
								}

							}
, 							{
								"patchline" : 								{
									"source" : [ "obj-15", 0 ],
									"destination" : [ "obj-18", 0 ],
									"hidden" : 0,
									"midpoints" : [  ]
								}

							}
, 							{
								"patchline" : 								{
									"source" : [ "obj-14", 0 ],
									"destination" : [ "obj-2", 0 ],
									"hidden" : 0,
									"midpoints" : [ 41.5, 201.0, 18.0, 201.0, 18.0, 237.0, 21.5, 237.0 ]
								}

							}
, 							{
								"patchline" : 								{
									"source" : [ "obj-14", 0 ],
									"destination" : [ "obj-1", 0 ],
									"hidden" : 0,
									"midpoints" : [ 41.5, 171.0, 41.5, 171.0 ]
								}

							}
, 							{
								"patchline" : 								{
									"source" : [ "obj-14", 0 ],
									"destination" : [ "obj-34", 1 ],
									"hidden" : 0,
									"midpoints" : [ 41.5, 201.0, 216.0, 201.0, 216.0, 231.0, 240.0, 231.0 ]
								}

							}
, 							{
								"patchline" : 								{
									"source" : [ "obj-6", 0 ],
									"destination" : [ "obj-14", 1 ],
									"hidden" : 0,
									"midpoints" : [  ]
								}

							}
, 							{
								"patchline" : 								{
									"source" : [ "obj-15", 0 ],
									"destination" : [ "obj-14", 0 ],
									"hidden" : 0,
									"midpoints" : [  ]
								}

							}
 ]
					}
,
					"saved_object_attributes" : 					{
						"default_fontface" : 0,
						"default_fontname" : "Arial",
						"fontname" : "Arial",
						"default_fontsize" : 10.0,
						"globalpatchername" : "",
						"fontface" : 0,
						"fontsize" : 10.0
					}

				}

			}
, 			{
				"box" : 				{
					"maxclass" : "newobj",
					"text" : "p selectSprite",
					"outlettype" : [ "" ],
					"id" : "obj-45",
					"fontname" : "Arial",
					"numinlets" : 1,
					"patching_rect" : [ 192.0, 324.0, 71.0, 18.0 ],
					"fontsize" : 10.0,
					"numoutlets" : 1,
					"patcher" : 					{
						"fileversion" : 1,
						"rect" : [ 414.0, 44.0, 649.0, 618.0 ],
						"bglocked" : 0,
						"defrect" : [ 414.0, 44.0, 649.0, 618.0 ],
						"openrect" : [ 0.0, 0.0, 0.0, 0.0 ],
						"openinpresentation" : 0,
						"default_fontsize" : 10.0,
						"default_fontface" : 0,
						"default_fontname" : "Arial Bold",
						"gridonopen" : 0,
						"gridsize" : [ 15.0, 15.0 ],
						"gridsnaponopen" : 0,
						"toolbarvisible" : 1,
						"boxanimatetime" : 200,
						"imprint" : 0,
						"metadata" : [  ],
						"boxes" : [ 							{
								"box" : 								{
									"maxclass" : "newobj",
									"text" : "t 1",
									"outlettype" : [ "int" ],
									"id" : "obj-12",
									"fontname" : "Arial Bold",
									"numinlets" : 1,
									"patching_rect" : [ 37.0, 459.0, 22.0, 18.0 ],
									"fontsize" : 10.0,
									"numoutlets" : 1
								}

							}
, 							{
								"box" : 								{
									"maxclass" : "newobj",
									"text" : "s hoverSelect",
									"id" : "obj-3",
									"fontname" : "Arial Bold",
									"numinlets" : 1,
									"patching_rect" : [ 37.0, 511.0, 76.0, 18.0 ],
									"fontsize" : 10.0,
									"numoutlets" : 0
								}

							}
, 							{
								"box" : 								{
									"maxclass" : "message",
									"text" : "deletesprite selected1",
									"outlettype" : [ "" ],
									"id" : "obj-11",
									"fontname" : "Arial",
									"numinlets" : 2,
									"patching_rect" : [ 72.0, 478.0, 108.0, 16.0 ],
									"fontsize" : 10.0,
									"numoutlets" : 1
								}

							}
, 							{
								"box" : 								{
									"maxclass" : "newobj",
									"text" : "t b 0",
									"outlettype" : [ "bang", "int" ],
									"id" : "obj-2",
									"fontname" : "Arial",
									"numinlets" : 1,
									"patching_rect" : [ 72.0, 453.0, 32.5, 18.0 ],
									"fontsize" : 10.0,
									"numoutlets" : 2
								}

							}
, 							{
								"box" : 								{
									"maxclass" : "newobj",
									"text" : "change",
									"outlettype" : [ "", "int", "int" ],
									"id" : "obj-1",
									"fontname" : "Arial",
									"numinlets" : 1,
									"patching_rect" : [ 72.0, 430.0, 46.0, 18.0 ],
									"fontsize" : 10.0,
									"numoutlets" : 3
								}

							}
, 							{
								"box" : 								{
									"maxclass" : "newobj",
									"text" : "pack i i i i",
									"outlettype" : [ "" ],
									"id" : "obj-41",
									"fontname" : "Arial",
									"numinlets" : 4,
									"patching_rect" : [ 396.0, 421.0, 108.5, 18.0 ],
									"fontsize" : 10.0,
									"numoutlets" : 1
								}

							}
, 							{
								"box" : 								{
									"maxclass" : "newobj",
									"text" : "+ 6",
									"outlettype" : [ "int" ],
									"id" : "obj-38",
									"fontname" : "Arial",
									"numinlets" : 2,
									"patching_rect" : [ 486.0, 374.0, 32.5, 18.0 ],
									"fontsize" : 10.0,
									"numoutlets" : 1
								}

							}
, 							{
								"box" : 								{
									"maxclass" : "newobj",
									"text" : "+ 6",
									"outlettype" : [ "int" ],
									"id" : "obj-39",
									"fontname" : "Arial",
									"numinlets" : 2,
									"patching_rect" : [ 456.0, 374.0, 32.5, 18.0 ],
									"fontsize" : 10.0,
									"numoutlets" : 1
								}

							}
, 							{
								"box" : 								{
									"maxclass" : "newobj",
									"text" : "unpack",
									"outlettype" : [ "int", "int" ],
									"id" : "obj-40",
									"fontname" : "Arial",
									"numinlets" : 1,
									"patching_rect" : [ 429.0, 336.0, 43.0, 18.0 ],
									"fontsize" : 10.0,
									"numoutlets" : 2
								}

							}
, 							{
								"box" : 								{
									"maxclass" : "message",
									"text" : "recordsprite, paintrect $1 $2 $3 $4 44, closesprite selected1, drawsprite selected1 0 0",
									"linecount" : 2,
									"outlettype" : [ "" ],
									"id" : "obj-37",
									"fontname" : "Arial",
									"numinlets" : 2,
									"patching_rect" : [ 396.0, 457.0, 233.0, 27.0 ],
									"fontsize" : 10.0,
									"numoutlets" : 1
								}

							}
, 							{
								"box" : 								{
									"maxclass" : "newobj",
									"text" : "coll 4Points",
									"outlettype" : [ "", "", "", "" ],
									"id" : "obj-34",
									"fontname" : "Arial",
									"bgcolor" : [ 1.0, 0.486275, 0.486275, 1.0 ],
									"numinlets" : 1,
									"patching_rect" : [ 429.0, 309.0, 73.0, 20.0 ],
									"fontsize" : 12.0,
									"numoutlets" : 4,
									"save" : [ "#N", "coll", "4Points", ";" ],
									"saved_object_attributes" : 									{
										"embed" : 0
									}

								}

							}
, 							{
								"box" : 								{
									"maxclass" : "message",
									"text" : "break",
									"outlettype" : [ "" ],
									"id" : "obj-27",
									"fontname" : "Arial",
									"numinlets" : 2,
									"patching_rect" : [ 218.0, 112.0, 36.0, 16.0 ],
									"fontsize" : 10.0,
									"numoutlets" : 1
								}

							}
, 							{
								"box" : 								{
									"maxclass" : "newobj",
									"text" : "sel 4",
									"outlettype" : [ "bang", "" ],
									"id" : "obj-23",
									"fontname" : "Arial",
									"numinlets" : 2,
									"patching_rect" : [ 58.0, 395.0, 32.5, 18.0 ],
									"fontsize" : 10.0,
									"numoutlets" : 2
								}

							}
, 							{
								"box" : 								{
									"maxclass" : "newobj",
									"text" : "expr $i1 +$i2 +$i3 + $i4",
									"outlettype" : [ "" ],
									"id" : "obj-22",
									"fontname" : "Arial",
									"numinlets" : 4,
									"patching_rect" : [ 58.0, 370.0, 121.0, 18.0 ],
									"fontsize" : 10.0,
									"numoutlets" : 1
								}

							}
, 							{
								"box" : 								{
									"maxclass" : "newobj",
									"text" : ">=",
									"outlettype" : [ "int" ],
									"id" : "obj-20",
									"fontname" : "Arial",
									"numinlets" : 2,
									"patching_rect" : [ 160.0, 341.0, 32.5, 18.0 ],
									"fontsize" : 10.0,
									"numoutlets" : 1
								}

							}
, 							{
								"box" : 								{
									"maxclass" : "newobj",
									"text" : ">=",
									"outlettype" : [ "int" ],
									"id" : "obj-19",
									"fontname" : "Arial",
									"numinlets" : 2,
									"patching_rect" : [ 126.0, 341.0, 32.5, 18.0 ],
									"fontsize" : 10.0,
									"numoutlets" : 1
								}

							}
, 							{
								"box" : 								{
									"maxclass" : "newobj",
									"text" : "<=",
									"outlettype" : [ "int" ],
									"id" : "obj-18",
									"fontname" : "Arial",
									"numinlets" : 2,
									"patching_rect" : [ 92.0, 341.0, 32.5, 18.0 ],
									"fontsize" : 10.0,
									"numoutlets" : 1
								}

							}
, 							{
								"box" : 								{
									"maxclass" : "newobj",
									"text" : "<=",
									"outlettype" : [ "int" ],
									"id" : "obj-17",
									"fontname" : "Arial",
									"numinlets" : 2,
									"patching_rect" : [ 58.0, 341.0, 32.5, 18.0 ],
									"fontsize" : 10.0,
									"numoutlets" : 1
								}

							}
, 							{
								"box" : 								{
									"maxclass" : "newobj",
									"text" : "value selected",
									"outlettype" : [ "" ],
									"id" : "obj-16",
									"fontname" : "Arial",
									"numinlets" : 1,
									"patching_rect" : [ 429.0, 278.0, 74.0, 18.0 ],
									"fontsize" : 10.0,
									"numoutlets" : 1
								}

							}
, 							{
								"box" : 								{
									"maxclass" : "newobj",
									"text" : "uzi 4",
									"outlettype" : [ "bang", "bang", "int" ],
									"id" : "obj-15",
									"fontname" : "Arial",
									"numinlets" : 2,
									"patching_rect" : [ 253.0, 111.0, 46.0, 18.0 ],
									"fontsize" : 10.0,
									"numoutlets" : 3
								}

							}
, 							{
								"box" : 								{
									"maxclass" : "newobj",
									"text" : "t l b",
									"outlettype" : [ "", "bang" ],
									"id" : "obj-14",
									"fontname" : "Arial",
									"numinlets" : 1,
									"patching_rect" : [ 56.0, 76.0, 215.5, 18.0 ],
									"fontsize" : 10.0,
									"numoutlets" : 2
								}

							}
, 							{
								"box" : 								{
									"maxclass" : "newobj",
									"text" : "+ 6",
									"outlettype" : [ "int" ],
									"id" : "obj-9",
									"fontname" : "Arial",
									"numinlets" : 2,
									"patching_rect" : [ 337.0, 251.0, 32.5, 18.0 ],
									"fontsize" : 10.0,
									"numoutlets" : 1
								}

							}
, 							{
								"box" : 								{
									"maxclass" : "newobj",
									"text" : "+ 6",
									"outlettype" : [ "int" ],
									"id" : "obj-10",
									"fontname" : "Arial",
									"numinlets" : 2,
									"patching_rect" : [ 307.0, 251.0, 32.5, 18.0 ],
									"fontsize" : 10.0,
									"numoutlets" : 1
								}

							}
, 							{
								"box" : 								{
									"maxclass" : "newobj",
									"text" : "unpack",
									"outlettype" : [ "int", "int" ],
									"id" : "obj-13",
									"fontname" : "Arial",
									"numinlets" : 1,
									"patching_rect" : [ 280.0, 213.0, 43.0, 18.0 ],
									"fontsize" : 10.0,
									"numoutlets" : 2
								}

							}
, 							{
								"box" : 								{
									"maxclass" : "newobj",
									"text" : "- 3",
									"outlettype" : [ "int" ],
									"id" : "obj-8",
									"fontname" : "Arial",
									"numinlets" : 2,
									"patching_rect" : [ 113.0, 138.0, 32.5, 18.0 ],
									"fontsize" : 10.0,
									"numoutlets" : 1
								}

							}
, 							{
								"box" : 								{
									"maxclass" : "newobj",
									"text" : "- 3",
									"outlettype" : [ "int" ],
									"id" : "obj-7",
									"fontname" : "Arial",
									"numinlets" : 2,
									"patching_rect" : [ 83.0, 138.0, 32.5, 18.0 ],
									"fontsize" : 10.0,
									"numoutlets" : 1
								}

							}
, 							{
								"box" : 								{
									"maxclass" : "newobj",
									"text" : "+ 3",
									"outlettype" : [ "int" ],
									"id" : "obj-6",
									"fontname" : "Arial",
									"numinlets" : 2,
									"patching_rect" : [ 40.0, 138.0, 32.5, 18.0 ],
									"fontsize" : 10.0,
									"numoutlets" : 1
								}

							}
, 							{
								"box" : 								{
									"maxclass" : "newobj",
									"text" : "+ 3",
									"outlettype" : [ "int" ],
									"id" : "obj-5",
									"fontname" : "Arial",
									"numinlets" : 2,
									"patching_rect" : [ 7.0, 138.0, 32.5, 18.0 ],
									"fontsize" : 10.0,
									"numoutlets" : 1
								}

							}
, 							{
								"box" : 								{
									"maxclass" : "newobj",
									"text" : "unpack",
									"outlettype" : [ "int", "int" ],
									"id" : "obj-4",
									"fontname" : "Arial",
									"numinlets" : 1,
									"patching_rect" : [ 56.0, 100.0, 43.0, 18.0 ],
									"fontsize" : 10.0,
									"numoutlets" : 2
								}

							}
, 							{
								"box" : 								{
									"maxclass" : "newobj",
									"text" : "coll 4Points",
									"outlettype" : [ "", "", "", "" ],
									"id" : "obj-21",
									"fontname" : "Arial",
									"numinlets" : 1,
									"patching_rect" : [ 280.0, 152.0, 63.0, 18.0 ],
									"fontsize" : 10.0,
									"numoutlets" : 4,
									"save" : [ "#N", "coll", "4Points", ";" ],
									"saved_object_attributes" : 									{
										"embed" : 0
									}

								}

							}
, 							{
								"box" : 								{
									"maxclass" : "inlet",
									"outlettype" : [ "list" ],
									"id" : "obj-43",
									"numinlets" : 0,
									"patching_rect" : [ 56.0, 16.0, 25.0, 25.0 ],
									"numoutlets" : 1,
									"comment" : ""
								}

							}
, 							{
								"box" : 								{
									"maxclass" : "outlet",
									"id" : "obj-44",
									"numinlets" : 1,
									"patching_rect" : [ 396.0, 544.0, 25.0, 25.0 ],
									"numoutlets" : 0,
									"comment" : ""
								}

							}
 ],
						"lines" : [ 							{
								"patchline" : 								{
									"source" : [ "obj-23", 0 ],
									"destination" : [ "obj-16", 0 ],
									"hidden" : 0,
									"midpoints" : [ 67.5, 422.0, 382.0, 422.0, 382.0, 271.0, 438.5, 271.0 ]
								}

							}
, 							{
								"patchline" : 								{
									"source" : [ "obj-16", 0 ],
									"destination" : [ "obj-34", 0 ],
									"hidden" : 0,
									"midpoints" : [  ]
								}

							}
, 							{
								"patchline" : 								{
									"source" : [ "obj-21", 1 ],
									"destination" : [ "obj-16", 0 ],
									"hidden" : 0,
									"midpoints" : [ 304.166656, 198.0, 438.5, 198.0 ]
								}

							}
, 							{
								"patchline" : 								{
									"source" : [ "obj-11", 0 ],
									"destination" : [ "obj-44", 0 ],
									"hidden" : 0,
									"midpoints" : [ 81.5, 531.0, 405.5, 531.0 ]
								}

							}
, 							{
								"patchline" : 								{
									"source" : [ "obj-23", 1 ],
									"destination" : [ "obj-1", 0 ],
									"hidden" : 0,
									"midpoints" : [  ]
								}

							}
, 							{
								"patchline" : 								{
									"source" : [ "obj-14", 0 ],
									"destination" : [ "obj-4", 0 ],
									"hidden" : 0,
									"midpoints" : [  ]
								}

							}
, 							{
								"patchline" : 								{
									"source" : [ "obj-14", 1 ],
									"destination" : [ "obj-15", 0 ],
									"hidden" : 0,
									"midpoints" : [  ]
								}

							}
, 							{
								"patchline" : 								{
									"source" : [ "obj-15", 2 ],
									"destination" : [ "obj-21", 0 ],
									"hidden" : 0,
									"midpoints" : [  ]
								}

							}
, 							{
								"patchline" : 								{
									"source" : [ "obj-21", 0 ],
									"destination" : [ "obj-13", 0 ],
									"hidden" : 0,
									"midpoints" : [  ]
								}

							}
, 							{
								"patchline" : 								{
									"source" : [ "obj-17", 0 ],
									"destination" : [ "obj-22", 0 ],
									"hidden" : 0,
									"midpoints" : [  ]
								}

							}
, 							{
								"patchline" : 								{
									"source" : [ "obj-18", 0 ],
									"destination" : [ "obj-22", 1 ],
									"hidden" : 0,
									"midpoints" : [  ]
								}

							}
, 							{
								"patchline" : 								{
									"source" : [ "obj-19", 0 ],
									"destination" : [ "obj-22", 2 ],
									"hidden" : 0,
									"midpoints" : [  ]
								}

							}
, 							{
								"patchline" : 								{
									"source" : [ "obj-20", 0 ],
									"destination" : [ "obj-22", 3 ],
									"hidden" : 0,
									"midpoints" : [  ]
								}

							}
, 							{
								"patchline" : 								{
									"source" : [ "obj-22", 0 ],
									"destination" : [ "obj-23", 0 ],
									"hidden" : 0,
									"midpoints" : [  ]
								}

							}
, 							{
								"patchline" : 								{
									"source" : [ "obj-27", 0 ],
									"destination" : [ "obj-15", 0 ],
									"hidden" : 0,
									"midpoints" : [  ]
								}

							}
, 							{
								"patchline" : 								{
									"source" : [ "obj-23", 0 ],
									"destination" : [ "obj-27", 0 ],
									"hidden" : 0,
									"midpoints" : [ 67.5, 419.0, 203.0, 419.0, 203.0, 107.0, 227.5, 107.0 ]
								}

							}
, 							{
								"patchline" : 								{
									"source" : [ "obj-8", 0 ],
									"destination" : [ "obj-20", 1 ],
									"hidden" : 0,
									"midpoints" : [  ]
								}

							}
, 							{
								"patchline" : 								{
									"source" : [ "obj-4", 1 ],
									"destination" : [ "obj-8", 0 ],
									"hidden" : 0,
									"midpoints" : [  ]
								}

							}
, 							{
								"patchline" : 								{
									"source" : [ "obj-7", 0 ],
									"destination" : [ "obj-19", 1 ],
									"hidden" : 0,
									"midpoints" : [  ]
								}

							}
, 							{
								"patchline" : 								{
									"source" : [ "obj-4", 0 ],
									"destination" : [ "obj-7", 0 ],
									"hidden" : 0,
									"midpoints" : [  ]
								}

							}
, 							{
								"patchline" : 								{
									"source" : [ "obj-6", 0 ],
									"destination" : [ "obj-18", 1 ],
									"hidden" : 0,
									"midpoints" : [  ]
								}

							}
, 							{
								"patchline" : 								{
									"source" : [ "obj-4", 1 ],
									"destination" : [ "obj-6", 0 ],
									"hidden" : 0,
									"midpoints" : [  ]
								}

							}
, 							{
								"patchline" : 								{
									"source" : [ "obj-5", 0 ],
									"destination" : [ "obj-17", 1 ],
									"hidden" : 0,
									"midpoints" : [  ]
								}

							}
, 							{
								"patchline" : 								{
									"source" : [ "obj-4", 0 ],
									"destination" : [ "obj-5", 0 ],
									"hidden" : 0,
									"midpoints" : [  ]
								}

							}
, 							{
								"patchline" : 								{
									"source" : [ "obj-13", 0 ],
									"destination" : [ "obj-17", 0 ],
									"hidden" : 0,
									"midpoints" : [  ]
								}

							}
, 							{
								"patchline" : 								{
									"source" : [ "obj-13", 0 ],
									"destination" : [ "obj-10", 0 ],
									"hidden" : 0,
									"midpoints" : [  ]
								}

							}
, 							{
								"patchline" : 								{
									"source" : [ "obj-10", 0 ],
									"destination" : [ "obj-19", 0 ],
									"hidden" : 0,
									"midpoints" : [  ]
								}

							}
, 							{
								"patchline" : 								{
									"source" : [ "obj-13", 1 ],
									"destination" : [ "obj-9", 0 ],
									"hidden" : 0,
									"midpoints" : [  ]
								}

							}
, 							{
								"patchline" : 								{
									"source" : [ "obj-9", 0 ],
									"destination" : [ "obj-20", 0 ],
									"hidden" : 0,
									"midpoints" : [  ]
								}

							}
, 							{
								"patchline" : 								{
									"source" : [ "obj-13", 1 ],
									"destination" : [ "obj-18", 0 ],
									"hidden" : 0,
									"midpoints" : [  ]
								}

							}
, 							{
								"patchline" : 								{
									"source" : [ "obj-40", 1 ],
									"destination" : [ "obj-38", 0 ],
									"hidden" : 0,
									"midpoints" : [  ]
								}

							}
, 							{
								"patchline" : 								{
									"source" : [ "obj-40", 0 ],
									"destination" : [ "obj-39", 0 ],
									"hidden" : 0,
									"midpoints" : [  ]
								}

							}
, 							{
								"patchline" : 								{
									"source" : [ "obj-34", 0 ],
									"destination" : [ "obj-40", 0 ],
									"hidden" : 0,
									"midpoints" : [  ]
								}

							}
, 							{
								"patchline" : 								{
									"source" : [ "obj-38", 0 ],
									"destination" : [ "obj-41", 3 ],
									"hidden" : 0,
									"midpoints" : [  ]
								}

							}
, 							{
								"patchline" : 								{
									"source" : [ "obj-39", 0 ],
									"destination" : [ "obj-41", 2 ],
									"hidden" : 0,
									"midpoints" : [  ]
								}

							}
, 							{
								"patchline" : 								{
									"source" : [ "obj-40", 1 ],
									"destination" : [ "obj-41", 1 ],
									"hidden" : 0,
									"midpoints" : [  ]
								}

							}
, 							{
								"patchline" : 								{
									"source" : [ "obj-40", 0 ],
									"destination" : [ "obj-41", 0 ],
									"hidden" : 0,
									"midpoints" : [  ]
								}

							}
, 							{
								"patchline" : 								{
									"source" : [ "obj-41", 0 ],
									"destination" : [ "obj-37", 0 ],
									"hidden" : 0,
									"midpoints" : [  ]
								}

							}
, 							{
								"patchline" : 								{
									"source" : [ "obj-43", 0 ],
									"destination" : [ "obj-14", 0 ],
									"hidden" : 0,
									"midpoints" : [  ]
								}

							}
, 							{
								"patchline" : 								{
									"source" : [ "obj-37", 0 ],
									"destination" : [ "obj-44", 0 ],
									"hidden" : 0,
									"midpoints" : [  ]
								}

							}
, 							{
								"patchline" : 								{
									"source" : [ "obj-1", 0 ],
									"destination" : [ "obj-2", 0 ],
									"hidden" : 0,
									"midpoints" : [  ]
								}

							}
, 							{
								"patchline" : 								{
									"source" : [ "obj-2", 0 ],
									"destination" : [ "obj-11", 0 ],
									"hidden" : 0,
									"midpoints" : [  ]
								}

							}
, 							{
								"patchline" : 								{
									"source" : [ "obj-2", 1 ],
									"destination" : [ "obj-3", 0 ],
									"hidden" : 0,
									"midpoints" : [  ]
								}

							}
, 							{
								"patchline" : 								{
									"source" : [ "obj-12", 0 ],
									"destination" : [ "obj-3", 0 ],
									"hidden" : 0,
									"midpoints" : [  ]
								}

							}
, 							{
								"patchline" : 								{
									"source" : [ "obj-23", 0 ],
									"destination" : [ "obj-12", 0 ],
									"hidden" : 0,
									"midpoints" : [  ]
								}

							}
 ]
					}
,
					"saved_object_attributes" : 					{
						"default_fontface" : 0,
						"default_fontname" : "Arial Bold",
						"fontname" : "Arial Bold",
						"default_fontsize" : 10.0,
						"globalpatchername" : "",
						"fontface" : 0,
						"fontsize" : 10.0
					}

				}

			}
, 			{
				"box" : 				{
					"maxclass" : "newobj",
					"text" : "p init",
					"outlettype" : [ "" ],
					"id" : "obj-61",
					"fontname" : "Arial",
					"numinlets" : 0,
					"patching_rect" : [ 95.0, 84.0, 32.0, 18.0 ],
					"fontsize" : 10.0,
					"numoutlets" : 1,
					"patcher" : 					{
						"fileversion" : 1,
						"rect" : [ 1185.0, 85.0, 495.0, 692.0 ],
						"bglocked" : 0,
						"defrect" : [ 1185.0, 85.0, 495.0, 692.0 ],
						"openrect" : [ 0.0, 0.0, 0.0, 0.0 ],
						"openinpresentation" : 0,
						"default_fontsize" : 10.0,
						"default_fontface" : 0,
						"default_fontname" : "Arial",
						"gridonopen" : 0,
						"gridsize" : [ 15.0, 15.0 ],
						"gridsnaponopen" : 0,
						"toolbarvisible" : 1,
						"boxanimatetime" : 200,
						"imprint" : 0,
						"visible" : 1,
						"metadata" : [  ],
						"boxes" : [ 							{
								"box" : 								{
									"maxclass" : "newobj",
									"text" : "t l l l",
									"outlettype" : [ "", "", "" ],
									"id" : "obj-3",
									"fontname" : "Arial",
									"numinlets" : 1,
									"patching_rect" : [ 98.0, 386.0, 46.0, 18.0 ],
									"fontsize" : 10.0,
									"numoutlets" : 3
								}

							}
, 							{
								"box" : 								{
									"maxclass" : "newobj",
									"text" : "p addNumber",
									"outlettype" : [ "clear" ],
									"id" : "obj-2",
									"fontname" : "Arial",
									"numinlets" : 1,
									"patching_rect" : [ 324.0, 499.0, 71.0, 18.0 ],
									"fontsize" : 10.0,
									"numoutlets" : 1,
									"patcher" : 									{
										"fileversion" : 1,
										"rect" : [ 12.0, 276.0, 529.0, 473.0 ],
										"bglocked" : 0,
										"defrect" : [ 12.0, 276.0, 529.0, 473.0 ],
										"openrect" : [ 0.0, 0.0, 0.0, 0.0 ],
										"openinpresentation" : 0,
										"default_fontsize" : 10.0,
										"default_fontface" : 0,
										"default_fontname" : "Arial",
										"gridonopen" : 0,
										"gridsize" : [ 15.0, 15.0 ],
										"gridsnaponopen" : 0,
										"toolbarvisible" : 1,
										"boxanimatetime" : 200,
										"imprint" : 0,
										"metadata" : [  ],
										"boxes" : [ 											{
												"box" : 												{
													"maxclass" : "newobj",
													"text" : "delay 25",
													"outlettype" : [ "bang" ],
													"id" : "obj-6",
													"fontname" : "Arial",
													"numinlets" : 2,
													"patching_rect" : [ 205.0, 91.0, 48.0, 18.0 ],
													"fontsize" : 10.0,
													"numoutlets" : 1
												}

											}
, 											{
												"box" : 												{
													"maxclass" : "inlet",
													"outlettype" : [ "bang" ],
													"id" : "obj-1",
													"numinlets" : 0,
													"patching_rect" : [ 245.0, 47.0, 25.0, 25.0 ],
													"numoutlets" : 1,
													"comment" : ""
												}

											}
, 											{
												"box" : 												{
													"maxclass" : "newobj",
													"text" : "buddy",
													"outlettype" : [ "", "" ],
													"id" : "obj-3",
													"fontname" : "Arial",
													"numinlets" : 2,
													"patching_rect" : [ 48.0, 187.0, 52.0, 18.0 ],
													"fontsize" : 10.0,
													"numoutlets" : 2
												}

											}
, 											{
												"box" : 												{
													"maxclass" : "newobj",
													"text" : "uzi 4",
													"outlettype" : [ "bang", "bang", "int" ],
													"id" : "obj-18",
													"fontname" : "Arial",
													"numinlets" : 2,
													"patching_rect" : [ 329.0, 146.0, 46.0, 18.0 ],
													"fontsize" : 10.0,
													"numoutlets" : 3
												}

											}
, 											{
												"box" : 												{
													"maxclass" : "newobj",
													"text" : "coll 4Points",
													"outlettype" : [ "", "", "", "" ],
													"id" : "obj-17",
													"fontname" : "Arial",
													"numinlets" : 1,
													"patching_rect" : [ 48.0, 129.0, 62.0, 18.0 ],
													"fontsize" : 10.0,
													"numoutlets" : 4,
													"save" : [ "#N", "coll", "4Points", ";" ],
													"saved_object_attributes" : 													{
														"embed" : 0
													}

												}

											}
, 											{
												"box" : 												{
													"maxclass" : "newobj",
													"text" : "vexpr $i1 + 6 @scalarmode 1",
													"outlettype" : [ "" ],
													"id" : "obj-16",
													"fontname" : "Arial",
													"numinlets" : 1,
													"patching_rect" : [ 81.0, 220.0, 141.0, 18.0 ],
													"fontsize" : 10.0,
													"numoutlets" : 1
												}

											}
, 											{
												"box" : 												{
													"maxclass" : "newobj",
													"text" : "t b clear",
													"outlettype" : [ "bang", "clear" ],
													"id" : "obj-10",
													"fontname" : "Arial",
													"numinlets" : 1,
													"patching_rect" : [ 329.0, 123.0, 68.0, 18.0 ],
													"fontsize" : 10.0,
													"numoutlets" : 2
												}

											}
, 											{
												"box" : 												{
													"maxclass" : "newobj",
													"text" : "r moveToCoord",
													"outlettype" : [ "" ],
													"id" : "obj-4",
													"fontname" : "Arial",
													"numinlets" : 0,
													"patching_rect" : [ 329.0, 70.0, 79.0, 18.0 ],
													"fontsize" : 10.0,
													"numoutlets" : 1
												}

											}
, 											{
												"box" : 												{
													"maxclass" : "message",
													"text" : "write $1",
													"outlettype" : [ "" ],
													"id" : "obj-7",
													"fontname" : "Arial",
													"numinlets" : 2,
													"patching_rect" : [ 48.0, 323.0, 46.0, 16.0 ],
													"fontsize" : 10.0,
													"numoutlets" : 1
												}

											}
, 											{
												"box" : 												{
													"maxclass" : "message",
													"text" : "moveto $1 $2",
													"outlettype" : [ "" ],
													"id" : "obj-11",
													"fontname" : "Arial",
													"numinlets" : 2,
													"patching_rect" : [ 81.0, 245.0, 71.0, 16.0 ],
													"fontsize" : 10.0,
													"numoutlets" : 1
												}

											}
, 											{
												"box" : 												{
													"maxclass" : "message",
													"text" : "font 4 9, textface bold",
													"outlettype" : [ "" ],
													"id" : "obj-5",
													"fontname" : "Arial",
													"numinlets" : 2,
													"patching_rect" : [ 404.0, 107.0, 106.0, 16.0 ],
													"fontsize" : 10.0,
													"numoutlets" : 1
												}

											}
, 											{
												"box" : 												{
													"maxclass" : "outlet",
													"id" : "obj-2",
													"numinlets" : 1,
													"patching_rect" : [ 48.0, 402.0, 25.0, 25.0 ],
													"numoutlets" : 0,
													"comment" : ""
												}

											}
 ],
										"lines" : [ 											{
												"patchline" : 												{
													"source" : [ "obj-6", 0 ],
													"destination" : [ "obj-10", 0 ],
													"hidden" : 0,
													"midpoints" : [  ]
												}

											}
, 											{
												"patchline" : 												{
													"source" : [ "obj-1", 0 ],
													"destination" : [ "obj-6", 0 ],
													"hidden" : 0,
													"midpoints" : [  ]
												}

											}
, 											{
												"patchline" : 												{
													"source" : [ "obj-1", 0 ],
													"destination" : [ "obj-5", 0 ],
													"hidden" : 0,
													"midpoints" : [ 254.5, 93.0, 413.5, 93.0 ]
												}

											}
, 											{
												"patchline" : 												{
													"source" : [ "obj-1", 0 ],
													"destination" : [ "obj-10", 0 ],
													"hidden" : 0,
													"midpoints" : [ 254.5, 108.0, 338.5, 108.0 ]
												}

											}
, 											{
												"patchline" : 												{
													"source" : [ "obj-18", 2 ],
													"destination" : [ "obj-17", 0 ],
													"hidden" : 0,
													"midpoints" : [ 365.5, 174.0, 234.0, 174.0, 234.0, 135.0, 120.0, 135.0, 120.0, 114.0, 57.5, 114.0 ]
												}

											}
, 											{
												"patchline" : 												{
													"source" : [ "obj-10", 0 ],
													"destination" : [ "obj-18", 0 ],
													"hidden" : 0,
													"midpoints" : [  ]
												}

											}
, 											{
												"patchline" : 												{
													"source" : [ "obj-10", 1 ],
													"destination" : [ "obj-2", 0 ],
													"hidden" : 0,
													"midpoints" : [ 387.5, 387.0, 57.5, 387.0 ]
												}

											}
, 											{
												"patchline" : 												{
													"source" : [ "obj-4", 0 ],
													"destination" : [ "obj-10", 0 ],
													"hidden" : 0,
													"midpoints" : [  ]
												}

											}
, 											{
												"patchline" : 												{
													"source" : [ "obj-16", 0 ],
													"destination" : [ "obj-11", 0 ],
													"hidden" : 0,
													"midpoints" : [  ]
												}

											}
, 											{
												"patchline" : 												{
													"source" : [ "obj-7", 0 ],
													"destination" : [ "obj-2", 0 ],
													"hidden" : 0,
													"midpoints" : [ 57.5, 387.0, 57.5, 387.0 ]
												}

											}
, 											{
												"patchline" : 												{
													"source" : [ "obj-5", 0 ],
													"destination" : [ "obj-2", 0 ],
													"hidden" : 0,
													"midpoints" : [ 413.5, 387.0, 57.5, 387.0 ]
												}

											}
, 											{
												"patchline" : 												{
													"source" : [ "obj-11", 0 ],
													"destination" : [ "obj-2", 0 ],
													"hidden" : 0,
													"midpoints" : [ 90.5, 387.0, 57.5, 387.0 ]
												}

											}
, 											{
												"patchline" : 												{
													"source" : [ "obj-17", 0 ],
													"destination" : [ "obj-3", 1 ],
													"hidden" : 0,
													"midpoints" : [ 57.5, 162.0, 90.5, 162.0 ]
												}

											}
, 											{
												"patchline" : 												{
													"source" : [ "obj-17", 1 ],
													"destination" : [ "obj-3", 0 ],
													"hidden" : 0,
													"midpoints" : [ 71.833336, 174.0, 57.5, 174.0 ]
												}

											}
, 											{
												"patchline" : 												{
													"source" : [ "obj-3", 1 ],
													"destination" : [ "obj-16", 0 ],
													"hidden" : 0,
													"midpoints" : [  ]
												}

											}
, 											{
												"patchline" : 												{
													"source" : [ "obj-3", 0 ],
													"destination" : [ "obj-7", 0 ],
													"hidden" : 0,
													"midpoints" : [  ]
												}

											}
 ]
									}
,
									"saved_object_attributes" : 									{
										"default_fontface" : 0,
										"default_fontname" : "Arial",
										"fontname" : "Arial",
										"default_fontsize" : 10.0,
										"globalpatchername" : "",
										"fontface" : 0,
										"fontsize" : 10.0
									}

								}

							}
, 							{
								"box" : 								{
									"maxclass" : "newobj",
									"text" : "coll 4Points",
									"outlettype" : [ "", "", "", "" ],
									"id" : "obj-1",
									"fontname" : "Arial",
									"bgcolor" : [ 1.0, 0.0, 0.0, 1.0 ],
									"numinlets" : 1,
									"patching_rect" : [ 323.0, 455.0, 78.0, 21.0 ],
									"fontsize" : 13.0,
									"numoutlets" : 4,
									"save" : [ "#N", "coll", "4Points", ";" ],
									"saved_object_attributes" : 									{
										"embed" : 0
									}

								}

							}
, 							{
								"box" : 								{
									"maxclass" : "newobj",
									"text" : "t l l",
									"outlettype" : [ "", "" ],
									"id" : "obj-65",
									"fontname" : "Arial",
									"numinlets" : 1,
									"patching_rect" : [ 83.0, 503.0, 32.5, 18.0 ],
									"fontsize" : 10.0,
									"numoutlets" : 2
								}

							}
, 							{
								"box" : 								{
									"maxclass" : "newobj",
									"text" : "t b l recordsprite",
									"outlettype" : [ "bang", "", "recordsprite" ],
									"id" : "obj-64",
									"fontname" : "Arial",
									"numinlets" : 1,
									"patching_rect" : [ 98.0, 445.0, 82.0, 18.0 ],
									"fontsize" : 10.0,
									"numoutlets" : 3
								}

							}
, 							{
								"box" : 								{
									"maxclass" : "newobj",
									"text" : "route closesprite",
									"outlettype" : [ "", "" ],
									"id" : "obj-55",
									"fontname" : "Arial",
									"numinlets" : 1,
									"patching_rect" : [ 83.0, 554.0, 84.0, 18.0 ],
									"fontsize" : 10.0,
									"numoutlets" : 2
								}

							}
, 							{
								"box" : 								{
									"maxclass" : "newobj",
									"text" : "sprintf drawsprite %s 0 0",
									"outlettype" : [ "" ],
									"id" : "obj-54",
									"fontname" : "Arial",
									"numinlets" : 1,
									"patching_rect" : [ 83.0, 578.0, 120.0, 18.0 ],
									"fontsize" : 10.0,
									"numoutlets" : 1
								}

							}
, 							{
								"box" : 								{
									"maxclass" : "newobj",
									"text" : "sprintf closesprite point%i",
									"outlettype" : [ "" ],
									"id" : "obj-51",
									"fontname" : "Arial",
									"numinlets" : 1,
									"patching_rect" : [ 83.0, 480.0, 124.0, 18.0 ],
									"fontsize" : 10.0,
									"numoutlets" : 1
								}

							}
, 							{
								"box" : 								{
									"maxclass" : "newobj",
									"text" : "uzi 4",
									"outlettype" : [ "bang", "bang", "int" ],
									"id" : "obj-48",
									"fontname" : "Arial",
									"numinlets" : 2,
									"patching_rect" : [ 57.0, 173.0, 46.0, 18.0 ],
									"fontsize" : 10.0,
									"numoutlets" : 3
								}

							}
, 							{
								"box" : 								{
									"maxclass" : "newobj",
									"text" : "sprintf readpict button%i 1button.pict",
									"outlettype" : [ "" ],
									"id" : "obj-30",
									"fontname" : "Arial",
									"numinlets" : 1,
									"patching_rect" : [ 70.0, 140.0, 172.0, 18.0 ],
									"fontsize" : 10.0,
									"numoutlets" : 1
								}

							}
, 							{
								"box" : 								{
									"maxclass" : "message",
									"text" : "10 $1",
									"outlettype" : [ "" ],
									"id" : "obj-29",
									"fontname" : "Arial",
									"numinlets" : 2,
									"patching_rect" : [ 380.0, 317.0, 36.0, 16.0 ],
									"fontsize" : 10.0,
									"numoutlets" : 1
								}

							}
, 							{
								"box" : 								{
									"maxclass" : "newobj",
									"text" : "- 16",
									"outlettype" : [ "int" ],
									"id" : "obj-17",
									"fontname" : "Arial",
									"numinlets" : 2,
									"patching_rect" : [ 380.0, 296.0, 32.5, 18.0 ],
									"fontsize" : 10.0,
									"numoutlets" : 1
								}

							}
, 							{
								"box" : 								{
									"maxclass" : "newobj",
									"text" : "unpack",
									"outlettype" : [ "int", "int" ],
									"id" : "obj-22",
									"fontname" : "Arial",
									"numinlets" : 1,
									"patching_rect" : [ 346.0, 275.0, 53.0, 18.0 ],
									"fontsize" : 10.0,
									"numoutlets" : 2
								}

							}
, 							{
								"box" : 								{
									"maxclass" : "newobj",
									"text" : "value lcdSize",
									"outlettype" : [ "" ],
									"id" : "obj-24",
									"fontname" : "Arial",
									"numinlets" : 1,
									"patching_rect" : [ 346.0, 255.0, 69.0, 18.0 ],
									"fontsize" : 10.0,
									"numoutlets" : 1
								}

							}
, 							{
								"box" : 								{
									"maxclass" : "newobj",
									"text" : "- 16",
									"outlettype" : [ "int" ],
									"id" : "obj-15",
									"fontname" : "Arial",
									"numinlets" : 2,
									"patching_rect" : [ 302.0, 296.0, 32.5, 18.0 ],
									"fontsize" : 10.0,
									"numoutlets" : 1
								}

							}
, 							{
								"box" : 								{
									"maxclass" : "newobj",
									"text" : "- 16",
									"outlettype" : [ "int" ],
									"id" : "obj-9",
									"fontname" : "Arial",
									"numinlets" : 2,
									"patching_rect" : [ 268.0, 296.0, 32.5, 18.0 ],
									"fontsize" : 10.0,
									"numoutlets" : 1
								}

							}
, 							{
								"box" : 								{
									"maxclass" : "newobj",
									"text" : "unpack",
									"outlettype" : [ "int", "int" ],
									"id" : "obj-11",
									"fontname" : "Arial",
									"numinlets" : 1,
									"patching_rect" : [ 268.0, 275.0, 53.0, 18.0 ],
									"fontsize" : 10.0,
									"numoutlets" : 2
								}

							}
, 							{
								"box" : 								{
									"maxclass" : "newobj",
									"text" : "value lcdSize",
									"outlettype" : [ "" ],
									"id" : "obj-13",
									"fontname" : "Arial",
									"numinlets" : 1,
									"patching_rect" : [ 268.0, 255.0, 69.0, 18.0 ],
									"fontsize" : 10.0,
									"numoutlets" : 1
								}

							}
, 							{
								"box" : 								{
									"maxclass" : "message",
									"text" : "$1 10",
									"outlettype" : [ "" ],
									"id" : "obj-6",
									"fontname" : "Arial",
									"numinlets" : 2,
									"patching_rect" : [ 190.0, 317.0, 36.0, 16.0 ],
									"fontsize" : 10.0,
									"numoutlets" : 1
								}

							}
, 							{
								"box" : 								{
									"maxclass" : "newobj",
									"text" : "- 16",
									"outlettype" : [ "int" ],
									"id" : "obj-53",
									"fontname" : "Arial",
									"numinlets" : 2,
									"patching_rect" : [ 190.0, 296.0, 32.5, 18.0 ],
									"fontsize" : 10.0,
									"numoutlets" : 1
								}

							}
, 							{
								"box" : 								{
									"maxclass" : "newobj",
									"text" : "unpack",
									"outlettype" : [ "int", "int" ],
									"id" : "obj-52",
									"fontname" : "Arial",
									"numinlets" : 1,
									"patching_rect" : [ 190.0, 275.0, 43.0, 18.0 ],
									"fontsize" : 10.0,
									"numoutlets" : 2
								}

							}
, 							{
								"box" : 								{
									"maxclass" : "newobj",
									"text" : "value lcdSize",
									"outlettype" : [ "" ],
									"id" : "obj-47",
									"fontname" : "Arial",
									"numinlets" : 1,
									"patching_rect" : [ 190.0, 255.0, 69.0, 18.0 ],
									"fontsize" : 10.0,
									"numoutlets" : 1
								}

							}
, 							{
								"box" : 								{
									"maxclass" : "message",
									"text" : "10 10",
									"outlettype" : [ "" ],
									"id" : "obj-45",
									"fontname" : "Arial",
									"numinlets" : 2,
									"patching_rect" : [ 112.0, 292.0, 42.0, 16.0 ],
									"fontsize" : 10.0,
									"numoutlets" : 1
								}

							}
, 							{
								"box" : 								{
									"maxclass" : "newobj",
									"text" : "select 1 2 3 4",
									"outlettype" : [ "bang", "bang", "bang", "bang", "" ],
									"id" : "obj-43",
									"fontname" : "Arial",
									"numinlets" : 1,
									"patching_rect" : [ 112.0, 232.0, 331.0, 18.0 ],
									"fontsize" : 10.0,
									"numoutlets" : 5
								}

							}
, 							{
								"box" : 								{
									"maxclass" : "newobj",
									"text" : "t i i i",
									"outlettype" : [ "int", "int", "int" ],
									"id" : "obj-42",
									"fontname" : "Arial",
									"numinlets" : 1,
									"patching_rect" : [ 84.0, 208.0, 47.0, 18.0 ],
									"fontsize" : 10.0,
									"numoutlets" : 3
								}

							}
, 							{
								"box" : 								{
									"maxclass" : "newobj",
									"text" : "t b b b b",
									"outlettype" : [ "bang", "bang", "bang", "bang" ],
									"id" : "obj-41",
									"fontname" : "Arial",
									"numinlets" : 1,
									"patching_rect" : [ 43.0, 37.0, 190.5, 18.0 ],
									"fontsize" : 10.0,
									"numoutlets" : 4
								}

							}
, 							{
								"box" : 								{
									"maxclass" : "newobj",
									"text" : "loadbang",
									"outlettype" : [ "bang" ],
									"id" : "obj-40",
									"fontname" : "Arial",
									"numinlets" : 1,
									"patching_rect" : [ 43.0, 11.0, 52.0, 18.0 ],
									"fontsize" : 10.0,
									"numoutlets" : 1
								}

							}
, 							{
								"box" : 								{
									"maxclass" : "newobj",
									"text" : "uzi 4",
									"outlettype" : [ "bang", "bang", "int" ],
									"id" : "obj-38",
									"fontname" : "Arial",
									"numinlets" : 2,
									"patching_rect" : [ 43.0, 113.0, 46.0, 18.0 ],
									"fontsize" : 10.0,
									"numoutlets" : 3
								}

							}
, 							{
								"box" : 								{
									"maxclass" : "newobj",
									"text" : "sprintf drawpict button%i %i %i",
									"outlettype" : [ "" ],
									"id" : "obj-37",
									"fontname" : "Arial",
									"numinlets" : 3,
									"patching_rect" : [ 98.0, 424.0, 147.0, 18.0 ],
									"fontsize" : 10.0,
									"numoutlets" : 1
								}

							}
, 							{
								"box" : 								{
									"maxclass" : "newobj",
									"text" : "pack i i i",
									"outlettype" : [ "" ],
									"id" : "obj-28",
									"fontname" : "Arial",
									"numinlets" : 3,
									"patching_rect" : [ 98.0, 365.0, 47.0, 18.0 ],
									"fontsize" : 10.0,
									"numoutlets" : 1
								}

							}
, 							{
								"box" : 								{
									"maxclass" : "message",
									"text" : "getsize",
									"outlettype" : [ "" ],
									"id" : "obj-23",
									"fontname" : "Arial",
									"numinlets" : 2,
									"patching_rect" : [ 100.0, 60.0, 40.0, 16.0 ],
									"fontsize" : 10.0,
									"numoutlets" : 1
								}

							}
, 							{
								"box" : 								{
									"maxclass" : "message",
									"text" : "idle 1, local 0, enablesprites 1, penmode 0, clearsprites",
									"outlettype" : [ "" ],
									"id" : "obj-20",
									"fontname" : "Arial",
									"numinlets" : 2,
									"patching_rect" : [ 157.0, 61.0, 256.0, 16.0 ],
									"fontsize" : 10.0,
									"numoutlets" : 1
								}

							}
, 							{
								"box" : 								{
									"maxclass" : "outlet",
									"id" : "obj-60",
									"numinlets" : 1,
									"patching_rect" : [ 77.0, 656.0, 25.0, 25.0 ],
									"numoutlets" : 0,
									"comment" : ""
								}

							}
 ],
						"lines" : [ 							{
								"patchline" : 								{
									"source" : [ "obj-41", 3 ],
									"destination" : [ "obj-2", 0 ],
									"hidden" : 0,
									"midpoints" : [ 224.0, 57.0, 333.0, 57.0, 333.0, 48.0, 453.0, 48.0, 453.0, 486.0, 333.5, 486.0 ]
								}

							}
, 							{
								"patchline" : 								{
									"source" : [ "obj-41", 2 ],
									"destination" : [ "obj-20", 0 ],
									"hidden" : 0,
									"midpoints" : [  ]
								}

							}
, 							{
								"patchline" : 								{
									"source" : [ "obj-40", 0 ],
									"destination" : [ "obj-41", 0 ],
									"hidden" : 0,
									"midpoints" : [  ]
								}

							}
, 							{
								"patchline" : 								{
									"source" : [ "obj-41", 1 ],
									"destination" : [ "obj-23", 0 ],
									"hidden" : 0,
									"midpoints" : [  ]
								}

							}
, 							{
								"patchline" : 								{
									"source" : [ "obj-41", 0 ],
									"destination" : [ "obj-38", 0 ],
									"hidden" : 0,
									"midpoints" : [  ]
								}

							}
, 							{
								"patchline" : 								{
									"source" : [ "obj-37", 0 ],
									"destination" : [ "obj-64", 0 ],
									"hidden" : 0,
									"midpoints" : [  ]
								}

							}
, 							{
								"patchline" : 								{
									"source" : [ "obj-64", 1 ],
									"destination" : [ "obj-60", 0 ],
									"hidden" : 0,
									"midpoints" : [ 139.0, 468.0, 69.0, 468.0, 69.0, 642.0, 86.5, 642.0 ]
								}

							}
, 							{
								"patchline" : 								{
									"source" : [ "obj-64", 2 ],
									"destination" : [ "obj-60", 0 ],
									"hidden" : 0,
									"midpoints" : [ 170.5, 471.0, 69.0, 471.0, 69.0, 642.0, 86.5, 642.0 ]
								}

							}
, 							{
								"patchline" : 								{
									"source" : [ "obj-24", 0 ],
									"destination" : [ "obj-22", 0 ],
									"hidden" : 0,
									"midpoints" : [  ]
								}

							}
, 							{
								"patchline" : 								{
									"source" : [ "obj-43", 3 ],
									"destination" : [ "obj-24", 0 ],
									"hidden" : 0,
									"midpoints" : [  ]
								}

							}
, 							{
								"patchline" : 								{
									"source" : [ "obj-13", 0 ],
									"destination" : [ "obj-11", 0 ],
									"hidden" : 0,
									"midpoints" : [  ]
								}

							}
, 							{
								"patchline" : 								{
									"source" : [ "obj-43", 2 ],
									"destination" : [ "obj-13", 0 ],
									"hidden" : 0,
									"midpoints" : [  ]
								}

							}
, 							{
								"patchline" : 								{
									"source" : [ "obj-47", 0 ],
									"destination" : [ "obj-52", 0 ],
									"hidden" : 0,
									"midpoints" : [  ]
								}

							}
, 							{
								"patchline" : 								{
									"source" : [ "obj-43", 1 ],
									"destination" : [ "obj-47", 0 ],
									"hidden" : 0,
									"midpoints" : [  ]
								}

							}
, 							{
								"patchline" : 								{
									"source" : [ "obj-20", 0 ],
									"destination" : [ "obj-60", 0 ],
									"hidden" : 0,
									"midpoints" : [ 166.5, 99.0, 30.0, 99.0, 30.0, 642.0, 86.5, 642.0 ]
								}

							}
, 							{
								"patchline" : 								{
									"source" : [ "obj-65", 1 ],
									"destination" : [ "obj-60", 0 ],
									"hidden" : 0,
									"midpoints" : [ 106.0, 540.0, 69.0, 540.0, 69.0, 642.0, 86.5, 642.0 ]
								}

							}
, 							{
								"patchline" : 								{
									"source" : [ "obj-54", 0 ],
									"destination" : [ "obj-60", 0 ],
									"hidden" : 0,
									"midpoints" : [ 92.5, 642.0, 86.5, 642.0 ]
								}

							}
, 							{
								"patchline" : 								{
									"source" : [ "obj-30", 0 ],
									"destination" : [ "obj-60", 0 ],
									"hidden" : 0,
									"midpoints" : [ 79.5, 159.0, 42.0, 159.0, 42.0, 642.0, 86.5, 642.0 ]
								}

							}
, 							{
								"patchline" : 								{
									"source" : [ "obj-23", 0 ],
									"destination" : [ "obj-60", 0 ],
									"hidden" : 0,
									"midpoints" : [ 109.5, 99.0, 30.0, 99.0, 30.0, 642.0, 86.5, 642.0 ]
								}

							}
, 							{
								"patchline" : 								{
									"source" : [ "obj-65", 0 ],
									"destination" : [ "obj-55", 0 ],
									"hidden" : 0,
									"midpoints" : [  ]
								}

							}
, 							{
								"patchline" : 								{
									"source" : [ "obj-42", 1 ],
									"destination" : [ "obj-28", 0 ],
									"hidden" : 0,
									"midpoints" : [  ]
								}

							}
, 							{
								"patchline" : 								{
									"source" : [ "obj-42", 2 ],
									"destination" : [ "obj-43", 0 ],
									"hidden" : 0,
									"midpoints" : [  ]
								}

							}
, 							{
								"patchline" : 								{
									"source" : [ "obj-48", 2 ],
									"destination" : [ "obj-42", 0 ],
									"hidden" : 0,
									"midpoints" : [  ]
								}

							}
, 							{
								"patchline" : 								{
									"source" : [ "obj-38", 1 ],
									"destination" : [ "obj-48", 0 ],
									"hidden" : 0,
									"midpoints" : [  ]
								}

							}
, 							{
								"patchline" : 								{
									"source" : [ "obj-38", 2 ],
									"destination" : [ "obj-30", 0 ],
									"hidden" : 0,
									"midpoints" : [ 79.5, 131.0, 79.5, 131.0 ]
								}

							}
, 							{
								"patchline" : 								{
									"source" : [ "obj-29", 0 ],
									"destination" : [ "obj-28", 1 ],
									"hidden" : 0,
									"midpoints" : [ 389.5, 352.0, 121.5, 352.0 ]
								}

							}
, 							{
								"patchline" : 								{
									"source" : [ "obj-6", 0 ],
									"destination" : [ "obj-28", 1 ],
									"hidden" : 0,
									"midpoints" : [ 199.5, 336.0, 121.5, 336.0 ]
								}

							}
, 							{
								"patchline" : 								{
									"source" : [ "obj-43", 0 ],
									"destination" : [ "obj-45", 0 ],
									"hidden" : 0,
									"midpoints" : [  ]
								}

							}
, 							{
								"patchline" : 								{
									"source" : [ "obj-45", 0 ],
									"destination" : [ "obj-28", 1 ],
									"hidden" : 0,
									"midpoints" : [  ]
								}

							}
, 							{
								"patchline" : 								{
									"source" : [ "obj-51", 0 ],
									"destination" : [ "obj-65", 0 ],
									"hidden" : 0,
									"midpoints" : [  ]
								}

							}
, 							{
								"patchline" : 								{
									"source" : [ "obj-42", 0 ],
									"destination" : [ "obj-51", 0 ],
									"hidden" : 0,
									"midpoints" : [  ]
								}

							}
, 							{
								"patchline" : 								{
									"source" : [ "obj-55", 0 ],
									"destination" : [ "obj-54", 0 ],
									"hidden" : 0,
									"midpoints" : [  ]
								}

							}
, 							{
								"patchline" : 								{
									"source" : [ "obj-52", 0 ],
									"destination" : [ "obj-53", 0 ],
									"hidden" : 0,
									"midpoints" : [  ]
								}

							}
, 							{
								"patchline" : 								{
									"source" : [ "obj-53", 0 ],
									"destination" : [ "obj-6", 0 ],
									"hidden" : 0,
									"midpoints" : [  ]
								}

							}
, 							{
								"patchline" : 								{
									"source" : [ "obj-9", 0 ],
									"destination" : [ "obj-28", 1 ],
									"hidden" : 0,
									"midpoints" : [ 277.5, 339.0, 121.5, 339.0 ]
								}

							}
, 							{
								"patchline" : 								{
									"source" : [ "obj-15", 0 ],
									"destination" : [ "obj-28", 2 ],
									"hidden" : 0,
									"midpoints" : [ 311.5, 342.0, 135.5, 342.0 ]
								}

							}
, 							{
								"patchline" : 								{
									"source" : [ "obj-11", 1 ],
									"destination" : [ "obj-15", 0 ],
									"hidden" : 0,
									"midpoints" : [  ]
								}

							}
, 							{
								"patchline" : 								{
									"source" : [ "obj-11", 0 ],
									"destination" : [ "obj-9", 0 ],
									"hidden" : 0,
									"midpoints" : [  ]
								}

							}
, 							{
								"patchline" : 								{
									"source" : [ "obj-17", 0 ],
									"destination" : [ "obj-29", 0 ],
									"hidden" : 0,
									"midpoints" : [  ]
								}

							}
, 							{
								"patchline" : 								{
									"source" : [ "obj-22", 1 ],
									"destination" : [ "obj-17", 0 ],
									"hidden" : 0,
									"midpoints" : [  ]
								}

							}
, 							{
								"patchline" : 								{
									"source" : [ "obj-2", 0 ],
									"destination" : [ "obj-60", 0 ],
									"hidden" : 0,
									"midpoints" : [ 333.5, 642.0, 86.5, 642.0 ]
								}

							}
, 							{
								"patchline" : 								{
									"source" : [ "obj-28", 0 ],
									"destination" : [ "obj-3", 0 ],
									"hidden" : 0,
									"midpoints" : [  ]
								}

							}
, 							{
								"patchline" : 								{
									"source" : [ "obj-3", 2 ],
									"destination" : [ "obj-1", 0 ],
									"hidden" : 0,
									"midpoints" : [ 134.5, 409.0, 332.5, 409.0 ]
								}

							}
, 							{
								"patchline" : 								{
									"source" : [ "obj-3", 0 ],
									"destination" : [ "obj-37", 0 ],
									"hidden" : 0,
									"midpoints" : [  ]
								}

							}
 ]
					}
,
					"saved_object_attributes" : 					{
						"default_fontface" : 0,
						"default_fontname" : "Arial",
						"fontname" : "Arial",
						"default_fontsize" : 10.0,
						"globalpatchername" : "",
						"fontface" : 0,
						"fontsize" : 10.0
					}

				}

			}
, 			{
				"box" : 				{
					"maxclass" : "newobj",
					"text" : "value lcdSize",
					"outlettype" : [ "" ],
					"id" : "obj-46",
					"fontname" : "Arial",
					"numinlets" : 1,
					"patching_rect" : [ 204.0, 274.0, 69.0, 18.0 ],
					"fontsize" : 10.0,
					"numoutlets" : 1
				}

			}
, 			{
				"box" : 				{
					"maxclass" : "newobj",
					"text" : "route size",
					"outlettype" : [ "", "" ],
					"id" : "obj-26",
					"fontname" : "Arial",
					"numinlets" : 1,
					"patching_rect" : [ 204.0, 253.0, 54.0, 18.0 ],
					"fontsize" : 10.0,
					"numoutlets" : 2
				}

			}
, 			{
				"box" : 				{
					"maxclass" : "lcd",
					"outlettype" : [ "list", "list", "int", "" ],
					"id" : "obj-1",
					"enablesprites" : 1,
					"numinlets" : 1,
					"patching_rect" : [ 95.0, 114.0, 128.0, 128.0 ],
					"idle" : 1,
					"numoutlets" : 4,
					"local" : 0
				}

			}
 ],
		"lines" : [ 			{
				"patchline" : 				{
					"source" : [ "obj-26", 0 ],
					"destination" : [ "obj-46", 0 ],
					"hidden" : 0,
					"midpoints" : [  ]
				}

			}
, 			{
				"patchline" : 				{
					"source" : [ "obj-1", 1 ],
					"destination" : [ "obj-45", 0 ],
					"hidden" : 0,
					"midpoints" : [ 140.833328, 309.0, 201.5, 309.0 ]
				}

			}
, 			{
				"patchline" : 				{
					"source" : [ "obj-45", 0 ],
					"destination" : [ "obj-1", 0 ],
					"hidden" : 0,
					"midpoints" : [ 201.5, 354.0, 81.0, 354.0, 81.0, 111.0, 104.5, 111.0 ]
				}

			}
, 			{
				"patchline" : 				{
					"source" : [ "obj-1", 3 ],
					"destination" : [ "obj-26", 0 ],
					"hidden" : 0,
					"midpoints" : [  ]
				}

			}
, 			{
				"patchline" : 				{
					"source" : [ "obj-61", 0 ],
					"destination" : [ "obj-1", 0 ],
					"hidden" : 0,
					"midpoints" : [  ]
				}

			}
, 			{
				"patchline" : 				{
					"source" : [ "obj-50", 0 ],
					"destination" : [ "obj-1", 0 ],
					"hidden" : 0,
					"midpoints" : [ 104.5, 345.0, 81.0, 345.0, 81.0, 111.0, 104.5, 111.0 ]
				}

			}
, 			{
				"patchline" : 				{
					"source" : [ "obj-1", 2 ],
					"destination" : [ "obj-50", 1 ],
					"hidden" : 0,
					"midpoints" : [  ]
				}

			}
, 			{
				"patchline" : 				{
					"source" : [ "obj-1", 0 ],
					"destination" : [ "obj-50", 0 ],
					"hidden" : 0,
					"midpoints" : [  ]
				}

			}
 ]
	}

}
