{
	"patcher" : 	{
		"fileversion" : 1,
		"rect" : [ 592.0, 44.0, 1023.0, 911.0 ],
		"bglocked" : 0,
		"defrect" : [ 592.0, 44.0, 1023.0, 911.0 ],
		"openrect" : [ 0.0, 0.0, 0.0, 0.0 ],
		"openinpresentation" : 0,
		"default_fontsize" : 10.0,
		"default_fontface" : 0,
		"default_fontname" : "Arial",
		"gridonopen" : 0,
		"gridsize" : [ 15.0, 15.0 ],
		"gridsnaponopen" : 0,
		"toolbarvisible" : 1,
		"boxanimatetime" : 200,
		"imprint" : 0,
		"boxes" : [ 			{
				"box" : 				{
					"maxclass" : "message",
					"text" : "0",
					"patching_rect" : [ 472.0, 608.0, 50.0, 16.0 ],
					"id" : "obj-13",
					"outlettype" : [ "" ],
					"fontname" : "Arial",
					"numinlets" : 2,
					"fontsize" : 10.0,
					"numoutlets" : 1
				}

			}
, 			{
				"box" : 				{
					"maxclass" : "newobj",
					"text" : "change",
					"patching_rect" : [ 413.0, 634.0, 46.0, 18.0 ],
					"id" : "obj-11",
					"outlettype" : [ "", "int", "int" ],
					"fontname" : "Arial",
					"numinlets" : 1,
					"fontsize" : 10.0,
					"numoutlets" : 3
				}

			}
, 			{
				"box" : 				{
					"maxclass" : "newobj",
					"text" : "t i i i",
					"patching_rect" : [ 413.0, 669.0, 46.0, 18.0 ],
					"id" : "obj-5",
					"outlettype" : [ "int", "int", "int" ],
					"fontname" : "Arial",
					"numinlets" : 1,
					"fontsize" : 10.0,
					"numoutlets" : 3
				}

			}
, 			{
				"box" : 				{
					"maxclass" : "number",
					"patching_rect" : [ 364.0, 44.0, 50.0, 18.0 ],
					"id" : "obj-45",
					"outlettype" : [ "int", "bang" ],
					"fontname" : "Arial",
					"numinlets" : 1,
					"fontsize" : 10.0,
					"numoutlets" : 2
				}

			}
, 			{
				"box" : 				{
					"maxclass" : "number",
					"patching_rect" : [ 309.0, 73.0, 50.0, 18.0 ],
					"id" : "obj-44",
					"outlettype" : [ "int", "bang" ],
					"fontname" : "Arial",
					"numinlets" : 1,
					"fontsize" : 10.0,
					"numoutlets" : 2
				}

			}
, 			{
				"box" : 				{
					"maxclass" : "number",
					"patching_rect" : [ 396.0, 73.0, 50.0, 18.0 ],
					"id" : "obj-35",
					"outlettype" : [ "int", "bang" ],
					"fontname" : "Arial",
					"numinlets" : 1,
					"fontsize" : 10.0,
					"numoutlets" : 2
				}

			}
, 			{
				"box" : 				{
					"maxclass" : "newobj",
					"text" : "s rowsMax",
					"patching_rect" : [ 309.0, 106.0, 58.0, 18.0 ],
					"id" : "obj-150",
					"fontname" : "Arial",
					"numinlets" : 1,
					"fontsize" : 10.0,
					"numoutlets" : 0
				}

			}
, 			{
				"box" : 				{
					"maxclass" : "newobj",
					"text" : "s columnMax",
					"patching_rect" : [ 396.0, 106.0, 69.0, 18.0 ],
					"id" : "obj-353",
					"fontname" : "Arial",
					"numinlets" : 1,
					"fontsize" : 10.0,
					"numoutlets" : 0
				}

			}
, 			{
				"box" : 				{
					"maxclass" : "newobj",
					"text" : "gate",
					"patching_rect" : [ 399.0, 818.0, 32.5, 18.0 ],
					"id" : "obj-61",
					"outlettype" : [ "" ],
					"fontname" : "Arial",
					"numinlets" : 2,
					"fontsize" : 10.0,
					"numoutlets" : 1
				}

			}
, 			{
				"box" : 				{
					"maxclass" : "number",
					"patching_rect" : [ 437.0, 848.0, 50.0, 18.0 ],
					"id" : "obj-60",
					"outlettype" : [ "int", "bang" ],
					"fontname" : "Arial",
					"numinlets" : 1,
					"fontsize" : 10.0,
					"numoutlets" : 2
				}

			}
, 			{
				"box" : 				{
					"maxclass" : "newobj",
					"text" : "print",
					"patching_rect" : [ 504.0, 706.0, 30.0, 18.0 ],
					"id" : "obj-58",
					"fontname" : "Arial",
					"numinlets" : 1,
					"fontsize" : 10.0,
					"numoutlets" : 0
				}

			}
, 			{
				"box" : 				{
					"maxclass" : "newobj",
					"text" : "p matrixStuff",
					"patching_rect" : [ 352.0, 865.0, 66.0, 18.0 ],
					"id" : "obj-55",
					"fontname" : "Arial",
					"numinlets" : 2,
					"fontsize" : 10.0,
					"numoutlets" : 0,
					"patcher" : 					{
						"fileversion" : 1,
						"rect" : [ 768.0, 44.0, 691.0, 892.0 ],
						"bglocked" : 0,
						"defrect" : [ 768.0, 44.0, 691.0, 892.0 ],
						"openrect" : [ 0.0, 0.0, 0.0, 0.0 ],
						"openinpresentation" : 0,
						"default_fontsize" : 10.0,
						"default_fontface" : 0,
						"default_fontname" : "Arial",
						"gridonopen" : 0,
						"gridsize" : [ 15.0, 15.0 ],
						"gridsnaponopen" : 0,
						"toolbarvisible" : 1,
						"boxanimatetime" : 200,
						"imprint" : 0,
						"boxes" : [ 							{
								"box" : 								{
									"maxclass" : "button",
									"patching_rect" : [ 505.0, 803.0, 20.0, 20.0 ],
									"id" : "obj-21",
									"outlettype" : [ "bang" ],
									"presentation_rect" : [ 505.0, 803.0, 0.0, 0.0 ],
									"numinlets" : 1,
									"numoutlets" : 1
								}

							}
, 							{
								"box" : 								{
									"maxclass" : "newobj",
									"text" : "print",
									"patching_rect" : [ 165.0, 272.0, 30.0, 18.0 ],
									"id" : "obj-19",
									"fontname" : "Arial",
									"numinlets" : 1,
									"fontsize" : 10.0,
									"numoutlets" : 0
								}

							}
, 							{
								"box" : 								{
									"maxclass" : "number",
									"patching_rect" : [ 140.0, 205.0, 50.0, 18.0 ],
									"id" : "obj-18",
									"outlettype" : [ "int", "bang" ],
									"fontname" : "Arial",
									"numinlets" : 1,
									"fontsize" : 10.0,
									"numoutlets" : 2
								}

							}
, 							{
								"box" : 								{
									"maxclass" : "number",
									"patching_rect" : [ 188.0, 547.0, 50.0, 18.0 ],
									"id" : "obj-15",
									"outlettype" : [ "int", "bang" ],
									"fontname" : "Arial",
									"numinlets" : 1,
									"fontsize" : 10.0,
									"numoutlets" : 2
								}

							}
, 							{
								"box" : 								{
									"maxclass" : "message",
									"text" : "4 6 2",
									"patching_rect" : [ 123.0, 635.0, 95.0, 16.0 ],
									"id" : "obj-11",
									"outlettype" : [ "" ],
									"fontname" : "Arial",
									"numinlets" : 2,
									"fontsize" : 10.0,
									"numoutlets" : 1
								}

							}
, 							{
								"box" : 								{
									"maxclass" : "button",
									"patching_rect" : [ 547.0, 799.0, 20.0, 20.0 ],
									"id" : "obj-22",
									"outlettype" : [ "bang" ],
									"numinlets" : 1,
									"numoutlets" : 1
								}

							}
, 							{
								"box" : 								{
									"maxclass" : "message",
									"text" : "clear",
									"patching_rect" : [ 278.0, 324.0, 32.5, 16.0 ],
									"id" : "obj-17",
									"outlettype" : [ "" ],
									"fontname" : "Arial",
									"numinlets" : 2,
									"fontsize" : 10.0,
									"numoutlets" : 1
								}

							}
, 							{
								"box" : 								{
									"maxclass" : "number",
									"patching_rect" : [ 417.0, 297.0, 50.0, 18.0 ],
									"id" : "obj-36",
									"outlettype" : [ "int", "bang" ],
									"fontname" : "Arial",
									"numinlets" : 1,
									"fontsize" : 10.0,
									"numoutlets" : 2
								}

							}
, 							{
								"box" : 								{
									"maxclass" : "newobj",
									"text" : "i 4",
									"patching_rect" : [ 207.0, 418.0, 32.5, 18.0 ],
									"id" : "obj-30",
									"outlettype" : [ "int" ],
									"fontname" : "Arial",
									"numinlets" : 2,
									"fontsize" : 10.0,
									"numoutlets" : 1
								}

							}
, 							{
								"box" : 								{
									"maxclass" : "newobj",
									"text" : "unpack",
									"patching_rect" : [ 143.0, 163.0, 43.0, 18.0 ],
									"id" : "obj-10",
									"outlettype" : [ "int", "int" ],
									"fontname" : "Arial",
									"numinlets" : 1,
									"fontsize" : 10.0,
									"numoutlets" : 2
								}

							}
, 							{
								"box" : 								{
									"maxclass" : "inlet",
									"patching_rect" : [ 100.0, 32.0, 25.0, 25.0 ],
									"id" : "obj-9",
									"outlettype" : [ "" ],
									"numinlets" : 0,
									"numoutlets" : 1,
									"comment" : ""
								}

							}
, 							{
								"box" : 								{
									"maxclass" : "inlet",
									"patching_rect" : [ 221.0, 32.0, 25.0, 25.0 ],
									"id" : "obj-7",
									"outlettype" : [ "" ],
									"numinlets" : 0,
									"numoutlets" : 1,
									"comment" : ""
								}

							}
, 							{
								"box" : 								{
									"maxclass" : "newobj",
									"text" : "sel 1",
									"patching_rect" : [ 525.0, 776.0, 32.5, 18.0 ],
									"id" : "obj-100",
									"outlettype" : [ "bang", "" ],
									"fontname" : "Arial",
									"numinlets" : 2,
									"fontsize" : 10.0,
									"numoutlets" : 2
								}

							}
, 							{
								"box" : 								{
									"maxclass" : "newobj",
									"text" : "p matrixControl",
									"patching_rect" : [ 331.0, 330.0, 78.0, 18.0 ],
									"id" : "obj-50",
									"outlettype" : [ "" ],
									"fontname" : "Arial",
									"numinlets" : 3,
									"fontsize" : 10.0,
									"numoutlets" : 1,
									"patcher" : 									{
										"fileversion" : 1,
										"rect" : [ 824.0, 156.0, 604.0, 468.0 ],
										"bglocked" : 0,
										"defrect" : [ 824.0, 156.0, 604.0, 468.0 ],
										"openrect" : [ 0.0, 0.0, 0.0, 0.0 ],
										"openinpresentation" : 0,
										"default_fontsize" : 10.0,
										"default_fontface" : 0,
										"default_fontname" : "Arial",
										"gridonopen" : 0,
										"gridsize" : [ 15.0, 15.0 ],
										"gridsnaponopen" : 0,
										"toolbarvisible" : 1,
										"boxanimatetime" : 200,
										"imprint" : 0,
										"boxes" : [ 											{
												"box" : 												{
													"maxclass" : "inlet",
													"patching_rect" : [ 272.0, 27.0, 25.0, 25.0 ],
													"id" : "obj-1",
													"outlettype" : [ "int" ],
													"numinlets" : 0,
													"numoutlets" : 1,
													"comment" : ""
												}

											}
, 											{
												"box" : 												{
													"maxclass" : "message",
													"text" : "getcolumn $1",
													"patching_rect" : [ 461.0, 338.0, 80.0, 18.0 ],
													"id" : "obj-19",
													"outlettype" : [ "" ],
													"fontname" : "Arial",
													"numinlets" : 2,
													"fontsize" : 11.595187,
													"numoutlets" : 1
												}

											}
, 											{
												"box" : 												{
													"maxclass" : "newobj",
													"text" : "pak f f",
													"patching_rect" : [ 50.0, 258.0, 38.0, 18.0 ],
													"id" : "obj-16",
													"outlettype" : [ "" ],
													"fontname" : "Arial",
													"numinlets" : 2,
													"fontsize" : 10.0,
													"numoutlets" : 1
												}

											}
, 											{
												"box" : 												{
													"maxclass" : "message",
													"text" : "patching_rect 305 375 $1 $2",
													"patching_rect" : [ 50.0, 293.0, 137.0, 16.0 ],
													"id" : "obj-15",
													"outlettype" : [ "" ],
													"fontname" : "Arial",
													"numinlets" : 2,
													"fontsize" : 10.0,
													"numoutlets" : 1
												}

											}
, 											{
												"box" : 												{
													"maxclass" : "newobj",
													"text" : "* 16.",
													"patching_rect" : [ 96.0, 194.0, 32.5, 18.0 ],
													"id" : "obj-13",
													"outlettype" : [ "float" ],
													"fontname" : "Arial",
													"numinlets" : 2,
													"fontsize" : 10.0,
													"numoutlets" : 1
												}

											}
, 											{
												"box" : 												{
													"maxclass" : "newobj",
													"text" : "* 16.",
													"patching_rect" : [ 50.0, 194.0, 32.5, 18.0 ],
													"id" : "obj-12",
													"outlettype" : [ "float" ],
													"fontname" : "Arial",
													"numinlets" : 2,
													"fontsize" : 10.0,
													"numoutlets" : 1
												}

											}
, 											{
												"box" : 												{
													"maxclass" : "message",
													"text" : "rows $1",
													"patching_rect" : [ 272.0, 182.0, 46.0, 16.0 ],
													"id" : "obj-7",
													"outlettype" : [ "" ],
													"fontname" : "Arial",
													"numinlets" : 2,
													"fontsize" : 10.0,
													"numoutlets" : 1
												}

											}
, 											{
												"box" : 												{
													"maxclass" : "message",
													"text" : "columns $1",
													"patching_rect" : [ 209.0, 182.0, 62.0, 16.0 ],
													"id" : "obj-6",
													"outlettype" : [ "" ],
													"fontname" : "Arial",
													"numinlets" : 2,
													"fontsize" : 10.0,
													"numoutlets" : 1
												}

											}
, 											{
												"box" : 												{
													"maxclass" : "inlet",
													"patching_rect" : [ 49.5, 27.0, 25.0, 25.0 ],
													"id" : "obj-36",
													"outlettype" : [ "int" ],
													"numinlets" : 0,
													"numoutlets" : 1,
													"comment" : ""
												}

											}
, 											{
												"box" : 												{
													"maxclass" : "inlet",
													"patching_rect" : [ 461.0, 27.0, 25.0, 25.0 ],
													"id" : "obj-37",
													"outlettype" : [ "int" ],
													"numinlets" : 0,
													"numoutlets" : 1,
													"comment" : ""
												}

											}
, 											{
												"box" : 												{
													"maxclass" : "outlet",
													"patching_rect" : [ 243.0, 379.0, 25.0, 25.0 ],
													"id" : "obj-39",
													"numinlets" : 1,
													"numoutlets" : 0,
													"comment" : ""
												}

											}
 ],
										"lines" : [ 											{
												"patchline" : 												{
													"source" : [ "obj-36", 0 ],
													"destination" : [ "obj-12", 0 ],
													"hidden" : 0,
													"midpoints" : [ 59.0, 117.5, 59.5, 117.5 ]
												}

											}
, 											{
												"patchline" : 												{
													"source" : [ "obj-12", 0 ],
													"destination" : [ "obj-16", 0 ],
													"hidden" : 0,
													"midpoints" : [ 59.5, 219.0, 59.5, 219.0 ]
												}

											}
, 											{
												"patchline" : 												{
													"source" : [ "obj-13", 0 ],
													"destination" : [ "obj-16", 1 ],
													"hidden" : 0,
													"midpoints" : [ 105.5, 223.0, 78.5, 223.0 ]
												}

											}
, 											{
												"patchline" : 												{
													"source" : [ "obj-37", 0 ],
													"destination" : [ "obj-19", 0 ],
													"hidden" : 0,
													"midpoints" : [  ]
												}

											}
, 											{
												"patchline" : 												{
													"source" : [ "obj-19", 0 ],
													"destination" : [ "obj-39", 0 ],
													"hidden" : 0,
													"midpoints" : [ 470.5, 366.5, 252.5, 366.5 ]
												}

											}
, 											{
												"patchline" : 												{
													"source" : [ "obj-7", 0 ],
													"destination" : [ "obj-39", 0 ],
													"hidden" : 0,
													"midpoints" : [ 281.5, 288.0, 252.5, 288.0 ]
												}

											}
, 											{
												"patchline" : 												{
													"source" : [ "obj-6", 0 ],
													"destination" : [ "obj-39", 0 ],
													"hidden" : 0,
													"midpoints" : [ 218.5, 288.0, 252.5, 288.0 ]
												}

											}
, 											{
												"patchline" : 												{
													"source" : [ "obj-15", 0 ],
													"destination" : [ "obj-39", 0 ],
													"hidden" : 0,
													"midpoints" : [ 59.5, 365.5, 252.5, 365.5 ]
												}

											}
, 											{
												"patchline" : 												{
													"source" : [ "obj-36", 0 ],
													"destination" : [ "obj-6", 0 ],
													"hidden" : 0,
													"midpoints" : [ 59.0, 114.0, 218.5, 114.0 ]
												}

											}
, 											{
												"patchline" : 												{
													"source" : [ "obj-16", 0 ],
													"destination" : [ "obj-15", 0 ],
													"hidden" : 0,
													"midpoints" : [  ]
												}

											}
, 											{
												"patchline" : 												{
													"source" : [ "obj-1", 0 ],
													"destination" : [ "obj-7", 0 ],
													"hidden" : 0,
													"midpoints" : [  ]
												}

											}
, 											{
												"patchline" : 												{
													"source" : [ "obj-1", 0 ],
													"destination" : [ "obj-13", 0 ],
													"hidden" : 0,
													"midpoints" : [ 281.5, 123.0, 105.5, 123.0 ]
												}

											}
 ]
									}
,
									"saved_object_attributes" : 									{
										"default_fontface" : 0,
										"default_fontname" : "Arial",
										"globalpatchername" : "",
										"fontname" : "Arial",
										"default_fontsize" : 10.0,
										"fontface" : 0,
										"fontsize" : 10.0
									}

								}

							}
, 							{
								"box" : 								{
									"maxclass" : "newobj",
									"text" : "<= 1",
									"patching_rect" : [ 525.0, 737.0, 32.5, 18.0 ],
									"id" : "obj-12",
									"outlettype" : [ "int" ],
									"fontname" : "Arial",
									"numinlets" : 2,
									"fontsize" : 10.0,
									"numoutlets" : 1
								}

							}
, 							{
								"box" : 								{
									"maxclass" : "newobj",
									"text" : "zl len",
									"patching_rect" : [ 525.0, 704.0, 34.0, 18.0 ],
									"id" : "obj-3",
									"outlettype" : [ "", "" ],
									"fontname" : "Arial",
									"numinlets" : 2,
									"fontsize" : 10.0,
									"numoutlets" : 2
								}

							}
, 							{
								"box" : 								{
									"maxclass" : "newobj",
									"text" : "zl filter 0",
									"patching_rect" : [ 478.0, 684.0, 66.0, 18.0 ],
									"id" : "obj-8",
									"outlettype" : [ "", "" ],
									"fontname" : "Arial",
									"numinlets" : 2,
									"fontsize" : 10.0,
									"numoutlets" : 2
								}

							}
, 							{
								"box" : 								{
									"maxclass" : "matrixctrl",
									"patching_rect" : [ 305.0, 375.0, 128.0, 128.0 ],
									"id" : "obj-45",
									"outlettype" : [ "list", "list" ],
									"horizontalmargin" : 0,
									"cellpict" : "velocity4.gif",
									"verticalmargin" : 0,
									"numinlets" : 1,
									"rows" : 8,
									"numoutlets" : 2,
									"range" : 5
								}

							}
, 							{
								"box" : 								{
									"maxclass" : "newobj",
									"text" : "r stepMatrixData",
									"patching_rect" : [ 339.0, 354.0, 83.0, 18.0 ],
									"id" : "obj-264",
									"outlettype" : [ "" ],
									"fontname" : "Arial",
									"numinlets" : 0,
									"fontsize" : 10.0,
									"numoutlets" : 1
								}

							}
, 							{
								"box" : 								{
									"maxclass" : "newobj",
									"text" : "s stepMatrix",
									"patching_rect" : [ 100.0, 658.0, 64.0, 18.0 ],
									"id" : "obj-20",
									"fontname" : "Arial",
									"numinlets" : 1,
									"fontsize" : 10.0,
									"numoutlets" : 0
								}

							}
, 							{
								"box" : 								{
									"maxclass" : "newobj",
									"text" : "pack 0 0 4",
									"patching_rect" : [ 100.0, 602.0, 126.0, 17.0 ],
									"id" : "obj-13",
									"outlettype" : [ "" ],
									"fontname" : "Arial",
									"numinlets" : 3,
									"fontsize" : 9.0,
									"numoutlets" : 1
								}

							}
, 							{
								"box" : 								{
									"maxclass" : "number",
									"patching_rect" : [ 358.0, 142.0, 50.0, 18.0 ],
									"id" : "obj-6",
									"outlettype" : [ "int", "bang" ],
									"fontname" : "Arial",
									"numinlets" : 1,
									"fontsize" : 10.0,
									"numoutlets" : 2
								}

							}
, 							{
								"box" : 								{
									"maxclass" : "number",
									"patching_rect" : [ 483.0, 142.0, 50.0, 18.0 ],
									"id" : "obj-4",
									"outlettype" : [ "int", "bang" ],
									"fontname" : "Arial",
									"numinlets" : 1,
									"fontsize" : 10.0,
									"numoutlets" : 2
								}

							}
, 							{
								"box" : 								{
									"maxclass" : "newobj",
									"text" : "r columnMax",
									"patching_rect" : [ 358.0, 95.0, 68.0, 18.0 ],
									"id" : "obj-2",
									"outlettype" : [ "" ],
									"fontname" : "Arial",
									"numinlets" : 0,
									"fontsize" : 10.0,
									"numoutlets" : 1
								}

							}
, 							{
								"box" : 								{
									"maxclass" : "newobj",
									"text" : "r rowsMax",
									"patching_rect" : [ 483.0, 95.0, 57.0, 18.0 ],
									"id" : "obj-1",
									"outlettype" : [ "" ],
									"fontname" : "Arial",
									"numinlets" : 0,
									"fontsize" : 10.0,
									"numoutlets" : 1
								}

							}
 ],
						"lines" : [ 							{
								"patchline" : 								{
									"source" : [ "obj-100", 1 ],
									"destination" : [ "obj-13", 2 ],
									"hidden" : 0,
									"midpoints" : [ 548.0, 803.0, 382.25, 803.0, 382.25, 592.0, 216.5, 592.0 ]
								}

							}
, 							{
								"patchline" : 								{
									"source" : [ "obj-100", 0 ],
									"destination" : [ "obj-30", 0 ],
									"hidden" : 0,
									"midpoints" : [ 534.5, 829.0, 287.0, 829.0, 287.0, 398.0, 216.5, 398.0 ]
								}

							}
, 							{
								"patchline" : 								{
									"source" : [ "obj-100", 0 ],
									"destination" : [ "obj-21", 0 ],
									"hidden" : 0,
									"midpoints" : [  ]
								}

							}
, 							{
								"patchline" : 								{
									"source" : [ "obj-100", 1 ],
									"destination" : [ "obj-22", 0 ],
									"hidden" : 0,
									"midpoints" : [  ]
								}

							}
, 							{
								"patchline" : 								{
									"source" : [ "obj-12", 0 ],
									"destination" : [ "obj-100", 0 ],
									"hidden" : 0,
									"midpoints" : [  ]
								}

							}
, 							{
								"patchline" : 								{
									"source" : [ "obj-3", 0 ],
									"destination" : [ "obj-12", 0 ],
									"hidden" : 0,
									"midpoints" : [  ]
								}

							}
, 							{
								"patchline" : 								{
									"source" : [ "obj-10", 0 ],
									"destination" : [ "obj-18", 0 ],
									"hidden" : 0,
									"midpoints" : [  ]
								}

							}
, 							{
								"patchline" : 								{
									"source" : [ "obj-15", 0 ],
									"destination" : [ "obj-13", 2 ],
									"hidden" : 0,
									"midpoints" : [  ]
								}

							}
, 							{
								"patchline" : 								{
									"source" : [ "obj-13", 0 ],
									"destination" : [ "obj-20", 0 ],
									"hidden" : 0,
									"midpoints" : [  ]
								}

							}
, 							{
								"patchline" : 								{
									"source" : [ "obj-9", 0 ],
									"destination" : [ "obj-13", 0 ],
									"hidden" : 0,
									"midpoints" : [ 109.5, 383.0, 109.5, 383.0 ]
								}

							}
, 							{
								"patchline" : 								{
									"source" : [ "obj-30", 0 ],
									"destination" : [ "obj-13", 2 ],
									"hidden" : 0,
									"midpoints" : [  ]
								}

							}
, 							{
								"patchline" : 								{
									"source" : [ "obj-13", 0 ],
									"destination" : [ "obj-11", 1 ],
									"hidden" : 0,
									"midpoints" : [  ]
								}

							}
, 							{
								"patchline" : 								{
									"source" : [ "obj-7", 0 ],
									"destination" : [ "obj-30", 1 ],
									"hidden" : 0,
									"midpoints" : [  ]
								}

							}
, 							{
								"patchline" : 								{
									"source" : [ "obj-17", 0 ],
									"destination" : [ "obj-45", 0 ],
									"hidden" : 0,
									"midpoints" : [  ]
								}

							}
, 							{
								"patchline" : 								{
									"source" : [ "obj-10", 0 ],
									"destination" : [ "obj-50", 2 ],
									"hidden" : 0,
									"midpoints" : [ 152.5, 200.0, 399.5, 200.0 ]
								}

							}
, 							{
								"patchline" : 								{
									"source" : [ "obj-264", 0 ],
									"destination" : [ "obj-45", 0 ],
									"hidden" : 0,
									"midpoints" : [  ]
								}

							}
, 							{
								"patchline" : 								{
									"source" : [ "obj-6", 0 ],
									"destination" : [ "obj-50", 0 ],
									"hidden" : 0,
									"midpoints" : [ 367.5, 235.5, 340.5, 235.5 ]
								}

							}
, 							{
								"patchline" : 								{
									"source" : [ "obj-50", 0 ],
									"destination" : [ "obj-45", 0 ],
									"hidden" : 0,
									"midpoints" : [  ]
								}

							}
, 							{
								"patchline" : 								{
									"source" : [ "obj-8", 1 ],
									"destination" : [ "obj-3", 0 ],
									"hidden" : 0,
									"midpoints" : [ 534.5, 704.0, 534.5, 704.0 ]
								}

							}
, 							{
								"patchline" : 								{
									"source" : [ "obj-2", 0 ],
									"destination" : [ "obj-6", 0 ],
									"hidden" : 0,
									"midpoints" : [  ]
								}

							}
, 							{
								"patchline" : 								{
									"source" : [ "obj-1", 0 ],
									"destination" : [ "obj-4", 0 ],
									"hidden" : 0,
									"midpoints" : [  ]
								}

							}
, 							{
								"patchline" : 								{
									"source" : [ "obj-4", 0 ],
									"destination" : [ "obj-50", 1 ],
									"hidden" : 0,
									"midpoints" : [ 492.5, 241.0, 370.0, 241.0 ]
								}

							}
, 							{
								"patchline" : 								{
									"source" : [ "obj-9", 0 ],
									"destination" : [ "obj-10", 0 ],
									"hidden" : 0,
									"midpoints" : [ 109.5, 109.0, 152.5, 109.0 ]
								}

							}
, 							{
								"patchline" : 								{
									"source" : [ "obj-45", 1 ],
									"destination" : [ "obj-8", 0 ],
									"hidden" : 0,
									"midpoints" : [  ]
								}

							}
, 							{
								"patchline" : 								{
									"source" : [ "obj-36", 0 ],
									"destination" : [ "obj-50", 2 ],
									"hidden" : 0,
									"midpoints" : [  ]
								}

							}
 ]
					}
,
					"saved_object_attributes" : 					{
						"default_fontface" : 0,
						"default_fontname" : "Arial",
						"globalpatchername" : "",
						"fontname" : "Arial",
						"default_fontsize" : 10.0,
						"fontface" : 0,
						"fontsize" : 10.0
					}

				}

			}
, 			{
				"box" : 				{
					"maxclass" : "newobj",
					"text" : "random 3",
					"patching_rect" : [ 413.0, 736.0, 53.0, 18.0 ],
					"id" : "obj-48",
					"outlettype" : [ "int" ],
					"fontname" : "Arial",
					"numinlets" : 2,
					"fontsize" : 10.0,
					"numoutlets" : 1
				}

			}
, 			{
				"box" : 				{
					"maxclass" : "newobj",
					"text" : "== 255",
					"patching_rect" : [ 413.0, 608.0, 42.0, 18.0 ],
					"id" : "obj-47",
					"outlettype" : [ "int" ],
					"fontname" : "Arial",
					"numinlets" : 2,
					"fontsize" : 10.0,
					"numoutlets" : 1
				}

			}
, 			{
				"box" : 				{
					"maxclass" : "newobj",
					"text" : "+ 1",
					"patching_rect" : [ 413.0, 757.0, 32.5, 17.0 ],
					"id" : "obj-6",
					"outlettype" : [ "int" ],
					"fontname" : "Arial",
					"numinlets" : 2,
					"fontsize" : 9.0,
					"numoutlets" : 1
				}

			}
, 			{
				"box" : 				{
					"maxclass" : "newobj",
					"text" : "buddy",
					"patching_rect" : [ 428.0, 550.0, 36.0, 17.0 ],
					"id" : "obj-10",
					"outlettype" : [ "", "" ],
					"fontname" : "Arial",
					"numinlets" : 2,
					"fontsize" : 9.0,
					"numoutlets" : 2
				}

			}
, 			{
				"box" : 				{
					"maxclass" : "newobj",
					"text" : "sel 1",
					"patching_rect" : [ 413.0, 713.0, 32.5, 17.0 ],
					"id" : "obj-14",
					"outlettype" : [ "bang", "" ],
					"fontname" : "Arial",
					"numinlets" : 2,
					"fontsize" : 9.0,
					"numoutlets" : 2
				}

			}
, 			{
				"box" : 				{
					"maxclass" : "newobj",
					"text" : "zl slice 1",
					"patching_rect" : [ 445.0, 574.0, 51.0, 17.0 ],
					"id" : "obj-16",
					"outlettype" : [ "", "" ],
					"fontname" : "Arial",
					"numinlets" : 2,
					"fontsize" : 9.0,
					"numoutlets" : 2
				}

			}
, 			{
				"box" : 				{
					"maxclass" : "newobj",
					"text" : "gate",
					"patching_rect" : [ 352.0, 816.0, 29.0, 17.0 ],
					"id" : "obj-17",
					"outlettype" : [ "" ],
					"fontname" : "Arial",
					"numinlets" : 2,
					"fontsize" : 9.0,
					"numoutlets" : 1
				}

			}
, 			{
				"box" : 				{
					"maxclass" : "newobj",
					"text" : "jit.iter",
					"patching_rect" : [ 429.0, 518.0, 41.0, 17.0 ],
					"id" : "obj-25",
					"outlettype" : [ "", "", "" ],
					"fontname" : "Arial",
					"numinlets" : 1,
					"fontsize" : 9.0,
					"numoutlets" : 3
				}

			}
, 			{
				"box" : 				{
					"maxclass" : "message",
					"text" : "dim $1 $2",
					"patching_rect" : [ 321.0, 414.0, 61.0, 18.0 ],
					"id" : "obj-62",
					"outlettype" : [ "" ],
					"fontname" : "Arial",
					"numinlets" : 2,
					"fontsize" : 11.595187,
					"numoutlets" : 1
				}

			}
, 			{
				"box" : 				{
					"maxclass" : "newobj",
					"text" : "jit.slide @slide_up 4 @slide_down 8",
					"patching_rect" : [ 404.0, 373.0, 172.0, 17.0 ],
					"id" : "obj-21",
					"outlettype" : [ "jit_matrix", "" ],
					"fontname" : "Arial",
					"numinlets" : 1,
					"fontsize" : 9.0,
					"numoutlets" : 2
				}

			}
, 			{
				"box" : 				{
					"maxclass" : "newobj",
					"text" : "jit.slide @slide_up 0 @slide_down 0",
					"patching_rect" : [ 404.0, 466.0, 178.0, 17.0 ],
					"id" : "obj-22",
					"outlettype" : [ "jit_matrix", "" ],
					"fontname" : "Arial",
					"numinlets" : 1,
					"fontsize" : 9.0,
					"numoutlets" : 2
				}

			}
, 			{
				"box" : 				{
					"maxclass" : "newobj",
					"text" : "jit.op @op max",
					"patching_rect" : [ 98.0, 504.0, 77.0, 17.0 ],
					"id" : "obj-23",
					"outlettype" : [ "jit_matrix", "" ],
					"fontname" : "Arial",
					"numinlets" : 2,
					"color" : [ 1.0, 0.890196, 0.090196, 1.0 ],
					"fontsize" : 9.0,
					"numoutlets" : 2
				}

			}
, 			{
				"box" : 				{
					"maxclass" : "newobj",
					"text" : "jit.rgb2luma",
					"patching_rect" : [ 405.0, 255.0, 64.0, 17.0 ],
					"id" : "obj-27",
					"outlettype" : [ "jit_matrix", "" ],
					"fontname" : "Arial",
					"numinlets" : 1,
					"fontsize" : 9.0,
					"numoutlets" : 2
				}

			}
, 			{
				"box" : 				{
					"maxclass" : "flonum",
					"patching_rect" : [ 491.0, 394.0, 35.0, 17.0 ],
					"id" : "obj-28",
					"outlettype" : [ "float", "bang" ],
					"triscale" : 0.9,
					"bgcolor" : [ 0.866667, 0.866667, 0.866667, 1.0 ],
					"fontname" : "Arial",
					"numinlets" : 1,
					"htextcolor" : [ 0.870588, 0.870588, 0.870588, 1.0 ],
					"fontsize" : 9.0,
					"numoutlets" : 2
				}

			}
, 			{
				"box" : 				{
					"maxclass" : "newobj",
					"text" : "jit.op @op > @val 0.2",
					"patching_rect" : [ 404.0, 414.0, 106.0, 17.0 ],
					"id" : "obj-29",
					"outlettype" : [ "jit_matrix", "" ],
					"fontname" : "Arial",
					"numinlets" : 2,
					"fontsize" : 9.0,
					"numoutlets" : 2
				}

			}
, 			{
				"box" : 				{
					"maxclass" : "flonum",
					"patching_rect" : [ 498.0, 333.0, 35.0, 17.0 ],
					"id" : "obj-30",
					"outlettype" : [ "float", "bang" ],
					"triscale" : 0.9,
					"bgcolor" : [ 0.866667, 0.866667, 0.866667, 1.0 ],
					"fontname" : "Arial",
					"numinlets" : 1,
					"htextcolor" : [ 0.870588, 0.870588, 0.870588, 1.0 ],
					"fontsize" : 9.0,
					"numoutlets" : 2
				}

			}
, 			{
				"box" : 				{
					"maxclass" : "newobj",
					"text" : "jit.op @op > @val 0.05",
					"patching_rect" : [ 405.0, 353.0, 112.0, 17.0 ],
					"id" : "obj-31",
					"outlettype" : [ "jit_matrix", "" ],
					"fontname" : "Arial",
					"numinlets" : 2,
					"fontsize" : 9.0,
					"numoutlets" : 2
				}

			}
, 			{
				"box" : 				{
					"maxclass" : "newobj",
					"text" : "t l l",
					"patching_rect" : [ 405.0, 280.0, 27.0, 17.0 ],
					"id" : "obj-32",
					"outlettype" : [ "", "" ],
					"fontname" : "Arial",
					"numinlets" : 1,
					"fontsize" : 9.0,
					"numoutlets" : 2
				}

			}
, 			{
				"box" : 				{
					"maxclass" : "newobj",
					"text" : "jit.op @op absdiff @val 1.",
					"patching_rect" : [ 405.0, 307.0, 125.0, 17.0 ],
					"id" : "obj-33",
					"outlettype" : [ "jit_matrix", "" ],
					"fontname" : "Arial",
					"numinlets" : 2,
					"fontsize" : 9.0,
					"numoutlets" : 2
				}

			}
, 			{
				"box" : 				{
					"maxclass" : "newobj",
					"text" : "jit.matrix 4 char 15 15",
					"patching_rect" : [ 404.0, 445.0, 97.0, 17.0 ],
					"id" : "obj-40",
					"outlettype" : [ "jit_matrix", "" ],
					"fontname" : "Arial",
					"numinlets" : 1,
					"fontsize" : 9.0,
					"numoutlets" : 2
				}

			}
, 			{
				"box" : 				{
					"maxclass" : "newobj",
					"text" : "jit.window gridTest @border 1 @rect 100 100 440 440",
					"patching_rect" : [ 98.0, 585.0, 225.0, 17.0 ],
					"id" : "obj-20",
					"outlettype" : [ "bang", "" ],
					"fontname" : "Arial",
					"numinlets" : 1,
					"fontsize" : 9.0,
					"numoutlets" : 2
				}

			}
, 			{
				"box" : 				{
					"maxclass" : "newobj",
					"text" : "t b b",
					"patching_rect" : [ 98.0, 92.0, 32.5, 18.0 ],
					"id" : "obj-9",
					"outlettype" : [ "bang", "bang" ],
					"fontname" : "Arial",
					"numinlets" : 1,
					"fontsize" : 10.0,
					"numoutlets" : 2
				}

			}
, 			{
				"box" : 				{
					"maxclass" : "newobj",
					"text" : "p lcdDrawing",
					"patching_rect" : [ 98.0, 183.0, 146.0, 20.0 ],
					"id" : "obj-89",
					"outlettype" : [ "jit_matrix", "" ],
					"fontname" : "Arial",
					"numinlets" : 2,
					"fontsize" : 12.0,
					"numoutlets" : 2,
					"patcher" : 					{
						"fileversion" : 1,
						"rect" : [ 721.0, 44.0, 611.0, 807.0 ],
						"bglocked" : 0,
						"defrect" : [ 721.0, 44.0, 611.0, 807.0 ],
						"openrect" : [ 0.0, 0.0, 0.0, 0.0 ],
						"openinpresentation" : 0,
						"default_fontsize" : 10.0,
						"default_fontface" : 0,
						"default_fontname" : "Arial",
						"gridonopen" : 0,
						"gridsize" : [ 15.0, 15.0 ],
						"gridsnaponopen" : 0,
						"toolbarvisible" : 1,
						"boxanimatetime" : 200,
						"imprint" : 0,
						"boxes" : [ 							{
								"box" : 								{
									"maxclass" : "newobj",
									"text" : "r rowsMax",
									"patching_rect" : [ 212.0, 170.0, 57.0, 18.0 ],
									"id" : "obj-150",
									"outlettype" : [ "" ],
									"fontname" : "Arial",
									"numinlets" : 0,
									"fontsize" : 10.0,
									"numoutlets" : 1
								}

							}
, 							{
								"box" : 								{
									"maxclass" : "newobj",
									"text" : "r columnMax",
									"patching_rect" : [ 299.0, 170.0, 68.0, 18.0 ],
									"id" : "obj-353",
									"outlettype" : [ "" ],
									"fontname" : "Arial",
									"numinlets" : 0,
									"fontsize" : 10.0,
									"numoutlets" : 1
								}

							}
, 							{
								"box" : 								{
									"maxclass" : "newobj",
									"text" : "t b i",
									"patching_rect" : [ 277.0, 241.0, 32.5, 18.0 ],
									"id" : "obj-20",
									"outlettype" : [ "bang", "int" ],
									"fontname" : "Arial",
									"numinlets" : 1,
									"fontsize" : 10.0,
									"numoutlets" : 2
								}

							}
, 							{
								"box" : 								{
									"maxclass" : "newobj",
									"text" : "t b i",
									"patching_rect" : [ 212.0, 241.0, 32.5, 18.0 ],
									"id" : "obj-19",
									"outlettype" : [ "bang", "int" ],
									"fontname" : "Arial",
									"numinlets" : 1,
									"fontsize" : 10.0,
									"numoutlets" : 2
								}

							}
, 							{
								"box" : 								{
									"maxclass" : "newobj",
									"text" : "p lines2",
									"patching_rect" : [ 174.0, 360.0, 136.0, 18.0 ],
									"id" : "obj-18",
									"outlettype" : [ "bang", "int", "" ],
									"fontname" : "Arial",
									"numinlets" : 2,
									"fontsize" : 10.0,
									"numoutlets" : 3,
									"patcher" : 									{
										"fileversion" : 1,
										"rect" : [ 25.0, 69.0, 317.0, 331.0 ],
										"bglocked" : 0,
										"defrect" : [ 25.0, 69.0, 317.0, 331.0 ],
										"openrect" : [ 0.0, 0.0, 0.0, 0.0 ],
										"openinpresentation" : 0,
										"default_fontsize" : 10.0,
										"default_fontface" : 0,
										"default_fontname" : "Arial",
										"gridonopen" : 0,
										"gridsize" : [ 15.0, 15.0 ],
										"gridsnaponopen" : 0,
										"toolbarvisible" : 1,
										"boxanimatetime" : 200,
										"imprint" : 0,
										"boxes" : [ 											{
												"box" : 												{
													"maxclass" : "newobj",
													"text" : "t i i",
													"patching_rect" : [ 77.0, 147.0, 107.5, 18.0 ],
													"id" : "obj-40",
													"outlettype" : [ "int", "int" ],
													"fontname" : "Arial",
													"numinlets" : 1,
													"fontsize" : 10.0,
													"numoutlets" : 2
												}

											}
, 											{
												"box" : 												{
													"maxclass" : "message",
													"text" : "linesegment $1 0 $1 640",
													"patching_rect" : [ 166.0, 244.0, 120.0, 16.0 ],
													"id" : "obj-35",
													"outlettype" : [ "" ],
													"fontname" : "Arial",
													"numinlets" : 2,
													"fontsize" : 10.0,
													"numoutlets" : 1
												}

											}
, 											{
												"box" : 												{
													"maxclass" : "newobj",
													"text" : "uzi",
													"patching_rect" : [ 50.0, 125.0, 46.0, 18.0 ],
													"id" : "obj-26",
													"outlettype" : [ "bang", "bang", "int" ],
													"fontname" : "Arial",
													"numinlets" : 2,
													"fontsize" : 10.0,
													"numoutlets" : 3
												}

											}
, 											{
												"box" : 												{
													"maxclass" : "newobj",
													"text" : "* 1.",
													"patching_rect" : [ 166.0, 220.0, 32.5, 18.0 ],
													"id" : "obj-25",
													"outlettype" : [ "float" ],
													"fontname" : "Arial",
													"numinlets" : 2,
													"fontsize" : 10.0,
													"numoutlets" : 1
												}

											}
, 											{
												"box" : 												{
													"maxclass" : "newobj",
													"text" : "!/ 640.",
													"patching_rect" : [ 97.0, 106.0, 38.0, 18.0 ],
													"id" : "obj-23",
													"outlettype" : [ "float" ],
													"fontname" : "Arial",
													"numinlets" : 2,
													"fontsize" : 10.0,
													"numoutlets" : 1
												}

											}
, 											{
												"box" : 												{
													"maxclass" : "inlet",
													"patching_rect" : [ 50.0, 40.0, 25.0, 25.0 ],
													"id" : "obj-13",
													"outlettype" : [ "bang" ],
													"numinlets" : 0,
													"numoutlets" : 1,
													"comment" : ""
												}

											}
, 											{
												"box" : 												{
													"maxclass" : "inlet",
													"patching_rect" : [ 77.0, 40.0, 25.0, 25.0 ],
													"id" : "obj-14",
													"outlettype" : [ "int" ],
													"numinlets" : 0,
													"numoutlets" : 1,
													"comment" : ""
												}

											}
, 											{
												"box" : 												{
													"maxclass" : "outlet",
													"patching_rect" : [ 64.0, 267.0, 25.0, 25.0 ],
													"id" : "obj-15",
													"numinlets" : 1,
													"numoutlets" : 0,
													"comment" : ""
												}

											}
, 											{
												"box" : 												{
													"maxclass" : "outlet",
													"patching_rect" : [ 111.0, 269.0, 25.0, 25.0 ],
													"id" : "obj-16",
													"numinlets" : 1,
													"numoutlets" : 0,
													"comment" : ""
												}

											}
, 											{
												"box" : 												{
													"maxclass" : "outlet",
													"patching_rect" : [ 166.0, 267.0, 25.0, 25.0 ],
													"id" : "obj-17",
													"numinlets" : 1,
													"numoutlets" : 0,
													"comment" : ""
												}

											}
 ],
										"lines" : [ 											{
												"patchline" : 												{
													"source" : [ "obj-35", 0 ],
													"destination" : [ "obj-17", 0 ],
													"hidden" : 0,
													"midpoints" : [  ]
												}

											}
, 											{
												"patchline" : 												{
													"source" : [ "obj-40", 0 ],
													"destination" : [ "obj-16", 0 ],
													"hidden" : 0,
													"midpoints" : [ 86.5, 216.5, 120.5, 216.5 ]
												}

											}
, 											{
												"patchline" : 												{
													"source" : [ "obj-26", 1 ],
													"destination" : [ "obj-15", 0 ],
													"hidden" : 0,
													"midpoints" : [  ]
												}

											}
, 											{
												"patchline" : 												{
													"source" : [ "obj-14", 0 ],
													"destination" : [ "obj-23", 0 ],
													"hidden" : 0,
													"midpoints" : [ 86.5, 85.0, 106.5, 85.0 ]
												}

											}
, 											{
												"patchline" : 												{
													"source" : [ "obj-14", 0 ],
													"destination" : [ "obj-26", 1 ],
													"hidden" : 0,
													"midpoints" : [  ]
												}

											}
, 											{
												"patchline" : 												{
													"source" : [ "obj-13", 0 ],
													"destination" : [ "obj-26", 0 ],
													"hidden" : 0,
													"midpoints" : [  ]
												}

											}
, 											{
												"patchline" : 												{
													"source" : [ "obj-26", 2 ],
													"destination" : [ "obj-40", 0 ],
													"hidden" : 0,
													"midpoints" : [  ]
												}

											}
, 											{
												"patchline" : 												{
													"source" : [ "obj-40", 1 ],
													"destination" : [ "obj-25", 0 ],
													"hidden" : 0,
													"midpoints" : [  ]
												}

											}
, 											{
												"patchline" : 												{
													"source" : [ "obj-25", 0 ],
													"destination" : [ "obj-35", 0 ],
													"hidden" : 0,
													"midpoints" : [  ]
												}

											}
, 											{
												"patchline" : 												{
													"source" : [ "obj-23", 0 ],
													"destination" : [ "obj-25", 1 ],
													"hidden" : 0,
													"midpoints" : [ 106.5, 134.5, 189.0, 134.5 ]
												}

											}
 ]
									}
,
									"saved_object_attributes" : 									{
										"default_fontface" : 0,
										"default_fontname" : "Arial",
										"globalpatchername" : "",
										"fontname" : "Arial",
										"default_fontsize" : 10.0,
										"fontface" : 0,
										"fontsize" : 10.0
									}

								}

							}
, 							{
								"box" : 								{
									"maxclass" : "newobj",
									"text" : "p lines1",
									"patching_rect" : [ 174.0, 316.0, 71.0, 18.0 ],
									"id" : "obj-12",
									"outlettype" : [ "bang", "int", "" ],
									"fontname" : "Arial",
									"numinlets" : 2,
									"fontsize" : 10.0,
									"numoutlets" : 3,
									"patcher" : 									{
										"fileversion" : 1,
										"rect" : [ 25.0, 69.0, 275.0, 358.0 ],
										"bglocked" : 0,
										"defrect" : [ 25.0, 69.0, 275.0, 358.0 ],
										"openrect" : [ 0.0, 0.0, 0.0, 0.0 ],
										"openinpresentation" : 0,
										"default_fontsize" : 10.0,
										"default_fontface" : 0,
										"default_fontname" : "Arial",
										"gridonopen" : 0,
										"gridsize" : [ 15.0, 15.0 ],
										"gridsnaponopen" : 0,
										"toolbarvisible" : 1,
										"boxanimatetime" : 200,
										"imprint" : 0,
										"boxes" : [ 											{
												"box" : 												{
													"maxclass" : "newobj",
													"text" : "t i i",
													"patching_rect" : [ 77.0, 148.0, 78.5, 18.0 ],
													"id" : "obj-39",
													"outlettype" : [ "int", "int" ],
													"fontname" : "Arial",
													"numinlets" : 1,
													"fontsize" : 10.0,
													"numoutlets" : 2
												}

											}
, 											{
												"box" : 												{
													"maxclass" : "newobj",
													"text" : "* 1.",
													"patching_rect" : [ 137.0, 229.0, 32.5, 18.0 ],
													"id" : "obj-18",
													"outlettype" : [ "float" ],
													"fontname" : "Arial",
													"numinlets" : 2,
													"fontsize" : 10.0,
													"numoutlets" : 1
												}

											}
, 											{
												"box" : 												{
													"maxclass" : "newobj",
													"text" : "uzi",
													"patching_rect" : [ 50.0, 125.0, 46.0, 18.0 ],
													"id" : "obj-15",
													"outlettype" : [ "bang", "bang", "int" ],
													"fontname" : "Arial",
													"numinlets" : 2,
													"fontsize" : 10.0,
													"numoutlets" : 3
												}

											}
, 											{
												"box" : 												{
													"maxclass" : "newobj",
													"text" : "!/ 640.",
													"patching_rect" : [ 93.0, 100.0, 38.0, 18.0 ],
													"id" : "obj-7",
													"outlettype" : [ "float" ],
													"fontname" : "Arial",
													"numinlets" : 2,
													"fontsize" : 10.0,
													"numoutlets" : 1
												}

											}
, 											{
												"box" : 												{
													"maxclass" : "message",
													"text" : "linesegment 0 $1 640 $1",
													"patching_rect" : [ 137.0, 260.0, 109.0, 15.0 ],
													"id" : "obj-19",
													"outlettype" : [ "" ],
													"fontname" : "Arial",
													"numinlets" : 2,
													"fontsize" : 9.0,
													"numoutlets" : 1
												}

											}
, 											{
												"box" : 												{
													"maxclass" : "inlet",
													"patching_rect" : [ 50.0, 40.0, 25.0, 25.0 ],
													"id" : "obj-5",
													"outlettype" : [ "bang" ],
													"numinlets" : 0,
													"numoutlets" : 1,
													"comment" : ""
												}

											}
, 											{
												"box" : 												{
													"maxclass" : "inlet",
													"patching_rect" : [ 76.5, 40.0, 25.0, 25.0 ],
													"id" : "obj-8",
													"outlettype" : [ "int" ],
													"numinlets" : 0,
													"numoutlets" : 1,
													"comment" : ""
												}

											}
, 											{
												"box" : 												{
													"maxclass" : "outlet",
													"patching_rect" : [ 64.0, 287.0, 25.0, 25.0 ],
													"id" : "obj-9",
													"numinlets" : 1,
													"numoutlets" : 0,
													"comment" : ""
												}

											}
, 											{
												"box" : 												{
													"maxclass" : "outlet",
													"patching_rect" : [ 97.0, 287.0, 25.0, 25.0 ],
													"id" : "obj-10",
													"numinlets" : 1,
													"numoutlets" : 0,
													"comment" : ""
												}

											}
, 											{
												"box" : 												{
													"maxclass" : "outlet",
													"patching_rect" : [ 137.0, 287.0, 25.0, 25.0 ],
													"id" : "obj-11",
													"numinlets" : 1,
													"numoutlets" : 0,
													"comment" : ""
												}

											}
 ],
										"lines" : [ 											{
												"patchline" : 												{
													"source" : [ "obj-19", 0 ],
													"destination" : [ "obj-11", 0 ],
													"hidden" : 0,
													"midpoints" : [  ]
												}

											}
, 											{
												"patchline" : 												{
													"source" : [ "obj-39", 0 ],
													"destination" : [ "obj-10", 0 ],
													"hidden" : 0,
													"midpoints" : [ 86.5, 226.0, 106.5, 226.0 ]
												}

											}
, 											{
												"patchline" : 												{
													"source" : [ "obj-15", 1 ],
													"destination" : [ "obj-9", 0 ],
													"hidden" : 0,
													"midpoints" : [  ]
												}

											}
, 											{
												"patchline" : 												{
													"source" : [ "obj-8", 0 ],
													"destination" : [ "obj-7", 0 ],
													"hidden" : 0,
													"midpoints" : [ 86.0, 82.0, 102.5, 82.0 ]
												}

											}
, 											{
												"patchline" : 												{
													"source" : [ "obj-8", 0 ],
													"destination" : [ "obj-15", 1 ],
													"hidden" : 0,
													"midpoints" : [  ]
												}

											}
, 											{
												"patchline" : 												{
													"source" : [ "obj-5", 0 ],
													"destination" : [ "obj-15", 0 ],
													"hidden" : 0,
													"midpoints" : [  ]
												}

											}
, 											{
												"patchline" : 												{
													"source" : [ "obj-15", 2 ],
													"destination" : [ "obj-39", 0 ],
													"hidden" : 0,
													"midpoints" : [  ]
												}

											}
, 											{
												"patchline" : 												{
													"source" : [ "obj-39", 1 ],
													"destination" : [ "obj-18", 0 ],
													"hidden" : 0,
													"midpoints" : [  ]
												}

											}
, 											{
												"patchline" : 												{
													"source" : [ "obj-18", 0 ],
													"destination" : [ "obj-19", 0 ],
													"hidden" : 0,
													"midpoints" : [  ]
												}

											}
, 											{
												"patchline" : 												{
													"source" : [ "obj-7", 0 ],
													"destination" : [ "obj-18", 1 ],
													"hidden" : 0,
													"midpoints" : [ 102.5, 130.0, 160.0, 130.0 ]
												}

											}
 ]
									}
,
									"saved_object_attributes" : 									{
										"default_fontface" : 0,
										"default_fontname" : "Arial",
										"globalpatchername" : "",
										"fontname" : "Arial",
										"default_fontsize" : 10.0,
										"fontface" : 0,
										"fontsize" : 10.0
									}

								}

							}
, 							{
								"box" : 								{
									"maxclass" : "newobj",
									"text" : "pak i i",
									"patching_rect" : [ 452.0, 617.0, 37.0, 18.0 ],
									"id" : "obj-2",
									"outlettype" : [ "" ],
									"fontname" : "Arial",
									"numinlets" : 2,
									"fontsize" : 10.0,
									"numoutlets" : 1
								}

							}
, 							{
								"box" : 								{
									"maxclass" : "outlet",
									"patching_rect" : [ 452.0, 753.0, 25.0, 25.0 ],
									"id" : "obj-1",
									"numinlets" : 1,
									"numoutlets" : 0,
									"comment" : ""
								}

							}
, 							{
								"box" : 								{
									"maxclass" : "message",
									"text" : "clear",
									"patching_rect" : [ 190.0, 294.0, 32.5, 16.0 ],
									"id" : "obj-61",
									"outlettype" : [ "" ],
									"fontname" : "Arial",
									"numinlets" : 2,
									"fontsize" : 10.0,
									"numoutlets" : 1
								}

							}
, 							{
								"box" : 								{
									"maxclass" : "newobj",
									"text" : "route symbol",
									"patching_rect" : [ 273.0, 713.0, 68.0, 18.0 ],
									"id" : "obj-59",
									"outlettype" : [ "", "" ],
									"fontname" : "Arial",
									"numinlets" : 1,
									"fontsize" : 10.0,
									"numoutlets" : 2
								}

							}
, 							{
								"box" : 								{
									"maxclass" : "newobj",
									"text" : "t b b",
									"patching_rect" : [ 174.0, 482.0, 32.5, 18.0 ],
									"id" : "obj-51",
									"outlettype" : [ "bang", "bang" ],
									"fontname" : "Arial",
									"numinlets" : 1,
									"fontsize" : 10.0,
									"numoutlets" : 2
								}

							}
, 							{
								"box" : 								{
									"maxclass" : "newobj",
									"text" : "pack i bang",
									"patching_rect" : [ 188.0, 559.0, 62.0, 18.0 ],
									"id" : "obj-50",
									"outlettype" : [ "" ],
									"fontname" : "Arial",
									"numinlets" : 2,
									"fontsize" : 10.0,
									"numoutlets" : 1
								}

							}
, 							{
								"box" : 								{
									"maxclass" : "newobj",
									"text" : "+ 1",
									"patching_rect" : [ 188.0, 528.0, 32.5, 18.0 ],
									"id" : "obj-47",
									"outlettype" : [ "int" ],
									"fontname" : "Arial",
									"numinlets" : 2,
									"fontsize" : 10.0,
									"numoutlets" : 1
								}

							}
, 							{
								"box" : 								{
									"maxclass" : "newobj",
									"text" : "int",
									"patching_rect" : [ 188.0, 508.0, 32.5, 18.0 ],
									"id" : "obj-46",
									"outlettype" : [ "int" ],
									"fontname" : "Arial",
									"numinlets" : 2,
									"fontsize" : 10.0,
									"numoutlets" : 1
								}

							}
, 							{
								"box" : 								{
									"maxclass" : "newobj",
									"text" : "coll lines 1",
									"patching_rect" : [ 273.0, 687.0, 59.5, 18.0 ],
									"id" : "obj-45",
									"outlettype" : [ "", "", "", "" ],
									"fontname" : "Arial",
									"numinlets" : 1,
									"fontsize" : 10.0,
									"numoutlets" : 4,
									"saved_object_attributes" : 									{
										"embed" : 0
									}

								}

							}
, 							{
								"box" : 								{
									"maxclass" : "newobj",
									"text" : "uzi",
									"patching_rect" : [ 246.0, 664.0, 46.0, 18.0 ],
									"id" : "obj-44",
									"outlettype" : [ "bang", "bang", "int" ],
									"fontname" : "Arial",
									"numinlets" : 2,
									"fontsize" : 10.0,
									"numoutlets" : 3
								}

							}
, 							{
								"box" : 								{
									"maxclass" : "message",
									"text" : "length",
									"patching_rect" : [ 238.0, 602.0, 38.0, 16.0 ],
									"id" : "obj-42",
									"outlettype" : [ "" ],
									"fontname" : "Arial",
									"numinlets" : 2,
									"fontsize" : 10.0,
									"numoutlets" : 1
								}

							}
, 							{
								"box" : 								{
									"maxclass" : "newobj",
									"text" : "+",
									"patching_rect" : [ 233.0, 404.0, 32.5, 18.0 ],
									"id" : "obj-38",
									"outlettype" : [ "int" ],
									"fontname" : "Arial",
									"numinlets" : 2,
									"fontsize" : 10.0,
									"numoutlets" : 1
								}

							}
, 							{
								"box" : 								{
									"maxclass" : "newobj",
									"text" : "pack i l i i i i",
									"patching_rect" : [ 309.0, 600.0, 86.5, 18.0 ],
									"id" : "obj-37",
									"outlettype" : [ "" ],
									"fontname" : "Arial",
									"numinlets" : 6,
									"fontsize" : 10.0,
									"numoutlets" : 1
								}

							}
, 							{
								"box" : 								{
									"maxclass" : "newobj",
									"text" : "coll lines 1",
									"patching_rect" : [ 273.0, 632.0, 59.5, 18.0 ],
									"id" : "obj-36",
									"outlettype" : [ "", "", "", "" ],
									"fontname" : "Arial",
									"numinlets" : 1,
									"fontsize" : 10.0,
									"numoutlets" : 4,
									"saved_object_attributes" : 									{
										"embed" : 0
									}

								}

							}
, 							{
								"box" : 								{
									"maxclass" : "button",
									"patching_rect" : [ 174.0, 268.0, 20.0, 20.0 ],
									"id" : "obj-31",
									"outlettype" : [ "bang" ],
									"numinlets" : 1,
									"numoutlets" : 1
								}

							}
, 							{
								"box" : 								{
									"maxclass" : "number",
									"patching_rect" : [ 277.0, 209.0, 50.0, 18.0 ],
									"id" : "obj-24",
									"outlettype" : [ "int", "bang" ],
									"fontname" : "Arial",
									"numinlets" : 1,
									"fontsize" : 10.0,
									"numoutlets" : 2
								}

							}
, 							{
								"box" : 								{
									"maxclass" : "number",
									"patching_rect" : [ 212.0, 209.0, 50.0, 18.0 ],
									"id" : "obj-6",
									"outlettype" : [ "int", "bang" ],
									"fontname" : "Arial",
									"numinlets" : 1,
									"fontsize" : 10.0,
									"numoutlets" : 2
								}

							}
, 							{
								"box" : 								{
									"maxclass" : "newobj",
									"text" : "loadbang",
									"patching_rect" : [ 276.0, 56.0, 48.0, 17.0 ],
									"id" : "obj-21",
									"outlettype" : [ "bang" ],
									"fontname" : "Arial",
									"numinlets" : 1,
									"fontsize" : 9.0,
									"numoutlets" : 1
								}

							}
, 							{
								"box" : 								{
									"maxclass" : "message",
									"text" : "brgb 0 0 0, frgb 0 255 0, pensize 2 2",
									"linecount" : 2,
									"patching_rect" : [ 276.0, 79.0, 109.0, 25.0 ],
									"id" : "obj-30",
									"outlettype" : [ "" ],
									"fontname" : "Arial",
									"numinlets" : 2,
									"fontsize" : 9.0,
									"numoutlets" : 1
								}

							}
, 							{
								"box" : 								{
									"maxclass" : "newobj",
									"text" : "jit.lcd 4 char 640 640",
									"patching_rect" : [ 50.0, 197.0, 94.0, 17.0 ],
									"id" : "obj-65",
									"outlettype" : [ "jit_matrix", "" ],
									"fontname" : "Arial",
									"numinlets" : 1,
									"fontsize" : 9.0,
									"numoutlets" : 2
								}

							}
, 							{
								"box" : 								{
									"maxclass" : "inlet",
									"patching_rect" : [ 153.0, 40.0, 25.0, 25.0 ],
									"id" : "obj-86",
									"outlettype" : [ "bang" ],
									"numinlets" : 0,
									"numoutlets" : 1,
									"comment" : ""
								}

							}
, 							{
								"box" : 								{
									"maxclass" : "inlet",
									"patching_rect" : [ 11.0, 40.0, 25.0, 25.0 ],
									"id" : "obj-87",
									"outlettype" : [ "jit_matrix" ],
									"numinlets" : 0,
									"numoutlets" : 1,
									"comment" : ""
								}

							}
, 							{
								"box" : 								{
									"maxclass" : "outlet",
									"patching_rect" : [ 50.0, 753.0, 25.0, 25.0 ],
									"id" : "obj-88",
									"numinlets" : 1,
									"numoutlets" : 0,
									"comment" : ""
								}

							}
 ],
						"lines" : [ 							{
								"patchline" : 								{
									"source" : [ "obj-37", 0 ],
									"destination" : [ "obj-36", 0 ],
									"hidden" : 0,
									"midpoints" : [ 318.5, 624.5, 282.5, 624.5 ]
								}

							}
, 							{
								"patchline" : 								{
									"source" : [ "obj-38", 0 ],
									"destination" : [ "obj-37", 0 ],
									"hidden" : 0,
									"midpoints" : [ 242.5, 484.0, 318.5, 484.0 ]
								}

							}
, 							{
								"patchline" : 								{
									"source" : [ "obj-21", 0 ],
									"destination" : [ "obj-30", 0 ],
									"hidden" : 0,
									"midpoints" : [  ]
								}

							}
, 							{
								"patchline" : 								{
									"source" : [ "obj-30", 0 ],
									"destination" : [ "obj-65", 0 ],
									"hidden" : 0,
									"midpoints" : [ 285.5, 187.0, 59.5, 187.0 ]
								}

							}
, 							{
								"patchline" : 								{
									"source" : [ "obj-65", 0 ],
									"destination" : [ "obj-88", 0 ],
									"hidden" : 0,
									"midpoints" : [  ]
								}

							}
, 							{
								"patchline" : 								{
									"source" : [ "obj-87", 0 ],
									"destination" : [ "obj-65", 0 ],
									"hidden" : 0,
									"midpoints" : [ 20.5, 192.0, 59.5, 192.0 ]
								}

							}
, 							{
								"patchline" : 								{
									"source" : [ "obj-42", 0 ],
									"destination" : [ "obj-36", 0 ],
									"hidden" : 0,
									"midpoints" : [ 247.5, 624.5, 282.5, 624.5 ]
								}

							}
, 							{
								"patchline" : 								{
									"source" : [ "obj-38", 0 ],
									"destination" : [ "obj-46", 1 ],
									"hidden" : 0,
									"midpoints" : [ 242.5, 433.5, 211.0, 433.5 ]
								}

							}
, 							{
								"patchline" : 								{
									"source" : [ "obj-46", 0 ],
									"destination" : [ "obj-47", 0 ],
									"hidden" : 0,
									"midpoints" : [  ]
								}

							}
, 							{
								"patchline" : 								{
									"source" : [ "obj-47", 0 ],
									"destination" : [ "obj-50", 0 ],
									"hidden" : 0,
									"midpoints" : [  ]
								}

							}
, 							{
								"patchline" : 								{
									"source" : [ "obj-51", 1 ],
									"destination" : [ "obj-46", 0 ],
									"hidden" : 0,
									"midpoints" : [  ]
								}

							}
, 							{
								"patchline" : 								{
									"source" : [ "obj-50", 0 ],
									"destination" : [ "obj-36", 0 ],
									"hidden" : 0,
									"midpoints" : [ 197.5, 584.0, 282.5, 584.0 ]
								}

							}
, 							{
								"patchline" : 								{
									"source" : [ "obj-51", 0 ],
									"destination" : [ "obj-42", 0 ],
									"hidden" : 0,
									"midpoints" : [ 183.5, 553.5, 247.5, 553.5 ]
								}

							}
, 							{
								"patchline" : 								{
									"source" : [ "obj-45", 0 ],
									"destination" : [ "obj-59", 0 ],
									"hidden" : 0,
									"midpoints" : [  ]
								}

							}
, 							{
								"patchline" : 								{
									"source" : [ "obj-59", 1 ],
									"destination" : [ "obj-65", 0 ],
									"hidden" : 0,
									"midpoints" : [ 331.5, 739.0, 32.0, 739.0, 32.0, 187.0, 59.5, 187.0 ]
								}

							}
, 							{
								"patchline" : 								{
									"source" : [ "obj-59", 0 ],
									"destination" : [ "obj-65", 0 ],
									"hidden" : 0,
									"midpoints" : [ 282.5, 739.0, 32.5, 739.0, 32.5, 187.0, 59.5, 187.0 ]
								}

							}
, 							{
								"patchline" : 								{
									"source" : [ "obj-86", 0 ],
									"destination" : [ "obj-44", 0 ],
									"hidden" : 0,
									"midpoints" : [ 162.5, 644.5, 255.5, 644.5 ]
								}

							}
, 							{
								"patchline" : 								{
									"source" : [ "obj-36", 0 ],
									"destination" : [ "obj-44", 1 ],
									"hidden" : 0,
									"midpoints" : [  ]
								}

							}
, 							{
								"patchline" : 								{
									"source" : [ "obj-44", 2 ],
									"destination" : [ "obj-45", 0 ],
									"hidden" : 0,
									"midpoints" : [  ]
								}

							}
, 							{
								"patchline" : 								{
									"source" : [ "obj-2", 0 ],
									"destination" : [ "obj-1", 0 ],
									"hidden" : 0,
									"midpoints" : [  ]
								}

							}
, 							{
								"patchline" : 								{
									"source" : [ "obj-31", 0 ],
									"destination" : [ "obj-61", 0 ],
									"hidden" : 0,
									"midpoints" : [ 183.5, 290.0, 199.5, 290.0 ]
								}

							}
, 							{
								"patchline" : 								{
									"source" : [ "obj-61", 0 ],
									"destination" : [ "obj-36", 0 ],
									"hidden" : 0,
									"midpoints" : [ 199.5, 312.0, 282.5, 312.0 ]
								}

							}
, 							{
								"patchline" : 								{
									"source" : [ "obj-12", 2 ],
									"destination" : [ "obj-37", 1 ],
									"hidden" : 0,
									"midpoints" : [ 235.5, 337.5, 332.0, 337.5 ]
								}

							}
, 							{
								"patchline" : 								{
									"source" : [ "obj-12", 1 ],
									"destination" : [ "obj-38", 1 ],
									"hidden" : 0,
									"midpoints" : [ 209.5, 343.5, 256.0, 343.5 ]
								}

							}
, 							{
								"patchline" : 								{
									"source" : [ "obj-12", 1 ],
									"destination" : [ "obj-37", 0 ],
									"hidden" : 0,
									"midpoints" : [ 209.5, 340.5, 318.5, 340.5 ]
								}

							}
, 							{
								"patchline" : 								{
									"source" : [ "obj-31", 0 ],
									"destination" : [ "obj-12", 0 ],
									"hidden" : 0,
									"midpoints" : [  ]
								}

							}
, 							{
								"patchline" : 								{
									"source" : [ "obj-18", 2 ],
									"destination" : [ "obj-37", 1 ],
									"hidden" : 0,
									"midpoints" : [ 300.5, 488.5, 332.0, 488.5 ]
								}

							}
, 							{
								"patchline" : 								{
									"source" : [ "obj-18", 1 ],
									"destination" : [ "obj-38", 0 ],
									"hidden" : 0,
									"midpoints" : [  ]
								}

							}
, 							{
								"patchline" : 								{
									"source" : [ "obj-18", 0 ],
									"destination" : [ "obj-51", 0 ],
									"hidden" : 0,
									"midpoints" : [  ]
								}

							}
, 							{
								"patchline" : 								{
									"source" : [ "obj-12", 0 ],
									"destination" : [ "obj-18", 0 ],
									"hidden" : 0,
									"midpoints" : [  ]
								}

							}
, 							{
								"patchline" : 								{
									"source" : [ "obj-6", 0 ],
									"destination" : [ "obj-19", 0 ],
									"hidden" : 0,
									"midpoints" : [  ]
								}

							}
, 							{
								"patchline" : 								{
									"source" : [ "obj-19", 1 ],
									"destination" : [ "obj-12", 1 ],
									"hidden" : 0,
									"midpoints" : [  ]
								}

							}
, 							{
								"patchline" : 								{
									"source" : [ "obj-19", 0 ],
									"destination" : [ "obj-31", 0 ],
									"hidden" : 0,
									"midpoints" : [ 221.5, 263.0, 183.5, 263.0 ]
								}

							}
, 							{
								"patchline" : 								{
									"source" : [ "obj-24", 0 ],
									"destination" : [ "obj-20", 0 ],
									"hidden" : 0,
									"midpoints" : [  ]
								}

							}
, 							{
								"patchline" : 								{
									"source" : [ "obj-20", 1 ],
									"destination" : [ "obj-18", 1 ],
									"hidden" : 0,
									"midpoints" : [  ]
								}

							}
, 							{
								"patchline" : 								{
									"source" : [ "obj-20", 0 ],
									"destination" : [ "obj-31", 0 ],
									"hidden" : 0,
									"midpoints" : [ 286.5, 266.0, 183.5, 266.0 ]
								}

							}
, 							{
								"patchline" : 								{
									"source" : [ "obj-24", 0 ],
									"destination" : [ "obj-2", 0 ],
									"hidden" : 0,
									"midpoints" : [ 286.5, 231.0, 461.5, 231.0 ]
								}

							}
, 							{
								"patchline" : 								{
									"source" : [ "obj-6", 0 ],
									"destination" : [ "obj-2", 1 ],
									"hidden" : 0,
									"midpoints" : [ 221.5, 233.0, 479.5, 233.0 ]
								}

							}
, 							{
								"patchline" : 								{
									"source" : [ "obj-353", 0 ],
									"destination" : [ "obj-24", 0 ],
									"hidden" : 0,
									"midpoints" : [ 308.5, 202.0, 286.5, 202.0 ]
								}

							}
, 							{
								"patchline" : 								{
									"source" : [ "obj-150", 0 ],
									"destination" : [ "obj-6", 0 ],
									"hidden" : 0,
									"midpoints" : [  ]
								}

							}
 ]
					}
,
					"saved_object_attributes" : 					{
						"default_fontface" : 0,
						"default_fontname" : "Arial",
						"globalpatchername" : "",
						"fontname" : "Arial",
						"default_fontsize" : 10.0,
						"fontface" : 0,
						"fontsize" : 10.0
					}

				}

			}
, 			{
				"box" : 				{
					"maxclass" : "newobj",
					"text" : "jit.dimmap @invert 1 0",
					"patching_rect" : [ 98.0, 153.0, 130.0, 20.0 ],
					"id" : "obj-3",
					"outlettype" : [ "jit_matrix", "" ],
					"fontname" : "Arial",
					"numinlets" : 1,
					"fontsize" : 12.0,
					"numoutlets" : 2
				}

			}
, 			{
				"box" : 				{
					"maxclass" : "message",
					"text" : "open",
					"patching_rect" : [ 154.0, 70.0, 33.0, 16.0 ],
					"id" : "obj-7",
					"outlettype" : [ "" ],
					"fontname" : "Arial",
					"numinlets" : 2,
					"fontsize" : 10.0,
					"numoutlets" : 1
				}

			}
, 			{
				"box" : 				{
					"maxclass" : "toggle",
					"patching_rect" : [ 98.0, 39.0, 20.0, 20.0 ],
					"id" : "obj-4",
					"outlettype" : [ "int" ],
					"numinlets" : 1,
					"numoutlets" : 1
				}

			}
, 			{
				"box" : 				{
					"maxclass" : "newobj",
					"text" : "metro 33",
					"patching_rect" : [ 98.0, 71.0, 50.0, 18.0 ],
					"id" : "obj-2",
					"outlettype" : [ "bang" ],
					"fontname" : "Arial",
					"numinlets" : 2,
					"fontsize" : 10.0,
					"numoutlets" : 1
				}

			}
, 			{
				"box" : 				{
					"maxclass" : "newobj",
					"text" : "jit.qt.grab 340 340",
					"patching_rect" : [ 98.0, 129.0, 91.0, 18.0 ],
					"id" : "obj-1",
					"outlettype" : [ "jit_matrix", "" ],
					"fontname" : "Arial",
					"numinlets" : 1,
					"fontsize" : 10.0,
					"numoutlets" : 2
				}

			}
 ],
		"lines" : [ 			{
				"patchline" : 				{
					"source" : [ "obj-16", 0 ],
					"destination" : [ "obj-13", 1 ],
					"hidden" : 0,
					"midpoints" : [  ]
				}

			}
, 			{
				"patchline" : 				{
					"source" : [ "obj-11", 0 ],
					"destination" : [ "obj-5", 0 ],
					"hidden" : 0,
					"midpoints" : [  ]
				}

			}
, 			{
				"patchline" : 				{
					"source" : [ "obj-47", 0 ],
					"destination" : [ "obj-11", 0 ],
					"hidden" : 0,
					"midpoints" : [  ]
				}

			}
, 			{
				"patchline" : 				{
					"source" : [ "obj-5", 0 ],
					"destination" : [ "obj-14", 0 ],
					"hidden" : 0,
					"midpoints" : [  ]
				}

			}
, 			{
				"patchline" : 				{
					"source" : [ "obj-5", 1 ],
					"destination" : [ "obj-61", 0 ],
					"hidden" : 0,
					"midpoints" : [ 436.0, 694.0, 408.5, 694.0 ]
				}

			}
, 			{
				"patchline" : 				{
					"source" : [ "obj-5", 2 ],
					"destination" : [ "obj-17", 0 ],
					"hidden" : 0,
					"midpoints" : [ 449.5, 700.0, 361.5, 700.0 ]
				}

			}
, 			{
				"patchline" : 				{
					"source" : [ "obj-22", 0 ],
					"destination" : [ "obj-23", 1 ],
					"hidden" : 0,
					"midpoints" : [ 413.5, 494.0, 165.5, 494.0 ]
				}

			}
, 			{
				"patchline" : 				{
					"source" : [ "obj-40", 0 ],
					"destination" : [ "obj-22", 0 ],
					"hidden" : 0,
					"midpoints" : [  ]
				}

			}
, 			{
				"patchline" : 				{
					"source" : [ "obj-22", 0 ],
					"destination" : [ "obj-25", 0 ],
					"hidden" : 0,
					"midpoints" : [  ]
				}

			}
, 			{
				"patchline" : 				{
					"source" : [ "obj-45", 0 ],
					"destination" : [ "obj-150", 0 ],
					"hidden" : 0,
					"midpoints" : [ 373.5, 94.0, 318.5, 94.0 ]
				}

			}
, 			{
				"patchline" : 				{
					"source" : [ "obj-45", 0 ],
					"destination" : [ "obj-353", 0 ],
					"hidden" : 0,
					"midpoints" : [ 373.5, 94.0, 381.0, 94.0, 381.0, 94.0, 405.5, 94.0 ]
				}

			}
, 			{
				"patchline" : 				{
					"source" : [ "obj-44", 0 ],
					"destination" : [ "obj-150", 0 ],
					"hidden" : 0,
					"midpoints" : [  ]
				}

			}
, 			{
				"patchline" : 				{
					"source" : [ "obj-35", 0 ],
					"destination" : [ "obj-353", 0 ],
					"hidden" : 0,
					"midpoints" : [  ]
				}

			}
, 			{
				"patchline" : 				{
					"source" : [ "obj-4", 0 ],
					"destination" : [ "obj-2", 0 ],
					"hidden" : 0,
					"midpoints" : [  ]
				}

			}
, 			{
				"patchline" : 				{
					"source" : [ "obj-3", 0 ],
					"destination" : [ "obj-89", 0 ],
					"hidden" : 0,
					"midpoints" : [  ]
				}

			}
, 			{
				"patchline" : 				{
					"source" : [ "obj-2", 0 ],
					"destination" : [ "obj-9", 0 ],
					"hidden" : 0,
					"midpoints" : [  ]
				}

			}
, 			{
				"patchline" : 				{
					"source" : [ "obj-9", 1 ],
					"destination" : [ "obj-89", 1 ],
					"hidden" : 0,
					"midpoints" : [ 121.0, 115.0, 234.5, 115.0 ]
				}

			}
, 			{
				"patchline" : 				{
					"source" : [ "obj-32", 0 ],
					"destination" : [ "obj-33", 1 ],
					"hidden" : 0,
					"midpoints" : [ 414.5, 303.0, 520.5, 303.0 ]
				}

			}
, 			{
				"patchline" : 				{
					"source" : [ "obj-30", 0 ],
					"destination" : [ "obj-31", 1 ],
					"hidden" : 0,
					"midpoints" : [  ]
				}

			}
, 			{
				"patchline" : 				{
					"source" : [ "obj-28", 0 ],
					"destination" : [ "obj-29", 1 ],
					"hidden" : 0,
					"midpoints" : [ 500.5, 411.0, 500.5, 411.0 ]
				}

			}
, 			{
				"patchline" : 				{
					"source" : [ "obj-33", 0 ],
					"destination" : [ "obj-31", 0 ],
					"hidden" : 0,
					"midpoints" : [  ]
				}

			}
, 			{
				"patchline" : 				{
					"source" : [ "obj-32", 1 ],
					"destination" : [ "obj-33", 0 ],
					"hidden" : 0,
					"midpoints" : [ 422.5, 300.0, 414.5, 300.0 ]
				}

			}
, 			{
				"patchline" : 				{
					"source" : [ "obj-27", 0 ],
					"destination" : [ "obj-32", 0 ],
					"hidden" : 0,
					"midpoints" : [  ]
				}

			}
, 			{
				"patchline" : 				{
					"source" : [ "obj-21", 0 ],
					"destination" : [ "obj-29", 0 ],
					"hidden" : 0,
					"midpoints" : [  ]
				}

			}
, 			{
				"patchline" : 				{
					"source" : [ "obj-31", 0 ],
					"destination" : [ "obj-21", 0 ],
					"hidden" : 0,
					"midpoints" : [  ]
				}

			}
, 			{
				"patchline" : 				{
					"source" : [ "obj-3", 0 ],
					"destination" : [ "obj-27", 0 ],
					"hidden" : 0,
					"midpoints" : [ 107.5, 177.0, 414.5, 177.0 ]
				}

			}
, 			{
				"patchline" : 				{
					"source" : [ "obj-89", 0 ],
					"destination" : [ "obj-23", 0 ],
					"hidden" : 0,
					"midpoints" : [  ]
				}

			}
, 			{
				"patchline" : 				{
					"source" : [ "obj-29", 0 ],
					"destination" : [ "obj-40", 0 ],
					"hidden" : 0,
					"midpoints" : [  ]
				}

			}
, 			{
				"patchline" : 				{
					"source" : [ "obj-62", 0 ],
					"destination" : [ "obj-40", 0 ],
					"hidden" : 0,
					"midpoints" : [ 330.5, 437.5, 413.5, 437.5 ]
				}

			}
, 			{
				"patchline" : 				{
					"source" : [ "obj-89", 1 ],
					"destination" : [ "obj-62", 0 ],
					"hidden" : 0,
					"midpoints" : [ 234.5, 290.5, 330.5, 290.5 ]
				}

			}
, 			{
				"patchline" : 				{
					"source" : [ "obj-25", 0 ],
					"destination" : [ "obj-10", 1 ],
					"hidden" : 0,
					"midpoints" : [  ]
				}

			}
, 			{
				"patchline" : 				{
					"source" : [ "obj-25", 1 ],
					"destination" : [ "obj-10", 0 ],
					"hidden" : 0,
					"midpoints" : [  ]
				}

			}
, 			{
				"patchline" : 				{
					"source" : [ "obj-10", 1 ],
					"destination" : [ "obj-16", 0 ],
					"hidden" : 0,
					"midpoints" : [ 454.5, 570.0, 454.5, 570.0 ]
				}

			}
, 			{
				"patchline" : 				{
					"source" : [ "obj-16", 0 ],
					"destination" : [ "obj-47", 0 ],
					"hidden" : 0,
					"midpoints" : [ 454.5, 601.5, 422.5, 601.5 ]
				}

			}
, 			{
				"patchline" : 				{
					"source" : [ "obj-14", 0 ],
					"destination" : [ "obj-48", 0 ],
					"hidden" : 0,
					"midpoints" : [  ]
				}

			}
, 			{
				"patchline" : 				{
					"source" : [ "obj-48", 0 ],
					"destination" : [ "obj-6", 0 ],
					"hidden" : 0,
					"midpoints" : [  ]
				}

			}
, 			{
				"patchline" : 				{
					"source" : [ "obj-10", 0 ],
					"destination" : [ "obj-17", 1 ],
					"hidden" : 0,
					"midpoints" : [ 437.5, 579.0, 371.5, 579.0 ]
				}

			}
, 			{
				"patchline" : 				{
					"source" : [ "obj-17", 0 ],
					"destination" : [ "obj-55", 0 ],
					"hidden" : 0,
					"midpoints" : [  ]
				}

			}
, 			{
				"patchline" : 				{
					"source" : [ "obj-6", 0 ],
					"destination" : [ "obj-61", 1 ],
					"hidden" : 0,
					"midpoints" : [  ]
				}

			}
, 			{
				"patchline" : 				{
					"source" : [ "obj-61", 0 ],
					"destination" : [ "obj-55", 1 ],
					"hidden" : 0,
					"midpoints" : [  ]
				}

			}
, 			{
				"patchline" : 				{
					"source" : [ "obj-23", 0 ],
					"destination" : [ "obj-20", 0 ],
					"hidden" : 0,
					"midpoints" : [  ]
				}

			}
, 			{
				"patchline" : 				{
					"source" : [ "obj-7", 0 ],
					"destination" : [ "obj-1", 0 ],
					"hidden" : 0,
					"midpoints" : [  ]
				}

			}
, 			{
				"patchline" : 				{
					"source" : [ "obj-1", 0 ],
					"destination" : [ "obj-3", 0 ],
					"hidden" : 0,
					"midpoints" : [  ]
				}

			}
, 			{
				"patchline" : 				{
					"source" : [ "obj-9", 0 ],
					"destination" : [ "obj-1", 0 ],
					"hidden" : 0,
					"midpoints" : [  ]
				}

			}
, 			{
				"patchline" : 				{
					"source" : [ "obj-61", 0 ],
					"destination" : [ "obj-60", 0 ],
					"hidden" : 0,
					"midpoints" : [  ]
				}

			}
 ]
	}

}
