{
	"patcher" : 	{
		"fileversion" : 1,
		"rect" : [ 399.0, 109.0, 862.0, 661.0 ],
		"bglocked" : 0,
		"defrect" : [ 399.0, 109.0, 862.0, 661.0 ],
		"openrect" : [ 0.0, 0.0, 0.0, 0.0 ],
		"openinpresentation" : 0,
		"default_fontsize" : 10.0,
		"default_fontface" : 0,
		"default_fontname" : "Arial",
		"gridonopen" : 0,
		"gridsize" : [ 15.0, 15.0 ],
		"gridsnaponopen" : 0,
		"toolbarvisible" : 1,
		"boxanimatetime" : 200,
		"imprint" : 0,
		"enablehscroll" : 1,
		"enablevscroll" : 1,
		"devicewidth" : 0.0,
		"boxes" : [ 			{
				"box" : 				{
					"maxclass" : "newobj",
					"varname" : "interpolation",
					"text" : "p interpolation",
					"id" : "obj-3",
					"fontname" : "Arial Bold",
					"numinlets" : 0,
					"patching_rect" : [ 577.0, 533.0, 94.0, 20.0 ],
					"fontsize" : 12.0,
					"numoutlets" : 0,
					"patcher" : 					{
						"fileversion" : 1,
						"rect" : [ 338.0, 125.0, 988.0, 693.0 ],
						"bglocked" : 0,
						"defrect" : [ 338.0, 125.0, 988.0, 693.0 ],
						"openrect" : [ 0.0, 0.0, 0.0, 0.0 ],
						"openinpresentation" : 0,
						"default_fontsize" : 12.0,
						"default_fontface" : 0,
						"default_fontname" : "Arial",
						"gridonopen" : 0,
						"gridsize" : [ 15.0, 15.0 ],
						"gridsnaponopen" : 0,
						"toolbarvisible" : 1,
						"boxanimatetime" : 200,
						"imprint" : 0,
						"enablehscroll" : 1,
						"enablevscroll" : 1,
						"devicewidth" : 0.0,
						"boxes" : [ 							{
								"box" : 								{
									"maxclass" : "message",
									"text" : "300",
									"outlettype" : [ "" ],
									"id" : "obj-10",
									"fontname" : "Arial Bold",
									"numinlets" : 2,
									"patching_rect" : [ 683.0, 363.0, 63.0, 25.0 ],
									"fontsize" : 18.0,
									"numoutlets" : 1
								}

							}
, 							{
								"box" : 								{
									"maxclass" : "newobj",
									"text" : "zl 300 len",
									"outlettype" : [ "", "" ],
									"id" : "obj-11",
									"fontname" : "Arial",
									"numinlets" : 2,
									"patching_rect" : [ 691.0, 338.0, 62.0, 20.0 ],
									"fontsize" : 12.0,
									"numoutlets" : 2
								}

							}
, 							{
								"box" : 								{
									"maxclass" : "message",
									"text" : "200",
									"outlettype" : [ "" ],
									"id" : "obj-8",
									"fontname" : "Arial Bold",
									"numinlets" : 2,
									"patching_rect" : [ 496.0, 366.0, 63.0, 25.0 ],
									"fontsize" : 18.0,
									"numoutlets" : 1
								}

							}
, 							{
								"box" : 								{
									"maxclass" : "newobj",
									"text" : "zl len",
									"outlettype" : [ "", "" ],
									"id" : "obj-9",
									"fontname" : "Arial",
									"numinlets" : 2,
									"patching_rect" : [ 504.0, 341.0, 39.0, 20.0 ],
									"fontsize" : 12.0,
									"numoutlets" : 2
								}

							}
, 							{
								"box" : 								{
									"maxclass" : "message",
									"text" : "127",
									"outlettype" : [ "" ],
									"id" : "obj-6",
									"fontname" : "Arial Bold",
									"numinlets" : 2,
									"patching_rect" : [ 312.0, 362.0, 63.0, 25.0 ],
									"fontsize" : 18.0,
									"numoutlets" : 1
								}

							}
, 							{
								"box" : 								{
									"maxclass" : "newobj",
									"text" : "zl len",
									"outlettype" : [ "", "" ],
									"id" : "obj-7",
									"fontname" : "Arial",
									"numinlets" : 2,
									"patching_rect" : [ 320.0, 337.0, 39.0, 20.0 ],
									"fontsize" : 12.0,
									"numoutlets" : 2
								}

							}
, 							{
								"box" : 								{
									"maxclass" : "message",
									"text" : "20",
									"outlettype" : [ "" ],
									"id" : "obj-4",
									"fontname" : "Arial Bold",
									"numinlets" : 2,
									"patching_rect" : [ 75.0, 363.0, 63.0, 25.0 ],
									"fontsize" : 18.0,
									"numoutlets" : 1
								}

							}
, 							{
								"box" : 								{
									"maxclass" : "newobj",
									"text" : "zl len",
									"outlettype" : [ "", "" ],
									"id" : "obj-5",
									"fontname" : "Arial",
									"numinlets" : 2,
									"patching_rect" : [ 83.0, 338.0, 39.0, 20.0 ],
									"fontsize" : 12.0,
									"numoutlets" : 2
								}

							}
, 							{
								"box" : 								{
									"maxclass" : "message",
									"text" : "200",
									"outlettype" : [ "" ],
									"id" : "obj-3",
									"fontname" : "Arial Bold",
									"numinlets" : 2,
									"patching_rect" : [ 172.0, 505.0, 63.0, 25.0 ],
									"fontsize" : 18.0,
									"numoutlets" : 1,
									"textcolor" : [ 1.0, 0.073716, 0.085054, 1.0 ]
								}

							}
, 							{
								"box" : 								{
									"maxclass" : "newobj",
									"text" : "zl 300 len",
									"outlettype" : [ "", "" ],
									"id" : "obj-1",
									"fontname" : "Arial",
									"numinlets" : 2,
									"patching_rect" : [ 180.0, 480.0, 62.0, 20.0 ],
									"fontsize" : 12.0,
									"numoutlets" : 2
								}

							}
, 							{
								"box" : 								{
									"maxclass" : "comment",
									"text" : "each list needs to be prepended by an index (starting from 0!!)",
									"id" : "obj-15",
									"fontname" : "Arial",
									"numinlets" : 1,
									"patching_rect" : [ 315.0, 398.0, 340.0, 20.0 ],
									"fontsize" : 12.0,
									"numoutlets" : 0
								}

							}
, 							{
								"box" : 								{
									"maxclass" : "comment",
									"text" : "clear: delete the stored lists",
									"id" : "obj-13",
									"fontname" : "Arial",
									"numinlets" : 1,
									"patching_rect" : [ 103.0, 414.0, 150.0, 18.0 ],
									"fontsize" : 10.0,
									"numoutlets" : 0
								}

							}
, 							{
								"box" : 								{
									"maxclass" : "comment",
									"text" : "trace the list on the right to see which one you are closest to ",
									"linecount" : 2,
									"id" : "obj-2",
									"fontname" : "Arial",
									"numinlets" : 1,
									"patching_rect" : [ 68.0, 230.0, 165.0, 32.0 ],
									"fontsize" : 11.0,
									"numoutlets" : 0
								}

							}
, 							{
								"box" : 								{
									"maxclass" : "newobj",
									"varname" : "u349001202",
									"text" : "autopattr",
									"hidden" : 1,
									"outlettype" : [ "", "", "", "" ],
									"id" : "obj-161",
									"fontname" : "Arial",
									"numinlets" : 1,
									"patching_rect" : [ 299.0, 216.0, 59.5, 18.0 ],
									"fontsize" : 10.0,
									"numoutlets" : 4,
									"restore" : 									{
										"multislider[2]" : [ 0.09863, 0.09726, 0.09589, 0.095205, 0.094521, 0.093912, 0.093303, 0.092694, 0.092085, 0.091476, 0.090868, 0.090259, 0.08965, 0.089041, 0.088792, 0.088543, 0.088294, 0.088045, 0.087796, 0.087547, 0.086301, 0.087049, 0.0868, 0.08655, 0.086301, 0.08589, 0.085479, 0.085068, 0.084658, 0.084247, 0.083836, 0.083425, 0.083014, 0.082603, 0.082192, 0.081849, 0.081507, 0.081164, 0.080822, 0.080479, 0.080137, 0.076712, 0.079452, 0.07911, 0.078767, 0.078425, 0.068493, 0.07774, 0.077397, 0.077055, 0.076712, 0.076256, 0.075799, 0.075342, 0.074886, 0.074429, 0.073973, 0.073425, 0.072877, 0.072329, 0.071781, 0.071233, 0.070776, 0.07032, 0.069863, 0.069406, 0.06895, 0.068493, 0.067808, 0.067123, 0.066438, 0.065753, 0.065411, 0.065068, 0.064726, 0.064384, 0.06347, 0.062557, 0.061644, 0.060731, 0.059817, 0.058904, 0.058562, 0.058219, 0.057877, 0.057534, 0.056849, 0.056164, 0.05589, 0.055616, 0.055342, 0.055068, 0.054795, 0.054452, 0.05411, 0.053767, 0.053425, 0.053151, 0.052877, 0.052603, 0.052329, 0.052055, 0.05137, 0.050685, 0.05, 0.049315, 0.047945, 0.046575, 0.045662, 0.044749, 0.043836, 0.043379, 0.042922, 0.042466, 0.041553, 0.040639, 0.039726, 0.039041, 0.038356, 0.037443, 0.03653, 0.035616, 0.035342, 0.035068, 0.034795, 0.034521, 0.034247, 0.033333, 0.03242, 0.031507, 0.031233, 0.030959, 0.030685, 0.030411, 0.030137, 0.029863, 0.029589, 0.029315, 0.029041, 0.028767, 0.028311, 0.027854, 0.027397, 0.026941, 0.026484, 0.026027, 0.025753, 0.025479, 0.025205, 0.024932, 0.024658, 0.023973, 0.023288, 0.022603, 0.021918, 0.021575, 0.021233, 0.02089, 0.020548, 0.020548, 0.020548, 0.019863, 0.019178, 0.017808, 0.017808, 0.017808, 0.017123, 0.016438, 0.015753, 0.015068, 0.014384, 0.013699, 0.013699, 0.013699, 0.013699, 0.013014, 0.012329, 0.012055, 0.011781, 0.011507, 0.011233, 0.010959, 0.010502, 0.010046, 0.009589, 0.008904, 0.008219, 0.008219, 0.008219, 0.008219, 0.008219, 0.007534, 0.006849, 0.006164, 0.005479, 0.004795, 0.00411, 0.003425, 0.00274, 0.0 ],
										"multislider[3]" : [ 0.00274, 0.006849, 0.008219, 0.008219, 0.008219, 0.00411, 0.009589, 0.009589, 0.009589, 0.009589, 0.010959, 0.012329, 0.012329, 0.012329, 0.013699, 0.013699, 0.015068, 0.015068, 0.016438, 0.016438, 0.017808, 0.018493, 0.019178, 0.019635, 0.020091, 0.020548, 0.020548, 0.020548, 0.021918, 0.021918, 0.021918, 0.023288, 0.023973, 0.024658, 0.025114, 0.025571, 0.026027, 0.026027, 0.026027, 0.026027, 0.026941, 0.027854, 0.028767, 0.02911, 0.029452, 0.029795, 0.030137, 0.03105, 0.031963, 0.032877, 0.033904, 0.034932, 0.035959, 0.036986, 0.037671, 0.032877, 0.039041, 0.039726, 0.040183, 0.040639, 0.041096, 0.041553, 0.042009, 0.042466, 0.042922, 0.043379, 0.043836, 0.044292, 0.044749, 0.045205, 0.046575, 0.046575, 0.04726, 0.047945, 0.047945, 0.049315, 0.049315, 0.049315, 0.050685, 0.050685, 0.050685, 0.052055, 0.052055, 0.052055, 0.05411, 0.054795, 0.056164, 0.056164, 0.058904, 0.060274, 0.061644, 0.062329, 0.063014, 0.064384, 0.064384, 0.065753, 0.068493, 0.069863, 0.069863, 0.069863, 0.071233, 0.072603, 0.073288, 0.073973, 0.076027, 0.078082, 0.079452, 0.080137, 0.080822, 0.081507, 0.082192, 0.084932, 0.085616, 0.086301, 0.087671, 0.089041, 0.090411, 0.091781, 0.092466, 0.093151, 0.093836, 0.094521, 0.09589, 0.09726, 0.09863, 0.1, 0.1 ],
										"multislider[4]" : [ 0.945205, 0.931507, 0.90411, 0.917808, 0.890411, 0.876712, 0.863014, 0.849315, 0.835616, 0.794521, 0.780822, 0.753425, 0.726027, 0.726027, 0.671233, 0.657534, 0.643836, 0.630137, 0.616438, 0.589041, 0.582192, 0.575342, 0.561644, 0.547945, 0.543379, 0.538813, 0.534247, 0.525114, 0.515982, 0.506849, 0.504892, 0.502935, 0.500978, 0.499022, 0.497065, 0.495108, 0.493151, 0.484018, 0.474886, 0.465753, 0.461187, 0.456621, 0.452055, 0.445205, 0.438356, 0.431507, 0.424658, 0.422374, 0.420091, 0.417808, 0.415525, 0.413242, 0.410959, 0.408219, 0.405479, 0.40274, 0.4, 0.39726, 0.388128, 0.378995, 0.369863, 0.369863, 0.369863, 0.369863, 0.369863, 0.367123, 0.364384, 0.361644, 0.358904, 0.356164, 0.356164, 0.356164, 0.356164, 0.351598, 0.347032, 0.342466, 0.342466, 0.342466, 0.342466, 0.342466, 0.342466, 0.342466, 0.342466, 0.342466, 0.342466, 0.347032, 0.351598, 0.356164, 0.365297, 0.374429, 0.383562, 0.391781, 0.4, 0.408219, 0.416438, 0.424658, 0.431507, 0.438356, 0.452055, 0.458904, 0.465753, 0.465753, 0.465753, 0.465753, 0.465753, 0.465753, 0.465753, 0.465753, 0.465753, 0.465753, 0.465753, 0.46771, 0.469667, 0.471624, 0.473581, 0.475538, 0.477495, 0.479452, 0.479452, 0.479452, 0.479452, 0.479452, 0.479452, 0.479452, 0.479452, 0.479452, 0.479452, 0.479452, 0.479452, 0.479452, 0.479452, 0.479452, 0.479452, 0.479452, 0.479452, 0.479452, 0.479452, 0.479452, 0.479452, 0.479452, 0.479452, 0.479452, 0.479452, 0.479452, 0.474886, 0.47032, 0.465753, 0.465753, 0.465753, 0.465753, 0.465753, 0.465753, 0.465753, 0.465753, 0.465753, 0.465753, 0.465753, 0.465753, 0.465753, 0.465753, 0.465753, 0.465753, 0.465753, 0.465753, 0.465753, 0.458904, 0.452055, 0.452055, 0.452055, 0.452055, 0.452055, 0.452055, 0.447489, 0.442922, 0.438356, 0.434932, 0.431507, 0.428082, 0.424658, 0.420091, 0.415525, 0.410959, 0.39726, 0.39726, 0.39726, 0.39726, 0.39726, 0.392694, 0.388128, 0.383562, 0.383562, 0.383562, 0.383562, 0.383562, 0.383562, 0.383562, 0.383562, 0.383562, 0.383562, 0.383562, 0.383562, 0.383562, 0.383562, 0.383562, 0.383562, 0.383562, 0.383562, 0.383562, 0.383562, 0.383562, 0.383562, 0.383562, 0.383562, 0.383562, 0.383562, 0.383562, 0.383562, 0.383562, 0.383562, 0.383562, 0.383562, 0.383562, 0.383562, 0.383562, 0.383562, 0.383562, 0.383562, 0.383562, 0.383562, 0.383562, 0.383562, 0.383562, 0.383562, 0.383562, 0.383562, 0.383562, 0.383562, 0.383562, 0.383562, 0.383562, 0.383562, 0.383562, 0.383562, 0.383562, 0.386301, 0.389041, 0.391781, 0.394521, 0.39726, 0.40411, 0.410959, 0.417808, 0.424658, 0.429224, 0.43379, 0.438356, 0.452055, 0.479452, 0.506849, 0.513699, 0.520548, 0.527397, 0.534247, 0.561644, 0.565068, 0.568493, 0.571918, 0.575342, 0.584475, 0.593607, 0.60274, 0.607306, 0.611872, 0.616438, 0.623288, 0.630137, 0.657534, 0.664384, 0.671233, 0.678082, 0.684932, 0.712329, 0.720548, 0.728767, 0.736986, 0.745205, 0.753425, 0.767123, 0.821918, 0.835616, 0.849315, 0.917808, 0.938356, 1.0, 1.0, 1.0, 0.0, 0.0, 0.90411, 1.0 ]
									}

								}

							}
, 							{
								"box" : 								{
									"maxclass" : "message",
									"text" : "clear",
									"outlettype" : [ "" ],
									"id" : "obj-159",
									"fontname" : "Arial",
									"numinlets" : 2,
									"patching_rect" : [ 98.0, 430.0, 32.5, 16.0 ],
									"fontsize" : 10.0,
									"numoutlets" : 1
								}

							}
, 							{
								"box" : 								{
									"maxclass" : "newobj",
									"text" : "prepend 2",
									"outlettype" : [ "" ],
									"id" : "obj-138",
									"fontname" : "Arial",
									"numinlets" : 1,
									"patching_rect" : [ 673.0, 416.0, 56.0, 18.0 ],
									"fontsize" : 10.0,
									"numoutlets" : 1
								}

							}
, 							{
								"box" : 								{
									"maxclass" : "multislider",
									"varname" : "multislider[4]",
									"slidercolor" : [ 0.85098, 0.533333, 0.254902, 1.0 ],
									"bgcolor" : [ 0.184314, 0.254902, 0.34902, 1.0 ],
									"outlettype" : [ "", "" ],
									"id" : "obj-139",
									"presentation_rect" : [ 561.0, 151.0, 184.0, 75.0 ],
									"size" : 300,
									"numinlets" : 1,
									"setminmax" : [ 0.0, 1.0 ],
									"patching_rect" : [ 673.0, 259.0, 184.0, 75.0 ],
									"presentation" : 1,
									"numoutlets" : 2
								}

							}
, 							{
								"box" : 								{
									"maxclass" : "multislider",
									"slidercolor" : [ 0.85098, 0.533333, 0.254902, 1.0 ],
									"bgcolor" : [ 0.184314, 0.254902, 0.34902, 1.0 ],
									"outlettype" : [ "", "" ],
									"id" : "obj-132",
									"size" : 3,
									"numinlets" : 1,
									"patching_rect" : [ 299.0, 479.0, 184.0, 75.0 ],
									"numoutlets" : 2,
									"contdata" : 1
								}

							}
, 							{
								"box" : 								{
									"maxclass" : "newobj",
									"text" : "prepend 1",
									"outlettype" : [ "" ],
									"id" : "obj-131",
									"fontname" : "Arial",
									"numinlets" : 1,
									"patching_rect" : [ 487.0, 422.0, 56.0, 18.0 ],
									"fontsize" : 10.0,
									"numoutlets" : 1
								}

							}
, 							{
								"box" : 								{
									"maxclass" : "newobj",
									"text" : "prepend 0",
									"outlettype" : [ "" ],
									"id" : "obj-127",
									"fontname" : "Arial",
									"numinlets" : 1,
									"patching_rect" : [ 299.0, 422.0, 56.0, 18.0 ],
									"fontsize" : 10.0,
									"numoutlets" : 1
								}

							}
, 							{
								"box" : 								{
									"maxclass" : "newobj",
									"text" : "MRlistDist",
									"outlettype" : [ "int", "", "" ],
									"id" : "obj-123",
									"fontname" : "Arial",
									"numinlets" : 2,
									"patching_rect" : [ 60.0, 454.0, 258.0, 18.0 ],
									"fontsize" : 10.0,
									"numoutlets" : 3
								}

							}
, 							{
								"box" : 								{
									"maxclass" : "multislider",
									"varname" : "multislider[2]",
									"slidercolor" : [ 0.85098, 0.533333, 0.254902, 1.0 ],
									"bgcolor" : [ 0.184314, 0.254902, 0.34902, 1.0 ],
									"outlettype" : [ "", "" ],
									"id" : "obj-87",
									"presentation_rect" : [ 546.0, 136.0, 184.0, 75.0 ],
									"size" : 200,
									"numinlets" : 1,
									"setminmax" : [ 0.0, 0.1 ],
									"patching_rect" : [ 487.0, 259.0, 184.0, 75.0 ],
									"presentation" : 1,
									"numoutlets" : 2
								}

							}
, 							{
								"box" : 								{
									"maxclass" : "message",
									"text" : "1",
									"outlettype" : [ "" ],
									"id" : "obj-91",
									"fontname" : "Arial Bold",
									"numinlets" : 2,
									"patching_rect" : [ 52.0, 488.0, 63.0, 25.0 ],
									"fontsize" : 18.0,
									"numoutlets" : 1,
									"textcolor" : [ 1.0, 0.073716, 0.085054, 1.0 ]
								}

							}
, 							{
								"box" : 								{
									"maxclass" : "multislider",
									"varname" : "multislider[3]",
									"slidercolor" : [ 0.85098, 0.533333, 0.254902, 1.0 ],
									"bgcolor" : [ 0.184314, 0.254902, 0.34902, 1.0 ],
									"outlettype" : [ "", "" ],
									"id" : "obj-115",
									"presentation_rect" : [ 307.0, 161.0, 184.0, 75.0 ],
									"size" : 127,
									"numinlets" : 1,
									"setminmax" : [ 0.0, 0.1 ],
									"patching_rect" : [ 299.0, 259.0, 184.0, 75.0 ],
									"presentation" : 1,
									"numoutlets" : 2
								}

							}
, 							{
								"box" : 								{
									"maxclass" : "multislider",
									"slidercolor" : [ 0.85098, 0.533333, 0.254902, 1.0 ],
									"bgcolor" : [ 0.184314, 0.254902, 0.34902, 1.0 ],
									"outlettype" : [ "", "" ],
									"id" : "obj-116",
									"size" : 20,
									"numinlets" : 1,
									"setminmax" : [ 0.0, 0.1 ],
									"patching_rect" : [ 60.0, 259.0, 184.0, 75.0 ],
									"numoutlets" : 2,
									"contdata" : 1
								}

							}
 ],
						"lines" : [ 							{
								"patchline" : 								{
									"source" : [ "obj-1", 0 ],
									"destination" : [ "obj-3", 1 ],
									"hidden" : 0,
									"midpoints" : [  ]
								}

							}
, 							{
								"patchline" : 								{
									"source" : [ "obj-11", 0 ],
									"destination" : [ "obj-10", 1 ],
									"hidden" : 0,
									"midpoints" : [  ]
								}

							}
, 							{
								"patchline" : 								{
									"source" : [ "obj-139", 0 ],
									"destination" : [ "obj-11", 0 ],
									"hidden" : 0,
									"midpoints" : [  ]
								}

							}
, 							{
								"patchline" : 								{
									"source" : [ "obj-87", 0 ],
									"destination" : [ "obj-9", 0 ],
									"hidden" : 0,
									"midpoints" : [  ]
								}

							}
, 							{
								"patchline" : 								{
									"source" : [ "obj-9", 0 ],
									"destination" : [ "obj-8", 1 ],
									"hidden" : 0,
									"midpoints" : [  ]
								}

							}
, 							{
								"patchline" : 								{
									"source" : [ "obj-115", 0 ],
									"destination" : [ "obj-7", 0 ],
									"hidden" : 0,
									"midpoints" : [  ]
								}

							}
, 							{
								"patchline" : 								{
									"source" : [ "obj-7", 0 ],
									"destination" : [ "obj-6", 1 ],
									"hidden" : 0,
									"midpoints" : [  ]
								}

							}
, 							{
								"patchline" : 								{
									"source" : [ "obj-116", 0 ],
									"destination" : [ "obj-5", 0 ],
									"hidden" : 0,
									"midpoints" : [  ]
								}

							}
, 							{
								"patchline" : 								{
									"source" : [ "obj-5", 0 ],
									"destination" : [ "obj-4", 1 ],
									"hidden" : 0,
									"midpoints" : [  ]
								}

							}
, 							{
								"patchline" : 								{
									"source" : [ "obj-115", 0 ],
									"destination" : [ "obj-127", 0 ],
									"hidden" : 0,
									"midpoints" : [  ]
								}

							}
, 							{
								"patchline" : 								{
									"source" : [ "obj-87", 0 ],
									"destination" : [ "obj-131", 0 ],
									"hidden" : 0,
									"midpoints" : [ 496.5, 377.5, 496.5, 377.5 ]
								}

							}
, 							{
								"patchline" : 								{
									"source" : [ "obj-139", 0 ],
									"destination" : [ "obj-138", 0 ],
									"hidden" : 0,
									"midpoints" : [ 682.5, 377.5, 682.5, 377.5 ]
								}

							}
, 							{
								"patchline" : 								{
									"source" : [ "obj-161", 0 ],
									"destination" : [ "obj-115", 0 ],
									"hidden" : 1,
									"midpoints" : [  ]
								}

							}
, 							{
								"patchline" : 								{
									"source" : [ "obj-161", 0 ],
									"destination" : [ "obj-87", 0 ],
									"hidden" : 1,
									"midpoints" : [ 308.5, 246.0, 496.5, 246.0 ]
								}

							}
, 							{
								"patchline" : 								{
									"source" : [ "obj-161", 0 ],
									"destination" : [ "obj-139", 0 ],
									"hidden" : 1,
									"midpoints" : [ 308.5, 246.0, 682.5, 246.0 ]
								}

							}
, 							{
								"patchline" : 								{
									"source" : [ "obj-123", 0 ],
									"destination" : [ "obj-91", 1 ],
									"hidden" : 0,
									"midpoints" : [ 69.5, 481.0, 105.5, 481.0 ]
								}

							}
, 							{
								"patchline" : 								{
									"source" : [ "obj-127", 0 ],
									"destination" : [ "obj-123", 1 ],
									"hidden" : 0,
									"midpoints" : [  ]
								}

							}
, 							{
								"patchline" : 								{
									"source" : [ "obj-131", 0 ],
									"destination" : [ "obj-123", 1 ],
									"hidden" : 0,
									"midpoints" : [ 496.5, 446.5, 308.5, 446.5 ]
								}

							}
, 							{
								"patchline" : 								{
									"source" : [ "obj-138", 0 ],
									"destination" : [ "obj-123", 1 ],
									"hidden" : 0,
									"midpoints" : [ 682.5, 446.5, 308.5, 446.5 ]
								}

							}
, 							{
								"patchline" : 								{
									"source" : [ "obj-116", 0 ],
									"destination" : [ "obj-123", 0 ],
									"hidden" : 0,
									"midpoints" : [  ]
								}

							}
, 							{
								"patchline" : 								{
									"source" : [ "obj-159", 0 ],
									"destination" : [ "obj-123", 0 ],
									"hidden" : 0,
									"midpoints" : [  ]
								}

							}
, 							{
								"patchline" : 								{
									"source" : [ "obj-123", 2 ],
									"destination" : [ "obj-132", 0 ],
									"hidden" : 0,
									"midpoints" : [ 308.5, 475.0, 308.5, 475.0 ]
								}

							}
, 							{
								"patchline" : 								{
									"source" : [ "obj-123", 1 ],
									"destination" : [ "obj-1", 0 ],
									"hidden" : 0,
									"midpoints" : [  ]
								}

							}
 ]
					}
,
					"saved_object_attributes" : 					{
						"default_fontname" : "Arial",
						"default_fontsize" : 12.0,
						"fontname" : "Arial",
						"globalpatchername" : "",
						"fontface" : 0,
						"fontsize" : 12.0,
						"default_fontface" : 0
					}

				}

			}
, 			{
				"box" : 				{
					"maxclass" : "comment",
					"text" : "right: list of coefficiants if in @mode 0 or @mode covariance; otherwise inactive",
					"linecount" : 3,
					"id" : "obj-14",
					"fontname" : "Arial",
					"numinlets" : 1,
					"patching_rect" : [ 48.0, 584.0, 171.0, 48.0 ],
					"fontsize" : 12.0,
					"numoutlets" : 0
				}

			}
, 			{
				"box" : 				{
					"maxclass" : "comment",
					"text" : "middle: closest list",
					"id" : "obj-12",
					"fontname" : "Arial",
					"numinlets" : 1,
					"patching_rect" : [ 48.0, 569.0, 171.0, 20.0 ],
					"fontsize" : 12.0,
					"numoutlets" : 0
				}

			}
, 			{
				"box" : 				{
					"maxclass" : "comment",
					"text" : "left: index of closest list",
					"id" : "obj-8",
					"fontname" : "Arial",
					"numinlets" : 1,
					"patching_rect" : [ 48.0, 555.0, 171.0, 20.0 ],
					"fontsize" : 12.0,
					"numoutlets" : 0
				}

			}
, 			{
				"box" : 				{
					"maxclass" : "comment",
					"text" : "outlets: ",
					"id" : "obj-4",
					"fontname" : "Arial Bold",
					"numinlets" : 1,
					"patching_rect" : [ 33.0, 537.0, 58.0, 20.0 ],
					"fontsize" : 12.0,
					"numoutlets" : 0
				}

			}
, 			{
				"box" : 				{
					"maxclass" : "newobj",
					"text" : "p MODES",
					"id" : "obj-1",
					"fontname" : "Arial Bold",
					"numinlets" : 0,
					"patching_rect" : [ 577.0, 500.0, 66.0, 20.0 ],
					"fontsize" : 12.0,
					"numoutlets" : 0,
					"patcher" : 					{
						"fileversion" : 1,
						"rect" : [ 685.0, 189.0, 736.0, 683.0 ],
						"bglocked" : 0,
						"defrect" : [ 685.0, 189.0, 736.0, 683.0 ],
						"openrect" : [ 0.0, 0.0, 0.0, 0.0 ],
						"openinpresentation" : 0,
						"default_fontsize" : 12.0,
						"default_fontface" : 0,
						"default_fontname" : "Arial",
						"gridonopen" : 0,
						"gridsize" : [ 15.0, 15.0 ],
						"gridsnaponopen" : 0,
						"toolbarvisible" : 1,
						"boxanimatetime" : 200,
						"imprint" : 0,
						"enablehscroll" : 1,
						"enablevscroll" : 1,
						"devicewidth" : 0.0,
						"boxes" : [ 							{
								"box" : 								{
									"maxclass" : "newobj",
									"text" : "delay 1000",
									"outlettype" : [ "bang" ],
									"id" : "obj-4",
									"fontname" : "Arial",
									"numinlets" : 2,
									"patching_rect" : [ 235.0, 176.0, 59.0, 18.0 ],
									"fontsize" : 10.0,
									"numoutlets" : 1
								}

							}
, 							{
								"box" : 								{
									"maxclass" : "comment",
									"text" : "pow((list1 - list2), 2)",
									"id" : "obj-15",
									"fontname" : "Arial Bold",
									"numinlets" : 1,
									"patching_rect" : [ 435.0, 71.0, 161.0, 20.0 ],
									"fontsize" : 12.0,
									"numoutlets" : 0
								}

							}
, 							{
								"box" : 								{
									"maxclass" : "comment",
									"text" : "@mode euclidean or @mode 1 :uses the euclidean distance formula ",
									"id" : "obj-8",
									"fontname" : "Arial",
									"numinlets" : 1,
									"patching_rect" : [ 63.0, 71.0, 490.0, 20.0 ],
									"fontsize" : 12.0,
									"numoutlets" : 0
								}

							}
, 							{
								"box" : 								{
									"maxclass" : "comment",
									"text" : "@mode covariance or @mode0 (default): this uses the formula described before ",
									"id" : "obj-7",
									"fontname" : "Arial",
									"numinlets" : 1,
									"patching_rect" : [ 63.0, 48.0, 452.0, 20.0 ],
									"fontsize" : 12.0,
									"numoutlets" : 0
								}

							}
, 							{
								"box" : 								{
									"maxclass" : "comment",
									"text" : "There are two different modes:",
									"id" : "obj-5",
									"fontname" : "Arial",
									"numinlets" : 1,
									"patching_rect" : [ 29.0, 21.0, 180.0, 20.0 ],
									"fontsize" : 12.0,
									"numoutlets" : 0
								}

							}
, 							{
								"box" : 								{
									"maxclass" : "newobj",
									"text" : "loadbang",
									"outlettype" : [ "bang" ],
									"id" : "obj-3",
									"fontname" : "Arial",
									"numinlets" : 1,
									"patching_rect" : [ 305.0, 352.0, 52.0, 18.0 ],
									"fontsize" : 10.0,
									"numoutlets" : 1
								}

							}
, 							{
								"box" : 								{
									"maxclass" : "newobj",
									"text" : "loadbang",
									"outlettype" : [ "bang" ],
									"id" : "obj-1",
									"fontname" : "Arial",
									"numinlets" : 1,
									"patching_rect" : [ 235.0, 155.0, 52.0, 18.0 ],
									"fontsize" : 10.0,
									"numoutlets" : 1
								}

							}
, 							{
								"box" : 								{
									"maxclass" : "newobj",
									"text" : "t l clear",
									"outlettype" : [ "", "clear" ],
									"id" : "obj-36",
									"fontname" : "Arial",
									"numinlets" : 1,
									"patching_rect" : [ 435.0, 352.0, 43.0, 18.0 ],
									"fontsize" : 10.0,
									"numoutlets" : 2
								}

							}
, 							{
								"box" : 								{
									"maxclass" : "newobj",
									"text" : "pak paintrect i i i i 0 255 0",
									"outlettype" : [ "" ],
									"id" : "obj-38",
									"fontname" : "Arial",
									"numinlets" : 8,
									"patching_rect" : [ 435.0, 332.0, 124.0, 18.0 ],
									"fontsize" : 10.0,
									"numoutlets" : 1
								}

							}
, 							{
								"box" : 								{
									"maxclass" : "newobj",
									"text" : "p draw",
									"outlettype" : [ "", "" ],
									"id" : "obj-43",
									"fontname" : "Arial",
									"numinlets" : 2,
									"patching_rect" : [ 361.0, 254.0, 106.0, 18.0 ],
									"fontsize" : 10.0,
									"numoutlets" : 2,
									"patcher" : 									{
										"fileversion" : 1,
										"rect" : [ 563.0, 636.0, 846.0, 449.0 ],
										"bglocked" : 0,
										"defrect" : [ 563.0, 636.0, 846.0, 449.0 ],
										"openrect" : [ 0.0, 0.0, 0.0, 0.0 ],
										"openinpresentation" : 0,
										"default_fontsize" : 10.0,
										"default_fontface" : 0,
										"default_fontname" : "Arial",
										"gridonopen" : 0,
										"gridsize" : [ 15.0, 15.0 ],
										"gridsnaponopen" : 0,
										"toolbarvisible" : 1,
										"boxanimatetime" : 200,
										"imprint" : 0,
										"enablehscroll" : 1,
										"enablevscroll" : 1,
										"devicewidth" : 0.0,
										"boxes" : [ 											{
												"box" : 												{
													"maxclass" : "outlet",
													"id" : "obj-38",
													"numinlets" : 1,
													"patching_rect" : [ 81.666672, 357.0, 25.0, 25.0 ],
													"numoutlets" : 0,
													"comment" : ""
												}

											}
, 											{
												"box" : 												{
													"maxclass" : "newobj",
													"text" : "t b b b b b",
													"outlettype" : [ "bang", "bang", "bang", "bang", "bang" ],
													"id" : "obj-22",
													"fontname" : "Arial",
													"numinlets" : 1,
													"patching_rect" : [ 35.0, 208.0, 73.0, 18.0 ],
													"fontsize" : 10.0,
													"numoutlets" : 5
												}

											}
, 											{
												"box" : 												{
													"maxclass" : "inlet",
													"outlettype" : [ "" ],
													"id" : "obj-21",
													"numinlets" : 0,
													"patching_rect" : [ 162.0, 32.0, 25.0, 25.0 ],
													"numoutlets" : 1,
													"comment" : ""
												}

											}
, 											{
												"box" : 												{
													"maxclass" : "newobj",
													"text" : "route 0 1 2 3 4",
													"outlettype" : [ "", "", "", "", "", "" ],
													"id" : "obj-14",
													"fontname" : "Arial",
													"numinlets" : 1,
													"patching_rect" : [ 162.0, 232.0, 655.5, 18.0 ],
													"fontsize" : 10.0,
													"numoutlets" : 6
												}

											}
, 											{
												"box" : 												{
													"maxclass" : "newobj",
													"text" : "pak framerect i i i i 0 0 255",
													"outlettype" : [ "" ],
													"id" : "obj-8",
													"fontname" : "Arial",
													"numinlets" : 8,
													"patching_rect" : [ 146.0, 280.0, 128.0, 18.0 ],
													"fontsize" : 10.0,
													"numoutlets" : 1
												}

											}
, 											{
												"box" : 												{
													"maxclass" : "newobj",
													"text" : "pak framerect i i i i 0 0 255",
													"outlettype" : [ "" ],
													"id" : "obj-10",
													"fontname" : "Arial",
													"numinlets" : 8,
													"patching_rect" : [ 273.0, 280.0, 128.0, 18.0 ],
													"fontsize" : 10.0,
													"numoutlets" : 1
												}

											}
, 											{
												"box" : 												{
													"maxclass" : "newobj",
													"text" : "pak framerect i i i i 0 0 255",
													"outlettype" : [ "" ],
													"id" : "obj-5",
													"fontname" : "Arial",
													"numinlets" : 8,
													"patching_rect" : [ 401.0, 280.0, 128.0, 18.0 ],
													"fontsize" : 10.0,
													"numoutlets" : 1
												}

											}
, 											{
												"box" : 												{
													"maxclass" : "newobj",
													"text" : "pak framerect i i i i 0 0 255",
													"outlettype" : [ "" ],
													"id" : "obj-4",
													"fontname" : "Arial",
													"numinlets" : 8,
													"patching_rect" : [ 528.0, 280.0, 128.0, 18.0 ],
													"fontsize" : 10.0,
													"numoutlets" : 1
												}

											}
, 											{
												"box" : 												{
													"maxclass" : "newobj",
													"text" : "t b l clear",
													"outlettype" : [ "bang", "", "clear" ],
													"id" : "obj-2",
													"fontname" : "Arial",
													"numinlets" : 1,
													"patching_rect" : [ 35.0, 61.0, 51.0, 18.0 ],
													"fontsize" : 10.0,
													"numoutlets" : 3
												}

											}
, 											{
												"box" : 												{
													"maxclass" : "newobj",
													"text" : "MRpointToRect 4 4",
													"outlettype" : [ "" ],
													"id" : "obj-6",
													"fontname" : "Arial",
													"numinlets" : 1,
													"patching_rect" : [ 51.0, 117.0, 96.0, 18.0 ],
													"fontsize" : 10.0,
													"numoutlets" : 1
												}

											}
, 											{
												"box" : 												{
													"maxclass" : "newobj",
													"text" : "pak paintrect i i i i 255 0 0",
													"outlettype" : [ "" ],
													"id" : "obj-11",
													"fontname" : "Arial",
													"numinlets" : 8,
													"patching_rect" : [ 20.0, 280.0, 124.0, 18.0 ],
													"fontsize" : 10.0,
													"numoutlets" : 1
												}

											}
, 											{
												"box" : 												{
													"maxclass" : "newobj",
													"text" : "pak framerect i i i i 0 0 255",
													"outlettype" : [ "" ],
													"id" : "obj-7",
													"fontname" : "Arial",
													"numinlets" : 8,
													"patching_rect" : [ 655.0, 280.0, 128.0, 18.0 ],
													"fontsize" : 10.0,
													"numoutlets" : 1
												}

											}
, 											{
												"box" : 												{
													"maxclass" : "inlet",
													"outlettype" : [ "list" ],
													"id" : "obj-13",
													"numinlets" : 0,
													"patching_rect" : [ 35.0, 32.0, 25.0, 25.0 ],
													"numoutlets" : 1,
													"comment" : ""
												}

											}
, 											{
												"box" : 												{
													"maxclass" : "outlet",
													"id" : "obj-16",
													"numinlets" : 1,
													"patching_rect" : [ 44.666672, 357.0, 25.0, 25.0 ],
													"numoutlets" : 0,
													"comment" : ""
												}

											}
 ],
										"lines" : [ 											{
												"patchline" : 												{
													"source" : [ "obj-6", 0 ],
													"destination" : [ "obj-11", 1 ],
													"hidden" : 0,
													"midpoints" : [ 60.5, 146.0, 31.0, 146.0, 31.0, 267.0, 44.5, 267.0 ]
												}

											}
, 											{
												"patchline" : 												{
													"source" : [ "obj-2", 1 ],
													"destination" : [ "obj-6", 0 ],
													"hidden" : 0,
													"midpoints" : [  ]
												}

											}
, 											{
												"patchline" : 												{
													"source" : [ "obj-6", 0 ],
													"destination" : [ "obj-38", 0 ],
													"hidden" : 0,
													"midpoints" : [ 60.5, 147.5, 91.166672, 147.5 ]
												}

											}
, 											{
												"patchline" : 												{
													"source" : [ "obj-21", 0 ],
													"destination" : [ "obj-14", 0 ],
													"hidden" : 0,
													"midpoints" : [  ]
												}

											}
, 											{
												"patchline" : 												{
													"source" : [ "obj-11", 0 ],
													"destination" : [ "obj-16", 0 ],
													"hidden" : 0,
													"midpoints" : [ 29.5, 327.0, 54.166672, 327.0 ]
												}

											}
, 											{
												"patchline" : 												{
													"source" : [ "obj-7", 0 ],
													"destination" : [ "obj-16", 0 ],
													"hidden" : 0,
													"midpoints" : [ 664.5, 327.0, 54.166672, 327.0 ]
												}

											}
, 											{
												"patchline" : 												{
													"source" : [ "obj-14", 1 ],
													"destination" : [ "obj-10", 1 ],
													"hidden" : 0,
													"midpoints" : [  ]
												}

											}
, 											{
												"patchline" : 												{
													"source" : [ "obj-14", 2 ],
													"destination" : [ "obj-5", 1 ],
													"hidden" : 0,
													"midpoints" : [  ]
												}

											}
, 											{
												"patchline" : 												{
													"source" : [ "obj-14", 3 ],
													"destination" : [ "obj-4", 1 ],
													"hidden" : 0,
													"midpoints" : [  ]
												}

											}
, 											{
												"patchline" : 												{
													"source" : [ "obj-14", 4 ],
													"destination" : [ "obj-7", 1 ],
													"hidden" : 0,
													"midpoints" : [ 680.700012, 262.5, 680.071411, 262.5 ]
												}

											}
, 											{
												"patchline" : 												{
													"source" : [ "obj-8", 0 ],
													"destination" : [ "obj-16", 0 ],
													"hidden" : 0,
													"midpoints" : [ 155.5, 327.0, 54.166672, 327.0 ]
												}

											}
, 											{
												"patchline" : 												{
													"source" : [ "obj-10", 0 ],
													"destination" : [ "obj-16", 0 ],
													"hidden" : 0,
													"midpoints" : [ 282.5, 327.0, 54.166672, 327.0 ]
												}

											}
, 											{
												"patchline" : 												{
													"source" : [ "obj-5", 0 ],
													"destination" : [ "obj-16", 0 ],
													"hidden" : 0,
													"midpoints" : [ 410.5, 327.0, 54.166672, 327.0 ]
												}

											}
, 											{
												"patchline" : 												{
													"source" : [ "obj-4", 0 ],
													"destination" : [ "obj-16", 0 ],
													"hidden" : 0,
													"midpoints" : [ 537.5, 327.0, 54.166672, 327.0 ]
												}

											}
, 											{
												"patchline" : 												{
													"source" : [ "obj-22", 4 ],
													"destination" : [ "obj-8", 0 ],
													"hidden" : 0,
													"midpoints" : [ 98.5, 267.0, 155.5, 267.0 ]
												}

											}
, 											{
												"patchline" : 												{
													"source" : [ "obj-22", 3 ],
													"destination" : [ "obj-10", 0 ],
													"hidden" : 0,
													"midpoints" : [ 85.0, 267.0, 282.5, 267.0 ]
												}

											}
, 											{
												"patchline" : 												{
													"source" : [ "obj-22", 2 ],
													"destination" : [ "obj-5", 0 ],
													"hidden" : 0,
													"midpoints" : [ 71.5, 267.0, 410.5, 267.0 ]
												}

											}
, 											{
												"patchline" : 												{
													"source" : [ "obj-22", 1 ],
													"destination" : [ "obj-4", 0 ],
													"hidden" : 0,
													"midpoints" : [ 58.0, 267.0, 537.5, 267.0 ]
												}

											}
, 											{
												"patchline" : 												{
													"source" : [ "obj-22", 0 ],
													"destination" : [ "obj-7", 0 ],
													"hidden" : 0,
													"midpoints" : [ 44.5, 267.0, 664.5, 267.0 ]
												}

											}
, 											{
												"patchline" : 												{
													"source" : [ "obj-14", 0 ],
													"destination" : [ "obj-8", 1 ],
													"hidden" : 0,
													"midpoints" : [  ]
												}

											}
, 											{
												"patchline" : 												{
													"source" : [ "obj-2", 0 ],
													"destination" : [ "obj-22", 0 ],
													"hidden" : 0,
													"midpoints" : [  ]
												}

											}
, 											{
												"patchline" : 												{
													"source" : [ "obj-13", 0 ],
													"destination" : [ "obj-2", 0 ],
													"hidden" : 0,
													"midpoints" : [  ]
												}

											}
 ]
									}
,
									"saved_object_attributes" : 									{
										"default_fontname" : "Arial",
										"default_fontsize" : 10.0,
										"fontname" : "Arial",
										"globalpatchername" : "",
										"fontface" : 0,
										"fontsize" : 10.0,
										"default_fontface" : 0
									}

								}

							}
, 							{
								"box" : 								{
									"maxclass" : "lcd",
									"outlettype" : [ "list", "list", "int", "" ],
									"idle" : 1,
									"id" : "obj-44",
									"numinlets" : 1,
									"patching_rect" : [ 361.0, 406.0, 200.0, 200.0 ],
									"numoutlets" : 4
								}

							}
, 							{
								"box" : 								{
									"maxclass" : "newobj",
									"text" : "MRlistDist @mode covariance",
									"bgcolor" : [ 0.8, 0.8, 1.0, 1.0 ],
									"outlettype" : [ "int", "", "" ],
									"id" : "obj-50",
									"fontname" : "Arial",
									"numinlets" : 2,
									"patching_rect" : [ 373.0, 306.0, 172.0, 20.0 ],
									"fontsize" : 12.0,
									"numoutlets" : 3
								}

							}
, 							{
								"box" : 								{
									"maxclass" : "message",
									"text" : "idle 1",
									"outlettype" : [ "" ],
									"id" : "obj-32",
									"fontname" : "Arial",
									"numinlets" : 2,
									"patching_rect" : [ 305.0, 379.0, 34.0, 16.0 ],
									"fontsize" : 10.0,
									"numoutlets" : 1
								}

							}
, 							{
								"box" : 								{
									"maxclass" : "newobj",
									"text" : "t l clear",
									"outlettype" : [ "", "clear" ],
									"id" : "obj-19",
									"fontname" : "Arial",
									"numinlets" : 1,
									"patching_rect" : [ 251.0, 352.0, 43.0, 18.0 ],
									"fontsize" : 10.0,
									"numoutlets" : 2
								}

							}
, 							{
								"box" : 								{
									"maxclass" : "newobj",
									"text" : "pak paintrect i i i i 0 255 0",
									"outlettype" : [ "" ],
									"id" : "obj-20",
									"fontname" : "Arial",
									"numinlets" : 8,
									"patching_rect" : [ 251.0, 332.0, 124.0, 18.0 ],
									"fontsize" : 10.0,
									"numoutlets" : 1
								}

							}
, 							{
								"box" : 								{
									"maxclass" : "newobj",
									"text" : "t b clear",
									"outlettype" : [ "bang", "clear" ],
									"id" : "obj-21",
									"fontname" : "Arial",
									"numinlets" : 1,
									"patching_rect" : [ 235.0, 228.0, 46.0, 18.0 ],
									"fontsize" : 10.0,
									"numoutlets" : 2
								}

							}
, 							{
								"box" : 								{
									"maxclass" : "button",
									"outlettype" : [ "bang" ],
									"id" : "obj-22",
									"numinlets" : 1,
									"patching_rect" : [ 235.0, 199.0, 26.0, 26.0 ],
									"numoutlets" : 1
								}

							}
, 							{
								"box" : 								{
									"maxclass" : "newobj",
									"text" : "p draw",
									"outlettype" : [ "", "", "" ],
									"id" : "obj-23",
									"fontname" : "Arial",
									"numinlets" : 2,
									"patching_rect" : [ 148.0, 254.0, 106.0, 18.0 ],
									"fontsize" : 10.0,
									"numoutlets" : 3,
									"patcher" : 									{
										"fileversion" : 1,
										"rect" : [ 204.0, 65.0, 840.0, 515.0 ],
										"bglocked" : 0,
										"defrect" : [ 204.0, 65.0, 840.0, 515.0 ],
										"openrect" : [ 0.0, 0.0, 0.0, 0.0 ],
										"openinpresentation" : 0,
										"default_fontsize" : 10.0,
										"default_fontface" : 0,
										"default_fontname" : "Arial",
										"gridonopen" : 0,
										"gridsize" : [ 15.0, 15.0 ],
										"gridsnaponopen" : 0,
										"toolbarvisible" : 1,
										"boxanimatetime" : 200,
										"imprint" : 0,
										"enablehscroll" : 1,
										"enablevscroll" : 1,
										"devicewidth" : 0.0,
										"boxes" : [ 											{
												"box" : 												{
													"maxclass" : "newobj",
													"text" : "pack i i i i",
													"outlettype" : [ "" ],
													"id" : "obj-36",
													"fontname" : "Arial",
													"numinlets" : 4,
													"patching_rect" : [ 317.0, 209.0, 59.5, 18.0 ],
													"fontsize" : 10.0,
													"numoutlets" : 1
												}

											}
, 											{
												"box" : 												{
													"maxclass" : "outlet",
													"id" : "obj-38",
													"numinlets" : 1,
													"patching_rect" : [ 81.666672, 449.0, 25.0, 25.0 ],
													"numoutlets" : 0,
													"comment" : ""
												}

											}
, 											{
												"box" : 												{
													"maxclass" : "outlet",
													"id" : "obj-23",
													"numinlets" : 1,
													"patching_rect" : [ 202.666672, 449.0, 25.0, 25.0 ],
													"numoutlets" : 0,
													"comment" : ""
												}

											}
, 											{
												"box" : 												{
													"maxclass" : "newobj",
													"text" : "t b b b b b",
													"outlettype" : [ "bang", "bang", "bang", "bang", "bang" ],
													"id" : "obj-22",
													"fontname" : "Arial",
													"numinlets" : 1,
													"patching_rect" : [ 35.0, 208.0, 73.0, 18.0 ],
													"fontsize" : 10.0,
													"numoutlets" : 5
												}

											}
, 											{
												"box" : 												{
													"maxclass" : "inlet",
													"outlettype" : [ "bang" ],
													"id" : "obj-21",
													"numinlets" : 0,
													"patching_rect" : [ 137.0, 36.0, 25.0, 25.0 ],
													"numoutlets" : 1,
													"comment" : ""
												}

											}
, 											{
												"box" : 												{
													"maxclass" : "newobj",
													"text" : "loadbang",
													"outlettype" : [ "bang" ],
													"id" : "obj-20",
													"fontname" : "Arial",
													"numinlets" : 1,
													"patching_rect" : [ 156.0, 67.0, 52.0, 18.0 ],
													"fontsize" : 10.0,
													"numoutlets" : 1
												}

											}
, 											{
												"box" : 												{
													"maxclass" : "newobj",
													"text" : "zl join",
													"outlettype" : [ "", "" ],
													"id" : "obj-18",
													"fontname" : "Arial",
													"numinlets" : 2,
													"patching_rect" : [ 164.0, 211.0, 36.0, 18.0 ],
													"fontsize" : 10.0,
													"numoutlets" : 2
												}

											}
, 											{
												"box" : 												{
													"maxclass" : "newobj",
													"text" : "t i b",
													"outlettype" : [ "int", "bang" ],
													"id" : "obj-17",
													"fontname" : "Arial",
													"numinlets" : 1,
													"patching_rect" : [ 164.0, 119.0, 35.5, 18.0 ],
													"fontsize" : 10.0,
													"numoutlets" : 2
												}

											}
, 											{
												"box" : 												{
													"maxclass" : "newobj",
													"text" : "route 0 1 2 3 4",
													"outlettype" : [ "", "", "", "", "", "" ],
													"id" : "obj-14",
													"fontname" : "Arial",
													"numinlets" : 1,
													"patching_rect" : [ 162.0, 232.0, 655.5, 18.0 ],
													"fontsize" : 10.0,
													"numoutlets" : 6
												}

											}
, 											{
												"box" : 												{
													"maxclass" : "newobj",
													"text" : "MRpointToRect 20 20",
													"outlettype" : [ "" ],
													"id" : "obj-35",
													"fontname" : "Arial",
													"numinlets" : 1,
													"patching_rect" : [ 181.0, 191.0, 107.0, 18.0 ],
													"fontsize" : 10.0,
													"numoutlets" : 1
												}

											}
, 											{
												"box" : 												{
													"maxclass" : "newobj",
													"text" : "p randomOnOff",
													"outlettype" : [ "int", "int" ],
													"id" : "obj-31",
													"fontname" : "Arial",
													"numinlets" : 1,
													"patching_rect" : [ 181.0, 139.5, 81.0, 18.0 ],
													"fontsize" : 10.0,
													"numoutlets" : 2,
													"patcher" : 													{
														"fileversion" : 1,
														"rect" : [ 393.0, 539.0, 178.0, 313.0 ],
														"bglocked" : 0,
														"defrect" : [ 393.0, 539.0, 178.0, 313.0 ],
														"openrect" : [ 0.0, 0.0, 0.0, 0.0 ],
														"openinpresentation" : 0,
														"default_fontsize" : 10.0,
														"default_fontface" : 0,
														"default_fontname" : "Arial",
														"gridonopen" : 0,
														"gridsize" : [ 15.0, 15.0 ],
														"gridsnaponopen" : 0,
														"toolbarvisible" : 1,
														"boxanimatetime" : 200,
														"imprint" : 0,
														"enablehscroll" : 1,
														"enablevscroll" : 1,
														"devicewidth" : 0.0,
														"boxes" : [ 															{
																"box" : 																{
																	"maxclass" : "newobj",
																	"text" : "+ 20",
																	"outlettype" : [ "int" ],
																	"id" : "obj-2",
																	"fontname" : "Arial",
																	"numinlets" : 2,
																	"patching_rect" : [ 90.0, 183.0, 32.5, 18.0 ],
																	"fontsize" : 10.0,
																	"numoutlets" : 1
																}

															}
, 															{
																"box" : 																{
																	"maxclass" : "newobj",
																	"text" : "+ 20",
																	"outlettype" : [ "int" ],
																	"id" : "obj-1",
																	"fontname" : "Arial",
																	"numinlets" : 2,
																	"patching_rect" : [ 25.0, 183.0, 32.5, 18.0 ],
																	"fontsize" : 10.0,
																	"numoutlets" : 1
																}

															}
, 															{
																"box" : 																{
																	"maxclass" : "newobj",
																	"text" : "random 160",
																	"outlettype" : [ "int" ],
																	"id" : "obj-28",
																	"fontname" : "Arial",
																	"numinlets" : 2,
																	"patching_rect" : [ 90.0, 120.5, 64.0, 18.0 ],
																	"fontsize" : 10.0,
																	"numoutlets" : 1
																}

															}
, 															{
																"box" : 																{
																	"maxclass" : "newobj",
																	"text" : "random 160",
																	"outlettype" : [ "int" ],
																	"id" : "obj-19",
																	"fontname" : "Arial",
																	"numinlets" : 2,
																	"patching_rect" : [ 25.0, 120.5, 64.0, 18.0 ],
																	"fontsize" : 10.0,
																	"numoutlets" : 1
																}

															}
, 															{
																"box" : 																{
																	"maxclass" : "inlet",
																	"outlettype" : [ "bang" ],
																	"id" : "obj-35",
																	"numinlets" : 0,
																	"patching_rect" : [ 25.0, 15.0, 25.0, 25.0 ],
																	"numoutlets" : 1,
																	"comment" : ""
																}

															}
, 															{
																"box" : 																{
																	"maxclass" : "outlet",
																	"id" : "obj-36",
																	"numinlets" : 1,
																	"patching_rect" : [ 25.0, 251.5, 25.0, 25.0 ],
																	"numoutlets" : 0,
																	"comment" : ""
																}

															}
, 															{
																"box" : 																{
																	"maxclass" : "outlet",
																	"id" : "obj-37",
																	"numinlets" : 1,
																	"patching_rect" : [ 90.0, 251.5, 25.0, 25.0 ],
																	"numoutlets" : 0,
																	"comment" : ""
																}

															}
 ],
														"lines" : [ 															{
																"patchline" : 																{
																	"source" : [ "obj-2", 0 ],
																	"destination" : [ "obj-37", 0 ],
																	"hidden" : 0,
																	"midpoints" : [  ]
																}

															}
, 															{
																"patchline" : 																{
																	"source" : [ "obj-28", 0 ],
																	"destination" : [ "obj-2", 0 ],
																	"hidden" : 0,
																	"midpoints" : [  ]
																}

															}
, 															{
																"patchline" : 																{
																	"source" : [ "obj-1", 0 ],
																	"destination" : [ "obj-36", 0 ],
																	"hidden" : 0,
																	"midpoints" : [ 34.5, 250.0 ]
																}

															}
, 															{
																"patchline" : 																{
																	"source" : [ "obj-19", 0 ],
																	"destination" : [ "obj-1", 0 ],
																	"hidden" : 0,
																	"midpoints" : [  ]
																}

															}
, 															{
																"patchline" : 																{
																	"source" : [ "obj-35", 0 ],
																	"destination" : [ "obj-28", 0 ],
																	"hidden" : 0,
																	"midpoints" : [ 34.5, 79.75, 99.5, 79.75 ]
																}

															}
, 															{
																"patchline" : 																{
																	"source" : [ "obj-35", 0 ],
																	"destination" : [ "obj-19", 0 ],
																	"hidden" : 0,
																	"midpoints" : [  ]
																}

															}
 ]
													}
,
													"saved_object_attributes" : 													{
														"default_fontname" : "Arial",
														"default_fontsize" : 10.0,
														"fontname" : "Arial",
														"globalpatchername" : "",
														"fontface" : 0,
														"fontsize" : 10.0,
														"default_fontface" : 0
													}

												}

											}
, 											{
												"box" : 												{
													"maxclass" : "newobj",
													"text" : "pack i i",
													"outlettype" : [ "" ],
													"id" : "obj-34",
													"fontname" : "Arial",
													"numinlets" : 2,
													"patching_rect" : [ 181.0, 168.0, 42.0, 18.0 ],
													"fontsize" : 10.0,
													"numoutlets" : 1
												}

											}
, 											{
												"box" : 												{
													"maxclass" : "newobj",
													"text" : "uzi 5 0",
													"outlettype" : [ "bang", "bang", "int" ],
													"id" : "obj-12",
													"fontname" : "Arial",
													"numinlets" : 2,
													"patching_rect" : [ 137.0, 97.0, 46.0, 18.0 ],
													"fontsize" : 10.0,
													"numoutlets" : 3
												}

											}
, 											{
												"box" : 												{
													"maxclass" : "newobj",
													"text" : "pak framerect i i i i 0 0 255",
													"outlettype" : [ "" ],
													"id" : "obj-8",
													"fontname" : "Arial",
													"numinlets" : 8,
													"patching_rect" : [ 146.0, 280.0, 128.0, 18.0 ],
													"fontsize" : 10.0,
													"numoutlets" : 1
												}

											}
, 											{
												"box" : 												{
													"maxclass" : "newobj",
													"text" : "pak framerect i i i i 0 0 255",
													"outlettype" : [ "" ],
													"id" : "obj-10",
													"fontname" : "Arial",
													"numinlets" : 8,
													"patching_rect" : [ 273.0, 280.0, 128.0, 18.0 ],
													"fontsize" : 10.0,
													"numoutlets" : 1
												}

											}
, 											{
												"box" : 												{
													"maxclass" : "newobj",
													"text" : "pak framerect i i i i 0 0 255",
													"outlettype" : [ "" ],
													"id" : "obj-5",
													"fontname" : "Arial",
													"numinlets" : 8,
													"patching_rect" : [ 401.0, 280.0, 128.0, 18.0 ],
													"fontsize" : 10.0,
													"numoutlets" : 1
												}

											}
, 											{
												"box" : 												{
													"maxclass" : "newobj",
													"text" : "pak framerect i i i i 0 0 255",
													"outlettype" : [ "" ],
													"id" : "obj-4",
													"fontname" : "Arial",
													"numinlets" : 8,
													"patching_rect" : [ 528.0, 280.0, 128.0, 18.0 ],
													"fontsize" : 10.0,
													"numoutlets" : 1
												}

											}
, 											{
												"box" : 												{
													"maxclass" : "newobj",
													"text" : "t b l b",
													"outlettype" : [ "bang", "", "bang" ],
													"id" : "obj-2",
													"fontname" : "Arial",
													"numinlets" : 1,
													"patching_rect" : [ 35.0, 61.0, 51.0, 18.0 ],
													"fontsize" : 10.0,
													"numoutlets" : 3
												}

											}
, 											{
												"box" : 												{
													"maxclass" : "newobj",
													"text" : "MRpointToRect 4 4",
													"outlettype" : [ "" ],
													"id" : "obj-6",
													"fontname" : "Arial",
													"numinlets" : 1,
													"patching_rect" : [ 51.0, 117.0, 96.0, 18.0 ],
													"fontsize" : 10.0,
													"numoutlets" : 1
												}

											}
, 											{
												"box" : 												{
													"maxclass" : "newobj",
													"text" : "pak paintrect i i i i 255 0 0",
													"outlettype" : [ "" ],
													"id" : "obj-11",
													"fontname" : "Arial",
													"numinlets" : 8,
													"patching_rect" : [ 20.0, 280.0, 124.0, 18.0 ],
													"fontsize" : 10.0,
													"numoutlets" : 1
												}

											}
, 											{
												"box" : 												{
													"maxclass" : "newobj",
													"text" : "pak framerect i i i i 0 0 255",
													"outlettype" : [ "" ],
													"id" : "obj-7",
													"fontname" : "Arial",
													"numinlets" : 8,
													"patching_rect" : [ 655.0, 280.0, 128.0, 18.0 ],
													"fontsize" : 10.0,
													"numoutlets" : 1
												}

											}
, 											{
												"box" : 												{
													"maxclass" : "inlet",
													"outlettype" : [ "list" ],
													"id" : "obj-13",
													"numinlets" : 0,
													"patching_rect" : [ 35.0, 32.0, 25.0, 25.0 ],
													"numoutlets" : 1,
													"comment" : ""
												}

											}
, 											{
												"box" : 												{
													"maxclass" : "outlet",
													"id" : "obj-16",
													"numinlets" : 1,
													"patching_rect" : [ 44.666672, 449.0, 25.0, 25.0 ],
													"numoutlets" : 0,
													"comment" : ""
												}

											}
 ],
										"lines" : [ 											{
												"patchline" : 												{
													"source" : [ "obj-18", 0 ],
													"destination" : [ "obj-23", 0 ],
													"hidden" : 0,
													"midpoints" : [ 173.5, 338.5, 212.166672, 338.5 ]
												}

											}
, 											{
												"patchline" : 												{
													"source" : [ "obj-6", 0 ],
													"destination" : [ "obj-11", 1 ],
													"hidden" : 0,
													"midpoints" : [ 60.5, 146.0, 31.0, 146.0, 31.0, 267.0, 44.5, 267.0 ]
												}

											}
, 											{
												"patchline" : 												{
													"source" : [ "obj-6", 0 ],
													"destination" : [ "obj-38", 0 ],
													"hidden" : 0,
													"midpoints" : [ 60.5, 147.5, 91.166672, 147.5 ]
												}

											}
, 											{
												"patchline" : 												{
													"source" : [ "obj-17", 1 ],
													"destination" : [ "obj-31", 0 ],
													"hidden" : 0,
													"midpoints" : [  ]
												}

											}
, 											{
												"patchline" : 												{
													"source" : [ "obj-31", 0 ],
													"destination" : [ "obj-34", 0 ],
													"hidden" : 0,
													"midpoints" : [  ]
												}

											}
, 											{
												"patchline" : 												{
													"source" : [ "obj-31", 1 ],
													"destination" : [ "obj-34", 1 ],
													"hidden" : 0,
													"midpoints" : [ 252.5, 160.0, 213.5, 160.0 ]
												}

											}
, 											{
												"patchline" : 												{
													"source" : [ "obj-35", 0 ],
													"destination" : [ "obj-18", 1 ],
													"hidden" : 0,
													"midpoints" : [  ]
												}

											}
, 											{
												"patchline" : 												{
													"source" : [ "obj-17", 0 ],
													"destination" : [ "obj-18", 0 ],
													"hidden" : 0,
													"midpoints" : [  ]
												}

											}
, 											{
												"patchline" : 												{
													"source" : [ "obj-12", 2 ],
													"destination" : [ "obj-17", 0 ],
													"hidden" : 0,
													"midpoints" : [  ]
												}

											}
, 											{
												"patchline" : 												{
													"source" : [ "obj-34", 0 ],
													"destination" : [ "obj-35", 0 ],
													"hidden" : 0,
													"midpoints" : [  ]
												}

											}
, 											{
												"patchline" : 												{
													"source" : [ "obj-20", 0 ],
													"destination" : [ "obj-12", 0 ],
													"hidden" : 0,
													"midpoints" : [  ]
												}

											}
, 											{
												"patchline" : 												{
													"source" : [ "obj-21", 0 ],
													"destination" : [ "obj-12", 0 ],
													"hidden" : 0,
													"midpoints" : [  ]
												}

											}
, 											{
												"patchline" : 												{
													"source" : [ "obj-14", 0 ],
													"destination" : [ "obj-8", 1 ],
													"hidden" : 0,
													"midpoints" : [  ]
												}

											}
, 											{
												"patchline" : 												{
													"source" : [ "obj-22", 0 ],
													"destination" : [ "obj-7", 0 ],
													"hidden" : 0,
													"midpoints" : [ 44.5, 267.0, 664.5, 267.0 ]
												}

											}
, 											{
												"patchline" : 												{
													"source" : [ "obj-22", 1 ],
													"destination" : [ "obj-4", 0 ],
													"hidden" : 0,
													"midpoints" : [ 58.0, 267.0, 537.5, 267.0 ]
												}

											}
, 											{
												"patchline" : 												{
													"source" : [ "obj-22", 2 ],
													"destination" : [ "obj-5", 0 ],
													"hidden" : 0,
													"midpoints" : [ 71.5, 267.0, 410.5, 267.0 ]
												}

											}
, 											{
												"patchline" : 												{
													"source" : [ "obj-22", 3 ],
													"destination" : [ "obj-10", 0 ],
													"hidden" : 0,
													"midpoints" : [ 85.0, 267.0, 282.5, 267.0 ]
												}

											}
, 											{
												"patchline" : 												{
													"source" : [ "obj-22", 4 ],
													"destination" : [ "obj-8", 0 ],
													"hidden" : 0,
													"midpoints" : [ 98.5, 267.0, 155.5, 267.0 ]
												}

											}
, 											{
												"patchline" : 												{
													"source" : [ "obj-4", 0 ],
													"destination" : [ "obj-16", 0 ],
													"hidden" : 0,
													"midpoints" : [ 537.5, 327.0, 54.166672, 327.0 ]
												}

											}
, 											{
												"patchline" : 												{
													"source" : [ "obj-5", 0 ],
													"destination" : [ "obj-16", 0 ],
													"hidden" : 0,
													"midpoints" : [ 410.5, 327.0, 54.166672, 327.0 ]
												}

											}
, 											{
												"patchline" : 												{
													"source" : [ "obj-10", 0 ],
													"destination" : [ "obj-16", 0 ],
													"hidden" : 0,
													"midpoints" : [ 282.5, 327.0, 54.166672, 327.0 ]
												}

											}
, 											{
												"patchline" : 												{
													"source" : [ "obj-8", 0 ],
													"destination" : [ "obj-16", 0 ],
													"hidden" : 0,
													"midpoints" : [ 155.5, 327.0, 54.166672, 327.0 ]
												}

											}
, 											{
												"patchline" : 												{
													"source" : [ "obj-14", 4 ],
													"destination" : [ "obj-7", 1 ],
													"hidden" : 0,
													"midpoints" : [ 680.700012, 262.5, 680.071411, 262.5 ]
												}

											}
, 											{
												"patchline" : 												{
													"source" : [ "obj-14", 3 ],
													"destination" : [ "obj-4", 1 ],
													"hidden" : 0,
													"midpoints" : [  ]
												}

											}
, 											{
												"patchline" : 												{
													"source" : [ "obj-14", 2 ],
													"destination" : [ "obj-5", 1 ],
													"hidden" : 0,
													"midpoints" : [  ]
												}

											}
, 											{
												"patchline" : 												{
													"source" : [ "obj-14", 1 ],
													"destination" : [ "obj-10", 1 ],
													"hidden" : 0,
													"midpoints" : [  ]
												}

											}
, 											{
												"patchline" : 												{
													"source" : [ "obj-18", 0 ],
													"destination" : [ "obj-14", 0 ],
													"hidden" : 0,
													"midpoints" : [  ]
												}

											}
, 											{
												"patchline" : 												{
													"source" : [ "obj-7", 0 ],
													"destination" : [ "obj-16", 0 ],
													"hidden" : 0,
													"midpoints" : [ 664.5, 327.0, 54.166672, 327.0 ]
												}

											}
, 											{
												"patchline" : 												{
													"source" : [ "obj-11", 0 ],
													"destination" : [ "obj-16", 0 ],
													"hidden" : 0,
													"midpoints" : [ 29.5, 327.0, 54.166672, 327.0 ]
												}

											}
, 											{
												"patchline" : 												{
													"source" : [ "obj-2", 0 ],
													"destination" : [ "obj-22", 0 ],
													"hidden" : 0,
													"midpoints" : [  ]
												}

											}
, 											{
												"patchline" : 												{
													"source" : [ "obj-13", 0 ],
													"destination" : [ "obj-2", 0 ],
													"hidden" : 0,
													"midpoints" : [  ]
												}

											}
, 											{
												"patchline" : 												{
													"source" : [ "obj-2", 1 ],
													"destination" : [ "obj-6", 0 ],
													"hidden" : 0,
													"midpoints" : [  ]
												}

											}
, 											{
												"patchline" : 												{
													"source" : [ "obj-34", 0 ],
													"destination" : [ "obj-36", 1 ],
													"hidden" : 0,
													"midpoints" : [ 190.5, 187.0, 340.0, 187.0 ]
												}

											}
, 											{
												"patchline" : 												{
													"source" : [ "obj-17", 0 ],
													"destination" : [ "obj-36", 0 ],
													"hidden" : 0,
													"midpoints" : [ 173.5, 207.0, 326.5, 207.0 ]
												}

											}
, 											{
												"patchline" : 												{
													"source" : [ "obj-17", 0 ],
													"destination" : [ "obj-36", 3 ],
													"hidden" : 0,
													"midpoints" : [ 173.5, 162.0, 367.0, 162.0 ]
												}

											}
 ]
									}
,
									"saved_object_attributes" : 									{
										"default_fontname" : "Arial",
										"default_fontsize" : 10.0,
										"fontname" : "Arial",
										"globalpatchername" : "",
										"fontface" : 0,
										"fontsize" : 10.0,
										"default_fontface" : 0
									}

								}

							}
, 							{
								"box" : 								{
									"maxclass" : "lcd",
									"outlettype" : [ "list", "list", "int", "" ],
									"idle" : 1,
									"id" : "obj-24",
									"numinlets" : 1,
									"patching_rect" : [ 148.0, 406.0, 200.0, 200.0 ],
									"numoutlets" : 4
								}

							}
, 							{
								"box" : 								{
									"maxclass" : "newobj",
									"text" : "MRlistDist @mode euclidean",
									"bgcolor" : [ 0.8, 0.8, 1.0, 1.0 ],
									"outlettype" : [ "int", "", "" ],
									"id" : "obj-2",
									"fontname" : "Arial",
									"numinlets" : 2,
									"patching_rect" : [ 192.0, 306.0, 166.0, 20.0 ],
									"fontsize" : 12.0,
									"numoutlets" : 3
								}

							}
 ],
						"lines" : [ 							{
								"patchline" : 								{
									"source" : [ "obj-44", 1 ],
									"destination" : [ "obj-23", 0 ],
									"hidden" : 1,
									"midpoints" : [ 430.833344, 631.0, 119.0, 631.0, 119.0, 243.0, 157.5, 243.0 ]
								}

							}
, 							{
								"patchline" : 								{
									"source" : [ "obj-24", 1 ],
									"destination" : [ "obj-43", 0 ],
									"hidden" : 1,
									"midpoints" : [ 217.833328, 623.0, 125.0, 623.0, 125.0, 248.0, 370.5, 248.0 ]
								}

							}
, 							{
								"patchline" : 								{
									"source" : [ "obj-23", 2 ],
									"destination" : [ "obj-43", 1 ],
									"hidden" : 0,
									"midpoints" : [ 244.5, 280.0, 482.0, 280.0, 482.0, 240.0, 457.5, 240.0 ]
								}

							}
, 							{
								"patchline" : 								{
									"source" : [ "obj-43", 0 ],
									"destination" : [ "obj-44", 0 ],
									"hidden" : 0,
									"midpoints" : [  ]
								}

							}
, 							{
								"patchline" : 								{
									"source" : [ "obj-38", 0 ],
									"destination" : [ "obj-36", 0 ],
									"hidden" : 0,
									"midpoints" : [  ]
								}

							}
, 							{
								"patchline" : 								{
									"source" : [ "obj-36", 0 ],
									"destination" : [ "obj-44", 0 ],
									"hidden" : 0,
									"midpoints" : [ 444.5, 389.0, 370.5, 389.0 ]
								}

							}
, 							{
								"patchline" : 								{
									"source" : [ "obj-36", 1 ],
									"destination" : [ "obj-44", 0 ],
									"hidden" : 0,
									"midpoints" : [ 468.5, 389.0, 370.5, 389.0 ]
								}

							}
, 							{
								"patchline" : 								{
									"source" : [ "obj-44", 1 ],
									"destination" : [ "obj-43", 0 ],
									"hidden" : 1,
									"midpoints" : [ 430.833344, 621.0, 350.0, 621.0, 350.0, 241.0, 370.5, 241.0 ]
								}

							}
, 							{
								"patchline" : 								{
									"source" : [ "obj-24", 1 ],
									"destination" : [ "obj-23", 0 ],
									"hidden" : 1,
									"midpoints" : [ 217.833328, 621.0, 137.0, 621.0, 137.0, 241.0, 157.5, 241.0 ]
								}

							}
, 							{
								"patchline" : 								{
									"source" : [ "obj-32", 0 ],
									"destination" : [ "obj-24", 0 ],
									"hidden" : 0,
									"midpoints" : [ 314.5, 400.0, 157.5, 400.0 ]
								}

							}
, 							{
								"patchline" : 								{
									"source" : [ "obj-19", 1 ],
									"destination" : [ "obj-24", 0 ],
									"hidden" : 0,
									"midpoints" : [ 284.5, 387.5, 157.5, 387.5 ]
								}

							}
, 							{
								"patchline" : 								{
									"source" : [ "obj-19", 0 ],
									"destination" : [ "obj-24", 0 ],
									"hidden" : 0,
									"midpoints" : [ 260.5, 387.5, 157.5, 387.5 ]
								}

							}
, 							{
								"patchline" : 								{
									"source" : [ "obj-20", 0 ],
									"destination" : [ "obj-19", 0 ],
									"hidden" : 0,
									"midpoints" : [  ]
								}

							}
, 							{
								"patchline" : 								{
									"source" : [ "obj-22", 0 ],
									"destination" : [ "obj-21", 0 ],
									"hidden" : 0,
									"midpoints" : [  ]
								}

							}
, 							{
								"patchline" : 								{
									"source" : [ "obj-21", 0 ],
									"destination" : [ "obj-23", 1 ],
									"hidden" : 0,
									"midpoints" : [  ]
								}

							}
, 							{
								"patchline" : 								{
									"source" : [ "obj-23", 0 ],
									"destination" : [ "obj-24", 0 ],
									"hidden" : 0,
									"midpoints" : [  ]
								}

							}
, 							{
								"patchline" : 								{
									"source" : [ "obj-3", 0 ],
									"destination" : [ "obj-32", 0 ],
									"hidden" : 0,
									"midpoints" : [  ]
								}

							}
, 							{
								"patchline" : 								{
									"source" : [ "obj-32", 0 ],
									"destination" : [ "obj-44", 0 ],
									"hidden" : 0,
									"midpoints" : [ 314.5, 400.0, 370.5, 400.0 ]
								}

							}
, 							{
								"patchline" : 								{
									"source" : [ "obj-1", 0 ],
									"destination" : [ "obj-4", 0 ],
									"hidden" : 0,
									"midpoints" : [  ]
								}

							}
, 							{
								"patchline" : 								{
									"source" : [ "obj-4", 0 ],
									"destination" : [ "obj-22", 0 ],
									"hidden" : 0,
									"midpoints" : [  ]
								}

							}
, 							{
								"patchline" : 								{
									"source" : [ "obj-21", 1 ],
									"destination" : [ "obj-50", 0 ],
									"hidden" : 0,
									"midpoints" : [ 271.5, 292.0, 382.5, 292.0 ]
								}

							}
, 							{
								"patchline" : 								{
									"source" : [ "obj-43", 1 ],
									"destination" : [ "obj-50", 0 ],
									"hidden" : 0,
									"midpoints" : [ 457.5, 303.0, 382.5, 303.0 ]
								}

							}
, 							{
								"patchline" : 								{
									"source" : [ "obj-23", 2 ],
									"destination" : [ "obj-50", 1 ],
									"hidden" : 0,
									"midpoints" : [ 244.5, 299.0, 535.5, 299.0 ]
								}

							}
, 							{
								"patchline" : 								{
									"source" : [ "obj-50", 1 ],
									"destination" : [ "obj-38", 1 ],
									"hidden" : 0,
									"midpoints" : [  ]
								}

							}
, 							{
								"patchline" : 								{
									"source" : [ "obj-23", 2 ],
									"destination" : [ "obj-2", 1 ],
									"hidden" : 0,
									"midpoints" : [ 244.5, 286.5, 348.5, 286.5 ]
								}

							}
, 							{
								"patchline" : 								{
									"source" : [ "obj-2", 1 ],
									"destination" : [ "obj-20", 1 ],
									"hidden" : 0,
									"midpoints" : [  ]
								}

							}
, 							{
								"patchline" : 								{
									"source" : [ "obj-21", 1 ],
									"destination" : [ "obj-2", 0 ],
									"hidden" : 0,
									"midpoints" : [ 271.5, 302.5, 201.5, 302.5 ]
								}

							}
, 							{
								"patchline" : 								{
									"source" : [ "obj-23", 1 ],
									"destination" : [ "obj-2", 0 ],
									"hidden" : 0,
									"midpoints" : [  ]
								}

							}
 ]
					}
,
					"saved_object_attributes" : 					{
						"default_fontname" : "Arial",
						"default_fontsize" : 12.0,
						"fontname" : "Arial",
						"globalpatchername" : "",
						"fontface" : 0,
						"fontsize" : 12.0,
						"default_fontface" : 0
					}

				}

			}
, 			{
				"box" : 				{
					"maxclass" : "comment",
					"text" : "each list needs to be prepended by an index (starting from 0!!)",
					"id" : "obj-15",
					"fontname" : "Arial",
					"numinlets" : 1,
					"patching_rect" : [ 289.0, 383.0, 340.0, 20.0 ],
					"fontsize" : 12.0,
					"numoutlets" : 0
				}

			}
, 			{
				"box" : 				{
					"maxclass" : "comment",
					"text" : "clear: delete the stored lists",
					"id" : "obj-13",
					"fontname" : "Arial",
					"numinlets" : 1,
					"patching_rect" : [ 88.0, 399.0, 150.0, 18.0 ],
					"fontsize" : 10.0,
					"numoutlets" : 0
				}

			}
, 			{
				"box" : 				{
					"maxclass" : "comment",
					"text" : "( pow(x, 2) / n) - (pow(mean(x), 2))",
					"id" : "obj-90",
					"fontname" : "Arial Bold",
					"numinlets" : 1,
					"patching_rect" : [ 216.0, 140.0, 233.0, 20.0 ],
					"fontsize" : 12.0,
					"numoutlets" : 0
				}

			}
, 			{
				"box" : 				{
					"maxclass" : "comment",
					"text" : "and variance:",
					"id" : "obj-11",
					"fontname" : "Arial",
					"numinlets" : 1,
					"patching_rect" : [ 115.0, 139.0, 112.0, 20.0 ],
					"fontsize" : 12.0,
					"numoutlets" : 0
				}

			}
, 			{
				"box" : 				{
					"maxclass" : "comment",
					"text" : "( (x*y) / n) - (mean(x) * mean(y))",
					"id" : "obj-89",
					"fontname" : "Arial Bold",
					"numinlets" : 1,
					"patching_rect" : [ 216.0, 121.0, 224.0, 20.0 ],
					"fontsize" : 12.0,
					"numoutlets" : 0
				}

			}
, 			{
				"box" : 				{
					"maxclass" : "comment",
					"text" : "where covariance:",
					"id" : "obj-10",
					"fontname" : "Arial",
					"numinlets" : 1,
					"patching_rect" : [ 115.0, 123.0, 112.0, 20.0 ],
					"fontsize" : 12.0,
					"numoutlets" : 0
				}

			}
, 			{
				"box" : 				{
					"maxclass" : "comment",
					"text" : "covariance(xy) / (sqrt(variance(x)) * sqrt(variance(y)))",
					"id" : "obj-7",
					"fontname" : "Arial Bold",
					"numinlets" : 1,
					"patching_rect" : [ 84.0, 101.0, 385.0, 21.0 ],
					"fontsize" : 13.0,
					"numoutlets" : 0
				}

			}
, 			{
				"box" : 				{
					"maxclass" : "comment",
					"text" : "This abstraction computes the correlation coefficiant to determine the relative \"sameness\" of two or more lists.\nThe following formula is implemented:",
					"linecount" : 2,
					"id" : "obj-5",
					"fontname" : "Arial",
					"numinlets" : 1,
					"patching_rect" : [ 19.0, 62.0, 628.0, 34.0 ],
					"fontsize" : 12.0,
					"numoutlets" : 0
				}

			}
, 			{
				"box" : 				{
					"maxclass" : "comment",
					"varname" : "autohelp_top_title",
					"text" : "MRlistDist",
					"frgb" : [ 0.93, 0.93, 0.97, 1.0 ],
					"id" : "obj-18",
					"fontname" : "Arial",
					"numinlets" : 1,
					"patching_rect" : [ 14.0, 16.0, 455.0, 30.0 ],
					"fontface" : 3,
					"fontsize" : 20.871338,
					"numoutlets" : 0,
					"textcolor" : [ 0.93, 0.93, 0.97, 1.0 ]
				}

			}
, 			{
				"box" : 				{
					"maxclass" : "comment",
					"text" : "By Martin Ritter 2010",
					"id" : "obj-55",
					"fontname" : "Arial Bold",
					"numinlets" : 1,
					"patching_rect" : [ 732.0, 622.0, 114.0, 18.0 ],
					"fontsize" : 10.0,
					"numoutlets" : 0
				}

			}
, 			{
				"box" : 				{
					"maxclass" : "comment",
					"text" : "www.martin-ritter.com",
					"id" : "obj-57",
					"fontname" : "Arial",
					"numinlets" : 1,
					"patching_rect" : [ 734.0, 636.0, 108.0, 18.0 ],
					"fontsize" : 10.0,
					"numoutlets" : 0
				}

			}
, 			{
				"box" : 				{
					"maxclass" : "panel",
					"bgcolor" : [ 0.380392, 0.529412, 0.964706, 0.670588 ],
					"mode" : 1,
					"id" : "obj-58",
					"grad1" : [ 0.686275, 0.752941, 1.0, 1.0 ],
					"numinlets" : 1,
					"patching_rect" : [ 720.0, 616.0, 135.0, 40.0 ],
					"numoutlets" : 0
				}

			}
, 			{
				"box" : 				{
					"maxclass" : "comment",
					"text" : "trace the list on the right to see which one you are closest to ",
					"linecount" : 2,
					"id" : "obj-2",
					"fontname" : "Arial",
					"numinlets" : 1,
					"patching_rect" : [ 53.0, 215.0, 165.0, 32.0 ],
					"fontsize" : 11.0,
					"numoutlets" : 0
				}

			}
, 			{
				"box" : 				{
					"maxclass" : "comment",
					"text" : "-1.",
					"frgb" : [ 0.663417, 0.0327, 0.064271, 1.0 ],
					"id" : "obj-171",
					"fontname" : "Arial Bold",
					"numinlets" : 1,
					"patching_rect" : [ 467.0, 527.0, 23.0, 20.0 ],
					"fontsize" : 12.0,
					"numoutlets" : 0,
					"textcolor" : [ 0.663417, 0.0327, 0.064271, 1.0 ]
				}

			}
, 			{
				"box" : 				{
					"maxclass" : "comment",
					"text" : "1.",
					"frgb" : [ 0.663417, 0.0327, 0.064271, 1.0 ],
					"id" : "obj-170",
					"fontname" : "Arial Bold",
					"numinlets" : 1,
					"patching_rect" : [ 467.0, 457.0, 23.0, 20.0 ],
					"fontsize" : 12.0,
					"numoutlets" : 0,
					"textcolor" : [ 0.663417, 0.0327, 0.064271, 1.0 ]
				}

			}
, 			{
				"box" : 				{
					"maxclass" : "comment",
					"text" : "0.",
					"frgb" : [ 0.663417, 0.0327, 0.064271, 1.0 ],
					"id" : "obj-169",
					"fontname" : "Arial Bold",
					"numinlets" : 1,
					"patching_rect" : [ 467.0, 494.0, 23.0, 20.0 ],
					"fontsize" : 12.0,
					"numoutlets" : 0,
					"textcolor" : [ 0.663417, 0.0327, 0.064271, 1.0 ]
				}

			}
, 			{
				"box" : 				{
					"maxclass" : "comment",
					"text" : "list of coefficiants: the closer to 1., the closer the target list is to the stored samples. The closer to -1, the closer the target list is the  OPPOSITE of a stored sample list",
					"linecount" : 5,
					"id" : "obj-167",
					"fontname" : "Arial",
					"numinlets" : 1,
					"patching_rect" : [ 280.0, 543.0, 199.0, 75.0 ],
					"fontsize" : 12.0,
					"numoutlets" : 0
				}

			}
, 			{
				"box" : 				{
					"maxclass" : "comment",
					"text" : "indexed from 0",
					"id" : "obj-165",
					"fontname" : "Arial",
					"numinlets" : 1,
					"patching_rect" : [ 38.0, 497.0, 78.0, 18.0 ],
					"fontsize" : 10.0,
					"numoutlets" : 0
				}

			}
, 			{
				"box" : 				{
					"maxclass" : "comment",
					"text" : "closest to list no:",
					"id" : "obj-163",
					"fontname" : "Arial Bold Italic",
					"numinlets" : 1,
					"patching_rect" : [ 13.0, 477.0, 126.0, 23.0 ],
					"fontsize" : 14.0,
					"numoutlets" : 0
				}

			}
, 			{
				"box" : 				{
					"maxclass" : "newobj",
					"varname" : "u954001204",
					"text" : "autopattr",
					"hidden" : 1,
					"outlettype" : [ "", "", "", "" ],
					"id" : "obj-161",
					"fontname" : "Arial",
					"numinlets" : 1,
					"patching_rect" : [ 284.0, 201.0, 59.5, 18.0 ],
					"fontsize" : 10.0,
					"numoutlets" : 4,
					"restore" : 					{
						"multislider[2]" : [ 0.09863, 0.09726, 0.09589, 0.093151, 0.092237, 0.091324, 0.090411, 0.090068, 0.089726, 0.089384, 0.089041, 0.088356, 0.087671, 0.086301, 0.086301, 0.086301, 0.084932, 0.084247, 0.083562, 0.082877, 0.082192, 0.082192, 0.081507, 0.080822, 0.080137, 0.079452, 0.078082, 0.078082, 0.077397, 0.076712, 0.075342, 0.075342, 0.073973, 0.073288, 0.072603, 0.071918, 0.071233, 0.070548, 0.069863, 0.069178, 0.068493, 0.068037, 0.06758, 0.067123, 0.06621, 0.065297, 0.064384, 0.063699, 0.063014, 0.062557, 0.0621, 0.061644, 0.060274, 0.058904, 0.058904, 0.057534, 0.056164, 0.056164, 0.054795, 0.054795, 0.054795, 0.054795, 0.054795, 0.053425, 0.053425, 0.05274, 0.052055, 0.052055, 0.05137, 0.049315, 0.049315, 0.047945, 0.047945, 0.046575, 0.046575, 0.04589, 0.045205, 0.045205, 0.044521, 0.043836, 0.042466, 0.041781, 0.041096, 0.041096, 0.040411, 0.039726, 0.039726, 0.039041, 0.038356, 0.038356, 0.038356, 0.036986, 0.035616, 0.034932, 0.034247, 0.034247, 0.034247, 0.033562, 0.032877, 0.032877, 0.031507, 0.031507, 0.030137, 0.030137, 0.028767, 0.028767, 0.026027, 0.026027, 0.024658, 0.023288, 0.020548, 0.019178, 0.018493, 0.017808, 0.015753, 0.013699, 0.012329, 0.010959, 0.009589, 0.008219, 0.007306, 0.006393, 0.005479, 0.00274, 0.002283, 0.001826, 0.0 ],
						"multislider[3]" : [ 0.00274, 0.006849, 0.008219, 0.008219, 0.008219, 0.008904, 0.009589, 0.009589, 0.009589, 0.009589, 0.010959, 0.012329, 0.012329, 0.012329, 0.013699, 0.013699, 0.015068, 0.015068, 0.016438, 0.016438, 0.017808, 0.018493, 0.019178, 0.019635, 0.020091, 0.020548, 0.020548, 0.020548, 0.021918, 0.021918, 0.021918, 0.023288, 0.023973, 0.024658, 0.025114, 0.025571, 0.026027, 0.026027, 0.026027, 0.026027, 0.026941, 0.027854, 0.028767, 0.02911, 0.029452, 0.029795, 0.030137, 0.03105, 0.031963, 0.032877, 0.033904, 0.034932, 0.035959, 0.036986, 0.037671, 0.038356, 0.039041, 0.039726, 0.040183, 0.040639, 0.041096, 0.041553, 0.042009, 0.042466, 0.042922, 0.043379, 0.043836, 0.044292, 0.044749, 0.045205, 0.046575, 0.046575, 0.04726, 0.047945, 0.047945, 0.049315, 0.049315, 0.049315, 0.050685, 0.050685, 0.050685, 0.052055, 0.052055, 0.052055, 0.05411, 0.054795, 0.056164, 0.056164, 0.058904, 0.060274, 0.061644, 0.062329, 0.063014, 0.064384, 0.064384, 0.065753, 0.068493, 0.069863, 0.069863, 0.069863, 0.071233, 0.072603, 0.073288, 0.073973, 0.076027, 0.078082, 0.079452, 0.080137, 0.080822, 0.081507, 0.082192, 0.084932, 0.085616, 0.086301, 0.087671, 0.089041, 0.090411, 0.091781, 0.092466, 0.093151, 0.093836, 0.094521, 0.09589, 0.09726, 0.09863, 0.1, 0.1 ],
						"multislider[4]" : [ 0.945205, 0.931507, 0.90411, 0.890411, 0.876712, 0.876712, 0.821918, 0.821918, 0.794521, 0.753425, 0.739726, 0.69863, 0.671233, 0.60274, 0.575342, 0.575342, 0.520548, 0.506849, 0.452055, 0.438356, 0.39726, 0.383562, 0.369863, 0.342466, 0.342466, 0.315068, 0.315068, 0.315068, 0.315068, 0.315068, 0.30137, 0.30137, 0.30137, 0.30137, 0.315068, 0.315068, 0.328767, 0.328767, 0.342466, 0.383562, 0.424658, 0.479452, 0.506849, 0.534247, 0.547945, 0.561644, 0.589041, 0.60274, 0.616438, 0.630137, 0.630137, 0.630137, 0.630137, 0.616438, 0.60274, 0.575342, 0.520548, 0.520548, 0.493151, 0.493151, 0.493151, 0.438356, 0.39726, 0.383562, 0.356164, 0.342466, 0.315068, 0.30137, 0.287671, 0.260274, 0.246575, 0.246575, 0.246575, 0.246575, 0.246575, 0.246575, 0.246575, 0.246575, 0.246575, 0.246575, 0.246575, 0.246575, 0.260274, 0.260274, 0.273973, 0.287671, 0.287671, 0.30137, 0.30137, 0.315068, 0.328767, 0.342466, 0.356164, 0.356164, 0.383562, 0.383562, 0.39726, 0.39726, 0.40411, 0.410959, 0.417808, 0.424658, 0.438356, 0.445205, 0.452055, 0.458904, 0.465753, 0.479452, 0.493151, 0.506849, 0.520548, 0.534247, 0.541096, 0.561644, 0.568493, 0.589041, 0.589041, 0.616438, 0.630137, 0.636986, 0.657534, 0.671233, 0.684932, 0.69863, 0.753425, 0.773973, 1.0 ]
					}

				}

			}
, 			{
				"box" : 				{
					"maxclass" : "message",
					"text" : "clear",
					"outlettype" : [ "" ],
					"id" : "obj-159",
					"fontname" : "Arial",
					"numinlets" : 2,
					"patching_rect" : [ 83.0, 415.0, 32.5, 16.0 ],
					"fontsize" : 10.0,
					"numoutlets" : 1
				}

			}
, 			{
				"box" : 				{
					"maxclass" : "newobj",
					"text" : "prepend 2",
					"outlettype" : [ "" ],
					"id" : "obj-138",
					"fontname" : "Arial",
					"numinlets" : 1,
					"patching_rect" : [ 658.0, 401.0, 56.0, 18.0 ],
					"fontsize" : 10.0,
					"numoutlets" : 1
				}

			}
, 			{
				"box" : 				{
					"maxclass" : "multislider",
					"varname" : "multislider[4]",
					"slidercolor" : [ 0.85098, 0.533333, 0.254902, 1.0 ],
					"bgcolor" : [ 0.184314, 0.254902, 0.34902, 1.0 ],
					"outlettype" : [ "", "" ],
					"id" : "obj-139",
					"presentation_rect" : [ 546.0, 136.0, 184.0, 75.0 ],
					"size" : 127,
					"numinlets" : 1,
					"setminmax" : [ 0.0, 1.0 ],
					"patching_rect" : [ 658.0, 244.0, 184.0, 75.0 ],
					"presentation" : 1,
					"numoutlets" : 2
				}

			}
, 			{
				"box" : 				{
					"maxclass" : "multislider",
					"slidercolor" : [ 0.85098, 0.533333, 0.254902, 1.0 ],
					"bgcolor" : [ 0.184314, 0.254902, 0.34902, 1.0 ],
					"outlettype" : [ "", "" ],
					"id" : "obj-132",
					"size" : 3,
					"numinlets" : 1,
					"patching_rect" : [ 284.0, 464.0, 184.0, 75.0 ],
					"numoutlets" : 2,
					"contdata" : 1
				}

			}
, 			{
				"box" : 				{
					"maxclass" : "newobj",
					"text" : "prepend 1",
					"outlettype" : [ "" ],
					"id" : "obj-131",
					"fontname" : "Arial",
					"numinlets" : 1,
					"patching_rect" : [ 472.0, 407.0, 56.0, 18.0 ],
					"fontsize" : 10.0,
					"numoutlets" : 1
				}

			}
, 			{
				"box" : 				{
					"maxclass" : "newobj",
					"text" : "prepend 0",
					"outlettype" : [ "" ],
					"id" : "obj-127",
					"fontname" : "Arial",
					"numinlets" : 1,
					"patching_rect" : [ 284.0, 407.0, 56.0, 18.0 ],
					"fontsize" : 10.0,
					"numoutlets" : 1
				}

			}
, 			{
				"box" : 				{
					"maxclass" : "newobj",
					"text" : "MRlistDist",
					"outlettype" : [ "int", "", "" ],
					"id" : "obj-123",
					"fontname" : "Arial",
					"numinlets" : 2,
					"patching_rect" : [ 45.0, 439.0, 258.0, 18.0 ],
					"fontsize" : 10.0,
					"numoutlets" : 3
				}

			}
, 			{
				"box" : 				{
					"maxclass" : "multislider",
					"varname" : "multislider[2]",
					"slidercolor" : [ 0.85098, 0.533333, 0.254902, 1.0 ],
					"bgcolor" : [ 0.184314, 0.254902, 0.34902, 1.0 ],
					"outlettype" : [ "", "" ],
					"id" : "obj-87",
					"presentation_rect" : [ 531.0, 121.0, 184.0, 75.0 ],
					"size" : 127,
					"numinlets" : 1,
					"setminmax" : [ 0.0, 0.1 ],
					"patching_rect" : [ 472.0, 244.0, 184.0, 75.0 ],
					"presentation" : 1,
					"numoutlets" : 2
				}

			}
, 			{
				"box" : 				{
					"maxclass" : "message",
					"text" : "0",
					"outlettype" : [ "" ],
					"id" : "obj-91",
					"fontname" : "Arial Bold",
					"numinlets" : 2,
					"patching_rect" : [ 137.0, 477.0, 63.0, 25.0 ],
					"fontsize" : 18.0,
					"numoutlets" : 1,
					"textcolor" : [ 1.0, 0.073716, 0.085054, 1.0 ]
				}

			}
, 			{
				"box" : 				{
					"maxclass" : "multislider",
					"varname" : "multislider[3]",
					"slidercolor" : [ 0.85098, 0.533333, 0.254902, 1.0 ],
					"bgcolor" : [ 0.184314, 0.254902, 0.34902, 1.0 ],
					"outlettype" : [ "", "" ],
					"id" : "obj-115",
					"presentation_rect" : [ 292.0, 146.0, 184.0, 75.0 ],
					"size" : 127,
					"numinlets" : 1,
					"setminmax" : [ 0.0, 0.1 ],
					"patching_rect" : [ 284.0, 244.0, 184.0, 75.0 ],
					"presentation" : 1,
					"numoutlets" : 2
				}

			}
, 			{
				"box" : 				{
					"maxclass" : "multislider",
					"slidercolor" : [ 0.85098, 0.533333, 0.254902, 1.0 ],
					"bgcolor" : [ 0.184314, 0.254902, 0.34902, 1.0 ],
					"outlettype" : [ "", "" ],
					"id" : "obj-116",
					"size" : 127,
					"numinlets" : 1,
					"setminmax" : [ 0.0, 0.1 ],
					"patching_rect" : [ 45.0, 244.0, 184.0, 75.0 ],
					"numoutlets" : 2,
					"contdata" : 1
				}

			}
, 			{
				"box" : 				{
					"maxclass" : "panel",
					"varname" : "autohelp_top_panel",
					"mode" : 1,
					"id" : "obj-9",
					"background" : 1,
					"grad1" : [ 0.27, 0.35, 0.47, 1.0 ],
					"numinlets" : 1,
					"grad2" : [ 0.85, 0.85, 0.85, 1.0 ],
					"patching_rect" : [ 5.0, 5.0, 849.0, 52.0 ],
					"numoutlets" : 0
				}

			}
 ],
		"lines" : [ 			{
				"patchline" : 				{
					"source" : [ "obj-161", 0 ],
					"destination" : [ "obj-139", 0 ],
					"hidden" : 1,
					"midpoints" : [ 293.5, 231.0, 667.5, 231.0 ]
				}

			}
, 			{
				"patchline" : 				{
					"source" : [ "obj-161", 0 ],
					"destination" : [ "obj-87", 0 ],
					"hidden" : 1,
					"midpoints" : [ 293.5, 231.0, 481.5, 231.0 ]
				}

			}
, 			{
				"patchline" : 				{
					"source" : [ "obj-161", 0 ],
					"destination" : [ "obj-115", 0 ],
					"hidden" : 1,
					"midpoints" : [  ]
				}

			}
, 			{
				"patchline" : 				{
					"source" : [ "obj-139", 0 ],
					"destination" : [ "obj-138", 0 ],
					"hidden" : 0,
					"midpoints" : [ 667.5, 362.5, 667.5, 362.5 ]
				}

			}
, 			{
				"patchline" : 				{
					"source" : [ "obj-87", 0 ],
					"destination" : [ "obj-131", 0 ],
					"hidden" : 0,
					"midpoints" : [ 481.5, 362.5, 481.5, 362.5 ]
				}

			}
, 			{
				"patchline" : 				{
					"source" : [ "obj-115", 0 ],
					"destination" : [ "obj-127", 0 ],
					"hidden" : 0,
					"midpoints" : [  ]
				}

			}
, 			{
				"patchline" : 				{
					"source" : [ "obj-123", 2 ],
					"destination" : [ "obj-132", 0 ],
					"hidden" : 0,
					"midpoints" : [ 293.5, 460.0, 293.5, 460.0 ]
				}

			}
, 			{
				"patchline" : 				{
					"source" : [ "obj-159", 0 ],
					"destination" : [ "obj-123", 0 ],
					"hidden" : 0,
					"midpoints" : [  ]
				}

			}
, 			{
				"patchline" : 				{
					"source" : [ "obj-116", 0 ],
					"destination" : [ "obj-123", 0 ],
					"hidden" : 0,
					"midpoints" : [  ]
				}

			}
, 			{
				"patchline" : 				{
					"source" : [ "obj-138", 0 ],
					"destination" : [ "obj-123", 1 ],
					"hidden" : 0,
					"midpoints" : [ 667.5, 431.5, 293.5, 431.5 ]
				}

			}
, 			{
				"patchline" : 				{
					"source" : [ "obj-131", 0 ],
					"destination" : [ "obj-123", 1 ],
					"hidden" : 0,
					"midpoints" : [ 481.5, 431.5, 293.5, 431.5 ]
				}

			}
, 			{
				"patchline" : 				{
					"source" : [ "obj-127", 0 ],
					"destination" : [ "obj-123", 1 ],
					"hidden" : 0,
					"midpoints" : [  ]
				}

			}
, 			{
				"patchline" : 				{
					"source" : [ "obj-123", 0 ],
					"destination" : [ "obj-91", 1 ],
					"hidden" : 0,
					"midpoints" : [ 54.5, 466.0, 190.5, 466.0 ]
				}

			}
 ]
	}

}
