{
	"patcher" : 	{
		"fileversion" : 1,
		"rect" : [ 50.0, 94.0, 604.0, 634.0 ],
		"bglocked" : 0,
		"defrect" : [ 50.0, 94.0, 604.0, 634.0 ],
		"openrect" : [ 0.0, 0.0, 0.0, 0.0 ],
		"openinpresentation" : 0,
		"default_fontsize" : 10.0,
		"default_fontface" : 0,
		"default_fontname" : "Arial",
		"gridonopen" : 0,
		"gridsize" : [ 15.0, 15.0 ],
		"gridsnaponopen" : 0,
		"toolbarvisible" : 1,
		"boxanimatetime" : 200,
		"imprint" : 0,
		"enablehscroll" : 1,
		"enablevscroll" : 1,
		"devicewidth" : 0.0,
		"boxes" : [ 			{
				"box" : 				{
					"maxclass" : "newobj",
					"text" : "change",
					"fontsize" : 10.0,
					"numinlets" : 1,
					"numoutlets" : 3,
					"patching_rect" : [ 375.0, 292.0, 46.0, 18.0 ],
					"outlettype" : [ "", "int", "int" ],
					"id" : "obj-35",
					"fontname" : "Arial"
				}

			}
, 			{
				"box" : 				{
					"maxclass" : "newobj",
					"text" : "t b i",
					"fontsize" : 10.0,
					"numinlets" : 1,
					"numoutlets" : 2,
					"patching_rect" : [ 375.0, 415.0, 32.5, 18.0 ],
					"outlettype" : [ "bang", "int" ],
					"id" : "obj-34",
					"fontname" : "Arial"
				}

			}
, 			{
				"box" : 				{
					"maxclass" : "newobj",
					"text" : "pak paintoval i i i i 255 0 0",
					"fontsize" : 10.0,
					"numinlets" : 8,
					"numoutlets" : 1,
					"patching_rect" : [ 263.0, 232.0, 126.0, 18.0 ],
					"outlettype" : [ "" ],
					"id" : "obj-33",
					"fontname" : "Arial"
				}

			}
, 			{
				"box" : 				{
					"maxclass" : "newobj",
					"text" : "gate 2 1",
					"fontsize" : 10.0,
					"numinlets" : 2,
					"numoutlets" : 2,
					"patching_rect" : [ 207.0, 233.0, 47.0, 18.0 ],
					"outlettype" : [ "", "" ],
					"id" : "obj-32",
					"fontname" : "Arial"
				}

			}
, 			{
				"box" : 				{
					"maxclass" : "newobj",
					"text" : "+ 1",
					"fontsize" : 10.0,
					"numinlets" : 2,
					"numoutlets" : 1,
					"patching_rect" : [ 375.0, 393.0, 32.5, 18.0 ],
					"outlettype" : [ "int" ],
					"id" : "obj-31",
					"fontname" : "Arial"
				}

			}
, 			{
				"box" : 				{
					"maxclass" : "newobj",
					"text" : "p MODES",
					"fontsize" : 14.0,
					"numinlets" : 0,
					"numoutlets" : 0,
					"patching_rect" : [ 485.0, 481.0, 77.0, 23.0 ],
					"id" : "obj-29",
					"fontname" : "Arial",
					"patcher" : 					{
						"fileversion" : 1,
						"rect" : [ 50.0, 106.0, 1090.0, 598.0 ],
						"bglocked" : 0,
						"defrect" : [ 50.0, 106.0, 1090.0, 598.0 ],
						"openrect" : [ 0.0, 0.0, 0.0, 0.0 ],
						"openinpresentation" : 0,
						"default_fontsize" : 10.0,
						"default_fontface" : 0,
						"default_fontname" : "Arial",
						"gridonopen" : 0,
						"gridsize" : [ 15.0, 15.0 ],
						"gridsnaponopen" : 0,
						"toolbarvisible" : 1,
						"boxanimatetime" : 200,
						"imprint" : 0,
						"enablehscroll" : 1,
						"enablevscroll" : 1,
						"devicewidth" : 0.0,
						"boxes" : [ 							{
								"box" : 								{
									"maxclass" : "newobj",
									"text" : "change",
									"fontsize" : 10.0,
									"numinlets" : 1,
									"numoutlets" : 3,
									"patching_rect" : [ 888.0, 294.0, 46.0, 18.0 ],
									"outlettype" : [ "", "int", "int" ],
									"id" : "obj-35",
									"fontname" : "Arial"
								}

							}
, 							{
								"box" : 								{
									"maxclass" : "newobj",
									"text" : "t b i",
									"fontsize" : 10.0,
									"numinlets" : 1,
									"numoutlets" : 2,
									"patching_rect" : [ 888.0, 417.0, 32.5, 18.0 ],
									"outlettype" : [ "bang", "int" ],
									"id" : "obj-3",
									"fontname" : "Arial"
								}

							}
, 							{
								"box" : 								{
									"maxclass" : "newobj",
									"text" : "pak paintoval i i i i 255 0 0",
									"fontsize" : 10.0,
									"numinlets" : 8,
									"numoutlets" : 1,
									"patching_rect" : [ 776.0, 234.0, 126.0, 18.0 ],
									"outlettype" : [ "" ],
									"id" : "obj-5",
									"fontname" : "Arial"
								}

							}
, 							{
								"box" : 								{
									"maxclass" : "newobj",
									"text" : "gate 2 1",
									"fontsize" : 10.0,
									"numinlets" : 2,
									"numoutlets" : 2,
									"patching_rect" : [ 720.0, 235.0, 47.0, 18.0 ],
									"outlettype" : [ "", "" ],
									"id" : "obj-8",
									"fontname" : "Arial"
								}

							}
, 							{
								"box" : 								{
									"maxclass" : "newobj",
									"text" : "+ 1",
									"fontsize" : 10.0,
									"numinlets" : 2,
									"numoutlets" : 1,
									"patching_rect" : [ 888.0, 395.0, 32.5, 18.0 ],
									"outlettype" : [ "int" ],
									"id" : "obj-9",
									"fontname" : "Arial"
								}

							}
, 							{
								"box" : 								{
									"maxclass" : "message",
									"text" : "13 107",
									"fontsize" : 10.0,
									"numinlets" : 2,
									"numoutlets" : 1,
									"patching_rect" : [ 609.0, 541.0, 50.0, 16.0 ],
									"outlettype" : [ "" ],
									"id" : "obj-12",
									"fontname" : "Arial"
								}

							}
, 							{
								"box" : 								{
									"maxclass" : "toggle",
									"numinlets" : 1,
									"numoutlets" : 1,
									"patching_rect" : [ 888.0, 320.0, 70.0, 70.0 ],
									"outlettype" : [ "int" ],
									"id" : "obj-13"
								}

							}
, 							{
								"box" : 								{
									"maxclass" : "newobj",
									"text" : "MRpointInCircle @mode 1",
									"bgcolor" : [ 0.8, 0.8, 1.0, 1.0 ],
									"fontsize" : 13.0,
									"numinlets" : 6,
									"numoutlets" : 1,
									"patching_rect" : [ 888.0, 266.0, 163.0, 21.0 ],
									"outlettype" : [ "" ],
									"id" : "obj-14",
									"fontname" : "Arial"
								}

							}
, 							{
								"box" : 								{
									"maxclass" : "message",
									"text" : "idle 1",
									"fontsize" : 10.0,
									"numinlets" : 2,
									"numoutlets" : 1,
									"patching_rect" : [ 551.0, 220.0, 34.0, 16.0 ],
									"outlettype" : [ "" ],
									"id" : "obj-15",
									"fontname" : "Arial"
								}

							}
, 							{
								"box" : 								{
									"maxclass" : "newobj",
									"text" : "loadbang",
									"fontsize" : 10.0,
									"numinlets" : 1,
									"numoutlets" : 1,
									"patching_rect" : [ 591.0, 142.0, 52.0, 18.0 ],
									"outlettype" : [ "bang" ],
									"id" : "obj-16",
									"fontname" : "Arial"
								}

							}
, 							{
								"box" : 								{
									"maxclass" : "newobj",
									"text" : "t l clear",
									"fontsize" : 10.0,
									"numinlets" : 1,
									"numoutlets" : 2,
									"patching_rect" : [ 591.0, 200.0, 43.0, 18.0 ],
									"outlettype" : [ "", "clear" ],
									"id" : "obj-17",
									"fontname" : "Arial"
								}

							}
, 							{
								"box" : 								{
									"maxclass" : "message",
									"text" : "50 60 150 160",
									"fontsize" : 13.0,
									"numinlets" : 2,
									"numoutlets" : 1,
									"patching_rect" : [ 591.0, 172.0, 94.0, 19.0 ],
									"outlettype" : [ "" ],
									"id" : "obj-18",
									"fontname" : "Arial"
								}

							}
, 							{
								"box" : 								{
									"maxclass" : "newobj",
									"text" : "pak frameoval i i i i 0 0 255",
									"fontsize" : 10.0,
									"numinlets" : 8,
									"numoutlets" : 1,
									"patching_rect" : [ 704.0, 262.0, 129.0, 18.0 ],
									"outlettype" : [ "" ],
									"id" : "obj-19",
									"fontname" : "Arial"
								}

							}
, 							{
								"box" : 								{
									"maxclass" : "newobj",
									"text" : "pak framerect i i i i 0 255 0",
									"fontsize" : 10.0,
									"numinlets" : 8,
									"numoutlets" : 1,
									"patching_rect" : [ 575.0, 262.0, 128.0, 18.0 ],
									"outlettype" : [ "" ],
									"id" : "obj-20",
									"fontname" : "Arial"
								}

							}
, 							{
								"box" : 								{
									"maxclass" : "lcd",
									"idle" : 1,
									"numinlets" : 1,
									"numoutlets" : 4,
									"patching_rect" : [ 575.0, 289.0, 214.0, 222.0 ],
									"outlettype" : [ "list", "list", "int", "" ],
									"id" : "obj-21"
								}

							}
, 							{
								"box" : 								{
									"maxclass" : "newobj",
									"text" : "change",
									"fontsize" : 10.0,
									"numinlets" : 1,
									"numoutlets" : 3,
									"patching_rect" : [ 373.0, 296.0, 46.0, 18.0 ],
									"outlettype" : [ "", "int", "int" ],
									"id" : "obj-1",
									"fontname" : "Arial"
								}

							}
, 							{
								"box" : 								{
									"maxclass" : "newobj",
									"text" : "t b i",
									"fontsize" : 10.0,
									"numinlets" : 1,
									"numoutlets" : 2,
									"patching_rect" : [ 373.0, 419.0, 32.5, 18.0 ],
									"outlettype" : [ "bang", "int" ],
									"id" : "obj-34",
									"fontname" : "Arial"
								}

							}
, 							{
								"box" : 								{
									"maxclass" : "newobj",
									"text" : "pak paintoval i i i i 255 0 0",
									"fontsize" : 10.0,
									"numinlets" : 8,
									"numoutlets" : 1,
									"patching_rect" : [ 261.0, 236.0, 126.0, 18.0 ],
									"outlettype" : [ "" ],
									"id" : "obj-33",
									"fontname" : "Arial"
								}

							}
, 							{
								"box" : 								{
									"maxclass" : "newobj",
									"text" : "gate 2 1",
									"fontsize" : 10.0,
									"numinlets" : 2,
									"numoutlets" : 2,
									"patching_rect" : [ 205.0, 237.0, 47.0, 18.0 ],
									"outlettype" : [ "", "" ],
									"id" : "obj-32",
									"fontname" : "Arial"
								}

							}
, 							{
								"box" : 								{
									"maxclass" : "newobj",
									"text" : "+ 1",
									"fontsize" : 10.0,
									"numinlets" : 2,
									"numoutlets" : 1,
									"patching_rect" : [ 373.0, 397.0, 32.5, 18.0 ],
									"outlettype" : [ "int" ],
									"id" : "obj-31",
									"fontname" : "Arial"
								}

							}
, 							{
								"box" : 								{
									"maxclass" : "message",
									"text" : "205 100",
									"fontsize" : 10.0,
									"numinlets" : 2,
									"numoutlets" : 1,
									"patching_rect" : [ 94.0, 543.0, 50.0, 16.0 ],
									"outlettype" : [ "" ],
									"id" : "obj-28",
									"fontname" : "Arial"
								}

							}
, 							{
								"box" : 								{
									"maxclass" : "toggle",
									"numinlets" : 1,
									"numoutlets" : 1,
									"patching_rect" : [ 373.0, 322.0, 70.0, 70.0 ],
									"outlettype" : [ "int" ],
									"id" : "obj-26"
								}

							}
, 							{
								"box" : 								{
									"maxclass" : "newobj",
									"text" : "MRpointInCircle @mode 0",
									"bgcolor" : [ 0.8, 0.8, 1.0, 1.0 ],
									"fontsize" : 13.0,
									"numinlets" : 6,
									"numoutlets" : 1,
									"patching_rect" : [ 373.0, 268.0, 163.0, 21.0 ],
									"outlettype" : [ "" ],
									"id" : "obj-11",
									"fontname" : "Arial"
								}

							}
, 							{
								"box" : 								{
									"maxclass" : "message",
									"text" : "idle 1",
									"fontsize" : 10.0,
									"numinlets" : 2,
									"numoutlets" : 1,
									"patching_rect" : [ 36.0, 222.0, 34.0, 16.0 ],
									"outlettype" : [ "" ],
									"id" : "obj-10",
									"fontname" : "Arial"
								}

							}
, 							{
								"box" : 								{
									"maxclass" : "newobj",
									"text" : "loadbang",
									"fontsize" : 10.0,
									"numinlets" : 1,
									"numoutlets" : 1,
									"patching_rect" : [ 76.0, 144.0, 52.0, 18.0 ],
									"outlettype" : [ "bang" ],
									"id" : "obj-7",
									"fontname" : "Arial"
								}

							}
, 							{
								"box" : 								{
									"maxclass" : "newobj",
									"text" : "t l clear",
									"fontsize" : 10.0,
									"numinlets" : 1,
									"numoutlets" : 2,
									"patching_rect" : [ 76.0, 202.0, 43.0, 18.0 ],
									"outlettype" : [ "", "clear" ],
									"id" : "obj-6",
									"fontname" : "Arial"
								}

							}
, 							{
								"box" : 								{
									"maxclass" : "message",
									"text" : "50 60 150 160",
									"fontsize" : 13.0,
									"numinlets" : 2,
									"numoutlets" : 1,
									"patching_rect" : [ 76.0, 174.0, 94.0, 19.0 ],
									"outlettype" : [ "" ],
									"id" : "obj-4",
									"fontname" : "Arial"
								}

							}
, 							{
								"box" : 								{
									"maxclass" : "newobj",
									"text" : "pak frameoval i i i i 0 0 255",
									"fontsize" : 10.0,
									"numinlets" : 8,
									"numoutlets" : 1,
									"patching_rect" : [ 189.0, 264.0, 129.0, 18.0 ],
									"outlettype" : [ "" ],
									"id" : "obj-2",
									"fontname" : "Arial"
								}

							}
, 							{
								"box" : 								{
									"maxclass" : "newobj",
									"text" : "pak framerect i i i i 0 255 0",
									"fontsize" : 10.0,
									"numinlets" : 8,
									"numoutlets" : 1,
									"patching_rect" : [ 60.0, 264.0, 128.0, 18.0 ],
									"outlettype" : [ "" ],
									"id" : "obj-25",
									"fontname" : "Arial"
								}

							}
, 							{
								"box" : 								{
									"maxclass" : "lcd",
									"idle" : 1,
									"numinlets" : 1,
									"numoutlets" : 4,
									"patching_rect" : [ 60.0, 291.0, 214.0, 222.0 ],
									"outlettype" : [ "list", "list", "int", "" ],
									"id" : "obj-24"
								}

							}
, 							{
								"box" : 								{
									"maxclass" : "comment",
									"text" : "opposite of mode 1; output 1 when point is outside of circle and 0 when inside",
									"linecount" : 3,
									"fontsize" : 12.0,
									"numinlets" : 1,
									"numoutlets" : 0,
									"patching_rect" : [ 659.0, 73.0, 205.0, 48.0 ],
									"id" : "obj-41",
									"fontname" : "Arial"
								}

							}
, 							{
								"box" : 								{
									"maxclass" : "comment",
									"text" : "default mode: send 1 when point is inside the circle, 0 when outside",
									"linecount" : 2,
									"fontsize" : 12.0,
									"numinlets" : 1,
									"numoutlets" : 0,
									"patching_rect" : [ 122.0, 73.0, 201.0, 34.0 ],
									"id" : "obj-40",
									"fontname" : "Arial"
								}

							}
, 							{
								"box" : 								{
									"maxclass" : "comment",
									"text" : "@mode 2",
									"fontsize" : 18.0,
									"numinlets" : 1,
									"numoutlets" : 0,
									"patching_rect" : [ 633.0, 36.0, 97.0, 27.0 ],
									"id" : "obj-38",
									"fontname" : "Arial"
								}

							}
, 							{
								"box" : 								{
									"maxclass" : "comment",
									"text" : "@mode 1",
									"fontsize" : 18.0,
									"numinlets" : 1,
									"numoutlets" : 0,
									"patching_rect" : [ 95.0, 36.0, 97.0, 27.0 ],
									"id" : "obj-37",
									"fontname" : "Arial"
								}

							}
 ],
						"lines" : [ 							{
								"patchline" : 								{
									"source" : [ "obj-8", 1 ],
									"destination" : [ "obj-5", 1 ],
									"hidden" : 0,
									"midpoints" : [ 757.5, 255.0, 773.0, 255.0, 773.0, 227.0, 800.785706, 227.0 ]
								}

							}
, 							{
								"patchline" : 								{
									"source" : [ "obj-8", 0 ],
									"destination" : [ "obj-19", 1 ],
									"hidden" : 0,
									"midpoints" : [  ]
								}

							}
, 							{
								"patchline" : 								{
									"source" : [ "obj-21", 0 ],
									"destination" : [ "obj-14", 0 ],
									"hidden" : 0,
									"midpoints" : [ 584.5, 534.0, 869.0, 534.0, 869.0, 255.0, 897.5, 255.0 ]
								}

							}
, 							{
								"patchline" : 								{
									"source" : [ "obj-14", 0 ],
									"destination" : [ "obj-35", 0 ],
									"hidden" : 0,
									"midpoints" : [  ]
								}

							}
, 							{
								"patchline" : 								{
									"source" : [ "obj-18", 0 ],
									"destination" : [ "obj-14", 2 ],
									"hidden" : 0,
									"midpoints" : [ 600.5, 195.0, 955.099976, 195.0 ]
								}

							}
, 							{
								"patchline" : 								{
									"source" : [ "obj-21", 1 ],
									"destination" : [ "obj-14", 0 ],
									"hidden" : 0,
									"midpoints" : [ 649.5, 534.0, 869.0, 534.0, 869.0, 255.0, 897.5, 255.0 ]
								}

							}
, 							{
								"patchline" : 								{
									"source" : [ "obj-24", 0 ],
									"destination" : [ "obj-11", 0 ],
									"hidden" : 0,
									"midpoints" : [ 69.5, 536.0, 354.0, 536.0, 354.0, 257.0, 382.5, 257.0 ]
								}

							}
, 							{
								"patchline" : 								{
									"source" : [ "obj-11", 0 ],
									"destination" : [ "obj-1", 0 ],
									"hidden" : 0,
									"midpoints" : [  ]
								}

							}
, 							{
								"patchline" : 								{
									"source" : [ "obj-4", 0 ],
									"destination" : [ "obj-11", 2 ],
									"hidden" : 0,
									"midpoints" : [ 85.5, 197.0, 440.100006, 197.0 ]
								}

							}
, 							{
								"patchline" : 								{
									"source" : [ "obj-24", 1 ],
									"destination" : [ "obj-11", 0 ],
									"hidden" : 0,
									"midpoints" : [ 134.5, 536.0, 354.0, 536.0, 354.0, 257.0, 382.5, 257.0 ]
								}

							}
, 							{
								"patchline" : 								{
									"source" : [ "obj-35", 0 ],
									"destination" : [ "obj-13", 0 ],
									"hidden" : 0,
									"midpoints" : [  ]
								}

							}
, 							{
								"patchline" : 								{
									"source" : [ "obj-5", 0 ],
									"destination" : [ "obj-21", 0 ],
									"hidden" : 0,
									"midpoints" : [ 785.5, 285.0, 584.5, 285.0 ]
								}

							}
, 							{
								"patchline" : 								{
									"source" : [ "obj-3", 0 ],
									"destination" : [ "obj-18", 0 ],
									"hidden" : 0,
									"midpoints" : [ 897.5, 442.0, 1068.0, 442.0, 1068.0, 167.0, 600.5, 167.0 ]
								}

							}
, 							{
								"patchline" : 								{
									"source" : [ "obj-3", 1 ],
									"destination" : [ "obj-8", 0 ],
									"hidden" : 0,
									"midpoints" : [ 911.0, 438.0, 1061.0, 438.0, 1061.0, 219.0, 729.5, 219.0 ]
								}

							}
, 							{
								"patchline" : 								{
									"source" : [ "obj-9", 0 ],
									"destination" : [ "obj-3", 0 ],
									"hidden" : 0,
									"midpoints" : [  ]
								}

							}
, 							{
								"patchline" : 								{
									"source" : [ "obj-17", 0 ],
									"destination" : [ "obj-8", 1 ],
									"hidden" : 0,
									"midpoints" : [ 600.5, 226.0, 757.5, 226.0 ]
								}

							}
, 							{
								"patchline" : 								{
									"source" : [ "obj-13", 0 ],
									"destination" : [ "obj-9", 0 ],
									"hidden" : 0,
									"midpoints" : [  ]
								}

							}
, 							{
								"patchline" : 								{
									"source" : [ "obj-21", 1 ],
									"destination" : [ "obj-12", 1 ],
									"hidden" : 0,
									"midpoints" : [  ]
								}

							}
, 							{
								"patchline" : 								{
									"source" : [ "obj-15", 0 ],
									"destination" : [ "obj-21", 0 ],
									"hidden" : 0,
									"midpoints" : [ 560.5, 287.0, 584.5, 287.0 ]
								}

							}
, 							{
								"patchline" : 								{
									"source" : [ "obj-16", 0 ],
									"destination" : [ "obj-15", 0 ],
									"hidden" : 0,
									"midpoints" : [ 600.5, 168.0, 560.5, 168.0 ]
								}

							}
, 							{
								"patchline" : 								{
									"source" : [ "obj-16", 0 ],
									"destination" : [ "obj-18", 0 ],
									"hidden" : 0,
									"midpoints" : [  ]
								}

							}
, 							{
								"patchline" : 								{
									"source" : [ "obj-19", 0 ],
									"destination" : [ "obj-21", 0 ],
									"hidden" : 0,
									"midpoints" : [ 713.5, 282.0, 584.5, 282.0 ]
								}

							}
, 							{
								"patchline" : 								{
									"source" : [ "obj-17", 1 ],
									"destination" : [ "obj-21", 0 ],
									"hidden" : 0,
									"midpoints" : [ 624.5, 257.0, 568.0, 257.0, 568.0, 283.0, 584.5, 283.0 ]
								}

							}
, 							{
								"patchline" : 								{
									"source" : [ "obj-17", 0 ],
									"destination" : [ "obj-20", 1 ],
									"hidden" : 0,
									"midpoints" : [  ]
								}

							}
, 							{
								"patchline" : 								{
									"source" : [ "obj-18", 0 ],
									"destination" : [ "obj-17", 0 ],
									"hidden" : 0,
									"midpoints" : [  ]
								}

							}
, 							{
								"patchline" : 								{
									"source" : [ "obj-20", 0 ],
									"destination" : [ "obj-21", 0 ],
									"hidden" : 0,
									"midpoints" : [  ]
								}

							}
, 							{
								"patchline" : 								{
									"source" : [ "obj-1", 0 ],
									"destination" : [ "obj-26", 0 ],
									"hidden" : 0,
									"midpoints" : [  ]
								}

							}
, 							{
								"patchline" : 								{
									"source" : [ "obj-33", 0 ],
									"destination" : [ "obj-24", 0 ],
									"hidden" : 0,
									"midpoints" : [ 270.5, 287.0, 69.5, 287.0 ]
								}

							}
, 							{
								"patchline" : 								{
									"source" : [ "obj-32", 1 ],
									"destination" : [ "obj-33", 1 ],
									"hidden" : 0,
									"midpoints" : [ 242.5, 257.0, 258.0, 257.0, 258.0, 229.0, 285.785706, 229.0 ]
								}

							}
, 							{
								"patchline" : 								{
									"source" : [ "obj-34", 0 ],
									"destination" : [ "obj-4", 0 ],
									"hidden" : 0,
									"midpoints" : [ 382.5, 444.0, 545.0, 444.0, 545.0, 169.0, 85.5, 169.0 ]
								}

							}
, 							{
								"patchline" : 								{
									"source" : [ "obj-34", 1 ],
									"destination" : [ "obj-32", 0 ],
									"hidden" : 0,
									"midpoints" : [ 396.0, 440.0, 538.0, 440.0, 538.0, 221.0, 214.5, 221.0 ]
								}

							}
, 							{
								"patchline" : 								{
									"source" : [ "obj-31", 0 ],
									"destination" : [ "obj-34", 0 ],
									"hidden" : 0,
									"midpoints" : [  ]
								}

							}
, 							{
								"patchline" : 								{
									"source" : [ "obj-32", 0 ],
									"destination" : [ "obj-2", 1 ],
									"hidden" : 0,
									"midpoints" : [  ]
								}

							}
, 							{
								"patchline" : 								{
									"source" : [ "obj-6", 0 ],
									"destination" : [ "obj-32", 1 ],
									"hidden" : 0,
									"midpoints" : [ 85.5, 228.0, 242.5, 228.0 ]
								}

							}
, 							{
								"patchline" : 								{
									"source" : [ "obj-26", 0 ],
									"destination" : [ "obj-31", 0 ],
									"hidden" : 0,
									"midpoints" : [  ]
								}

							}
, 							{
								"patchline" : 								{
									"source" : [ "obj-24", 1 ],
									"destination" : [ "obj-28", 1 ],
									"hidden" : 0,
									"midpoints" : [  ]
								}

							}
, 							{
								"patchline" : 								{
									"source" : [ "obj-10", 0 ],
									"destination" : [ "obj-24", 0 ],
									"hidden" : 0,
									"midpoints" : [ 45.5, 289.0, 69.5, 289.0 ]
								}

							}
, 							{
								"patchline" : 								{
									"source" : [ "obj-7", 0 ],
									"destination" : [ "obj-10", 0 ],
									"hidden" : 0,
									"midpoints" : [ 85.5, 170.0, 45.5, 170.0 ]
								}

							}
, 							{
								"patchline" : 								{
									"source" : [ "obj-7", 0 ],
									"destination" : [ "obj-4", 0 ],
									"hidden" : 0,
									"midpoints" : [  ]
								}

							}
, 							{
								"patchline" : 								{
									"source" : [ "obj-2", 0 ],
									"destination" : [ "obj-24", 0 ],
									"hidden" : 0,
									"midpoints" : [ 198.5, 284.0, 69.5, 284.0 ]
								}

							}
, 							{
								"patchline" : 								{
									"source" : [ "obj-6", 1 ],
									"destination" : [ "obj-24", 0 ],
									"hidden" : 0,
									"midpoints" : [ 109.5, 259.0, 53.0, 259.0, 53.0, 285.0, 69.5, 285.0 ]
								}

							}
, 							{
								"patchline" : 								{
									"source" : [ "obj-6", 0 ],
									"destination" : [ "obj-25", 1 ],
									"hidden" : 0,
									"midpoints" : [  ]
								}

							}
, 							{
								"patchline" : 								{
									"source" : [ "obj-4", 0 ],
									"destination" : [ "obj-6", 0 ],
									"hidden" : 0,
									"midpoints" : [  ]
								}

							}
, 							{
								"patchline" : 								{
									"source" : [ "obj-25", 0 ],
									"destination" : [ "obj-24", 0 ],
									"hidden" : 0,
									"midpoints" : [  ]
								}

							}
 ]
					}
,
					"saved_object_attributes" : 					{
						"globalpatchername" : "",
						"fontface" : 0,
						"fontsize" : 10.0,
						"default_fontface" : 0,
						"default_fontname" : "Arial",
						"default_fontsize" : 10.0,
						"fontname" : "Arial"
					}

				}

			}
, 			{
				"box" : 				{
					"maxclass" : "message",
					"text" : "67 219",
					"fontsize" : 10.0,
					"numinlets" : 2,
					"numoutlets" : 1,
					"patching_rect" : [ 96.0, 539.0, 50.0, 16.0 ],
					"outlettype" : [ "" ],
					"id" : "obj-28",
					"fontname" : "Arial"
				}

			}
, 			{
				"box" : 				{
					"maxclass" : "toggle",
					"numinlets" : 1,
					"numoutlets" : 1,
					"patching_rect" : [ 375.0, 318.0, 70.0, 70.0 ],
					"outlettype" : [ "int" ],
					"id" : "obj-26"
				}

			}
, 			{
				"box" : 				{
					"maxclass" : "newobj",
					"text" : "MRpointInCircle",
					"bgcolor" : [ 0.8, 0.8, 1.0, 1.0 ],
					"fontsize" : 13.0,
					"numinlets" : 6,
					"numoutlets" : 1,
					"patching_rect" : [ 375.0, 264.0, 110.0, 21.0 ],
					"outlettype" : [ "" ],
					"id" : "obj-11",
					"fontname" : "Arial"
				}

			}
, 			{
				"box" : 				{
					"maxclass" : "message",
					"text" : "idle 1",
					"fontsize" : 10.0,
					"numinlets" : 2,
					"numoutlets" : 1,
					"patching_rect" : [ 38.0, 218.0, 34.0, 16.0 ],
					"outlettype" : [ "" ],
					"id" : "obj-10",
					"fontname" : "Arial"
				}

			}
, 			{
				"box" : 				{
					"maxclass" : "newobj",
					"text" : "loadbang",
					"fontsize" : 10.0,
					"numinlets" : 1,
					"numoutlets" : 1,
					"patching_rect" : [ 78.0, 140.0, 52.0, 18.0 ],
					"outlettype" : [ "bang" ],
					"id" : "obj-7",
					"fontname" : "Arial"
				}

			}
, 			{
				"box" : 				{
					"maxclass" : "newobj",
					"text" : "t l clear",
					"fontsize" : 10.0,
					"numinlets" : 1,
					"numoutlets" : 2,
					"patching_rect" : [ 78.0, 198.0, 43.0, 18.0 ],
					"outlettype" : [ "", "clear" ],
					"id" : "obj-6",
					"fontname" : "Arial"
				}

			}
, 			{
				"box" : 				{
					"maxclass" : "message",
					"text" : "50 60 150 160",
					"fontsize" : 13.0,
					"numinlets" : 2,
					"numoutlets" : 1,
					"patching_rect" : [ 78.0, 170.0, 94.0, 19.0 ],
					"outlettype" : [ "" ],
					"id" : "obj-4",
					"fontname" : "Arial"
				}

			}
, 			{
				"box" : 				{
					"maxclass" : "newobj",
					"text" : "pak frameoval i i i i 0 0 255",
					"fontsize" : 10.0,
					"numinlets" : 8,
					"numoutlets" : 1,
					"patching_rect" : [ 191.0, 260.0, 129.0, 18.0 ],
					"outlettype" : [ "" ],
					"id" : "obj-2",
					"fontname" : "Arial"
				}

			}
, 			{
				"box" : 				{
					"maxclass" : "newobj",
					"text" : "pak framerect i i i i 0 255 0",
					"fontsize" : 10.0,
					"numinlets" : 8,
					"numoutlets" : 1,
					"patching_rect" : [ 62.0, 260.0, 128.0, 18.0 ],
					"outlettype" : [ "" ],
					"id" : "obj-25",
					"fontname" : "Arial"
				}

			}
, 			{
				"box" : 				{
					"maxclass" : "lcd",
					"idle" : 1,
					"numinlets" : 1,
					"numoutlets" : 4,
					"patching_rect" : [ 62.0, 287.0, 214.0, 222.0 ],
					"outlettype" : [ "list", "list", "int", "" ],
					"id" : "obj-24"
				}

			}
, 			{
				"box" : 				{
					"maxclass" : "comment",
					"varname" : "autohelp_top_title",
					"text" : "MRpointInCircle",
					"frgb" : [ 0.93, 0.93, 0.97, 1.0 ],
					"fontface" : 3,
					"fontsize" : 20.871338,
					"numinlets" : 1,
					"textcolor" : [ 0.93, 0.93, 0.97, 1.0 ],
					"numoutlets" : 0,
					"patching_rect" : [ 19.0, 16.0, 455.0, 30.0 ],
					"id" : "obj-5",
					"fontname" : "Arial"
				}

			}
, 			{
				"box" : 				{
					"maxclass" : "comment",
					"text" : "This abstraction will calculate if a given point falls on or in a given circle.",
					"fontsize" : 10.0,
					"numinlets" : 1,
					"numoutlets" : 0,
					"patching_rect" : [ 27.0, 61.0, 327.0, 18.0 ],
					"id" : "obj-42",
					"fontname" : "Arial"
				}

			}
, 			{
				"box" : 				{
					"maxclass" : "comment",
					"text" : "By Martin Ritter 2010",
					"fontsize" : 10.0,
					"numinlets" : 1,
					"numoutlets" : 0,
					"patching_rect" : [ 471.0, 590.0, 114.0, 18.0 ],
					"id" : "obj-55",
					"fontname" : "Arial Bold"
				}

			}
, 			{
				"box" : 				{
					"maxclass" : "comment",
					"text" : "www.martin-ritter.com",
					"fontsize" : 10.0,
					"numinlets" : 1,
					"numoutlets" : 0,
					"patching_rect" : [ 473.0, 604.0, 108.0, 18.0 ],
					"id" : "obj-57",
					"fontname" : "Arial"
				}

			}
, 			{
				"box" : 				{
					"maxclass" : "panel",
					"mode" : 1,
					"bgcolor" : [ 0.380392, 0.529412, 0.964706, 0.670588 ],
					"numinlets" : 1,
					"numoutlets" : 0,
					"patching_rect" : [ 459.0, 584.0, 135.0, 40.0 ],
					"grad1" : [ 0.686275, 0.752941, 1.0, 1.0 ],
					"id" : "obj-58"
				}

			}
, 			{
				"box" : 				{
					"maxclass" : "panel",
					"varname" : "autohelp_top_panel",
					"mode" : 1,
					"grad2" : [ 0.85, 0.85, 0.85, 1.0 ],
					"background" : 1,
					"numinlets" : 1,
					"numoutlets" : 0,
					"patching_rect" : [ 10.0, 5.0, 584.0, 52.0 ],
					"grad1" : [ 0.27, 0.35, 0.47, 1.0 ],
					"id" : "obj-9"
				}

			}
 ],
		"lines" : [ 			{
				"patchline" : 				{
					"source" : [ "obj-25", 0 ],
					"destination" : [ "obj-24", 0 ],
					"hidden" : 0,
					"midpoints" : [  ]
				}

			}
, 			{
				"patchline" : 				{
					"source" : [ "obj-4", 0 ],
					"destination" : [ "obj-6", 0 ],
					"hidden" : 0,
					"midpoints" : [  ]
				}

			}
, 			{
				"patchline" : 				{
					"source" : [ "obj-6", 0 ],
					"destination" : [ "obj-25", 1 ],
					"hidden" : 0,
					"midpoints" : [  ]
				}

			}
, 			{
				"patchline" : 				{
					"source" : [ "obj-6", 1 ],
					"destination" : [ "obj-24", 0 ],
					"hidden" : 0,
					"midpoints" : [ 111.5, 255.0, 55.0, 255.0, 55.0, 281.0, 71.5, 281.0 ]
				}

			}
, 			{
				"patchline" : 				{
					"source" : [ "obj-2", 0 ],
					"destination" : [ "obj-24", 0 ],
					"hidden" : 0,
					"midpoints" : [ 200.5, 280.0, 71.5, 280.0 ]
				}

			}
, 			{
				"patchline" : 				{
					"source" : [ "obj-7", 0 ],
					"destination" : [ "obj-4", 0 ],
					"hidden" : 0,
					"midpoints" : [  ]
				}

			}
, 			{
				"patchline" : 				{
					"source" : [ "obj-7", 0 ],
					"destination" : [ "obj-10", 0 ],
					"hidden" : 0,
					"midpoints" : [ 87.5, 166.0, 47.5, 166.0 ]
				}

			}
, 			{
				"patchline" : 				{
					"source" : [ "obj-10", 0 ],
					"destination" : [ "obj-24", 0 ],
					"hidden" : 0,
					"midpoints" : [ 47.5, 285.0, 71.5, 285.0 ]
				}

			}
, 			{
				"patchline" : 				{
					"source" : [ "obj-24", 1 ],
					"destination" : [ "obj-28", 1 ],
					"hidden" : 0,
					"midpoints" : [  ]
				}

			}
, 			{
				"patchline" : 				{
					"source" : [ "obj-24", 1 ],
					"destination" : [ "obj-11", 0 ],
					"hidden" : 0,
					"midpoints" : [ 136.5, 532.0, 356.0, 532.0, 356.0, 253.0, 384.5, 253.0 ]
				}

			}
, 			{
				"patchline" : 				{
					"source" : [ "obj-4", 0 ],
					"destination" : [ "obj-11", 2 ],
					"hidden" : 0,
					"midpoints" : [ 87.5, 193.0, 420.899994, 193.0 ]
				}

			}
, 			{
				"patchline" : 				{
					"source" : [ "obj-26", 0 ],
					"destination" : [ "obj-31", 0 ],
					"hidden" : 0,
					"midpoints" : [  ]
				}

			}
, 			{
				"patchline" : 				{
					"source" : [ "obj-6", 0 ],
					"destination" : [ "obj-32", 1 ],
					"hidden" : 0,
					"midpoints" : [ 87.5, 224.0, 244.5, 224.0 ]
				}

			}
, 			{
				"patchline" : 				{
					"source" : [ "obj-32", 0 ],
					"destination" : [ "obj-2", 1 ],
					"hidden" : 0,
					"midpoints" : [  ]
				}

			}
, 			{
				"patchline" : 				{
					"source" : [ "obj-31", 0 ],
					"destination" : [ "obj-34", 0 ],
					"hidden" : 0,
					"midpoints" : [  ]
				}

			}
, 			{
				"patchline" : 				{
					"source" : [ "obj-34", 1 ],
					"destination" : [ "obj-32", 0 ],
					"hidden" : 0,
					"midpoints" : [ 398.0, 436.0, 497.0, 436.0, 497.0, 217.0, 216.5, 217.0 ]
				}

			}
, 			{
				"patchline" : 				{
					"source" : [ "obj-34", 0 ],
					"destination" : [ "obj-4", 0 ],
					"hidden" : 0,
					"midpoints" : [ 384.5, 440.0, 502.0, 440.0, 502.0, 165.0, 87.5, 165.0 ]
				}

			}
, 			{
				"patchline" : 				{
					"source" : [ "obj-32", 1 ],
					"destination" : [ "obj-33", 1 ],
					"hidden" : 0,
					"midpoints" : [ 244.5, 253.0, 260.0, 253.0, 260.0, 225.0, 287.785706, 225.0 ]
				}

			}
, 			{
				"patchline" : 				{
					"source" : [ "obj-33", 0 ],
					"destination" : [ "obj-24", 0 ],
					"hidden" : 0,
					"midpoints" : [ 272.5, 283.0, 71.5, 283.0 ]
				}

			}
, 			{
				"patchline" : 				{
					"source" : [ "obj-11", 0 ],
					"destination" : [ "obj-35", 0 ],
					"hidden" : 0,
					"midpoints" : [  ]
				}

			}
, 			{
				"patchline" : 				{
					"source" : [ "obj-35", 0 ],
					"destination" : [ "obj-26", 0 ],
					"hidden" : 0,
					"midpoints" : [  ]
				}

			}
, 			{
				"patchline" : 				{
					"source" : [ "obj-24", 0 ],
					"destination" : [ "obj-11", 0 ],
					"hidden" : 0,
					"midpoints" : [ 71.5, 532.0, 356.0, 532.0, 356.0, 253.0, 384.5, 253.0 ]
				}

			}
 ]
	}

}
