{
	"patcher" : 	{
		"fileversion" : 1,
		"appversion" : 		{
			"major" : 6,
			"minor" : 0,
			"revision" : 8
		}
,
		"rect" : [ 968.0, 96.0, 520.0, 580.0 ],
		"bglocked" : 0,
		"openinpresentation" : 0,
		"default_fontsize" : 12.0,
		"default_fontface" : 0,
		"default_fontname" : "Arial",
		"gridonopen" : 0,
		"gridsize" : [ 15.0, 15.0 ],
		"gridsnaponopen" : 0,
		"statusbarvisible" : 2,
		"toolbarvisible" : 1,
		"boxanimatetime" : 200,
		"imprint" : 0,
		"enablehscroll" : 1,
		"enablevscroll" : 1,
		"devicewidth" : 0.0,
		"description" : "",
		"digest" : "",
		"tags" : "",
		"boxes" : [ 			{
				"box" : 				{
					"id" : "obj-4",
					"maxclass" : "jit.pwindow",
					"numinlets" : 1,
					"numoutlets" : 2,
					"outlettype" : [ "", "" ],
					"patching_rect" : [ 161.25, 226.0, 176.5, 146.0 ],
					"presentation_rect" : [ 157.0, 227.0, 0.0, 0.0 ]
				}

			}
, 			{
				"box" : 				{
					"id" : "obj-3",
					"maxclass" : "jit.pwindow",
					"numinlets" : 1,
					"numoutlets" : 2,
					"outlettype" : [ "", "" ],
					"patching_rect" : [ 335.0, 226.0, 176.5, 146.0 ]
				}

			}
, 			{
				"box" : 				{
					"fontface" : 3,
					"fontname" : "Arial",
					"fontsize" : 20.871338,
					"frgb" : 0.0,
					"id" : "obj-1",
					"maxclass" : "comment",
					"numinlets" : 1,
					"numoutlets" : 0,
					"patching_rect" : [ 17.25, 17.0, 155.5, 30.0 ],
					"text" : "MR.jit.delay",
					"textcolor" : [ 0.93, 0.93, 0.97, 1.0 ],
					"varname" : "autohelp_top_title"
				}

			}
, 			{
				"box" : 				{
					"fontname" : "Arial",
					"fontsize" : 12.0,
					"frgb" : 0.0,
					"id" : "obj-42",
					"maxclass" : "comment",
					"numinlets" : 1,
					"numoutlets" : 0,
					"patching_rect" : [ 25.25, 63.0, 353.0, 20.0 ],
					"text" : "Delays the incoming matrix by the given amount (in frames)..."
				}

			}
, 			{
				"box" : 				{
					"fontname" : "Arial",
					"fontsize" : 10.0,
					"id" : "obj-21",
					"maxclass" : "message",
					"numinlets" : 2,
					"numoutlets" : 1,
					"outlettype" : [ "" ],
					"patching_rect" : [ 128.25, 155.0, 34.0, 16.0 ],
					"text" : "close"
				}

			}
, 			{
				"box" : 				{
					"id" : "obj-12",
					"maxclass" : "toggle",
					"numinlets" : 1,
					"numoutlets" : 1,
					"outlettype" : [ "int" ],
					"parameter_enable" : 0,
					"patching_rect" : [ 35.25, 107.0, 20.0, 20.0 ]
				}

			}
, 			{
				"box" : 				{
					"fontname" : "Arial",
					"fontsize" : 10.0,
					"id" : "obj-10",
					"maxclass" : "newobj",
					"numinlets" : 2,
					"numoutlets" : 1,
					"outlettype" : [ "bang" ],
					"patching_rect" : [ 35.25, 144.0, 56.0, 18.0 ],
					"text" : "qmetro 33"
				}

			}
, 			{
				"box" : 				{
					"fontname" : "Arial",
					"fontsize" : 10.0,
					"id" : "obj-9",
					"maxclass" : "message",
					"numinlets" : 2,
					"numoutlets" : 1,
					"outlettype" : [ "" ],
					"patching_rect" : [ 91.25, 155.0, 33.0, 16.0 ],
					"text" : "open"
				}

			}
, 			{
				"box" : 				{
					"fontname" : "Arial",
					"fontsize" : 10.0,
					"id" : "obj-7",
					"maxclass" : "newobj",
					"numinlets" : 1,
					"numoutlets" : 2,
					"outlettype" : [ "jit_matrix", "" ],
					"patching_rect" : [ 35.25, 177.0, 52.0, 18.0 ],
					"text" : "jit.qt.grab"
				}

			}
, 			{
				"box" : 				{
					"args" : [ 0, 0, 0, 0, 0, 0, 0, 0 ],
					"id" : "obj-6",
					"maxclass" : "bpatcher",
					"name" : "MR.jit.delayBP.maxpat",
					"numinlets" : 2,
					"numoutlets" : 1,
					"outlettype" : [ "jit_matrix" ],
					"patching_rect" : [ 35.25, 226.0, 126.0, 182.0 ],
					"varname" : "MR.jit.absdiffBP"
				}

			}
, 			{
				"box" : 				{
					"args" : [ "MR.jit.blob", 2012, 1.1, 0, 0, 0, 0, 0 ],
					"id" : "obj-19",
					"maxclass" : "bpatcher",
					"name" : "MRabstractionPrintBP.maxpat",
					"numinlets" : 0,
					"numoutlets" : 0,
					"patching_rect" : [ 366.5, 527.0, 145.0, 45.0 ],
					"varname" : "MRabstractionPrintBP"
				}

			}
, 			{
				"box" : 				{
					"fontname" : "Arial",
					"fontsize" : 12.0,
					"frgb" : 0.0,
					"id" : "obj-16",
					"linecount" : 2,
					"maxclass" : "comment",
					"numinlets" : 1,
					"numoutlets" : 0,
					"patching_rect" : [ 39.75, 496.0, 273.0, 33.0 ],
					"text" : "output:\n[matrix] delayed matrix"
				}

			}
, 			{
				"box" : 				{
					"background" : 1,
					"grad1" : [ 0.27, 0.35, 0.47, 1.0 ],
					"grad2" : [ 0.85, 0.85, 0.85, 1.0 ],
					"id" : "obj-2",
					"maxclass" : "panel",
					"mode" : 1,
					"numinlets" : 1,
					"numoutlets" : 0,
					"patching_rect" : [ 8.25, 6.0, 503.25, 47.0 ],
					"varname" : "autohelp_top_panel"
				}

			}
 ],
		"lines" : [ 			{
				"patchline" : 				{
					"destination" : [ "obj-7", 0 ],
					"disabled" : 0,
					"hidden" : 0,
					"source" : [ "obj-10", 0 ]
				}

			}
, 			{
				"patchline" : 				{
					"destination" : [ "obj-10", 0 ],
					"disabled" : 0,
					"hidden" : 0,
					"source" : [ "obj-12", 0 ]
				}

			}
, 			{
				"patchline" : 				{
					"destination" : [ "obj-7", 0 ],
					"disabled" : 0,
					"hidden" : 0,
					"source" : [ "obj-21", 0 ]
				}

			}
, 			{
				"patchline" : 				{
					"destination" : [ "obj-3", 0 ],
					"disabled" : 0,
					"hidden" : 0,
					"midpoints" : [ 44.75, 408.0, 21.0, 408.0, 21.0, 219.0, 344.5, 219.0 ],
					"source" : [ "obj-6", 0 ]
				}

			}
, 			{
				"patchline" : 				{
					"destination" : [ "obj-4", 0 ],
					"disabled" : 0,
					"hidden" : 0,
					"midpoints" : [ 44.75, 210.0, 170.75, 210.0 ],
					"source" : [ "obj-7", 0 ]
				}

			}
, 			{
				"patchline" : 				{
					"destination" : [ "obj-6", 0 ],
					"disabled" : 0,
					"hidden" : 0,
					"source" : [ "obj-7", 0 ]
				}

			}
, 			{
				"patchline" : 				{
					"destination" : [ "obj-7", 0 ],
					"disabled" : 0,
					"hidden" : 0,
					"source" : [ "obj-9", 0 ]
				}

			}
 ],
		"parameters" : 		{
			"obj-6::obj-29::obj-15::obj-28" : [ "textbutton[1]", "textbutton", 0 ],
			"obj-6::obj-19::obj-12::obj-28" : [ "textbutton[2]", "textbutton", 0 ],
			"obj-19::obj-28" : [ "textbutton[4]", "textbutton", 0 ],
			"obj-6::obj-35::obj-28" : [ "textbutton[3]", "textbutton", 0 ]
		}
,
		"dependency_cache" : [ 			{
				"name" : "MRabstractionPrintBP.maxpat",
				"bootpath" : "/Users/MartinRitter/Documents/Music/Max6/MyToolbox/MRabstractionPrint",
				"patcherrelativepath" : "../../../MRabstractionPrint",
				"type" : "JSON",
				"implicit" : 1
			}
, 			{
				"name" : "MR.jit.delayBP.maxpat",
				"bootpath" : "/Users/MartinRitter/Documents/Music/Max6/MyToolbox/MR.jit Abstractions/inProgress/MR.jit.delay",
				"patcherrelativepath" : "",
				"type" : "JSON",
				"implicit" : 1
			}
, 			{
				"name" : "MRr_.maxpat",
				"bootpath" : "/Users/MartinRitter/Documents/Music/Max5/myToolbox/MRr",
				"patcherrelativepath" : "../../../../myToolbox/MRr",
				"type" : "JSON",
				"implicit" : 1
			}
, 			{
				"name" : "multiName_.maxpat",
				"bootpath" : "/Users/MartinRitter/Documents/Music/Max5/myToolbox/MRr/lib",
				"patcherrelativepath" : "../../../../myToolbox/MRr/lib",
				"type" : "JSON",
				"implicit" : 1
			}
, 			{
				"name" : "nTbp_.maxpat",
				"bootpath" : "/Users/MartinRitter/Documents/Music/Max5/myToolbox/MRr",
				"patcherrelativepath" : "../../../../myToolbox/MRr",
				"type" : "JSON",
				"implicit" : 1
			}
, 			{
				"name" : "MRs_.maxpat",
				"bootpath" : "/Users/MartinRitter/Documents/Music/Max5/myToolbox/MRr",
				"patcherrelativepath" : "../../../../myToolbox/MRr",
				"type" : "JSON",
				"implicit" : 1
			}
, 			{
				"name" : "MR.jit.matrixSize.maxpat",
				"bootpath" : "/Users/MartinRitter/Documents/Music/Max6/MyToolbox/MR.jit Abstractions/MR.jit.matrixSize",
				"patcherrelativepath" : "../../MR.jit.matrixSize",
				"type" : "JSON",
				"implicit" : 1
			}
 ]
	}

}
