{
	"patcher" : 	{
		"fileversion" : 1,
		"appversion" : 		{
			"major" : 6,
			"minor" : 0,
			"revision" : 5
		}
,
		"rect" : [ 25.0, 69.0, 476.0, 477.0 ],
		"bglocked" : 0,
		"openinpresentation" : 0,
		"default_fontsize" : 12.0,
		"default_fontface" : 0,
		"default_fontname" : "Arial",
		"gridonopen" : 0,
		"gridsize" : [ 15.0, 15.0 ],
		"gridsnaponopen" : 0,
		"statusbarvisible" : 2,
		"toolbarvisible" : 1,
		"boxanimatetime" : 200,
		"imprint" : 0,
		"enablehscroll" : 1,
		"enablevscroll" : 1,
		"devicewidth" : 0.0,
		"description" : "",
		"digest" : "",
		"tags" : "",
		"boxes" : [ 			{
				"box" : 				{
					"fontface" : 3,
					"fontname" : "Arial",
					"fontsize" : 20.871338,
					"frgb" : [ 0.93, 0.93, 0.97, 1.0 ],
					"id" : "obj-11",
					"maxclass" : "comment",
					"numinlets" : 1,
					"numoutlets" : 0,
					"patching_rect" : [ 12.5, 16.0, 221.5, 30.0 ],
					"text" : "MR.jit.CBIntercept",
					"textcolor" : [ 0.93, 0.93, 0.97, 1.0 ],
					"varname" : "autohelp_top_title"
				}

			}
, 			{
				"box" : 				{
					"fontname" : "Arial",
					"fontsize" : 12.0,
					"id" : "obj-42",
					"linecount" : 2,
					"maxclass" : "comment",
					"numinlets" : 1,
					"numoutlets" : 0,
					"patching_rect" : [ 24.5, 63.0, 390.0, 34.0 ],
					"text" : "For some reason jit.cellblock sends out \"0 0\" on load... this intercepts it and only lets through messages after the initial load"
				}

			}
, 			{
				"box" : 				{
					"fontname" : "Arial",
					"fontsize" : 12.0,
					"id" : "obj-6",
					"maxclass" : "newobj",
					"numinlets" : 1,
					"numoutlets" : 0,
					"patching_rect" : [ 257.0, 384.0, 147.0, 20.0 ],
					"text" : "print YES!!!!!!!! @popup 1"
				}

			}
, 			{
				"box" : 				{
					"fontname" : "Arial",
					"fontsize" : 12.0,
					"id" : "obj-4",
					"maxclass" : "newobj",
					"numinlets" : 1,
					"numoutlets" : 1,
					"outlettype" : [ "" ],
					"patching_rect" : [ 257.0, 348.0, 108.0, 20.0 ],
					"text" : "MR.jit.CBIntercept"
				}

			}
, 			{
				"box" : 				{
					"fontname" : "Arial",
					"fontsize" : 12.0,
					"id" : "obj-5",
					"maxclass" : "jit.cellblock",
					"numinlets" : 2,
					"numoutlets" : 4,
					"outlettype" : [ "list", "", "", "" ],
					"patching_rect" : [ 257.0, 121.0, 200.0, 200.0 ]
				}

			}
, 			{
				"box" : 				{
					"fontname" : "Arial",
					"fontsize" : 12.0,
					"id" : "obj-3",
					"maxclass" : "newobj",
					"numinlets" : 1,
					"numoutlets" : 0,
					"patching_rect" : [ 22.0, 348.0, 141.0, 20.0 ],
					"text" : "print NO!!!!!!!! @popup 1"
				}

			}
, 			{
				"box" : 				{
					"fontname" : "Arial",
					"fontsize" : 12.0,
					"id" : "obj-2",
					"maxclass" : "jit.cellblock",
					"numinlets" : 2,
					"numoutlets" : 4,
					"outlettype" : [ "list", "", "", "" ],
					"patching_rect" : [ 22.0, 121.0, 200.0, 200.0 ]
				}

			}
, 			{
				"box" : 				{
					"args" : [ "MR.jit.CBIntercept", 2012, 1, 0, 0, 0, 0, 0 ],
					"id" : "obj-14",
					"maxclass" : "bpatcher",
					"name" : "MRabstractionPrintBP.maxpat",
					"numinlets" : 0,
					"numoutlets" : 0,
					"patching_rect" : [ 324.0, 427.0, 145.0, 45.0 ],
					"varname" : "MRabstractionPrintBP"
				}

			}
, 			{
				"box" : 				{
					"background" : 1,
					"grad1" : [ 0.27, 0.35, 0.47, 1.0 ],
					"grad2" : [ 0.85, 0.85, 0.85, 1.0 ],
					"id" : "obj-9",
					"ignoreclick" : 1,
					"maxclass" : "panel",
					"mode" : 1,
					"numinlets" : 1,
					"numoutlets" : 0,
					"patching_rect" : [ 3.5, 5.0, 465.5, 50.0 ],
					"varname" : "autohelp_top_panel"
				}

			}
 ],
		"lines" : [ 			{
				"patchline" : 				{
					"destination" : [ "obj-3", 0 ],
					"disabled" : 0,
					"hidden" : 0,
					"source" : [ "obj-2", 0 ]
				}

			}
, 			{
				"patchline" : 				{
					"destination" : [ "obj-6", 0 ],
					"disabled" : 0,
					"hidden" : 0,
					"source" : [ "obj-4", 0 ]
				}

			}
, 			{
				"patchline" : 				{
					"destination" : [ "obj-4", 0 ],
					"disabled" : 0,
					"hidden" : 0,
					"source" : [ "obj-5", 0 ]
				}

			}
 ],
		"parameters" : 		{
			"obj-4::obj-4::obj-28" : [ "textbutton[2]", "textbutton", 0 ],
			"obj-14::obj-28" : [ "textbutton[1]", "textbutton", 0 ]
		}
,
		"dependency_cache" : [ 			{
				"name" : "MRabstractionPrintBP.maxpat",
				"bootpath" : "/Users/MartinRitter/Documents/Music/Max6/MyToolbox/MRabstractionPrint",
				"patcherrelativepath" : "../MRabstractionPrint",
				"type" : "JSON",
				"implicit" : 1
			}
, 			{
				"name" : "MR.jit.CBIntercept.maxpat",
				"bootpath" : "/Users/MartinRitter/Documents/Music/Max6/MyToolbox/MR.jit.CBIntercept",
				"patcherrelativepath" : "",
				"type" : "JSON",
				"implicit" : 1
			}
 ]
	}

}
