{
	"patcher" : 	{
		"fileversion" : 1,
		"rect" : [ 25.0, 69.0, 1155.0, 822.0 ],
		"bglocked" : 0,
		"defrect" : [ 25.0, 69.0, 1155.0, 822.0 ],
		"openrect" : [ 0.0, 0.0, 0.0, 0.0 ],
		"openinpresentation" : 0,
		"default_fontsize" : 10.0,
		"default_fontface" : 0,
		"default_fontname" : "Arial",
		"gridonopen" : 0,
		"gridsize" : [ 15.0, 15.0 ],
		"gridsnaponopen" : 0,
		"toolbarvisible" : 1,
		"boxanimatetime" : 200,
		"imprint" : 0,
		"enablehscroll" : 1,
		"enablevscroll" : 1,
		"devicewidth" : 0.0,
		"boxes" : [ 			{
				"box" : 				{
					"maxclass" : "fpic",
					"numinlets" : 1,
					"numoutlets" : 0,
					"patching_rect" : [ 851.0, 191.0, 153.0, 40.0 ],
					"pic" : "Macintosh HD:/Users/MartinRitter/Desktop/meenakshi1.2.gif",
					"id" : "obj-14",
					"embed" : 1,
					"data" : [ 1032, "png", "IBkSG0fBZn....PCIgDQRA...XI...fHHX....PuZARf....DLmPIQEBHf.B7g.YHB..C7aRDEDU3wY6askcEBBCL1S2Qg0TXMEVSvZh9iwF4JnWUvmyOsG8JAgvPxPDfGB7dejHJRDEA..hnHhXrl1C.HxLG8deDQLxLWM6c1P2Q2AZIXliVqEXlGtl0Zq1X.QTLDB.QD...HhfwXdTi4OBnYQZg85sSr2tOJ76Q2ANBfHt3eq26iNmK68cN2rLPOQVpeN5NPKQHD.DQHDBMyd.LvT9nvigwx68wbNVxD+TLKqksQauotmy4.DwpFi2QhaOiEybDQLFBAvZschiklEwZsPos69Fny7Trmy4FYOwgy4bvcMSwauiEh3HlAq01IYoo+M6s8DlNhnOxFT5OKwtdu+RHSAy7kne1TnYYZIlahPzdqU8msBhnWmKMNBGKQ3zR+FDwKmTERe9GYUgVYXQo383kR29R6wLeoVIt2fYN5bNv4bPtwg9wrrIOnGCqgx951WhScIOmD63OFiYHli8J.VMzsujMVKS4eIPhKp01T+2TjKiR8yKNlh596crh5jKRiKszyEBg+ORG43Nf9i4o2Kc2D2SF.BgvP6+MoZuFgJWBia56WK15ImMStdjYtnbDBKhLlVADIhVjHvB7dezZs+qik3sqmvmxopzVXDQYcDIhfdG2AMd1KTRqn4P56SMXsWpMSWrMGCzbL+a8TCVCCnwX5PDi+ldAQim8dqJo8kUm0dqm6vwnLmSirPsFv68Qiwr54oQJuKq.DwDm5AJ4kujU6So3rNny0nD8YJds8ByMgJwUUZLeKKtj1WerTFioSHcj6O015i1JTdYp4VAJUnG0Qj+2ZsCu.oO6cfA5aPts4jEgp3ei6U7v5cpTBKOZNQmTwTLlx8+P48Ze9ULyiF.LFSmwX5jNzSyAJGzrEZjNNI0V1dMtoaecF8BrV6v70TYJNY1rKQztsfR5rHZkb0DDrl3rpj8TZSpu9G+3ZNotj1+nNZkyLHhNsK1REUeTeUlLqUmet1W6vclGDORblFSjc0RYmRIN5JUKR6Alq8Sqao2XrN2Pm7..O74KozSzwqT63I01UamVX2WzPj94dgH1j34NJ69hFgzuPmVU.chcEVpqRg6sU7Xp4c8QVAv7UOPJJcLWkzeaq18phGiiE.epl82D3YHDxdpDKwQYs18EW.Hhv15.n6iop418EMBR7NoAOKUfITouR5or6Uqd1ewLXpiMRXR9lRvcq1U4L+hqNliknVrH4xD7NeRC29uqvTTp1sych8aEkpus6Jt8YEtziLRWSS4pIrsX2mFdDLVRp9kbpl6ywZusqtRLui3O7ZKG2iTATxH.....jTQNQjqBAlf" ]
				}

			}
, 			{
				"box" : 				{
					"maxclass" : "fpic",
					"numinlets" : 1,
					"numoutlets" : 0,
					"patching_rect" : [ 842.0, 82.0, 153.0, 40.0 ],
					"pic" : "Macintosh HD:/Users/MartinRitter/Desktop/meenakshi1.1.gif",
					"id" : "obj-12",
					"embed" : 1,
					"data" : [ 999, "png", "IBkSG0fBZn....PCIgDQRA...XI...vHHX....fcFLOI....DLmPIQEBHf.B7g.YHB..C3YRDEDU3wY6atlrqBBC.N8NcGEWSw0Drlf0Dm+XrQJOzdITqx2Lcli1SIHIFRB..WbbNWvXLADwfy4B..fwXB..qWqorIhdS1HhpJ2y.O+1c.sYZZ5A..fHFrVKr72.hH38d0ksy4BSSSqxBQTUYNnyPDE..Bxq01ikTVRuTKdLuzb48XwPDAVqEV7f7.Qb0a1dvXLgRd3rVa11R5cz4bEamqB2FCqEinf26gd4ohgMrX4NlN7hAhXfHJDOUDGjsxSQkTF2goEu7vwYE6whHJvemVJ5TxlyNUC4MniDGDMCqrEFXpH6Ts8dJ8.WxDM5WsBiwr4kl+8M6L8FDQvXLuceYP7DQpI6RA3WBq0d5iKa446a2M5ONmqX4Ep88ZI6Zdr5PreMCiwr0qL6pMd9+VMPysub.J9ZsfkSomEd.I03vmhLgfRsWICKmyUrJ8xoHY40xWNhay8nyPD29+fHt4gfyfpUcx3kQItfkZwdLT3XuZ8ybMEMu7N4TV0h4aosWeosTa8oHyjdOwf91RVwcRdfPi.Fiev2qRT5wK0mV1GOSrSC8MqEYqgcHr2wY1vZs.oKUidspvduOY.i0pb777bwJPyA3cjJP689hAvxUSWdueYCNdLLmNPBQD389hqhPowh8tBDkzqw3892q7tTYmRfrRNGoTxLRCq8LnI+ckxVKk7lmmez6Jr2BNxxLA.TcgzcNWXddN62u2rfKoWkv5zmw2zZsr6rj+vZVtSSSUEJ+FjriVpi+oFyGUIc1n1Kd75WVx3p1XPIiN4rJojQpw8jNL34S0pHg.7JIg3LPuC6QoiRoB5FkAankkKQ19.7JVOY724h+qjtT0.hS0gpkV8ckTJI1PRNFFmQeCn5FiLWFhIuOW2hF1AeibofOLrRSpwqTW255WUSloLfx5fPypOWq8GFVooGur+IjxvRtJAOiUzsNfWsa+qN71aFQLbjT96MbBeq5W1xSy0IqVA7hOrCCN+z5UoXvfARjdEYun8p57xr65sr+VbZmyVCVRKes.dG8.U7ovGALhntK6AcfbaM4dfB0Z5Tys4T5H4S7T7+b7u.X6Q.6NvsZqIyzaOV2kyR3sDdc0xUVCMKNrbi3kRtZHyAJS7VSNdAUAXyh81rr0jaNQgr1b8Udw2u7SExa2FNtJd+GEexb7d+CdSyoorkaJuy9IuYPi3abhXFdrt3rD+0g1BtCxyvvBdk01u51YdvIEtvo8tHl6YA5+U4O73dbv6cfJuq.....jTQNQjqBAlf" ]
				}

			}
, 			{
				"box" : 				{
					"maxclass" : "comment",
					"text" : "First write the equation of the line through (x1,y1) and (x2,y2).\n\n\n\nThe line through (x3,y3) and perpenducular to the above line is\n\n\n\nThe point you want is the point of intersection of these two lines.",
					"linecount" : 12,
					"fontsize" : 18.0,
					"numinlets" : 1,
					"numoutlets" : 0,
					"patching_rect" : [ 791.0, 27.0, 327.0, 255.0 ],
					"id" : "obj-4",
					"fontname" : "Arial"
				}

			}
, 			{
				"box" : 				{
					"maxclass" : "message",
					"text" : "idle 1",
					"fontsize" : 10.0,
					"numinlets" : 2,
					"numoutlets" : 1,
					"patching_rect" : [ 59.0, 299.0, 34.0, 16.0 ],
					"outlettype" : [ "" ],
					"id" : "obj-16",
					"fontname" : "Arial"
				}

			}
, 			{
				"box" : 				{
					"maxclass" : "newobj",
					"text" : "vexpr $i1 + 15 @scalarmode 1",
					"fontsize" : 10.0,
					"numinlets" : 1,
					"numoutlets" : 1,
					"patching_rect" : [ 116.0, 175.0, 147.0, 18.0 ],
					"outlettype" : [ "" ],
					"id" : "obj-9",
					"fontname" : "Arial"
				}

			}
, 			{
				"box" : 				{
					"maxclass" : "newobj",
					"text" : "p randomOnOff",
					"fontsize" : 10.0,
					"numinlets" : 1,
					"numoutlets" : 4,
					"patching_rect" : [ 116.0, 85.5, 169.0, 18.0 ],
					"outlettype" : [ "", "", "", "" ],
					"id" : "obj-13",
					"fontname" : "Arial",
					"patcher" : 					{
						"fileversion" : 1,
						"rect" : [ 619.0, 382.0, 307.0, 306.0 ],
						"bglocked" : 0,
						"defrect" : [ 619.0, 382.0, 307.0, 306.0 ],
						"openrect" : [ 0.0, 0.0, 0.0, 0.0 ],
						"openinpresentation" : 0,
						"default_fontsize" : 10.0,
						"default_fontface" : 0,
						"default_fontname" : "Arial",
						"gridonopen" : 0,
						"gridsize" : [ 15.0, 15.0 ],
						"gridsnaponopen" : 0,
						"toolbarvisible" : 1,
						"boxanimatetime" : 200,
						"imprint" : 0,
						"enablehscroll" : 1,
						"enablevscroll" : 1,
						"devicewidth" : 0.0,
						"boxes" : [ 							{
								"box" : 								{
									"maxclass" : "message",
									"text" : "$1 1000",
									"fontsize" : 10.0,
									"numinlets" : 2,
									"numoutlets" : 1,
									"patching_rect" : [ 213.0, 154.5, 47.0, 16.0 ],
									"outlettype" : [ "" ],
									"id" : "obj-32",
									"fontname" : "Arial"
								}

							}
, 							{
								"box" : 								{
									"maxclass" : "newobj",
									"text" : "line",
									"fontsize" : 10.0,
									"numinlets" : 3,
									"numoutlets" : 2,
									"patching_rect" : [ 213.0, 177.5, 46.0, 18.0 ],
									"outlettype" : [ "", "" ],
									"id" : "obj-33",
									"fontname" : "Arial"
								}

							}
, 							{
								"box" : 								{
									"maxclass" : "newobj",
									"text" : "random 200",
									"fontsize" : 10.0,
									"numinlets" : 2,
									"numoutlets" : 1,
									"patching_rect" : [ 213.0, 127.5, 64.0, 18.0 ],
									"outlettype" : [ "int" ],
									"id" : "obj-34",
									"fontname" : "Arial"
								}

							}
, 							{
								"box" : 								{
									"maxclass" : "message",
									"text" : "$1 1000",
									"fontsize" : 10.0,
									"numinlets" : 2,
									"numoutlets" : 1,
									"patching_rect" : [ 148.0, 154.5, 47.0, 16.0 ],
									"outlettype" : [ "" ],
									"id" : "obj-29",
									"fontname" : "Arial"
								}

							}
, 							{
								"box" : 								{
									"maxclass" : "newobj",
									"text" : "line",
									"fontsize" : 10.0,
									"numinlets" : 3,
									"numoutlets" : 2,
									"patching_rect" : [ 148.0, 177.5, 46.0, 18.0 ],
									"outlettype" : [ "", "" ],
									"id" : "obj-30",
									"fontname" : "Arial"
								}

							}
, 							{
								"box" : 								{
									"maxclass" : "newobj",
									"text" : "random 200",
									"fontsize" : 10.0,
									"numinlets" : 2,
									"numoutlets" : 1,
									"patching_rect" : [ 148.0, 127.5, 64.0, 18.0 ],
									"outlettype" : [ "int" ],
									"id" : "obj-31",
									"fontname" : "Arial"
								}

							}
, 							{
								"box" : 								{
									"maxclass" : "message",
									"text" : "$1 1000",
									"fontsize" : 10.0,
									"numinlets" : 2,
									"numoutlets" : 1,
									"patching_rect" : [ 83.0, 154.5, 47.0, 16.0 ],
									"outlettype" : [ "" ],
									"id" : "obj-26",
									"fontname" : "Arial"
								}

							}
, 							{
								"box" : 								{
									"maxclass" : "newobj",
									"text" : "line",
									"fontsize" : 10.0,
									"numinlets" : 3,
									"numoutlets" : 2,
									"patching_rect" : [ 83.0, 177.5, 46.0, 18.0 ],
									"outlettype" : [ "", "" ],
									"id" : "obj-27",
									"fontname" : "Arial"
								}

							}
, 							{
								"box" : 								{
									"maxclass" : "newobj",
									"text" : "random 200",
									"fontsize" : 10.0,
									"numinlets" : 2,
									"numoutlets" : 1,
									"patching_rect" : [ 83.0, 127.5, 64.0, 18.0 ],
									"outlettype" : [ "int" ],
									"id" : "obj-28",
									"fontname" : "Arial"
								}

							}
, 							{
								"box" : 								{
									"maxclass" : "newobj",
									"text" : "metro 1000",
									"fontsize" : 10.0,
									"numinlets" : 2,
									"numoutlets" : 1,
									"patching_rect" : [ 18.0, 86.5, 61.0, 18.0 ],
									"outlettype" : [ "bang" ],
									"id" : "obj-23",
									"fontname" : "Arial"
								}

							}
, 							{
								"box" : 								{
									"maxclass" : "message",
									"text" : "$1 1000",
									"fontsize" : 10.0,
									"numinlets" : 2,
									"numoutlets" : 1,
									"patching_rect" : [ 18.0, 154.5, 47.0, 16.0 ],
									"outlettype" : [ "" ],
									"id" : "obj-22",
									"fontname" : "Arial"
								}

							}
, 							{
								"box" : 								{
									"maxclass" : "newobj",
									"text" : "line",
									"fontsize" : 10.0,
									"numinlets" : 3,
									"numoutlets" : 2,
									"patching_rect" : [ 18.0, 177.5, 46.0, 18.0 ],
									"outlettype" : [ "", "" ],
									"id" : "obj-20",
									"fontname" : "Arial"
								}

							}
, 							{
								"box" : 								{
									"maxclass" : "newobj",
									"text" : "random 200",
									"fontsize" : 10.0,
									"numinlets" : 2,
									"numoutlets" : 1,
									"patching_rect" : [ 18.0, 127.5, 64.0, 18.0 ],
									"outlettype" : [ "int" ],
									"id" : "obj-19",
									"fontname" : "Arial"
								}

							}
, 							{
								"box" : 								{
									"maxclass" : "inlet",
									"numinlets" : 0,
									"numoutlets" : 1,
									"patching_rect" : [ 18.0, 23.0, 25.0, 25.0 ],
									"outlettype" : [ "int" ],
									"id" : "obj-35",
									"comment" : ""
								}

							}
, 							{
								"box" : 								{
									"maxclass" : "outlet",
									"numinlets" : 1,
									"numoutlets" : 0,
									"patching_rect" : [ 18.0, 259.5, 25.0, 25.0 ],
									"id" : "obj-36",
									"comment" : ""
								}

							}
, 							{
								"box" : 								{
									"maxclass" : "outlet",
									"numinlets" : 1,
									"numoutlets" : 0,
									"patching_rect" : [ 83.0, 259.5, 25.0, 25.0 ],
									"id" : "obj-37",
									"comment" : ""
								}

							}
, 							{
								"box" : 								{
									"maxclass" : "outlet",
									"numinlets" : 1,
									"numoutlets" : 0,
									"patching_rect" : [ 148.0, 259.5, 25.0, 25.0 ],
									"id" : "obj-38",
									"comment" : ""
								}

							}
, 							{
								"box" : 								{
									"maxclass" : "outlet",
									"numinlets" : 1,
									"numoutlets" : 0,
									"patching_rect" : [ 213.0, 259.5, 25.0, 25.0 ],
									"id" : "obj-39",
									"comment" : ""
								}

							}
 ],
						"lines" : [ 							{
								"patchline" : 								{
									"source" : [ "obj-33", 0 ],
									"destination" : [ "obj-39", 0 ],
									"hidden" : 0,
									"midpoints" : [  ]
								}

							}
, 							{
								"patchline" : 								{
									"source" : [ "obj-30", 0 ],
									"destination" : [ "obj-38", 0 ],
									"hidden" : 0,
									"midpoints" : [  ]
								}

							}
, 							{
								"patchline" : 								{
									"source" : [ "obj-27", 0 ],
									"destination" : [ "obj-37", 0 ],
									"hidden" : 0,
									"midpoints" : [  ]
								}

							}
, 							{
								"patchline" : 								{
									"source" : [ "obj-20", 0 ],
									"destination" : [ "obj-36", 0 ],
									"hidden" : 0,
									"midpoints" : [  ]
								}

							}
, 							{
								"patchline" : 								{
									"source" : [ "obj-35", 0 ],
									"destination" : [ "obj-23", 0 ],
									"hidden" : 0,
									"midpoints" : [  ]
								}

							}
, 							{
								"patchline" : 								{
									"source" : [ "obj-34", 0 ],
									"destination" : [ "obj-32", 0 ],
									"hidden" : 0,
									"midpoints" : [  ]
								}

							}
, 							{
								"patchline" : 								{
									"source" : [ "obj-32", 0 ],
									"destination" : [ "obj-33", 0 ],
									"hidden" : 0,
									"midpoints" : [  ]
								}

							}
, 							{
								"patchline" : 								{
									"source" : [ "obj-29", 0 ],
									"destination" : [ "obj-30", 0 ],
									"hidden" : 0,
									"midpoints" : [  ]
								}

							}
, 							{
								"patchline" : 								{
									"source" : [ "obj-31", 0 ],
									"destination" : [ "obj-29", 0 ],
									"hidden" : 0,
									"midpoints" : [  ]
								}

							}
, 							{
								"patchline" : 								{
									"source" : [ "obj-28", 0 ],
									"destination" : [ "obj-26", 0 ],
									"hidden" : 0,
									"midpoints" : [  ]
								}

							}
, 							{
								"patchline" : 								{
									"source" : [ "obj-26", 0 ],
									"destination" : [ "obj-27", 0 ],
									"hidden" : 0,
									"midpoints" : [  ]
								}

							}
, 							{
								"patchline" : 								{
									"source" : [ "obj-23", 0 ],
									"destination" : [ "obj-19", 0 ],
									"hidden" : 0,
									"midpoints" : [  ]
								}

							}
, 							{
								"patchline" : 								{
									"source" : [ "obj-22", 0 ],
									"destination" : [ "obj-20", 0 ],
									"hidden" : 0,
									"midpoints" : [  ]
								}

							}
, 							{
								"patchline" : 								{
									"source" : [ "obj-19", 0 ],
									"destination" : [ "obj-22", 0 ],
									"hidden" : 0,
									"midpoints" : [  ]
								}

							}
, 							{
								"patchline" : 								{
									"source" : [ "obj-23", 0 ],
									"destination" : [ "obj-28", 0 ],
									"hidden" : 0,
									"midpoints" : [ 27.5, 116.0, 92.5, 116.0 ]
								}

							}
, 							{
								"patchline" : 								{
									"source" : [ "obj-23", 0 ],
									"destination" : [ "obj-31", 0 ],
									"hidden" : 0,
									"midpoints" : [ 27.5, 116.0, 157.5, 116.0 ]
								}

							}
, 							{
								"patchline" : 								{
									"source" : [ "obj-23", 0 ],
									"destination" : [ "obj-34", 0 ],
									"hidden" : 0,
									"midpoints" : [ 27.5, 116.0, 222.5, 116.0 ]
								}

							}
 ]
					}
,
					"saved_object_attributes" : 					{
						"globalpatchername" : "",
						"fontface" : 0,
						"fontsize" : 10.0,
						"default_fontface" : 0,
						"default_fontname" : "Arial",
						"default_fontsize" : 10.0,
						"fontname" : "Arial"
					}

				}

			}
, 			{
				"box" : 				{
					"maxclass" : "toggle",
					"numinlets" : 1,
					"numoutlets" : 1,
					"patching_rect" : [ 116.0, 59.0, 23.0, 23.0 ],
					"outlettype" : [ "int" ],
					"id" : "obj-5"
				}

			}
, 			{
				"box" : 				{
					"maxclass" : "newobj",
					"text" : "t l clear",
					"fontsize" : 10.0,
					"numinlets" : 1,
					"numoutlets" : 2,
					"patching_rect" : [ 99.0, 279.0, 43.0, 18.0 ],
					"outlettype" : [ "", "clear" ],
					"id" : "obj-8",
					"fontname" : "Arial"
				}

			}
, 			{
				"box" : 				{
					"maxclass" : "newobj",
					"text" : "pak i i i i",
					"fontsize" : 12.0,
					"numinlets" : 4,
					"numoutlets" : 1,
					"patching_rect" : [ 116.0, 140.0, 168.5, 20.0 ],
					"outlettype" : [ "" ],
					"id" : "obj-7",
					"fontname" : "Arial"
				}

			}
, 			{
				"box" : 				{
					"maxclass" : "number",
					"fontsize" : 12.0,
					"numinlets" : 1,
					"numoutlets" : 2,
					"patching_rect" : [ 216.0, 110.0, 50.0, 20.0 ],
					"outlettype" : [ "int", "bang" ],
					"id" : "obj-47",
					"fontname" : "Arial"
				}

			}
, 			{
				"box" : 				{
					"maxclass" : "number",
					"fontsize" : 12.0,
					"numinlets" : 1,
					"numoutlets" : 2,
					"patching_rect" : [ 166.0, 110.0, 50.0, 20.0 ],
					"outlettype" : [ "int", "bang" ],
					"id" : "obj-41",
					"fontname" : "Arial"
				}

			}
, 			{
				"box" : 				{
					"maxclass" : "number",
					"fontsize" : 12.0,
					"numinlets" : 1,
					"numoutlets" : 2,
					"patching_rect" : [ 116.0, 110.0, 50.0, 20.0 ],
					"outlettype" : [ "int", "bang" ],
					"id" : "obj-40",
					"fontname" : "Arial"
				}

			}
, 			{
				"box" : 				{
					"maxclass" : "newobj",
					"text" : "pak linesegment i i i i 0 0 255",
					"fontsize" : 10.0,
					"numinlets" : 8,
					"numoutlets" : 1,
					"patching_rect" : [ 99.0, 252.0, 139.0, 18.0 ],
					"outlettype" : [ "" ],
					"id" : "obj-6",
					"fontname" : "Arial"
				}

			}
, 			{
				"box" : 				{
					"maxclass" : "newobj",
					"text" : "MRlineBT",
					"bgcolor" : [ 0.8, 0.8, 1.0, 1.0 ],
					"fontsize" : 12.0,
					"numinlets" : 4,
					"numoutlets" : 1,
					"patching_rect" : [ 116.0, 214.0, 128.0, 20.0 ],
					"outlettype" : [ "" ],
					"id" : "obj-3",
					"fontname" : "Arial"
				}

			}
, 			{
				"box" : 				{
					"maxclass" : "lcd",
					"idle" : 1,
					"numinlets" : 1,
					"numoutlets" : 4,
					"patching_rect" : [ 98.0, 309.0, 230.0, 229.0 ],
					"outlettype" : [ "list", "list", "int", "" ],
					"id" : "obj-1"
				}

			}
 ],
		"lines" : [ 			{
				"patchline" : 				{
					"source" : [ "obj-3", 0 ],
					"destination" : [ "obj-6", 1 ],
					"hidden" : 0,
					"midpoints" : [  ]
				}

			}
, 			{
				"patchline" : 				{
					"source" : [ "obj-47", 0 ],
					"destination" : [ "obj-7", 2 ],
					"hidden" : 0,
					"midpoints" : [  ]
				}

			}
, 			{
				"patchline" : 				{
					"source" : [ "obj-41", 0 ],
					"destination" : [ "obj-7", 1 ],
					"hidden" : 0,
					"midpoints" : [  ]
				}

			}
, 			{
				"patchline" : 				{
					"source" : [ "obj-40", 0 ],
					"destination" : [ "obj-7", 0 ],
					"hidden" : 0,
					"midpoints" : [  ]
				}

			}
, 			{
				"patchline" : 				{
					"source" : [ "obj-6", 0 ],
					"destination" : [ "obj-8", 0 ],
					"hidden" : 0,
					"midpoints" : [  ]
				}

			}
, 			{
				"patchline" : 				{
					"source" : [ "obj-5", 0 ],
					"destination" : [ "obj-13", 0 ],
					"hidden" : 0,
					"midpoints" : [  ]
				}

			}
, 			{
				"patchline" : 				{
					"source" : [ "obj-13", 0 ],
					"destination" : [ "obj-40", 0 ],
					"hidden" : 0,
					"midpoints" : [  ]
				}

			}
, 			{
				"patchline" : 				{
					"source" : [ "obj-13", 1 ],
					"destination" : [ "obj-41", 0 ],
					"hidden" : 0,
					"midpoints" : [  ]
				}

			}
, 			{
				"patchline" : 				{
					"source" : [ "obj-13", 2 ],
					"destination" : [ "obj-47", 0 ],
					"hidden" : 0,
					"midpoints" : [  ]
				}

			}
, 			{
				"patchline" : 				{
					"source" : [ "obj-8", 0 ],
					"destination" : [ "obj-1", 0 ],
					"hidden" : 0,
					"midpoints" : [  ]
				}

			}
, 			{
				"patchline" : 				{
					"source" : [ "obj-8", 1 ],
					"destination" : [ "obj-1", 0 ],
					"hidden" : 0,
					"midpoints" : [  ]
				}

			}
, 			{
				"patchline" : 				{
					"source" : [ "obj-7", 0 ],
					"destination" : [ "obj-9", 0 ],
					"hidden" : 0,
					"midpoints" : [  ]
				}

			}
, 			{
				"patchline" : 				{
					"source" : [ "obj-9", 0 ],
					"destination" : [ "obj-3", 0 ],
					"hidden" : 0,
					"midpoints" : [  ]
				}

			}
, 			{
				"patchline" : 				{
					"source" : [ "obj-16", 0 ],
					"destination" : [ "obj-1", 0 ],
					"hidden" : 0,
					"midpoints" : [  ]
				}

			}
 ]
	}

}
