{
	"patcher" : 	{
		"fileversion" : 1,
		"rect" : [ 394.0, 74.0, 506.0, 679.0 ],
		"bglocked" : 0,
		"defrect" : [ 394.0, 74.0, 506.0, 679.0 ],
		"openrect" : [ 0.0, 0.0, 0.0, 0.0 ],
		"openinpresentation" : 0,
		"default_fontsize" : 10.0,
		"default_fontface" : 0,
		"default_fontname" : "Arial",
		"gridonopen" : 0,
		"gridsize" : [ 15.0, 15.0 ],
		"gridsnaponopen" : 0,
		"toolbarvisible" : 1,
		"boxanimatetime" : 200,
		"imprint" : 0,
		"enablehscroll" : 1,
		"enablevscroll" : 1,
		"devicewidth" : 0.0,
		"boxes" : [ 			{
				"box" : 				{
					"maxclass" : "comment",
					"text" : "now any line is always drawn from botton to top",
					"linecount" : 2,
					"fontsize" : 10.0,
					"patching_rect" : [ 173.0, 597.0, 150.0, 29.0 ],
					"numinlets" : 1,
					"id" : "obj-10",
					"fontname" : "Arial",
					"numoutlets" : 0
				}

			}
, 			{
				"box" : 				{
					"maxclass" : "newobj",
					"text" : "buddy 4",
					"outlettype" : [ "", "", "", "" ],
					"fontsize" : 10.0,
					"patching_rect" : [ 105.0, 523.0, 316.5, 18.0 ],
					"numinlets" : 4,
					"id" : "obj-77",
					"fontname" : "Arial",
					"numoutlets" : 4
				}

			}
, 			{
				"box" : 				{
					"maxclass" : "newobj",
					"text" : "buddy 4",
					"outlettype" : [ "", "", "", "" ],
					"fontsize" : 12.0,
					"patching_rect" : [ 95.0, 425.0, 320.5, 20.0 ],
					"numinlets" : 4,
					"id" : "obj-33",
					"fontname" : "Arial",
					"numoutlets" : 4
				}

			}
, 			{
				"box" : 				{
					"maxclass" : "newobj",
					"text" : "buddy 4",
					"outlettype" : [ "", "", "", "" ],
					"fontsize" : 12.0,
					"patching_rect" : [ 95.0, 227.0, 320.5, 20.0 ],
					"numinlets" : 4,
					"id" : "obj-32",
					"fontname" : "Arial",
					"numoutlets" : 4
				}

			}
, 			{
				"box" : 				{
					"maxclass" : "newobj",
					"text" : "pack i i i i",
					"outlettype" : [ "" ],
					"fontsize" : 10.0,
					"patching_rect" : [ 95.0, 577.0, 320.5, 18.0 ],
					"numinlets" : 4,
					"id" : "obj-12",
					"fontname" : "Arial",
					"numoutlets" : 1
				}

			}
, 			{
				"box" : 				{
					"maxclass" : "newobj",
					"text" : "gate 2 1",
					"outlettype" : [ "", "" ],
					"fontsize" : 10.0,
					"patching_rect" : [ 369.0, 474.0, 47.0, 18.0 ],
					"numinlets" : 2,
					"id" : "obj-14",
					"fontname" : "Arial",
					"numoutlets" : 2
				}

			}
, 			{
				"box" : 				{
					"maxclass" : "newobj",
					"text" : "gate 2 1",
					"outlettype" : [ "", "" ],
					"fontsize" : 10.0,
					"patching_rect" : [ 268.0, 474.0, 47.0, 18.0 ],
					"numinlets" : 2,
					"id" : "obj-23",
					"fontname" : "Arial",
					"numoutlets" : 2
				}

			}
, 			{
				"box" : 				{
					"maxclass" : "newobj",
					"text" : "gate 2 1",
					"outlettype" : [ "", "" ],
					"fontsize" : 10.0,
					"patching_rect" : [ 168.0, 474.0, 47.0, 18.0 ],
					"numinlets" : 2,
					"id" : "obj-24",
					"fontname" : "Arial",
					"numoutlets" : 2
				}

			}
, 			{
				"box" : 				{
					"maxclass" : "newobj",
					"text" : "gate 2 1",
					"outlettype" : [ "", "" ],
					"fontsize" : 10.0,
					"patching_rect" : [ 67.0, 474.0, 47.0, 18.0 ],
					"numinlets" : 2,
					"id" : "obj-25",
					"fontname" : "Arial",
					"numoutlets" : 2
				}

			}
, 			{
				"box" : 				{
					"maxclass" : "newobj",
					"text" : "+ 1",
					"outlettype" : [ "int" ],
					"fontsize" : 10.0,
					"patching_rect" : [ 67.0, 445.0, 32.5, 18.0 ],
					"numinlets" : 2,
					"id" : "obj-26",
					"fontname" : "Arial",
					"numoutlets" : 1
				}

			}
, 			{
				"box" : 				{
					"maxclass" : "newobj",
					"text" : ">",
					"outlettype" : [ "int" ],
					"fontsize" : 10.0,
					"patching_rect" : [ 67.0, 409.0, 32.5, 18.0 ],
					"numinlets" : 2,
					"id" : "obj-27",
					"fontname" : "Arial",
					"numoutlets" : 1
				}

			}
, 			{
				"box" : 				{
					"maxclass" : "newobj",
					"text" : "t i i",
					"outlettype" : [ "int", "int" ],
					"fontsize" : 12.0,
					"patching_rect" : [ 397.0, 361.0, 32.5, 20.0 ],
					"numinlets" : 1,
					"id" : "obj-28",
					"fontname" : "Arial",
					"numoutlets" : 2
				}

			}
, 			{
				"box" : 				{
					"maxclass" : "newobj",
					"text" : "t i i",
					"outlettype" : [ "int", "int" ],
					"fontsize" : 12.0,
					"patching_rect" : [ 196.0, 361.0, 32.5, 20.0 ],
					"numinlets" : 1,
					"id" : "obj-30",
					"fontname" : "Arial",
					"numoutlets" : 2
				}

			}
, 			{
				"box" : 				{
					"maxclass" : "newobj",
					"text" : "buddy 4",
					"outlettype" : [ "", "", "", "" ],
					"fontsize" : 10.0,
					"patching_rect" : [ 95.0, 339.0, 320.5, 18.0 ],
					"numinlets" : 4,
					"id" : "obj-22",
					"fontname" : "Arial",
					"numoutlets" : 4
				}

			}
, 			{
				"box" : 				{
					"maxclass" : "newobj",
					"text" : "gate 2 1",
					"outlettype" : [ "", "" ],
					"fontsize" : 10.0,
					"patching_rect" : [ 369.0, 277.0, 47.0, 18.0 ],
					"numinlets" : 2,
					"id" : "obj-21",
					"fontname" : "Arial",
					"numoutlets" : 2
				}

			}
, 			{
				"box" : 				{
					"maxclass" : "newobj",
					"text" : "gate 2 1",
					"outlettype" : [ "", "" ],
					"fontsize" : 10.0,
					"patching_rect" : [ 268.0, 277.0, 47.0, 18.0 ],
					"numinlets" : 2,
					"id" : "obj-3",
					"fontname" : "Arial",
					"numoutlets" : 2
				}

			}
, 			{
				"box" : 				{
					"maxclass" : "newobj",
					"text" : "gate 2 1",
					"outlettype" : [ "", "" ],
					"fontsize" : 10.0,
					"patching_rect" : [ 168.0, 277.0, 47.0, 18.0 ],
					"numinlets" : 2,
					"id" : "obj-19",
					"fontname" : "Arial",
					"numoutlets" : 2
				}

			}
, 			{
				"box" : 				{
					"maxclass" : "newobj",
					"text" : "gate 2 1",
					"outlettype" : [ "", "" ],
					"fontsize" : 10.0,
					"patching_rect" : [ 67.0, 277.0, 47.0, 18.0 ],
					"numinlets" : 2,
					"id" : "obj-6",
					"fontname" : "Arial",
					"numoutlets" : 2
				}

			}
, 			{
				"box" : 				{
					"maxclass" : "newobj",
					"text" : "+ 1",
					"outlettype" : [ "int" ],
					"fontsize" : 10.0,
					"patching_rect" : [ 67.0, 248.0, 32.5, 18.0 ],
					"numinlets" : 2,
					"id" : "obj-7",
					"fontname" : "Arial",
					"numoutlets" : 1
				}

			}
, 			{
				"box" : 				{
					"maxclass" : "newobj",
					"text" : "<",
					"outlettype" : [ "int" ],
					"fontsize" : 10.0,
					"patching_rect" : [ 67.0, 212.0, 32.5, 18.0 ],
					"numinlets" : 2,
					"id" : "obj-13",
					"fontname" : "Arial",
					"numoutlets" : 1
				}

			}
, 			{
				"box" : 				{
					"maxclass" : "newobj",
					"text" : "unpack i i i i",
					"outlettype" : [ "int", "int", "int", "int" ],
					"fontsize" : 12.0,
					"patching_rect" : [ 27.0, 91.0, 73.0, 20.0 ],
					"numinlets" : 1,
					"id" : "obj-16",
					"fontname" : "Arial",
					"numoutlets" : 4
				}

			}
, 			{
				"box" : 				{
					"maxclass" : "newobj",
					"text" : "route list int bang",
					"outlettype" : [ "", "", "", "" ],
					"fontsize" : 12.0,
					"patching_rect" : [ 27.0, 61.0, 102.0, 20.0 ],
					"numinlets" : 1,
					"id" : "obj-1",
					"fontname" : "Arial",
					"numoutlets" : 4
				}

			}
, 			{
				"box" : 				{
					"maxclass" : "outlet",
					"patching_rect" : [ 95.0, 644.0, 25.0, 25.0 ],
					"numinlets" : 1,
					"id" : "obj-8",
					"numoutlets" : 0,
					"comment" : ""
				}

			}
, 			{
				"box" : 				{
					"maxclass" : "newobj",
					"text" : "t i",
					"outlettype" : [ "int" ],
					"fontsize" : 12.0,
					"patching_rect" : [ 397.0, 164.0, 20.0, 20.0 ],
					"numinlets" : 1,
					"id" : "obj-4",
					"fontname" : "Arial",
					"numoutlets" : 1
				}

			}
, 			{
				"box" : 				{
					"maxclass" : "newobj",
					"text" : "t i i",
					"outlettype" : [ "int", "int" ],
					"fontsize" : 12.0,
					"patching_rect" : [ 296.0, 164.0, 32.5, 20.0 ],
					"numinlets" : 1,
					"id" : "obj-5",
					"fontname" : "Arial",
					"numoutlets" : 2
				}

			}
, 			{
				"box" : 				{
					"maxclass" : "newobj",
					"text" : "t i",
					"outlettype" : [ "int" ],
					"fontsize" : 12.0,
					"patching_rect" : [ 196.0, 164.0, 20.0, 20.0 ],
					"numinlets" : 1,
					"id" : "obj-39",
					"fontname" : "Arial",
					"numoutlets" : 1
				}

			}
, 			{
				"box" : 				{
					"maxclass" : "newobj",
					"text" : "t i i",
					"outlettype" : [ "int", "int" ],
					"fontsize" : 12.0,
					"patching_rect" : [ 95.0, 164.0, 32.5, 20.0 ],
					"numinlets" : 1,
					"id" : "obj-38",
					"fontname" : "Arial",
					"numoutlets" : 2
				}

			}
, 			{
				"box" : 				{
					"maxclass" : "inlet",
					"outlettype" : [ "" ],
					"patching_rect" : [ 397.0, 14.0, 25.0, 25.0 ],
					"numinlets" : 0,
					"id" : "obj-37",
					"numoutlets" : 1,
					"comment" : ""
				}

			}
, 			{
				"box" : 				{
					"maxclass" : "inlet",
					"outlettype" : [ "" ],
					"patching_rect" : [ 296.0, 14.0, 25.0, 25.0 ],
					"numinlets" : 0,
					"id" : "obj-36",
					"numoutlets" : 1,
					"comment" : ""
				}

			}
, 			{
				"box" : 				{
					"maxclass" : "inlet",
					"outlettype" : [ "" ],
					"patching_rect" : [ 196.0, 14.0, 25.0, 25.0 ],
					"numinlets" : 0,
					"id" : "obj-35",
					"numoutlets" : 1,
					"comment" : ""
				}

			}
, 			{
				"box" : 				{
					"maxclass" : "inlet",
					"outlettype" : [ "" ],
					"patching_rect" : [ 27.0, 14.0, 25.0, 25.0 ],
					"numinlets" : 0,
					"id" : "obj-34",
					"numoutlets" : 1,
					"comment" : ""
				}

			}
, 			{
				"box" : 				{
					"maxclass" : "comment",
					"text" : "By Martin Ritter 2010",
					"fontsize" : 10.0,
					"patching_rect" : [ 376.0, 629.0, 114.0, 18.0 ],
					"numinlets" : 1,
					"id" : "obj-55",
					"fontname" : "Arial Bold",
					"numoutlets" : 0
				}

			}
, 			{
				"box" : 				{
					"maxclass" : "comment",
					"text" : "www.martin-ritter.com",
					"fontsize" : 10.0,
					"patching_rect" : [ 378.0, 643.0, 108.0, 18.0 ],
					"numinlets" : 1,
					"id" : "obj-57",
					"fontname" : "Arial",
					"numoutlets" : 0
				}

			}
, 			{
				"box" : 				{
					"maxclass" : "panel",
					"bgcolor" : [ 0.380392, 0.529412, 0.964706, 0.670588 ],
					"grad1" : [ 0.686275, 0.752941, 1.0, 1.0 ],
					"patching_rect" : [ 364.0, 624.0, 135.0, 40.0 ],
					"mode" : 1,
					"numinlets" : 1,
					"id" : "obj-2",
					"numoutlets" : 0
				}

			}
, 			{
				"box" : 				{
					"maxclass" : "newobj",
					"text" : "abstractionPrint MRlineBT 2010 1.3",
					"linecount" : 2,
					"fontsize" : 10.0,
					"patching_rect" : [ 381.0, 631.0, 107.0, 29.0 ],
					"numinlets" : 0,
					"id" : "obj-9",
					"fontname" : "Arial",
					"numoutlets" : 0
				}

			}
 ],
		"lines" : [ 			{
				"patchline" : 				{
					"source" : [ "obj-1", 2 ],
					"destination" : [ "obj-12", 0 ],
					"hidden" : 0,
					"midpoints" : [ 91.833336, 88.0, 11.0, 88.0, 11.0, 569.0, 104.5, 569.0 ]
				}

			}
, 			{
				"patchline" : 				{
					"source" : [ "obj-34", 0 ],
					"destination" : [ "obj-1", 0 ],
					"hidden" : 0,
					"midpoints" : [  ]
				}

			}
, 			{
				"patchline" : 				{
					"source" : [ "obj-1", 0 ],
					"destination" : [ "obj-16", 0 ],
					"hidden" : 0,
					"midpoints" : [  ]
				}

			}
, 			{
				"patchline" : 				{
					"source" : [ "obj-1", 1 ],
					"destination" : [ "obj-38", 0 ],
					"hidden" : 0,
					"midpoints" : [ 64.166664, 85.0, 15.0, 85.0, 15.0, 154.0, 104.5, 154.0 ]
				}

			}
, 			{
				"patchline" : 				{
					"source" : [ "obj-27", 0 ],
					"destination" : [ "obj-26", 0 ],
					"hidden" : 0,
					"midpoints" : [  ]
				}

			}
, 			{
				"patchline" : 				{
					"source" : [ "obj-30", 1 ],
					"destination" : [ "obj-27", 0 ],
					"hidden" : 0,
					"midpoints" : [ 219.0, 397.0, 76.5, 397.0 ]
				}

			}
, 			{
				"patchline" : 				{
					"source" : [ "obj-28", 1 ],
					"destination" : [ "obj-27", 1 ],
					"hidden" : 0,
					"midpoints" : [ 420.0, 404.0, 90.0, 404.0 ]
				}

			}
, 			{
				"patchline" : 				{
					"source" : [ "obj-77", 3 ],
					"destination" : [ "obj-12", 3 ],
					"hidden" : 0,
					"midpoints" : [  ]
				}

			}
, 			{
				"patchline" : 				{
					"source" : [ "obj-77", 2 ],
					"destination" : [ "obj-12", 2 ],
					"hidden" : 0,
					"midpoints" : [  ]
				}

			}
, 			{
				"patchline" : 				{
					"source" : [ "obj-77", 1 ],
					"destination" : [ "obj-12", 1 ],
					"hidden" : 0,
					"midpoints" : [  ]
				}

			}
, 			{
				"patchline" : 				{
					"source" : [ "obj-77", 0 ],
					"destination" : [ "obj-12", 0 ],
					"hidden" : 0,
					"midpoints" : [  ]
				}

			}
, 			{
				"patchline" : 				{
					"source" : [ "obj-14", 0 ],
					"destination" : [ "obj-77", 1 ],
					"hidden" : 0,
					"midpoints" : [  ]
				}

			}
, 			{
				"patchline" : 				{
					"source" : [ "obj-23", 0 ],
					"destination" : [ "obj-77", 0 ],
					"hidden" : 0,
					"midpoints" : [  ]
				}

			}
, 			{
				"patchline" : 				{
					"source" : [ "obj-24", 0 ],
					"destination" : [ "obj-77", 3 ],
					"hidden" : 0,
					"midpoints" : [  ]
				}

			}
, 			{
				"patchline" : 				{
					"source" : [ "obj-25", 0 ],
					"destination" : [ "obj-77", 2 ],
					"hidden" : 0,
					"midpoints" : [  ]
				}

			}
, 			{
				"patchline" : 				{
					"source" : [ "obj-14", 1 ],
					"destination" : [ "obj-12", 3 ],
					"hidden" : 0,
					"midpoints" : [  ]
				}

			}
, 			{
				"patchline" : 				{
					"source" : [ "obj-23", 1 ],
					"destination" : [ "obj-12", 2 ],
					"hidden" : 0,
					"midpoints" : [  ]
				}

			}
, 			{
				"patchline" : 				{
					"source" : [ "obj-24", 1 ],
					"destination" : [ "obj-12", 1 ],
					"hidden" : 0,
					"midpoints" : [  ]
				}

			}
, 			{
				"patchline" : 				{
					"source" : [ "obj-25", 1 ],
					"destination" : [ "obj-12", 0 ],
					"hidden" : 0,
					"midpoints" : [  ]
				}

			}
, 			{
				"patchline" : 				{
					"source" : [ "obj-22", 2 ],
					"destination" : [ "obj-33", 2 ],
					"hidden" : 0,
					"midpoints" : [  ]
				}

			}
, 			{
				"patchline" : 				{
					"source" : [ "obj-22", 0 ],
					"destination" : [ "obj-33", 0 ],
					"hidden" : 0,
					"midpoints" : [  ]
				}

			}
, 			{
				"patchline" : 				{
					"source" : [ "obj-33", 0 ],
					"destination" : [ "obj-25", 1 ],
					"hidden" : 0,
					"midpoints" : [ 104.5, 459.0, 104.5, 459.0 ]
				}

			}
, 			{
				"patchline" : 				{
					"source" : [ "obj-33", 1 ],
					"destination" : [ "obj-24", 1 ],
					"hidden" : 0,
					"midpoints" : [  ]
				}

			}
, 			{
				"patchline" : 				{
					"source" : [ "obj-33", 2 ],
					"destination" : [ "obj-23", 1 ],
					"hidden" : 0,
					"midpoints" : [  ]
				}

			}
, 			{
				"patchline" : 				{
					"source" : [ "obj-33", 3 ],
					"destination" : [ "obj-14", 1 ],
					"hidden" : 0,
					"midpoints" : [  ]
				}

			}
, 			{
				"patchline" : 				{
					"source" : [ "obj-30", 0 ],
					"destination" : [ "obj-33", 1 ],
					"hidden" : 0,
					"midpoints" : [  ]
				}

			}
, 			{
				"patchline" : 				{
					"source" : [ "obj-28", 0 ],
					"destination" : [ "obj-33", 3 ],
					"hidden" : 0,
					"midpoints" : [  ]
				}

			}
, 			{
				"patchline" : 				{
					"source" : [ "obj-38", 0 ],
					"destination" : [ "obj-32", 0 ],
					"hidden" : 0,
					"midpoints" : [  ]
				}

			}
, 			{
				"patchline" : 				{
					"source" : [ "obj-39", 0 ],
					"destination" : [ "obj-32", 1 ],
					"hidden" : 0,
					"midpoints" : [  ]
				}

			}
, 			{
				"patchline" : 				{
					"source" : [ "obj-5", 0 ],
					"destination" : [ "obj-32", 2 ],
					"hidden" : 0,
					"midpoints" : [  ]
				}

			}
, 			{
				"patchline" : 				{
					"source" : [ "obj-4", 0 ],
					"destination" : [ "obj-32", 3 ],
					"hidden" : 0,
					"midpoints" : [  ]
				}

			}
, 			{
				"patchline" : 				{
					"source" : [ "obj-32", 3 ],
					"destination" : [ "obj-21", 1 ],
					"hidden" : 0,
					"midpoints" : [  ]
				}

			}
, 			{
				"patchline" : 				{
					"source" : [ "obj-32", 2 ],
					"destination" : [ "obj-3", 1 ],
					"hidden" : 0,
					"midpoints" : [  ]
				}

			}
, 			{
				"patchline" : 				{
					"source" : [ "obj-32", 1 ],
					"destination" : [ "obj-19", 1 ],
					"hidden" : 0,
					"midpoints" : [  ]
				}

			}
, 			{
				"patchline" : 				{
					"source" : [ "obj-32", 0 ],
					"destination" : [ "obj-6", 1 ],
					"hidden" : 0,
					"midpoints" : [  ]
				}

			}
, 			{
				"patchline" : 				{
					"source" : [ "obj-22", 3 ],
					"destination" : [ "obj-28", 0 ],
					"hidden" : 0,
					"midpoints" : [  ]
				}

			}
, 			{
				"patchline" : 				{
					"source" : [ "obj-22", 1 ],
					"destination" : [ "obj-30", 0 ],
					"hidden" : 0,
					"midpoints" : [  ]
				}

			}
, 			{
				"patchline" : 				{
					"source" : [ "obj-21", 0 ],
					"destination" : [ "obj-22", 1 ],
					"hidden" : 0,
					"midpoints" : [  ]
				}

			}
, 			{
				"patchline" : 				{
					"source" : [ "obj-3", 0 ],
					"destination" : [ "obj-22", 0 ],
					"hidden" : 0,
					"midpoints" : [  ]
				}

			}
, 			{
				"patchline" : 				{
					"source" : [ "obj-19", 0 ],
					"destination" : [ "obj-22", 3 ],
					"hidden" : 0,
					"midpoints" : [  ]
				}

			}
, 			{
				"patchline" : 				{
					"source" : [ "obj-6", 0 ],
					"destination" : [ "obj-22", 2 ],
					"hidden" : 0,
					"midpoints" : [  ]
				}

			}
, 			{
				"patchline" : 				{
					"source" : [ "obj-19", 1 ],
					"destination" : [ "obj-22", 1 ],
					"hidden" : 0,
					"midpoints" : [  ]
				}

			}
, 			{
				"patchline" : 				{
					"source" : [ "obj-21", 1 ],
					"destination" : [ "obj-22", 3 ],
					"hidden" : 0,
					"midpoints" : [  ]
				}

			}
, 			{
				"patchline" : 				{
					"source" : [ "obj-3", 1 ],
					"destination" : [ "obj-22", 2 ],
					"hidden" : 0,
					"midpoints" : [  ]
				}

			}
, 			{
				"patchline" : 				{
					"source" : [ "obj-6", 1 ],
					"destination" : [ "obj-22", 0 ],
					"hidden" : 0,
					"midpoints" : [  ]
				}

			}
, 			{
				"patchline" : 				{
					"source" : [ "obj-12", 0 ],
					"destination" : [ "obj-8", 0 ],
					"hidden" : 0,
					"midpoints" : [  ]
				}

			}
, 			{
				"patchline" : 				{
					"source" : [ "obj-16", 0 ],
					"destination" : [ "obj-38", 0 ],
					"hidden" : 0,
					"midpoints" : [ 36.5, 157.0, 104.5, 157.0 ]
				}

			}
, 			{
				"patchline" : 				{
					"source" : [ "obj-38", 1 ],
					"destination" : [ "obj-13", 0 ],
					"hidden" : 0,
					"midpoints" : [ 118.0, 192.5, 76.5, 192.5 ]
				}

			}
, 			{
				"patchline" : 				{
					"source" : [ "obj-35", 0 ],
					"destination" : [ "obj-39", 0 ],
					"hidden" : 0,
					"midpoints" : [  ]
				}

			}
, 			{
				"patchline" : 				{
					"source" : [ "obj-16", 1 ],
					"destination" : [ "obj-39", 0 ],
					"hidden" : 0,
					"midpoints" : [ 54.5, 151.0, 205.5, 151.0 ]
				}

			}
, 			{
				"patchline" : 				{
					"source" : [ "obj-36", 0 ],
					"destination" : [ "obj-5", 0 ],
					"hidden" : 0,
					"midpoints" : [  ]
				}

			}
, 			{
				"patchline" : 				{
					"source" : [ "obj-16", 2 ],
					"destination" : [ "obj-5", 0 ],
					"hidden" : 0,
					"midpoints" : [ 72.5, 145.0, 305.5, 145.0 ]
				}

			}
, 			{
				"patchline" : 				{
					"source" : [ "obj-5", 1 ],
					"destination" : [ "obj-13", 1 ],
					"hidden" : 0,
					"midpoints" : [ 319.0, 197.5, 90.0, 197.5 ]
				}

			}
, 			{
				"patchline" : 				{
					"source" : [ "obj-37", 0 ],
					"destination" : [ "obj-4", 0 ],
					"hidden" : 0,
					"midpoints" : [  ]
				}

			}
, 			{
				"patchline" : 				{
					"source" : [ "obj-16", 3 ],
					"destination" : [ "obj-4", 0 ],
					"hidden" : 0,
					"midpoints" : [ 90.5, 137.0, 406.5, 137.0 ]
				}

			}
, 			{
				"patchline" : 				{
					"source" : [ "obj-7", 0 ],
					"destination" : [ "obj-6", 0 ],
					"hidden" : 0,
					"midpoints" : [  ]
				}

			}
, 			{
				"patchline" : 				{
					"source" : [ "obj-7", 0 ],
					"destination" : [ "obj-19", 0 ],
					"hidden" : 0,
					"midpoints" : [ 76.5, 271.0, 177.5, 271.0 ]
				}

			}
, 			{
				"patchline" : 				{
					"source" : [ "obj-7", 0 ],
					"destination" : [ "obj-3", 0 ],
					"hidden" : 0,
					"midpoints" : [ 76.5, 271.0, 277.5, 271.0 ]
				}

			}
, 			{
				"patchline" : 				{
					"source" : [ "obj-7", 0 ],
					"destination" : [ "obj-21", 0 ],
					"hidden" : 0,
					"midpoints" : [ 76.5, 271.0, 378.5, 271.0 ]
				}

			}
, 			{
				"patchline" : 				{
					"source" : [ "obj-13", 0 ],
					"destination" : [ "obj-7", 0 ],
					"hidden" : 0,
					"midpoints" : [  ]
				}

			}
, 			{
				"patchline" : 				{
					"source" : [ "obj-26", 0 ],
					"destination" : [ "obj-14", 0 ],
					"hidden" : 0,
					"midpoints" : [ 76.5, 468.0, 378.5, 468.0 ]
				}

			}
, 			{
				"patchline" : 				{
					"source" : [ "obj-26", 0 ],
					"destination" : [ "obj-23", 0 ],
					"hidden" : 0,
					"midpoints" : [ 76.5, 468.0, 277.5, 468.0 ]
				}

			}
, 			{
				"patchline" : 				{
					"source" : [ "obj-26", 0 ],
					"destination" : [ "obj-24", 0 ],
					"hidden" : 0,
					"midpoints" : [ 76.5, 468.0, 177.5, 468.0 ]
				}

			}
, 			{
				"patchline" : 				{
					"source" : [ "obj-26", 0 ],
					"destination" : [ "obj-25", 0 ],
					"hidden" : 0,
					"midpoints" : [  ]
				}

			}
 ]
	}

}
