{
	"patcher" : 	{
		"fileversion" : 1,
		"rect" : [ 122.0, 354.0, 505.0, 451.0 ],
		"bglocked" : 0,
		"defrect" : [ 122.0, 354.0, 505.0, 451.0 ],
		"openrect" : [ 0.0, 0.0, 0.0, 0.0 ],
		"openinpresentation" : 0,
		"default_fontsize" : 10.0,
		"default_fontface" : 0,
		"default_fontname" : "Arial",
		"gridonopen" : 0,
		"gridsize" : [ 15.0, 15.0 ],
		"gridsnaponopen" : 0,
		"toolbarvisible" : 1,
		"boxanimatetime" : 200,
		"imprint" : 0,
		"enablehscroll" : 1,
		"enablevscroll" : 1,
		"devicewidth" : 0.0,
		"boxes" : [ 			{
				"box" : 				{
					"maxclass" : "newobj",
					"text" : "gate 2",
					"outlettype" : [ "", "" ],
					"fontsize" : 10.0,
					"patching_rect" : [ 149.0, 82.0, 38.0, 18.0 ],
					"id" : "obj-29",
					"numinlets" : 2,
					"fontname" : "Arial",
					"numoutlets" : 2
				}

			}
, 			{
				"box" : 				{
					"maxclass" : "newobj",
					"text" : "gate 2",
					"outlettype" : [ "", "" ],
					"fontsize" : 10.0,
					"patching_rect" : [ 110.0, 82.0, 38.0, 18.0 ],
					"id" : "obj-28",
					"numinlets" : 2,
					"fontname" : "Arial",
					"numoutlets" : 2
				}

			}
, 			{
				"box" : 				{
					"maxclass" : "newobj",
					"text" : "gate 2",
					"outlettype" : [ "", "" ],
					"fontsize" : 10.0,
					"presentation_rect" : [ 71.0, 82.0, 0.0, 0.0 ],
					"patching_rect" : [ 71.0, 82.0, 38.0, 18.0 ],
					"id" : "obj-27",
					"numinlets" : 2,
					"fontname" : "Arial",
					"numoutlets" : 2
				}

			}
, 			{
				"box" : 				{
					"maxclass" : "newobj",
					"text" : "gate 2",
					"outlettype" : [ "", "" ],
					"fontsize" : 10.0,
					"patching_rect" : [ 32.0, 82.0, 38.0, 18.0 ],
					"id" : "obj-26",
					"numinlets" : 2,
					"fontname" : "Arial",
					"numoutlets" : 2
				}

			}
, 			{
				"box" : 				{
					"maxclass" : "newobj",
					"text" : "clip 1 2",
					"outlettype" : [ "" ],
					"fontsize" : 10.0,
					"patching_rect" : [ 425.0, 98.0, 46.0, 18.0 ],
					"id" : "obj-25",
					"numinlets" : 3,
					"fontname" : "Arial",
					"numoutlets" : 1
				}

			}
, 			{
				"box" : 				{
					"maxclass" : "newobj",
					"text" : "+ 1",
					"outlettype" : [ "int" ],
					"fontsize" : 10.0,
					"patching_rect" : [ 425.0, 79.0, 32.5, 18.0 ],
					"id" : "obj-24",
					"numinlets" : 2,
					"fontname" : "Arial",
					"numoutlets" : 1
				}

			}
, 			{
				"box" : 				{
					"maxclass" : "newobj",
					"text" : "route mode",
					"outlettype" : [ "", "" ],
					"fontsize" : 10.0,
					"patching_rect" : [ 425.0, 58.0, 61.0, 18.0 ],
					"id" : "obj-23",
					"numinlets" : 1,
					"fontname" : "Arial",
					"numoutlets" : 2
				}

			}
, 			{
				"box" : 				{
					"maxclass" : "newobj",
					"text" : "patcherargs @mode 0",
					"outlettype" : [ "", "" ],
					"fontsize" : 10.0,
					"patching_rect" : [ 334.0, 35.0, 110.0, 18.0 ],
					"id" : "obj-22",
					"numinlets" : 1,
					"fontname" : "Arial",
					"numoutlets" : 2
				}

			}
, 			{
				"box" : 				{
					"maxclass" : "newobj",
					"text" : "abs 0.",
					"outlettype" : [ "float" ],
					"fontsize" : 10.0,
					"patching_rect" : [ 231.0, 273.0, 38.0, 18.0 ],
					"id" : "obj-13",
					"numinlets" : 1,
					"fontname" : "Arial",
					"numoutlets" : 1
				}

			}
, 			{
				"box" : 				{
					"maxclass" : "newobj",
					"text" : "abs 0.",
					"outlettype" : [ "float" ],
					"fontsize" : 10.0,
					"patching_rect" : [ 199.0, 273.0, 38.0, 18.0 ],
					"id" : "obj-14",
					"numinlets" : 1,
					"fontname" : "Arial",
					"numoutlets" : 1
				}

			}
, 			{
				"box" : 				{
					"maxclass" : "newobj",
					"text" : "route list int float bang",
					"outlettype" : [ "", "", "", "", "" ],
					"fontsize" : 10.0,
					"patching_rect" : [ 199.0, 166.0, 108.0, 18.0 ],
					"id" : "obj-15",
					"numinlets" : 1,
					"fontname" : "Arial",
					"numoutlets" : 5
				}

			}
, 			{
				"box" : 				{
					"maxclass" : "newobj",
					"text" : "pack f f",
					"outlettype" : [ "" ],
					"fontsize" : 10.0,
					"patching_rect" : [ 199.0, 301.0, 51.0, 18.0 ],
					"id" : "obj-16",
					"numinlets" : 2,
					"fontname" : "Arial",
					"numoutlets" : 1
				}

			}
, 			{
				"box" : 				{
					"maxclass" : "newobj",
					"text" : "!- 0.",
					"outlettype" : [ "float" ],
					"fontsize" : 10.0,
					"patching_rect" : [ 231.0, 246.0, 32.5, 18.0 ],
					"id" : "obj-18",
					"numinlets" : 2,
					"fontname" : "Arial",
					"numoutlets" : 1
				}

			}
, 			{
				"box" : 				{
					"maxclass" : "newobj",
					"text" : "!- 0.",
					"outlettype" : [ "float" ],
					"fontsize" : 10.0,
					"patching_rect" : [ 199.0, 246.0, 32.5, 18.0 ],
					"id" : "obj-19",
					"numinlets" : 2,
					"fontname" : "Arial",
					"numoutlets" : 1
				}

			}
, 			{
				"box" : 				{
					"maxclass" : "newobj",
					"text" : "unpack f f f f",
					"outlettype" : [ "float", "float", "float", "float" ],
					"fontsize" : 10.0,
					"patching_rect" : [ 199.0, 192.0, 115.0, 18.0 ],
					"id" : "obj-21",
					"numinlets" : 1,
					"fontname" : "Arial",
					"numoutlets" : 4
				}

			}
, 			{
				"box" : 				{
					"maxclass" : "newobj",
					"text" : "abs",
					"outlettype" : [ "int" ],
					"fontsize" : 10.0,
					"patching_rect" : [ 71.0, 273.0, 27.0, 18.0 ],
					"id" : "obj-8",
					"numinlets" : 1,
					"fontname" : "Arial",
					"numoutlets" : 1
				}

			}
, 			{
				"box" : 				{
					"maxclass" : "newobj",
					"text" : "abs",
					"outlettype" : [ "int" ],
					"fontsize" : 10.0,
					"patching_rect" : [ 32.0, 273.0, 27.0, 18.0 ],
					"id" : "obj-7",
					"numinlets" : 1,
					"fontname" : "Arial",
					"numoutlets" : 1
				}

			}
, 			{
				"box" : 				{
					"maxclass" : "inlet",
					"outlettype" : [ "" ],
					"patching_rect" : [ 168.0, 20.0, 25.0, 25.0 ],
					"id" : "obj-5",
					"numinlets" : 0,
					"numoutlets" : 1,
					"comment" : ""
				}

			}
, 			{
				"box" : 				{
					"maxclass" : "inlet",
					"outlettype" : [ "" ],
					"patching_rect" : [ 129.0, 20.0, 25.0, 25.0 ],
					"id" : "obj-4",
					"numinlets" : 0,
					"numoutlets" : 1,
					"comment" : ""
				}

			}
, 			{
				"box" : 				{
					"maxclass" : "inlet",
					"outlettype" : [ "" ],
					"patching_rect" : [ 90.0, 20.0, 25.0, 25.0 ],
					"id" : "obj-3",
					"numinlets" : 0,
					"numoutlets" : 1,
					"comment" : ""
				}

			}
, 			{
				"box" : 				{
					"maxclass" : "newobj",
					"text" : "route list int bang",
					"outlettype" : [ "", "", "", "" ],
					"fontsize" : 10.0,
					"patching_rect" : [ 32.0, 166.0, 87.0, 18.0 ],
					"id" : "obj-2",
					"numinlets" : 1,
					"fontname" : "Arial",
					"numoutlets" : 4
				}

			}
, 			{
				"box" : 				{
					"maxclass" : "outlet",
					"patching_rect" : [ 32.0, 343.0, 25.0, 25.0 ],
					"id" : "obj-1",
					"numinlets" : 1,
					"numoutlets" : 0,
					"comment" : ""
				}

			}
, 			{
				"box" : 				{
					"maxclass" : "newobj",
					"text" : "pack i i",
					"outlettype" : [ "" ],
					"fontsize" : 10.0,
					"patching_rect" : [ 32.0, 301.0, 58.0, 18.0 ],
					"id" : "obj-17",
					"numinlets" : 2,
					"fontname" : "Arial",
					"numoutlets" : 1
				}

			}
, 			{
				"box" : 				{
					"maxclass" : "newobj",
					"text" : "!-",
					"outlettype" : [ "int" ],
					"fontsize" : 10.0,
					"patching_rect" : [ 71.0, 246.0, 32.5, 18.0 ],
					"id" : "obj-12",
					"numinlets" : 2,
					"fontname" : "Arial",
					"numoutlets" : 1
				}

			}
, 			{
				"box" : 				{
					"maxclass" : "newobj",
					"text" : "!-",
					"outlettype" : [ "int" ],
					"fontsize" : 10.0,
					"patching_rect" : [ 32.0, 246.0, 32.5, 18.0 ],
					"id" : "obj-11",
					"numinlets" : 2,
					"fontname" : "Arial",
					"numoutlets" : 1
				}

			}
, 			{
				"box" : 				{
					"maxclass" : "newobj",
					"text" : "unpack i i i i",
					"outlettype" : [ "int", "int", "int", "int" ],
					"fontsize" : 10.0,
					"patching_rect" : [ 32.0, 192.0, 135.0, 18.0 ],
					"id" : "obj-6",
					"numinlets" : 1,
					"fontname" : "Arial",
					"numoutlets" : 4
				}

			}
, 			{
				"box" : 				{
					"maxclass" : "inlet",
					"outlettype" : [ "" ],
					"patching_rect" : [ 51.0, 20.0, 25.0, 25.0 ],
					"id" : "obj-20",
					"numinlets" : 0,
					"numoutlets" : 1,
					"comment" : ""
				}

			}
, 			{
				"box" : 				{
					"maxclass" : "comment",
					"text" : "By Martin Ritter 2010",
					"fontsize" : 10.0,
					"patching_rect" : [ 291.0, 351.0, 114.0, 18.0 ],
					"id" : "obj-55",
					"numinlets" : 1,
					"fontname" : "Arial Bold",
					"numoutlets" : 0
				}

			}
, 			{
				"box" : 				{
					"maxclass" : "comment",
					"text" : "www.martin-ritter.com",
					"fontsize" : 10.0,
					"patching_rect" : [ 293.0, 365.0, 108.0, 18.0 ],
					"id" : "obj-57",
					"numinlets" : 1,
					"fontname" : "Arial",
					"numoutlets" : 0
				}

			}
, 			{
				"box" : 				{
					"maxclass" : "panel",
					"mode" : 1,
					"bgcolor" : [ 0.380392, 0.529412, 0.964706, 0.670588 ],
					"patching_rect" : [ 279.0, 346.0, 135.0, 40.0 ],
					"id" : "obj-10",
					"numinlets" : 1,
					"grad1" : [ 0.686275, 0.752941, 1.0, 1.0 ],
					"numoutlets" : 0
				}

			}
, 			{
				"box" : 				{
					"maxclass" : "newobj",
					"text" : "abstractionPrint MRrectWH 2010 1.1",
					"linecount" : 2,
					"fontsize" : 10.0,
					"patching_rect" : [ 291.0, 352.0, 110.0, 29.0 ],
					"id" : "obj-9",
					"numinlets" : 0,
					"fontname" : "Arial",
					"numoutlets" : 0
				}

			}
 ],
		"lines" : [ 			{
				"patchline" : 				{
					"source" : [ "obj-15", 3 ],
					"destination" : [ "obj-16", 0 ],
					"hidden" : 0,
					"midpoints" : [ 275.25, 188.0, 186.0, 188.0, 186.0, 295.0, 208.5, 295.0 ]
				}

			}
, 			{
				"patchline" : 				{
					"source" : [ "obj-15", 0 ],
					"destination" : [ "obj-21", 0 ],
					"hidden" : 0,
					"midpoints" : [  ]
				}

			}
, 			{
				"patchline" : 				{
					"source" : [ "obj-15", 2 ],
					"destination" : [ "obj-19", 0 ],
					"hidden" : 0,
					"midpoints" : [  ]
				}

			}
, 			{
				"patchline" : 				{
					"source" : [ "obj-15", 1 ],
					"destination" : [ "obj-19", 0 ],
					"hidden" : 0,
					"midpoints" : [  ]
				}

			}
, 			{
				"patchline" : 				{
					"source" : [ "obj-26", 1 ],
					"destination" : [ "obj-15", 0 ],
					"hidden" : 0,
					"midpoints" : [ 60.5, 142.0, 208.5, 142.0 ]
				}

			}
, 			{
				"patchline" : 				{
					"source" : [ "obj-16", 0 ],
					"destination" : [ "obj-1", 0 ],
					"hidden" : 0,
					"midpoints" : [ 208.5, 332.0, 41.5, 332.0 ]
				}

			}
, 			{
				"patchline" : 				{
					"source" : [ "obj-29", 1 ],
					"destination" : [ "obj-18", 1 ],
					"hidden" : 0,
					"midpoints" : [ 177.5, 232.5, 254.0, 232.5 ]
				}

			}
, 			{
				"patchline" : 				{
					"source" : [ "obj-28", 1 ],
					"destination" : [ "obj-19", 1 ],
					"hidden" : 0,
					"midpoints" : [ 138.5, 235.5, 222.0, 235.5 ]
				}

			}
, 			{
				"patchline" : 				{
					"source" : [ "obj-27", 1 ],
					"destination" : [ "obj-18", 0 ],
					"hidden" : 0,
					"midpoints" : [ 99.5, 238.5, 240.5, 238.5 ]
				}

			}
, 			{
				"patchline" : 				{
					"source" : [ "obj-25", 0 ],
					"destination" : [ "obj-29", 0 ],
					"hidden" : 0,
					"midpoints" : [ 434.5, 117.0, 198.0, 117.0, 198.0, 69.0, 158.5, 69.0 ]
				}

			}
, 			{
				"patchline" : 				{
					"source" : [ "obj-25", 0 ],
					"destination" : [ "obj-28", 0 ],
					"hidden" : 0,
					"midpoints" : [ 434.5, 117.0, 198.0, 117.0, 198.0, 69.0, 119.5, 69.0 ]
				}

			}
, 			{
				"patchline" : 				{
					"source" : [ "obj-25", 0 ],
					"destination" : [ "obj-27", 0 ],
					"hidden" : 0,
					"midpoints" : [ 434.5, 117.0, 198.0, 117.0, 198.0, 69.0, 80.5, 69.0 ]
				}

			}
, 			{
				"patchline" : 				{
					"source" : [ "obj-25", 0 ],
					"destination" : [ "obj-26", 0 ],
					"hidden" : 0,
					"midpoints" : [ 434.5, 117.0, 198.0, 117.0, 198.0, 69.0, 41.5, 69.0 ]
				}

			}
, 			{
				"patchline" : 				{
					"source" : [ "obj-5", 0 ],
					"destination" : [ "obj-29", 1 ],
					"hidden" : 0,
					"midpoints" : [  ]
				}

			}
, 			{
				"patchline" : 				{
					"source" : [ "obj-4", 0 ],
					"destination" : [ "obj-28", 1 ],
					"hidden" : 0,
					"midpoints" : [  ]
				}

			}
, 			{
				"patchline" : 				{
					"source" : [ "obj-3", 0 ],
					"destination" : [ "obj-27", 1 ],
					"hidden" : 0,
					"midpoints" : [  ]
				}

			}
, 			{
				"patchline" : 				{
					"source" : [ "obj-29", 0 ],
					"destination" : [ "obj-12", 1 ],
					"hidden" : 0,
					"midpoints" : [ 158.5, 232.0, 94.0, 232.0 ]
				}

			}
, 			{
				"patchline" : 				{
					"source" : [ "obj-28", 0 ],
					"destination" : [ "obj-11", 1 ],
					"hidden" : 0,
					"midpoints" : [ 119.5, 219.0, 55.0, 219.0 ]
				}

			}
, 			{
				"patchline" : 				{
					"source" : [ "obj-27", 0 ],
					"destination" : [ "obj-12", 0 ],
					"hidden" : 0,
					"midpoints" : [  ]
				}

			}
, 			{
				"patchline" : 				{
					"source" : [ "obj-26", 0 ],
					"destination" : [ "obj-2", 0 ],
					"hidden" : 0,
					"midpoints" : [  ]
				}

			}
, 			{
				"patchline" : 				{
					"source" : [ "obj-20", 0 ],
					"destination" : [ "obj-26", 1 ],
					"hidden" : 0,
					"midpoints" : [  ]
				}

			}
, 			{
				"patchline" : 				{
					"source" : [ "obj-22", 1 ],
					"destination" : [ "obj-23", 0 ],
					"hidden" : 0,
					"midpoints" : [  ]
				}

			}
, 			{
				"patchline" : 				{
					"source" : [ "obj-24", 0 ],
					"destination" : [ "obj-25", 0 ],
					"hidden" : 0,
					"midpoints" : [  ]
				}

			}
, 			{
				"patchline" : 				{
					"source" : [ "obj-23", 0 ],
					"destination" : [ "obj-24", 0 ],
					"hidden" : 0,
					"midpoints" : [  ]
				}

			}
, 			{
				"patchline" : 				{
					"source" : [ "obj-14", 0 ],
					"destination" : [ "obj-16", 0 ],
					"hidden" : 0,
					"midpoints" : [  ]
				}

			}
, 			{
				"patchline" : 				{
					"source" : [ "obj-13", 0 ],
					"destination" : [ "obj-16", 1 ],
					"hidden" : 0,
					"midpoints" : [  ]
				}

			}
, 			{
				"patchline" : 				{
					"source" : [ "obj-18", 0 ],
					"destination" : [ "obj-13", 0 ],
					"hidden" : 0,
					"midpoints" : [  ]
				}

			}
, 			{
				"patchline" : 				{
					"source" : [ "obj-19", 0 ],
					"destination" : [ "obj-14", 0 ],
					"hidden" : 0,
					"midpoints" : [  ]
				}

			}
, 			{
				"patchline" : 				{
					"source" : [ "obj-21", 1 ],
					"destination" : [ "obj-18", 0 ],
					"hidden" : 0,
					"midpoints" : [  ]
				}

			}
, 			{
				"patchline" : 				{
					"source" : [ "obj-21", 3 ],
					"destination" : [ "obj-18", 1 ],
					"hidden" : 0,
					"midpoints" : [  ]
				}

			}
, 			{
				"patchline" : 				{
					"source" : [ "obj-21", 0 ],
					"destination" : [ "obj-19", 0 ],
					"hidden" : 0,
					"midpoints" : [  ]
				}

			}
, 			{
				"patchline" : 				{
					"source" : [ "obj-21", 2 ],
					"destination" : [ "obj-19", 1 ],
					"hidden" : 0,
					"midpoints" : [  ]
				}

			}
, 			{
				"patchline" : 				{
					"source" : [ "obj-8", 0 ],
					"destination" : [ "obj-17", 1 ],
					"hidden" : 0,
					"midpoints" : [  ]
				}

			}
, 			{
				"patchline" : 				{
					"source" : [ "obj-12", 0 ],
					"destination" : [ "obj-8", 0 ],
					"hidden" : 0,
					"midpoints" : [  ]
				}

			}
, 			{
				"patchline" : 				{
					"source" : [ "obj-7", 0 ],
					"destination" : [ "obj-17", 0 ],
					"hidden" : 0,
					"midpoints" : [  ]
				}

			}
, 			{
				"patchline" : 				{
					"source" : [ "obj-11", 0 ],
					"destination" : [ "obj-7", 0 ],
					"hidden" : 0,
					"midpoints" : [  ]
				}

			}
, 			{
				"patchline" : 				{
					"source" : [ "obj-17", 0 ],
					"destination" : [ "obj-1", 0 ],
					"hidden" : 0,
					"midpoints" : [  ]
				}

			}
, 			{
				"patchline" : 				{
					"source" : [ "obj-6", 3 ],
					"destination" : [ "obj-12", 1 ],
					"hidden" : 0,
					"midpoints" : [  ]
				}

			}
, 			{
				"patchline" : 				{
					"source" : [ "obj-6", 1 ],
					"destination" : [ "obj-12", 0 ],
					"hidden" : 0,
					"midpoints" : [  ]
				}

			}
, 			{
				"patchline" : 				{
					"source" : [ "obj-6", 2 ],
					"destination" : [ "obj-11", 1 ],
					"hidden" : 0,
					"midpoints" : [  ]
				}

			}
, 			{
				"patchline" : 				{
					"source" : [ "obj-6", 0 ],
					"destination" : [ "obj-11", 0 ],
					"hidden" : 0,
					"midpoints" : [  ]
				}

			}
, 			{
				"patchline" : 				{
					"source" : [ "obj-2", 1 ],
					"destination" : [ "obj-11", 0 ],
					"hidden" : 0,
					"midpoints" : [  ]
				}

			}
, 			{
				"patchline" : 				{
					"source" : [ "obj-2", 0 ],
					"destination" : [ "obj-6", 0 ],
					"hidden" : 0,
					"midpoints" : [  ]
				}

			}
, 			{
				"patchline" : 				{
					"source" : [ "obj-2", 2 ],
					"destination" : [ "obj-17", 0 ],
					"hidden" : 0,
					"midpoints" : [ 86.833336, 187.0, 23.0, 187.0, 23.0, 295.0, 41.5, 295.0 ]
				}

			}
 ]
	}

}
