{
	"patcher" : 	{
		"fileversion" : 1,
		"rect" : [ 670.0, 382.0, 232.0, 342.0 ],
		"bglocked" : 0,
		"defrect" : [ 670.0, 382.0, 232.0, 342.0 ],
		"openrect" : [ 0.0, 0.0, 0.0, 0.0 ],
		"openinpresentation" : 0,
		"default_fontsize" : 10.0,
		"default_fontface" : 0,
		"default_fontname" : "Arial",
		"gridonopen" : 0,
		"gridsize" : [ 15.0, 15.0 ],
		"gridsnaponopen" : 0,
		"toolbarvisible" : 1,
		"boxanimatetime" : 200,
		"imprint" : 0,
		"enablehscroll" : 1,
		"enablevscroll" : 1,
		"devicewidth" : 0.0,
		"boxes" : [ 			{
				"box" : 				{
					"maxclass" : "newobj",
					"text" : "+ 0.",
					"numinlets" : 2,
					"fontsize" : 10.0,
					"patching_rect" : [ 67.0, 163.0, 32.5, 18.0 ],
					"id" : "obj-42",
					"numoutlets" : 1,
					"outlettype" : [ "float" ],
					"fontname" : "Arial"
				}

			}
, 			{
				"box" : 				{
					"maxclass" : "newobj",
					"text" : "unpack i i",
					"numinlets" : 1,
					"fontsize" : 10.0,
					"patching_rect" : [ 33.0, 128.0, 53.0, 18.0 ],
					"id" : "obj-43",
					"numoutlets" : 2,
					"outlettype" : [ "int", "int" ],
					"fontname" : "Arial"
				}

			}
, 			{
				"box" : 				{
					"maxclass" : "newobj",
					"text" : "pack f f f f",
					"numinlets" : 4,
					"fontsize" : 10.0,
					"patching_rect" : [ 33.0, 199.0, 70.5, 18.0 ],
					"id" : "obj-44",
					"numoutlets" : 1,
					"outlettype" : [ "" ],
					"fontname" : "Arial"
				}

			}
, 			{
				"box" : 				{
					"maxclass" : "newobj",
					"text" : "* 0.5",
					"numinlets" : 2,
					"fontsize" : 10.0,
					"patching_rect" : [ 107.0, 127.0, 32.5, 18.0 ],
					"id" : "obj-46",
					"numoutlets" : 1,
					"outlettype" : [ "float" ],
					"fontname" : "Arial"
				}

			}
, 			{
				"box" : 				{
					"maxclass" : "newobj",
					"text" : "unpack i i",
					"numinlets" : 1,
					"fontsize" : 10.0,
					"patching_rect" : [ 107.0, 105.0, 53.0, 18.0 ],
					"id" : "obj-47",
					"numoutlets" : 2,
					"outlettype" : [ "int", "int" ],
					"fontname" : "Arial"
				}

			}
, 			{
				"box" : 				{
					"maxclass" : "newobj",
					"text" : "MRrectWH",
					"numinlets" : 4,
					"fontsize" : 10.0,
					"patching_rect" : [ 107.0, 84.0, 59.5, 18.0 ],
					"id" : "obj-48",
					"numoutlets" : 1,
					"outlettype" : [ "" ],
					"fontname" : "Arial"
				}

			}
, 			{
				"box" : 				{
					"maxclass" : "newobj",
					"text" : "MRrectCenter",
					"numinlets" : 4,
					"fontsize" : 10.0,
					"patching_rect" : [ 33.0, 84.0, 73.0, 18.0 ],
					"id" : "obj-49",
					"numoutlets" : 1,
					"outlettype" : [ "" ],
					"fontname" : "Arial"
				}

			}
, 			{
				"box" : 				{
					"maxclass" : "outlet",
					"numinlets" : 1,
					"patching_rect" : [ 33.0, 274.0, 25.0, 25.0 ],
					"id" : "obj-3",
					"numoutlets" : 0,
					"comment" : ""
				}

			}
, 			{
				"box" : 				{
					"maxclass" : "inlet",
					"numinlets" : 0,
					"patching_rect" : [ 33.0, 18.0, 25.0, 25.0 ],
					"id" : "obj-1",
					"numoutlets" : 1,
					"outlettype" : [ "" ],
					"comment" : ""
				}

			}
, 			{
				"box" : 				{
					"maxclass" : "comment",
					"text" : "By Martin Ritter 2010",
					"numinlets" : 1,
					"fontsize" : 10.0,
					"patching_rect" : [ 96.0, 295.0, 114.0, 18.0 ],
					"id" : "obj-55",
					"numoutlets" : 0,
					"fontname" : "Arial Bold"
				}

			}
, 			{
				"box" : 				{
					"maxclass" : "comment",
					"text" : "www.martin-ritter.com",
					"numinlets" : 1,
					"fontsize" : 10.0,
					"patching_rect" : [ 98.0, 310.0, 108.0, 18.0 ],
					"id" : "obj-57",
					"numoutlets" : 0,
					"fontname" : "Arial"
				}

			}
, 			{
				"box" : 				{
					"maxclass" : "panel",
					"mode" : 1,
					"numinlets" : 1,
					"patching_rect" : [ 84.0, 290.0, 135.0, 40.0 ],
					"id" : "obj-12",
					"bgcolor" : [ 0.380392, 0.529412, 0.964706, 0.670588 ],
					"numoutlets" : 0,
					"grad1" : [ 0.686275, 0.752941, 1.0, 1.0 ]
				}

			}
, 			{
				"box" : 				{
					"maxclass" : "newobj",
					"text" : "abstractionPrint MRrectToRadius 2010 1.1",
					"linecount" : 2,
					"numinlets" : 0,
					"fontsize" : 10.0,
					"patching_rect" : [ 89.0, 295.0, 127.0, 29.0 ],
					"id" : "obj-9",
					"numoutlets" : 0,
					"fontname" : "Arial"
				}

			}
 ],
		"lines" : [ 			{
				"patchline" : 				{
					"source" : [ "obj-44", 0 ],
					"destination" : [ "obj-3", 0 ],
					"hidden" : 0,
					"midpoints" : [  ]
				}

			}
, 			{
				"patchline" : 				{
					"source" : [ "obj-1", 0 ],
					"destination" : [ "obj-48", 0 ],
					"hidden" : 0,
					"midpoints" : [ 42.5, 63.0, 116.5, 63.0 ]
				}

			}
, 			{
				"patchline" : 				{
					"source" : [ "obj-1", 0 ],
					"destination" : [ "obj-49", 0 ],
					"hidden" : 0,
					"midpoints" : [  ]
				}

			}
, 			{
				"patchline" : 				{
					"source" : [ "obj-48", 0 ],
					"destination" : [ "obj-47", 0 ],
					"hidden" : 0,
					"midpoints" : [  ]
				}

			}
, 			{
				"patchline" : 				{
					"source" : [ "obj-47", 0 ],
					"destination" : [ "obj-46", 0 ],
					"hidden" : 0,
					"midpoints" : [  ]
				}

			}
, 			{
				"patchline" : 				{
					"source" : [ "obj-49", 0 ],
					"destination" : [ "obj-43", 0 ],
					"hidden" : 0,
					"midpoints" : [  ]
				}

			}
, 			{
				"patchline" : 				{
					"source" : [ "obj-43", 0 ],
					"destination" : [ "obj-44", 0 ],
					"hidden" : 0,
					"midpoints" : [  ]
				}

			}
, 			{
				"patchline" : 				{
					"source" : [ "obj-43", 1 ],
					"destination" : [ "obj-44", 1 ],
					"hidden" : 0,
					"midpoints" : [ 76.5, 152.0, 59.666668, 152.0 ]
				}

			}
, 			{
				"patchline" : 				{
					"source" : [ "obj-42", 0 ],
					"destination" : [ "obj-44", 2 ],
					"hidden" : 0,
					"midpoints" : [  ]
				}

			}
, 			{
				"patchline" : 				{
					"source" : [ "obj-46", 0 ],
					"destination" : [ "obj-42", 1 ],
					"hidden" : 0,
					"midpoints" : [ 116.5, 153.5, 90.0, 153.5 ]
				}

			}
, 			{
				"patchline" : 				{
					"source" : [ "obj-43", 0 ],
					"destination" : [ "obj-42", 0 ],
					"hidden" : 0,
					"midpoints" : [ 42.5, 160.0, 76.5, 160.0 ]
				}

			}
, 			{
				"patchline" : 				{
					"source" : [ "obj-43", 1 ],
					"destination" : [ "obj-44", 3 ],
					"hidden" : 0,
					"midpoints" : [ 76.5, 150.0, 94.0, 150.0 ]
				}

			}
 ]
	}

}
